<?xml version="1.0" encoding="utf-8"?>
<!-- Generator: Adobe Illustrator 16.0.4, SVG Export Plug-In . SVG Version: 6.00 Build 0)  -->
<!DOCTYPE svg PUBLIC "-//W3C//DTD SVG 1.1//EN" "http://www.w3.org/Graphics/SVG/1.1/DTD/svg11.dtd">
<svg version="1.1" id="Ebene_1" xmlns="http://www.w3.org/2000/svg" xmlns:xlink="http://www.w3.org/1999/xlink" x="0px" y="0px"
	 width="212.122px" height="197.938px" viewBox="0 0 212.122 197.938" enable-background="new 0 0 212.122 197.938"
	 xml:space="preserve">
<path fill="#2F3536" d="M182.129,79.798h-11.303v16.225h11.303c5.264,0,8.713-3.367,8.713-8.11
	C190.842,83.165,187.393,79.798,182.129,79.798 M191.45,130.537l-11.994-24.505h-8.627v24.505h-11.996V69.101h24.076
	c12.508,0,19.932,8.543,19.932,18.812c0,8.626-5.264,13.978-11.219,16.135l13.723,26.489H191.45z"/>
<polygon fill="#2F3536" points="152.342,172.45 152.342,197.644 140.434,197.644 140.434,172.45 121.969,136.208 134.999,136.208 
	146.477,160.972 157.78,136.208 170.809,136.208 "/>
<polygon fill="#2F3536" points="36.118,69.101 24.812,93.866 13.334,69.101 0.307,69.101 18.771,105.341 18.771,130.535 
	30.682,130.535 30.682,105.341 49.146,69.101 "/>
<path fill="#2F3536" d="M81.307,82.561c-1.727-1.984-4.402-3.279-7.682-3.279c-3.277,0-6.041,1.295-7.766,3.279
	c-2.328,2.589-2.934,5.438-2.934,17.255c0,11.822,0.604,14.673,2.934,17.259c1.727,1.985,4.488,3.28,7.766,3.28
	s5.955-1.295,7.682-3.28c2.33-2.586,3.02-5.437,3.02-17.259C84.326,87.999,83.637,85.15,81.307,82.561 M90.193,124.325
	c-4.316,4.313-9.578,6.729-16.566,6.729s-12.34-2.416-16.652-6.729c-6.211-6.214-6.041-13.896-6.041-24.509
	c0-10.609-0.172-18.291,6.041-24.503c4.312-4.312,9.664-6.731,16.652-6.731s12.25,2.419,16.566,6.731
	c6.211,6.214,6.125,13.894,6.125,24.503C96.316,110.431,96.404,118.111,90.193,124.325"/>
<path fill="#2F3536" d="M128.206,131.054c-12.6,0-22.608-8.543-22.608-21.57V69.101h11.995v39.951
	c0,7.076,4.141,11.304,10.613,11.304c6.469,0,10.697-4.229,10.697-11.304V69.101h11.908v40.381
	C150.811,122.511,140.801,131.054,128.206,131.054"/>
<path fill="#2F3536" d="M23.363,198.161c-6.729,0-12.251-2.418-16.566-6.729c-6.211-6.214-6.041-13.892-6.041-24.507
	c0-10.608-0.171-18.293,6.041-24.506c4.315-4.313,9.84-6.729,16.566-6.729c11.479,0,20.453,6.559,22.609,19.418H33.807
	c-1.209-4.92-4.314-8.719-10.355-8.719c-3.279,0-5.953,1.207-7.678,3.194c-2.33,2.586-3.021,5.522-3.021,17.342
	c0,11.822,0.689,14.757,3.021,17.347c1.726,1.983,4.398,3.19,7.678,3.19c6.041,0,9.146-3.797,10.355-8.715h12.166
	C43.816,191.603,34.756,198.161,23.363,198.161"/>
<rect x="53.248" y="136.206" fill="#2F3536" width="11.996" height="61.438"/>
<polygon fill="#2F3536" points="101.307,146.907 101.307,197.644 89.312,197.644 89.312,146.907 73.264,146.907 73.264,136.208 
	117.362,136.208 117.362,146.907 "/>
<path fill="#2F3536" d="M35.348,28.377V3.148h9.643v59.316h-9.643V36.632H12.051v25.833h-9.64V3.148h9.64v25.229H35.348z
	 M32.942,0.742v25.226H14.457V0.742H0v64.131h14.456V39.04h18.486v25.833h1.202H47.4V0.742H32.942z"/>
<path fill="#2F3536" d="M83.027,2.064H73.58L49.992,63.785h13.703l3.947-8.872l21.238-0.077l3.148,8.948h13.535L83.027,2.064z
	 M85.629,44.288l-15.814-0.037l7.965-21.729L85.629,44.288z"/>
<g id="XMLID_1_">
	<polygon fill="#FFFFFF" points="95.352,45.459 95.352,52.578 91.232,52.578 91.232,53.779 91.262,54.919 91.232,54.919 
		91.232,61.328 83.723,61.328 83.723,52.578 58.713,52.578 58.713,44.469 73.842,3.948 83.572,3.948 68.082,45.459 83.723,45.459 
		83.723,33.928 91.232,33.928 91.232,45.459 	"/>
	<polygon fill="#2F3536" points="93.611,54.888 93.611,54.948 93.582,54.948 91.262,54.948 91.262,54.919 93.562,54.919 
		93.402,54.888 	"/>
	<polygon fill="#2F3536" points="93.611,54.948 93.643,63.739 81.312,63.739 81.312,54.989 56.303,54.989 56.303,44.029 
		72.172,1.538 87.053,1.538 71.553,43.049 81.312,43.049 81.312,31.518 93.643,31.518 93.643,43.049 97.762,43.049 97.762,54.989 
		93.611,54.948 93.611,54.888 93.402,54.888 93.562,54.919 91.262,54.919 91.232,53.779 91.232,52.578 95.352,52.578 95.352,45.459 
		91.232,45.459 91.232,33.928 83.723,33.928 83.723,45.459 68.082,45.459 83.572,3.948 73.842,3.948 58.713,44.469 58.713,52.578 
		83.723,52.578 83.723,61.328 91.232,61.328 91.232,54.919 91.262,54.919 91.262,54.948 93.582,54.948 	"/>
</g>
<g>
	<path fill="#2F3536" d="M128.278,64.188v-1.204c-6.471-0.01-11.654-2.287-15.791-6.407c-2.779-2.792-4.174-5.804-4.924-9.414
		c-0.746-3.605-0.795-7.802-0.793-12.704c0-0.542,0.002-1.094,0.002-1.654s-0.002-1.111,0-1.655
		c-0.004-4.898,0.045-9.094,0.791-12.701c0.75-3.609,2.145-6.621,4.924-9.412c4.137-4.122,9.32-6.399,15.791-6.409
		c5.541,0.003,10.385,1.576,14.104,4.636c3.721,3.062,6.375,7.641,7.424,13.866l1.188-0.198v-1.206H138.77v1.206l1.168-0.289
		c-0.645-2.63-1.816-5.045-3.73-6.826c-1.904-1.786-4.557-2.854-7.838-2.846c-3.586-0.006-6.645,1.338-8.625,3.62l0.908,0.791
		l-0.893-0.807c-0.643,0.712-1.207,1.493-1.654,2.438c-0.674,1.422-1.086,3.158-1.342,5.624c-0.25,2.469-0.35,5.699-0.35,10.168
		c0.004,5.963,0.17,9.713,0.66,12.409c0.244,1.347,0.578,2.441,1.029,3.386c0.447,0.944,1.014,1.726,1.654,2.438l0.893-0.805
		l-0.908,0.791c1.98,2.282,5.041,3.625,8.627,3.621c3.279,0.009,5.932-1.062,7.838-2.847c1.914-1.781,3.084-4.198,3.729-6.827
		l-1.168-0.287v1.204h12.225v-1.204l-1.188-0.199c-1.049,6.222-3.723,10.799-7.455,13.865c-3.732,3.06-8.574,4.632-14.07,4.634
		v1.204v1.205c5.949,0,11.381-1.721,15.598-5.183c4.227-3.458,7.188-8.633,8.303-15.328l0.234-1.403h-14.588l-0.225,0.919
		c-0.57,2.313-1.564,4.275-3.033,5.636c-1.471,1.356-3.418,2.193-6.199,2.203c-3.004-0.003-5.318-1.087-6.809-2.793l-0.016-0.013
		v-0.002c-0.529-0.588-0.928-1.151-1.27-1.864c-0.506-1.061-0.881-2.509-1.119-4.833c-0.238-2.32-0.336-5.489-0.336-9.925
		c-0.002-5.912,0.178-9.578,0.621-11.972c0.219-1.199,0.496-2.072,0.834-2.782c0.342-0.711,0.74-1.273,1.27-1.862l0.016-0.016
		c1.486-1.705,3.803-2.787,6.809-2.792c2.781,0.009,4.73,0.845,6.199,2.203c1.467,1.358,2.463,3.321,3.033,5.635l0.225,0.917h14.588
		l-0.232-1.401c-1.115-6.692-4.059-11.87-8.268-15.329c-4.211-3.465-9.643-5.187-15.635-5.184
		c-7.049-0.012-12.963,2.568-17.494,7.115c-3.135,3.124-4.774,6.688-5.581,10.628c-0.811,3.944-0.838,8.273-0.838,13.186
		c-0.004,0.546,0,1.096,0,1.654c0,0.56-0.004,1.109-0.004,1.655c0.004,4.913,0.031,9.244,0.842,13.189
		c0.807,3.938,2.446,7.503,5.581,10.629c4.531,4.545,10.445,7.123,17.494,7.113v-1.205H128.278z"/>
</g>
<path fill="#2F3536" d="M194.465,3.148h11.506L186.618,26.36l21.291,36.105h-11.234l-16.371-28.992l-9.371,11.207v17.785h-9.643
	V3.148h9.643v29.07L194.465,3.148z M193.319,0.742l-19.98,24.678V0.742h-14.459v64.131h14.459V45.556l6.578-7.868l15.354,27.186
	h0.703h16.148l-22.57-38.275l21.561-25.854h-17.793V0.742z"/>
</svg>
