<?xml version="1.0" encoding="utf-8"?>
<!-- Generator: Adobe Illustrator 16.0.4, SVG Export Plug-In . SVG Version: 6.00 Build 0)  -->
<!DOCTYPE svg PUBLIC "-//W3C//DTD SVG 1.1//EN" "http://www.w3.org/Graphics/SVG/1.1/DTD/svg11.dtd">
<svg version="1.1" id="Ebene_1" xmlns="http://www.w3.org/2000/svg" xmlns:xlink="http://www.w3.org/1999/xlink" x="0px" y="0px"
	 width="346px" height="22px" viewBox="-0.259 0 346 22" enable-background="new -0.259 0 346 22" xml:space="preserve">
<path fill="#FFFFFF" d="M142.046,3.994h-3.952V9.67h3.952c1.845,0,3.05-1.178,3.05-2.836C145.098,5.173,143.891,3.994,142.046,3.994
	 M145.309,21.748l-4.196-8.574h-3.019v8.574h-4.197V0.251h8.423c4.377,0,6.975,2.988,6.975,6.583c0,3.018-1.841,4.89-3.925,5.644
	l4.801,9.27H145.309L145.309,21.748z"/>
<polygon fill="#FFFFFF" points="90.957,0.252 87.002,8.918 82.985,0.252 78.43,0.252 84.889,12.934 84.889,21.748 89.057,21.748 
	89.057,12.934 95.518,0.252 "/>
<path fill="#FFFFFF" d="M106.77,4.961c-0.604-0.693-1.542-1.146-2.688-1.146c-1.147,0-2.113,0.453-2.718,1.146
	c-0.813,0.906-1.026,1.903-1.026,6.039c0,4.137,0.213,5.134,1.026,6.038c0.604,0.695,1.57,1.148,2.718,1.148
	c1.146,0,2.083-0.453,2.688-1.148c0.813-0.904,1.056-1.901,1.056-6.038C107.826,6.864,107.583,5.867,106.77,4.961 M109.879,19.575
	c-1.512,1.511-3.351,2.354-5.797,2.354c-2.445,0-4.316-0.845-5.828-2.354c-2.173-2.174-2.112-4.86-2.112-8.575
	c0-3.714-0.061-6.4,2.112-8.574c1.512-1.509,3.384-2.355,5.829-2.355c2.446,0,4.285,0.848,5.796,2.356
	c2.174,2.174,2.143,4.86,2.143,8.575C112.02,14.714,112.053,17.401,109.879,19.575"/>
<path fill="#FFFFFF" d="M123.178,21.839c-4.408,0-7.91-2.987-7.91-7.547V0.161h4.199v13.979c0,2.478,1.447,3.954,3.711,3.954
	c2.267,0,3.744-1.479,3.744-3.954V0.161h4.167v14.131C131.089,18.85,127.587,21.839,123.178,21.839"/>
<polygon fill="#FFFFFF" points="213.16,12.932 213.16,21.748 208.993,21.748 208.993,12.932 202.533,0.251 207.092,0.251 
	211.107,8.917 215.062,0.251 219.622,0.251 "/>
<path fill="#FFFFFF" d="M168.031,21.93c-2.355,0-4.288-0.846-5.797-2.355c-2.174-2.174-2.113-4.859-2.113-8.574
	c0-3.715-0.061-6.401,2.113-8.575c1.509-1.509,3.441-2.354,5.797-2.354c4.016,0,7.154,2.295,7.908,6.794h-4.256
	c-0.424-1.721-1.51-3.05-3.623-3.05c-1.146,0-2.082,0.422-2.687,1.118c-0.815,0.905-1.058,1.932-1.058,6.069
	c0,4.136,0.242,5.164,1.058,6.068c0.604,0.695,1.539,1.117,2.687,1.117c2.113,0,3.199-1.33,3.623-3.049h4.256
	C175.186,19.635,172.016,21.93,168.031,21.93"/>
<rect x="178.486" y="0.252" fill="#FFFFFF" width="4.197" height="21.496"/>
<polygon fill="#FFFFFF" points="195.305,3.995 195.305,21.748 191.105,21.748 191.105,3.995 185.49,3.995 185.49,0.251 
	200.92,0.251 200.92,3.995 "/>
<path fill="#2F3536" d="M12.254,9.519V1.081h3.227v19.836h-3.227v-8.64h-7.79v8.64H1.24V1.081h3.224v8.438H12.254z M11.451,0.277
	v8.437H5.269V0.277H0.436v21.445h4.833v-8.64h6.183v8.64h0.401h4.433V0.277H11.451z"/>
<path fill="#FFFFFF" d="M28.2,0.68h-3.16L17.152,21.32h4.583l1.321-2.966l7.103-0.025l1.053,2.991h4.526L28.2,0.68z M29.07,14.8
	l-5.287-0.014l2.662-7.266L29.07,14.8z"/>
<g>
	<path fill="#2F3536" d="M43.332,21.495v-0.402c-2.164-0.004-3.896-0.766-5.278-2.143c-0.931-0.934-1.397-1.939-1.646-3.146
		c-0.25-1.206-0.266-2.61-0.266-4.248c0-0.182,0-0.366,0-0.553c0-0.188,0-0.373,0-0.555c0-1.638,0.015-3.041,0.265-4.247
		c0.25-1.207,0.717-2.214,1.646-3.146c1.383-1.378,3.115-2.142,5.278-2.144c1.854,0,3.473,0.525,4.719,1.55
		c1.242,1.023,2.132,2.556,2.48,4.638l0.398-0.066V6.627H46.84V7.03l0.392-0.097c-0.215-0.88-0.608-1.688-1.247-2.283
		c-0.639-0.597-1.524-0.955-2.621-0.953c-1.2-0.001-2.224,0.449-2.886,1.211l0.305,0.265l-0.302-0.27
		c-0.212,0.238-0.402,0.499-0.551,0.815c-0.227,0.475-0.364,1.056-0.449,1.88c-0.084,0.827-0.116,1.904-0.116,3.4
		c0.001,1.994,0.056,3.248,0.22,4.149c0.083,0.45,0.193,0.815,0.346,1.133c0.148,0.314,0.338,0.577,0.551,0.814l0.302-0.269
		l-0.305,0.264c0.662,0.764,1.686,1.213,2.886,1.211c1.096,0.003,1.982-0.355,2.621-0.953c0.639-0.596,1.031-1.403,1.247-2.283
		l-0.391-0.096v0.402h4.088V14.97l-0.398-0.065c-0.349,2.08-1.243,3.611-2.491,4.636s-2.868,1.551-4.707,1.551V21.495l0.001,0.402
		c1.991,0.001,3.808-0.576,5.219-1.732c1.412-1.156,2.401-2.889,2.775-5.127l0.079-0.469h-4.88l-0.075,0.307
		c-0.189,0.773-0.522,1.431-1.015,1.886c-0.491,0.452-1.145,0.733-2.073,0.735c-1.005,0-1.78-0.362-2.278-0.934l-0.004-0.004v-0.002
		c-0.176-0.196-0.309-0.385-0.423-0.623c-0.17-0.354-0.295-0.839-0.374-1.616c-0.08-0.774-0.114-1.835-0.114-3.317
		c0-1.979,0.061-3.205,0.208-4.005c0.074-0.4,0.167-0.693,0.279-0.931c0.114-0.237,0.247-0.425,0.423-0.623l0.005-0.004
		c0.498-0.571,1.273-0.933,2.279-0.935c0.927,0.003,1.58,0.283,2.072,0.737c0.492,0.453,0.825,1.109,1.016,1.884l0.075,0.308h4.88
		l-0.079-0.47c-0.374-2.237-1.354-3.97-2.765-5.127c-1.409-1.157-3.227-1.733-5.229-1.733C40.979,0.099,39,0.961,37.485,2.481
		c-1.048,1.046-1.598,2.238-1.867,3.556c-0.271,1.318-0.28,2.767-0.28,4.409c-0.001,0.184,0,0.366,0,0.555
		c0,0.187-0.001,0.369-0.001,0.553c0.001,1.643,0.011,3.092,0.281,4.41c0.269,1.317,0.818,2.51,1.866,3.555
		c1.515,1.52,3.493,2.382,5.849,2.379L43.332,21.495L43.332,21.495z"/>
</g>
<path fill="#2F3536" d="M65.469,1.081h3.848l-6.473,7.763l7.12,12.075h-3.757l-5.476-9.696l-3.134,3.749v5.947h-3.226V1.081h3.226
	v9.723L65.469,1.081z M65.085,0.277L58.402,8.53V0.277h-4.836v21.445h4.836v-6.459l2.2-2.632l5.134,9.091h0.235h5.4L63.825,8.924
	l7.21-8.646H65.085z"/>
<g>
	<g>
		<path fill="#2F3536" d="M285.771,21.93c-3.526,0-5.873-0.855-7.847-2.857l-0.331-0.334l3.269-3.27l0.335,0.336
			c1.073,1.072,2.588,1.594,4.632,1.594c2.1,0,3.165-0.695,3.165-2.066c0-0.619-0.163-1.086-0.484-1.387
			c-0.296-0.273-0.647-0.459-1.567-0.6L284.464,13c-1.873-0.275-3.262-0.875-4.25-1.832c-1.09-1.091-1.617-2.523-1.617-4.385
			c0-4.015,3.069-6.713,7.638-6.713c3.013,0,5.163,0.78,6.972,2.53l0.35,0.338l-3.215,3.179l-0.334-0.319
			c-1.184-1.131-2.63-1.283-3.889-1.283c-1.667,0-2.702,0.814-2.702,2.124c0,0.262,0.059,0.757,0.455,1.126
			c0.369,0.343,0.97,0.593,1.647,0.686l2.429,0.347c1.908,0.264,3.199,0.792,4.185,1.712c1.154,1.094,1.739,2.677,1.739,4.706
			C293.871,19.23,290.616,21.93,285.771,21.93z M278.939,18.734c1.713,1.568,3.788,2.244,6.832,2.244c4.344,0,7.15-2.262,7.15-5.764
			c0-1.758-0.485-3.109-1.44-4.015c-0.831-0.775-1.962-1.228-3.666-1.463l-2.429-0.347c-0.877-0.121-1.646-0.451-2.162-0.931
			c-0.489-0.457-0.758-1.103-0.758-1.821c0-1.418,0.956-3.074,3.651-3.074c1.254,0,2.835,0.149,4.197,1.242l1.873-1.852
			c-1.559-1.353-3.37-1.936-5.954-1.936c-4.062,0-6.688,2.263-6.688,5.764c0,1.598,0.437,2.81,1.334,3.708
			c0.835,0.809,2.053,1.323,3.719,1.569l2.48,0.346c1.019,0.154,1.58,0.383,2.077,0.844c0.516,0.482,0.787,1.201,0.787,2.082
			c0,1.916-1.5,3.016-4.114,3.016c-2.103,0-3.729-0.508-4.954-1.549L278.939,18.734z M345.481,21.756h-4.314l-7.411-11.484v11.484
			h-4.964V0.243h4.314l7.411,11.46V0.243h4.964V21.756z M341.685,20.807h2.848V1.193h-3.064v13.725L332.59,1.193h-2.849v19.613
			h3.065V7.049L341.685,20.807z M327.258,21.756h-14.494V0.243h14.494v4.531h-9.53v3.874h8.115v4.529h-8.115v4.047h9.53V21.756z
			 M313.713,20.807h12.596v-2.633h-9.53v-5.945h8.115V9.598h-8.115V3.825h9.53V1.193h-12.596V20.807z M303.072,21.756h-7.896V0.243
			h7.896c2.396,0,4.39,0.728,5.766,2.104c2.257,2.257,2.24,4.947,2.222,7.797c-0.002,0.255-0.003,0.511-0.003,0.77
			c0,0.258,0.001,0.515,0.003,0.771c0.018,2.807,0.036,5.711-2.222,7.969C307.462,21.029,305.468,21.756,303.072,21.756z
			 M296.125,20.807h6.947c2.139,0,3.899-0.631,5.095-1.826c1.977-1.977,1.96-4.559,1.943-7.291
			c-0.002-0.258-0.004-0.517-0.004-0.776c0-0.261,0.002-0.52,0.004-0.775c0.018-2.76,0.032-5.144-1.943-7.12
			c-1.194-1.193-2.956-1.824-5.095-1.824h-6.947V20.807z M276.823,21.756h-14.495V0.243h14.495v4.531h-9.53v3.874h8.115v4.529
			h-8.115v4.047h9.53V21.756z M263.278,20.807h12.596v-2.633h-9.531v-5.945h8.115V9.598h-8.115V3.825h9.531V1.193h-12.596V20.807z
			 M261.706,21.756h-5.726l-4.015-8.203h-2.117v8.203h-4.964V0.243h8.532c4.208,0,7.146,2.784,7.146,6.771
			c0,2.555-1.323,4.628-3.568,5.644L261.706,21.756z M256.573,20.807h3.572l-4.481-8.654l0.509-0.184
			c2.154-0.78,3.44-2.633,3.44-4.954c0-3.428-2.548-5.821-6.196-5.821h-7.583v19.613h3.065v-8.203h3.659L256.573,20.807z
			 M235.193,21.756h-7.896V0.243h7.896c2.396,0,4.39,0.728,5.766,2.104c2.257,2.257,2.239,4.947,2.222,7.797
			c-0.002,0.255-0.003,0.511-0.003,0.77c0,0.258,0.001,0.515,0.003,0.771c0.018,2.807,0.035,5.711-2.222,7.969
			C239.583,21.029,237.589,21.756,235.193,21.756z M228.246,20.807h6.947c2.139,0,3.9-0.631,5.095-1.826
			c1.977-1.977,1.96-4.559,1.943-7.291c-0.002-0.258-0.004-0.517-0.004-0.776c0-0.261,0.002-0.52,0.004-0.775
			c0.018-2.76,0.032-5.144-1.943-7.12c-1.194-1.193-2.956-1.824-5.095-1.824h-6.947V20.807z M302.697,18.174h-3.508V3.825h3.508
			c1.483,0,2.555,0.458,3.369,1.442c0.884,1.088,0.976,2.556,0.976,5.646c0,3.257-0.136,4.784-0.973,5.815
			C305.251,17.717,304.181,18.174,302.697,18.174z M300.14,17.225h2.558c1.195,0,2.009-0.338,2.638-1.098
			c0.652-0.803,0.758-2.195,0.758-5.214c0-3.031-0.115-4.249-0.761-5.044c-0.626-0.756-1.439-1.095-2.635-1.095h-2.558V17.225z
			 M234.818,18.174h-3.508V3.825h3.508c1.484,0,2.555,0.458,3.369,1.442c0.884,1.088,0.976,2.555,0.976,5.646
			c0,3.257-0.136,4.784-0.973,5.815C237.373,17.717,236.302,18.174,234.818,18.174z M232.261,17.225h2.558
			c1.195,0,2.009-0.338,2.638-1.098c0.651-0.803,0.758-2.195,0.758-5.214c0-3.031-0.115-4.249-0.761-5.044
			c-0.626-0.756-1.439-1.095-2.635-1.095h-2.558V17.225z M253.157,10.204h-4.258V3.825h4.258c1.997,0,3.392,1.312,3.392,3.189
			S255.154,10.204,253.157,10.204z M249.849,9.254h3.309c1.483,0,2.442-0.879,2.442-2.239c0-1.361-0.959-2.24-2.442-2.24h-3.309
			V9.254z"/>
	</g>
</g>
</svg>
