<?xml version="1.0" encoding="utf-8"?>
<!-- Generator: Adobe Illustrator 16.0.4, SVG Export Plug-In . SVG Version: 6.00 Build 0)  -->
<!DOCTYPE svg PUBLIC "-//W3C//DTD SVG 1.1//EN" "http://www.w3.org/Graphics/SVG/1.1/DTD/svg11.dtd">
<svg version="1.1" id="Ebene_1" xmlns="http://www.w3.org/2000/svg" xmlns:xlink="http://www.w3.org/1999/xlink" x="0px" y="0px"
	 width="320px" height="22px" viewBox="52.754 3.643 320 22" enable-background="new 52.754 3.643 320 22" xml:space="preserve">
<g>
	<path fill="#FFFFFF" d="M194.8,7.568h-3.953v5.676h3.953c1.844,0,3.049-1.177,3.049-2.836C197.851,8.747,196.645,7.568,194.8,7.568
		 M198.063,25.322l-4.197-8.574h-3.018v8.574h-4.198V3.825h8.423c4.377,0,6.975,2.989,6.975,6.583c0,3.018-1.841,4.89-3.925,5.645
		l4.801,9.269L198.063,25.322L198.063,25.322z"/>
	<polygon fill="#FFFFFF" points="143.711,3.825 139.756,12.491 135.739,3.825 131.183,3.825 137.642,16.506 137.642,25.321 
		141.81,25.321 141.81,16.506 148.271,3.825 	"/>
	<path fill="#FFFFFF" d="M159.523,8.534c-0.604-0.693-1.542-1.146-2.687-1.146c-1.148,0-2.114,0.453-2.718,1.146
		c-0.814,0.907-1.026,1.904-1.026,6.039c0,4.137,0.212,5.134,1.026,6.039c0.604,0.694,1.57,1.148,2.718,1.148
		c1.145,0,2.083-0.454,2.687-1.148c0.814-0.905,1.056-1.902,1.056-6.039C160.58,10.438,160.337,9.441,159.523,8.534 M162.633,23.149
		c-1.512,1.51-3.351,2.354-5.797,2.354s-4.317-0.845-5.828-2.354c-2.173-2.174-2.113-4.861-2.113-8.576
		c0-3.713-0.06-6.4,2.113-8.574c1.511-1.509,3.383-2.355,5.829-2.355s4.285,0.847,5.796,2.356c2.173,2.174,2.142,4.861,2.142,8.575
		C164.774,18.287,164.806,20.975,162.633,23.149"/>
	<path fill="#FFFFFF" d="M175.932,25.503c-4.408,0-7.91-2.988-7.91-7.547V3.825h4.198v13.979c0,2.478,1.448,3.955,3.712,3.955
		c2.266,0,3.744-1.479,3.744-3.955V3.825h4.167v14.131C183.843,22.514,180.341,25.503,175.932,25.503"/>
	<polygon fill="#FFFFFF" points="265.914,16.506 265.914,25.322 261.747,25.322 261.747,16.506 255.287,3.825 259.846,3.825 
		263.861,12.491 267.817,3.825 272.376,3.825 	"/>
	<path fill="#FFFFFF" d="M220.785,25.503c-2.355,0-4.288-0.845-5.797-2.355c-2.174-2.174-2.113-4.86-2.113-8.574
		s-0.061-6.401,2.113-8.575c1.509-1.509,3.441-2.354,5.797-2.354c4.016,0,7.154,2.295,7.909,6.794h-4.256
		c-0.425-1.721-1.51-3.05-3.624-3.05c-1.146,0-2.082,0.422-2.686,1.118c-0.815,0.905-1.057,1.932-1.057,6.069
		c0,4.136,0.241,5.163,1.057,6.069c0.604,0.694,1.539,1.116,2.686,1.116c2.114,0,3.199-1.329,3.624-3.049h4.256
		C227.939,23.208,224.77,25.503,220.785,25.503"/>
	<rect x="231.24" y="3.825" fill="#FFFFFF" width="4.198" height="21.496"/>
	<polygon fill="#FFFFFF" points="248.059,7.569 248.059,25.322 243.859,25.322 243.859,7.569 238.244,7.569 238.244,3.825 
		253.674,3.825 253.674,7.569 	"/>
	<path fill="#2F3536" d="M65.008,13.125V4.688h3.226v19.836h-3.226v-8.64h-7.79v8.64h-3.224V4.688h3.224v8.437H65.008z
		 M64.205,3.884v8.436h-6.183V3.884h-4.833v21.445h4.833V16.69h6.183v8.639h0.401h4.433V3.884H64.205z"/>
	<path fill="#FFFFFF" d="M80.954,4.325h-3.16l-7.888,20.641h4.583L75.81,22l7.103-0.025l1.053,2.991h4.526L80.954,4.325z
		 M81.824,18.445l-5.287-0.013l2.662-7.266L81.824,18.445z"/>
	<g>
		<path fill="#2F3536" d="M96.086,25.1v-0.403c-2.164-0.003-3.896-0.765-5.279-2.142c-0.93-0.934-1.397-1.94-1.646-3.147
			c-0.25-1.206-0.266-2.61-0.266-4.248c0-0.182,0-0.366,0-0.553s0-0.372,0-0.554c0-1.638,0.015-3.041,0.265-4.247
			c0.25-1.207,0.717-2.214,1.646-3.147c1.383-1.378,3.116-2.141,5.279-2.143c1.854,0,3.472,0.525,4.718,1.55
			c1.243,1.023,2.132,2.555,2.481,4.637l0.398-0.066v-0.405h-4.088v0.403l0.391-0.097c-0.215-0.88-0.608-1.687-1.247-2.283
			c-0.639-0.597-1.524-0.955-2.621-0.953c-1.2-0.001-2.224,0.449-2.886,1.211l0.305,0.265l-0.302-0.27
			c-0.212,0.238-0.402,0.499-0.551,0.815c-0.226,0.475-0.364,1.056-0.449,1.88c-0.084,0.827-0.116,1.905-0.116,3.401
			c0.001,1.993,0.056,3.247,0.22,4.149c0.083,0.45,0.193,0.816,0.345,1.133c0.149,0.314,0.338,0.577,0.551,0.814l0.302-0.269
			l-0.305,0.265c0.662,0.763,1.686,1.212,2.886,1.21c1.096,0.003,1.982-0.355,2.621-0.953c0.639-0.596,1.031-1.403,1.247-2.283
			l-0.391-0.096v0.403h4.088v-0.403l-0.398-0.065c-0.349,2.08-1.243,3.611-2.491,4.636c-1.248,1.024-2.868,1.55-4.707,1.55
			L96.086,25.1l0.001,0.402c1.991,0.001,3.807-0.576,5.218-1.733c1.413-1.156,2.402-2.888,2.776-5.126l0.079-0.469H99.28
			l-0.075,0.307c-0.19,0.773-0.523,1.43-1.015,1.885c-0.491,0.453-1.144,0.733-2.073,0.736c-1.005-0.001-1.78-0.363-2.278-0.934
			l-0.004-0.004v-0.002c-0.176-0.196-0.309-0.385-0.423-0.623c-0.17-0.354-0.295-0.839-0.374-1.616
			c-0.08-0.775-0.114-1.835-0.114-3.318c0-1.978,0.06-3.204,0.208-4.004c0.074-0.401,0.167-0.694,0.279-0.931
			c0.114-0.237,0.247-0.425,0.423-0.623l0.005-0.004c0.498-0.571,1.273-0.932,2.279-0.934c0.927,0.003,1.58,0.283,2.072,0.737
			c0.492,0.453,0.825,1.109,1.016,1.884l0.075,0.307h4.88l-0.079-0.469c-0.374-2.238-1.355-3.97-2.765-5.127
			c-1.409-1.158-3.226-1.734-5.229-1.734c-2.356-0.004-4.334,0.859-5.849,2.379c-1.048,1.046-1.598,2.238-1.867,3.556
			c-0.271,1.318-0.28,2.766-0.28,4.409c-0.001,0.183,0,0.366,0,0.554c0,0.187-0.001,0.37-0.001,0.553
			c0.001,1.643,0.01,3.092,0.281,4.411c0.268,1.317,0.818,2.509,1.866,3.554c1.515,1.52,3.493,2.382,5.849,2.379V25.1z"/>
	</g>
	<path fill="#2F3536" d="M118.222,4.688h3.848l-6.473,7.762l7.121,12.075h-3.757l-5.476-9.696l-3.134,3.749v5.947h-3.225V4.688
		h3.225v9.722L118.222,4.688z M117.839,3.884l-6.683,8.253V3.884h-4.836v21.445h4.836V18.87l2.2-2.632l5.134,9.091h0.235h5.401
		l-7.547-12.799l7.21-8.646H117.839z"/>
	<g>
		<path fill="#2F3536" d="M372.319,25.35h-4.201l-7.583-11.75v11.75h-4.815V3.905h4.202l7.584,11.724V3.905h4.813V25.35z
			 M368.543,24.571h2.998V4.685h-3.254v13.586l-8.789-13.586h-2.997v19.886h3.256V10.953L368.543,24.571z M353.135,25.35h-4.815
			V3.905h4.815V25.35z M349.1,24.571h3.256V4.685H349.1V24.571z M346.11,25.35h-14.19V3.905h4.814v17.067h9.376V25.35z
			 M332.699,24.571h12.631v-2.819h-9.375V4.685h-3.256V24.571z M331.064,25.35h-5.557l-4.036-8.242h-2.268v8.242h-4.815V3.905h8.488
			c4.178,0,7.096,2.763,7.096,6.718c0,2.563-1.346,4.638-3.62,5.63L331.064,25.35z M325.994,24.571h3.787l-4.523-8.736l0.418-0.15
			c2.202-0.798,3.517-2.691,3.517-5.062c0-3.496-2.596-5.938-6.315-5.938h-7.707v19.886h3.254v-8.244h3.535L325.994,24.571z
			 M312.092,25.35h-14.393V3.905h14.393v4.379h-9.58v4.068h8.158v4.379h-8.158v4.241h9.58V25.35z M298.479,24.571h12.833v-2.819
			h-9.579v-5.801h8.156v-2.82h-8.156V7.505h9.579v-2.82h-12.833V24.571z M289.091,25.35h-9.04V3.905h8.691
			c4.18,0,6.775,2.374,6.775,6.196c0,1.921-1.028,3.445-2.158,4.251c1.111,0.694,2.449,2.07,2.449,4.66
			C295.809,22.921,293.234,25.35,289.091,25.35z M280.831,24.571h8.26c3.663,0,5.938-2.131,5.938-5.561
			c0-2.539-1.424-3.734-2.62-4.29l-0.754-0.352l0.753-0.355c0.806-0.381,2.331-1.688,2.331-3.914c0-3.391-2.242-5.416-5.996-5.416
			h-7.911V24.571z M288.684,21.753h-4.6v-5.859h4.6c1.878,0,3.09,1.144,3.09,2.914C291.773,20.596,290.562,21.753,288.684,21.753z
			 M284.865,20.971h3.818c1.447,0,2.311-0.809,2.311-2.164c0-1.336-0.863-2.136-2.311-2.136h-3.818V20.971z M322.615,13.741h-4.193
			V7.505h4.193c1.955,0,3.322,1.281,3.322,3.118C325.938,12.458,324.571,13.741,322.615,13.741z M319.204,12.961h3.411
			c1.521,0,2.543-0.939,2.543-2.338c0-1.398-1.021-2.338-2.543-2.338h-3.411V12.961z M288.422,13.045h-4.338v-5.54h4.338
			c1.859,0,3.061,1.087,3.061,2.769C291.482,11.957,290.281,13.045,288.422,13.045z M284.865,12.264h3.557
			c1.449,0,2.281-0.726,2.281-1.99c0-1.266-0.832-1.99-2.281-1.99h-3.557V12.264z"/>
	</g>
</g>
</svg>
