<?xml version="1.0" encoding="utf-8"?>
<!-- Generator: Adobe Illustrator 16.0.4, SVG Export Plug-In . SVG Version: 6.00 Build 0)  -->
<!DOCTYPE svg PUBLIC "-//W3C//DTD SVG 1.1//EN" "http://www.w3.org/Graphics/SVG/1.1/DTD/svg11.dtd">
<svg version="1.1" id="Ebene_1" xmlns="http://www.w3.org/2000/svg" xmlns:xlink="http://www.w3.org/1999/xlink" x="0px" y="0px"
	 width="278px" height="268px" viewBox="0 0 278 268" enable-background="new 0 0 278 268" xml:space="preserve">
<g>
	<path fill="#FFFFFF" d="M182.844,79.798h-11.303v16.225h11.303c5.264,0,8.713-3.367,8.713-8.11
		C191.557,83.165,188.107,79.798,182.844,79.798 M192.164,130.537l-11.994-24.505h-8.627v24.505h-11.996V69.101h24.076
		c12.508,0,19.932,8.543,19.932,18.812c0,8.626-5.264,13.977-11.219,16.135l13.723,26.489H192.164z"/>
	<polygon fill="#FFFFFF" points="153.057,172.45 153.057,197.644 141.149,197.644 141.149,172.45 122.684,136.208 135.713,136.208 
		147.191,160.972 158.494,136.208 171.524,136.208 	"/>
	<polygon fill="#FFFFFF" points="36.833,69.101 25.528,93.866 14.049,69.101 1.022,69.101 19.486,105.341 19.486,130.535 
		31.397,130.535 31.397,105.341 49.862,69.101 	"/>
	<path fill="#FFFFFF" d="M82.022,82.561c-1.727-1.984-4.403-3.279-7.681-3.279c-3.278,0-6.041,1.295-7.767,3.279
		c-2.328,2.589-2.933,5.438-2.933,17.256c0,11.822,0.604,14.672,2.933,17.258c1.727,1.986,4.488,3.281,7.767,3.281
		c3.277,0,5.954-1.295,7.681-3.281c2.329-2.586,3.02-5.437,3.02-17.258C85.042,87.999,84.352,85.15,82.022,82.561 M90.909,124.325
		c-4.316,4.313-9.579,6.729-16.567,6.729c-6.989,0-12.339-2.415-16.652-6.729c-6.212-6.213-6.042-13.895-6.042-24.508
		c0-10.61-0.171-18.291,6.042-24.504c4.313-4.312,9.664-6.731,16.652-6.731c6.989,0,12.251,2.419,16.567,6.731
		c6.211,6.214,6.124,13.894,6.124,24.504C97.032,110.431,97.12,118.112,90.909,124.325"/>
	<path fill="#FFFFFF" d="M128.92,131.054c-12.599,0-22.606-8.542-22.606-21.57V69.101h11.993v39.951
		c0,7.076,4.141,11.303,10.613,11.303c6.469,0,10.697-4.228,10.697-11.303V69.101h11.908v40.382
		C151.525,122.512,141.516,131.054,128.92,131.054"/>
	<path fill="#FFFFFF" d="M24.078,198.161c-6.728,0-12.251-2.418-16.566-6.73c-6.211-6.213-6.041-13.891-6.041-24.506
		c0-10.609-0.171-18.293,6.041-24.506c4.315-4.314,9.839-6.73,16.566-6.73c11.479,0,20.453,6.559,22.609,19.418H34.521
		c-1.209-4.92-4.314-8.719-10.355-8.719c-3.279,0-5.953,1.207-7.678,3.195c-2.33,2.586-3.02,5.523-3.02,17.342
		c0,11.822,0.689,14.756,3.02,17.346c1.726,1.984,4.398,3.191,7.678,3.191c6.041,0,9.146-3.797,10.355-8.715h12.166
		C44.531,191.603,35.471,198.161,24.078,198.161"/>
	<rect x="53.964" y="136.206" fill="#FFFFFF" width="11.995" height="61.438"/>
	<polygon fill="#FFFFFF" points="102.023,146.907 102.023,197.644 90.028,197.644 90.028,146.907 73.979,146.907 73.979,136.208 
		118.076,136.208 118.076,146.907 	"/>
	<path fill="#2F3536" d="M36.063,28.377V3.148h9.642v59.316h-9.642V36.632H12.765v25.833H3.126V3.148h9.639v25.229H36.063z
		 M33.657,0.742v25.226H15.172V0.742H0.715v64.131h14.456V39.04h18.486v25.833h1.203h13.255V0.742H33.657z"/>
	<path fill="#FFFFFF" d="M83.743,2.064h-9.448L50.707,63.785H64.41l3.948-8.872l21.237-0.077l3.149,8.948h13.536L83.743,2.064z
		 M86.344,44.288l-15.814-0.037l7.965-21.729L86.344,44.288z"/>
	<polyline fill="#2F3536" points="94.119,54.892 94.281,54.914 91.944,54.914 91.944,61.332 84.441,61.332 84.441,52.578 
		59.423,52.578 59.423,44.469 74.555,3.948 84.292,3.948 68.794,45.455 84.441,45.455 84.441,33.925 91.944,33.925 91.944,45.455 
		96.069,45.455 96.069,52.578 91.944,52.578 91.944,53.782 91.977,54.953 94.301,54.953 98.479,54.987 98.479,43.047 94.354,43.047 
		94.354,31.519 82.031,31.519 82.031,43.048 72.265,43.048 87.762,1.54 72.883,1.54 57.018,44.033 57.018,54.987 82.031,54.987 
		82.031,63.741 94.354,63.741 94.329,54.892 	"/>
	<g>
		<path fill="#2F3536" d="M128.993,64.188v-1.204c-6.471-0.01-11.655-2.287-15.792-6.407c-2.779-2.792-4.174-5.804-4.923-9.414
			c-0.746-3.605-0.796-7.802-0.793-12.704c0-0.542,0.001-1.094,0.001-1.654c0-0.56-0.001-1.111,0-1.655
			c-0.003-4.898,0.045-9.094,0.792-12.701c0.749-3.609,2.144-6.621,4.923-9.412c4.137-4.122,9.321-6.399,15.792-6.409
			c5.54,0.003,10.384,1.576,14.103,4.636c3.721,3.062,6.375,7.641,7.424,13.866l1.188-0.198v-1.206h-12.223v1.206l1.168-0.289
			c-0.645-2.63-1.816-5.045-3.73-6.826c-1.906-1.786-4.558-2.854-7.838-2.846c-3.586-0.006-6.646,1.338-8.625,3.62l0.908,0.791
			l-0.894-0.807c-0.642,0.712-1.207,1.493-1.654,2.438c-0.673,1.422-1.086,3.158-1.342,5.624c-0.25,2.469-0.349,5.699-0.349,10.168
			c0.004,5.963,0.17,9.713,0.66,12.409c0.244,1.347,0.578,2.441,1.029,3.386c0.447,0.944,1.014,1.726,1.654,2.438l0.894-0.805
			l-0.909,0.791c1.981,2.282,5.041,3.625,8.627,3.621c3.279,0.009,5.931-1.062,7.838-2.847c1.914-1.781,3.084-4.198,3.729-6.827
			l-1.168-0.287v1.204h12.224v-1.204l-1.188-0.199c-1.048,6.222-3.722,10.799-7.454,13.865c-3.732,3.06-8.575,4.632-14.071,4.634
			V64.188v1.205c5.95,0,11.382-1.721,15.599-5.183c4.226-3.458,7.187-8.633,8.302-15.328l0.235-1.403h-14.588l-0.226,0.919
			c-0.569,2.313-1.563,4.275-3.032,5.636c-1.471,1.356-3.419,2.193-6.199,2.203c-3.004-0.003-5.32-1.087-6.81-2.793l-0.015-0.013
			v-0.002c-0.529-0.588-0.928-1.151-1.269-1.864c-0.506-1.061-0.882-2.509-1.12-4.833c-0.238-2.32-0.336-5.489-0.336-9.925
			c-0.001-5.912,0.178-9.578,0.622-11.972c0.218-1.199,0.496-2.072,0.834-2.782c0.341-0.711,0.739-1.273,1.269-1.862l0.015-0.016
			c1.487-1.705,3.804-2.787,6.81-2.792c2.78,0.009,4.729,0.845,6.199,2.203c1.467,1.358,2.463,3.321,3.032,5.635l0.226,0.917h14.588
			l-0.233-1.401c-1.116-6.692-4.058-11.87-8.267-15.329c-4.211-3.465-9.644-5.187-15.636-5.184
			c-7.048-0.012-12.963,2.568-17.493,7.115c-3.135,3.124-4.775,6.688-5.58,10.628c-0.811,3.944-0.838,8.273-0.838,13.186
			c-0.004,0.546,0,1.096,0,1.654c0,0.56-0.004,1.109-0.004,1.655c0.004,4.913,0.031,9.244,0.842,13.189
			c0.805,3.938,2.445,7.503,5.58,10.629c4.53,4.545,10.445,7.123,17.493,7.113V64.188L128.993,64.188z"/>
	</g>
	<path fill="#2F3536" d="M195.18,3.148h11.505L187.332,26.36l21.291,36.105h-11.234l-16.371-28.992l-9.372,11.207v17.785h-9.642
		V3.148h9.642v29.07L195.18,3.148z M194.034,0.742L174.053,25.42V0.742h-14.459v64.131h14.459V45.556l6.578-7.868l15.354,27.186
		h0.703h16.149l-22.571-38.275l21.56-25.854h-17.792V0.742z"/>
	<g>
		<path fill="#2F3536" d="M277.336,267.776h-12.629l-22.794-35.322v35.322h-14.472v-64.463h12.63l22.794,35.236v-35.236h14.471
			V267.776L277.336,267.776z M265.984,265.429h9.007v-59.771h-9.782v40.838l-26.412-40.838h-9.009v59.771h9.782v-40.93
			L265.984,265.429z M219.668,267.776h-14.471v-64.463h14.471V267.776z M207.543,265.429h9.783v-59.771h-9.783V265.429z
			 M198.555,267.776h-42.65v-64.463h14.471v51.297h28.18V267.776L198.555,267.776z M158.248,265.429h37.963v-8.475h-28.179v-51.299
			h-9.784V265.429z M153.332,267.776h-16.703l-12.127-24.779h-6.82v24.779h-14.473v-64.463h25.514
			c12.557,0,21.328,8.303,21.328,20.189c0,7.703-4.041,13.939-10.881,16.924L153.332,267.776z M138.09,265.429h11.389l-13.6-26.26
			l1.256-0.453c6.619-2.398,10.57-8.086,10.57-15.213c0-10.508-7.806-17.848-18.982-17.848h-23.17v59.773h9.783v-24.775h10.627
			L138.09,265.429z M96.307,267.776H53.044v-64.463h43.263v13.162H67.515V228.7h24.517v13.164H67.515v12.748h28.792V267.776
			L96.307,267.776z M55.387,265.429h38.576v-8.475H65.171v-17.439h24.517v-8.473H65.171V214.13h28.792v-8.475H55.387V265.429z
			 M27.172,267.776H0v-64.463h26.124c12.562,0,20.366,7.135,20.366,18.621c0,5.775-3.095,10.354-6.482,12.777
			c3.335,2.086,7.356,6.219,7.356,14.004C47.363,260.472,39.625,267.776,27.172,267.776z M2.345,265.429h24.827
			c11.01,0,17.849-6.4,17.849-16.713c0-7.633-4.281-11.227-7.874-12.895l-2.268-1.055l2.264-1.068
			c2.423-1.145,7.005-5.074,7.005-11.766c0-10.191-6.736-16.277-18.021-16.277H2.346L2.345,265.429L2.345,265.429z M25.95,256.956
			H12.127v-17.609H25.95c5.641,0,9.287,3.439,9.287,8.762C35.236,253.481,31.59,256.956,25.95,256.956z M14.471,254.612H25.95
			c4.347,0,6.943-2.434,6.943-6.506c0-4.02-2.598-6.416-6.943-6.416H14.471V254.612z M127.938,232.878h-12.603v-18.746h12.603
			c5.878,0,9.983,3.854,9.983,9.373C137.922,229.022,133.816,232.878,127.938,232.878z M117.68,230.534h10.259
			c4.569,0,7.64-2.824,7.64-7.029c0-4.203-3.07-7.029-7.64-7.029H117.68V230.534z M25.164,230.784H12.127v-16.652h13.037
			c5.587,0,9.199,3.268,9.199,8.326C34.363,227.515,30.751,230.784,25.164,230.784z M14.471,228.44h10.693
			c4.356,0,6.854-2.184,6.854-5.984s-2.498-5.982-6.854-5.982H14.471V228.44z"/>
	</g>
</g>
</svg>
