<?xml version="1.0" encoding="utf-8"?>
<!-- Generator: Adobe Illustrator 16.0.4, SVG Export Plug-In . SVG Version: 6.00 Build 0)  -->
<!DOCTYPE svg PUBLIC "-//W3C//DTD SVG 1.1//EN" "http://www.w3.org/Graphics/SVG/1.1/DTD/svg11.dtd">
<svg version="1.1" id="Ebene_1" xmlns="http://www.w3.org/2000/svg" xmlns:xlink="http://www.w3.org/1999/xlink" x="0px" y="0px"
	 width="382px" height="22px" viewBox="-0.411 0 382 22" enable-background="new -0.411 0 382 22" xml:space="preserve">
<path fill="#FFFFFF" d="M142.046,3.994h-3.952v5.677h3.952c1.845,0,3.05-1.178,3.05-2.836
	C145.098,5.174,143.891,3.994,142.046,3.994 M145.309,21.748l-4.196-8.574h-3.019v8.574h-4.197V0.252h8.423
	c4.377,0,6.975,2.988,6.975,6.583c0,3.018-1.841,4.89-3.925,5.644l4.801,9.27H145.309L145.309,21.748z"/>
<polygon fill="#FFFFFF" points="90.957,0.252 87.002,8.918 82.985,0.252 78.43,0.252 84.889,12.934 84.889,21.748 89.057,21.748 
	89.057,12.934 95.518,0.252 "/>
<path fill="#FFFFFF" d="M106.77,4.961c-0.604-0.693-1.542-1.146-2.688-1.146c-1.147,0-2.113,0.453-2.718,1.146
	c-0.813,0.906-1.026,1.903-1.026,6.039c0,4.137,0.213,5.134,1.026,6.038c0.604,0.695,1.57,1.148,2.718,1.148
	c1.146,0,2.083-0.453,2.688-1.148c0.813-0.904,1.056-1.901,1.056-6.038C107.826,6.864,107.583,5.867,106.77,4.961 M109.879,19.575
	c-1.512,1.511-3.351,2.354-5.797,2.354c-2.445,0-4.316-0.845-5.828-2.354c-2.173-2.174-2.112-4.86-2.112-8.575
	c0-3.714-0.061-6.4,2.112-8.574c1.512-1.509,3.384-2.355,5.829-2.355c2.446,0,4.285,0.848,5.796,2.356
	c2.174,2.174,2.143,4.86,2.143,8.575C112.02,14.714,112.053,17.401,109.879,19.575"/>
<path fill="#FFFFFF" d="M123.178,21.839c-4.408,0-7.91-2.987-7.91-7.547V0.161h4.199v13.979c0,2.478,1.447,3.954,3.711,3.954
	c2.267,0,3.744-1.479,3.744-3.954V0.161h4.167v14.131C131.089,18.85,127.587,21.839,123.178,21.839"/>
<polygon fill="#FFFFFF" points="213.16,12.932 213.16,21.748 208.993,21.748 208.993,12.932 202.533,0.252 207.092,0.252 
	211.107,8.918 215.062,0.252 219.622,0.252 "/>
<path fill="#FFFFFF" d="M168.031,21.93c-2.355,0-4.288-0.846-5.797-2.355c-2.174-2.174-2.113-4.859-2.113-8.574
	s-0.061-6.401,2.113-8.575c1.509-1.509,3.441-2.354,5.797-2.354c4.016,0,7.154,2.295,7.908,6.794h-4.256
	c-0.424-1.721-1.51-3.05-3.623-3.05c-1.146,0-2.082,0.422-2.687,1.118c-0.815,0.905-1.058,1.932-1.058,6.069
	c0,4.137,0.242,5.164,1.058,6.068c0.604,0.695,1.539,1.117,2.687,1.117c2.113,0,3.199-1.33,3.623-3.049h4.256
	C175.186,19.635,172.016,21.93,168.031,21.93"/>
<rect x="178.486" y="0.252" fill="#FFFFFF" width="4.197" height="21.496"/>
<polygon fill="#FFFFFF" points="195.305,3.995 195.305,21.748 191.105,21.748 191.105,3.995 185.49,3.995 185.49,0.252 
	200.92,0.252 200.92,3.995 "/>
<path fill="#2F3536" d="M12.254,9.519V1.081h3.227v19.836h-3.227v-8.64h-7.79v8.64H1.24V1.081h3.224v8.438H12.254z M11.451,0.277
	v8.437H5.269V0.277H0.436v21.445h4.833v-8.64h6.183v8.64h0.401h4.433V0.277H11.451z"/>
<path fill="#FFFFFF" d="M28.2,0.68h-3.16L17.152,21.32h4.583l1.321-2.966l7.103-0.025l1.053,2.991h4.526L28.2,0.68z M29.07,14.8
	l-5.287-0.014l2.662-7.266L29.07,14.8z"/>
<g>
	<path fill="#2F3536" d="M43.332,21.495v-0.402c-2.164-0.004-3.896-0.766-5.278-2.143c-0.931-0.934-1.397-1.939-1.646-3.146
		c-0.25-1.206-0.266-2.61-0.266-4.248c0-0.182,0-0.366,0-0.553c0-0.188,0-0.373,0-0.555c0-1.638,0.015-3.041,0.265-4.247
		c0.25-1.207,0.717-2.214,1.646-3.146c1.383-1.378,3.115-2.142,5.278-2.144c1.854,0,3.473,0.525,4.719,1.55
		c1.242,1.023,2.132,2.556,2.48,4.638l0.398-0.066V6.627H46.84V7.03l0.392-0.097c-0.215-0.88-0.608-1.688-1.247-2.283
		c-0.639-0.597-1.524-0.955-2.621-0.953c-1.2-0.001-2.224,0.449-2.886,1.211l0.305,0.265l-0.302-0.27
		c-0.212,0.238-0.402,0.499-0.551,0.815c-0.227,0.475-0.364,1.056-0.449,1.88c-0.084,0.827-0.116,1.904-0.116,3.4
		c0.001,1.994,0.056,3.248,0.22,4.149c0.083,0.45,0.193,0.815,0.346,1.133c0.148,0.314,0.338,0.577,0.551,0.814l0.302-0.269
		l-0.305,0.264c0.662,0.764,1.686,1.213,2.886,1.211c1.096,0.003,1.982-0.355,2.621-0.953c0.639-0.596,1.031-1.403,1.247-2.283
		l-0.391-0.096v0.402h4.088V14.97l-0.398-0.065c-0.349,2.08-1.243,3.611-2.491,4.636s-2.868,1.551-4.707,1.551V21.495l0.001,0.402
		c1.991,0.001,3.808-0.576,5.219-1.732c1.412-1.156,2.401-2.889,2.775-5.127l0.079-0.469h-4.88l-0.075,0.307
		c-0.189,0.773-0.522,1.431-1.015,1.886c-0.491,0.452-1.145,0.733-2.073,0.735c-1.005,0-1.78-0.362-2.278-0.934l-0.004-0.004v-0.002
		c-0.176-0.196-0.309-0.385-0.423-0.623c-0.17-0.354-0.295-0.839-0.374-1.616c-0.08-0.774-0.114-1.835-0.114-3.317
		c0-1.979,0.061-3.205,0.208-4.005c0.074-0.4,0.167-0.693,0.279-0.931c0.114-0.237,0.247-0.425,0.423-0.623l0.005-0.004
		c0.498-0.571,1.273-0.933,2.279-0.935c0.927,0.003,1.58,0.283,2.072,0.737c0.492,0.453,0.825,1.109,1.016,1.884l0.075,0.308h4.88
		l-0.079-0.47c-0.374-2.237-1.354-3.97-2.765-5.127c-1.409-1.157-3.227-1.733-5.229-1.733C40.979,0.099,39,0.961,37.485,2.481
		c-1.048,1.046-1.598,2.238-1.867,3.556c-0.271,1.318-0.28,2.767-0.28,4.409c-0.001,0.184,0,0.366,0,0.555
		c0,0.187-0.001,0.369-0.001,0.553c0.001,1.643,0.011,3.092,0.281,4.41c0.269,1.317,0.818,2.51,1.866,3.555
		c1.515,1.52,3.493,2.382,5.849,2.379L43.332,21.495L43.332,21.495z"/>
</g>
<path fill="#2F3536" d="M65.469,1.081h3.848l-6.473,7.763l7.12,12.075h-3.757l-5.476-9.696l-3.134,3.749v5.947h-3.226V1.081h3.226
	v9.723L65.469,1.081z M65.085,0.277L58.402,8.53V0.277h-4.836v21.445h4.836v-6.459l2.2-2.632l5.134,9.091h0.235h5.4L63.825,8.924
	l7.21-8.646H65.085z"/>
<g>
	<g>
		<path fill="#2F3536" d="M340.033,21.93c-4.649,0-8.023-3.229-8.023-7.677V0.244h4.864v13.864c0,2.124,1.181,3.393,3.159,3.393
			c1.997,0,3.189-1.269,3.189-3.393V0.244h4.835v14.009C348.058,18.701,344.684,21.93,340.033,21.93z M332.836,1.071v13.182
			c0,1.996,0.72,3.716,2.082,4.973c1.311,1.211,3.127,1.877,5.115,1.877c1.989,0,3.806-0.666,5.116-1.877
			c1.362-1.257,2.082-2.977,2.082-4.973V1.071h-3.183v13.037c0,2.562-1.575,4.219-4.016,4.219c-2.421,0-3.985-1.656-3.985-4.219
			V1.071H332.836z M305.797,21.93c-3.528,0-5.875-0.854-7.848-2.854l-0.288-0.292l3.196-3.197l0.293,0.293
			c1.092,1.091,2.631,1.622,4.704,1.622c2.154,0,3.247-0.722,3.247-2.144c0-0.441-0.088-1.05-0.508-1.441
			c-0.306-0.283-0.668-0.477-1.61-0.619l-2.493-0.349c-1.869-0.275-3.256-0.873-4.239-1.826c-1.083-1.083-1.607-2.509-1.607-4.363
			c0-1.956,0.713-3.626,2.062-4.83c1.364-1.216,3.285-1.858,5.556-1.858c3.012,0,5.161,0.779,6.969,2.527l0.304,0.294l-3.143,3.106
			l-0.291-0.277c-1.206-1.153-2.677-1.309-3.955-1.309c-1.716,0-2.782,0.844-2.782,2.201c0,0.273,0.062,0.79,0.479,1.18
			c0.38,0.353,0.996,0.609,1.692,0.706l2.441,0.349c1.906,0.264,3.194,0.79,4.175,1.704c1.147,1.089,1.729,2.665,1.729,4.689
			C313.879,19.241,310.631,21.93,305.797,21.93z M298.832,18.781c1.745,1.623,3.855,2.321,6.965,2.321
			c2.07,0,3.918-0.549,5.204-1.547c1.342-1.041,2.052-2.533,2.052-4.314c0-1.788-0.495-3.163-1.469-4.087
			c-0.846-0.789-1.995-1.249-3.724-1.488l-2.442-0.349c-0.869-0.12-1.63-0.447-2.14-0.92c-0.479-0.447-0.741-1.08-0.741-1.784
			c0-1.396,0.944-3.028,3.608-3.028c1.342,0,2.877,0.158,4.226,1.271l1.974-1.952c-1.592-1.403-3.438-2.007-6.083-2.007
			c-4.126,0-6.791,2.3-6.791,5.861c0,1.624,0.444,2.858,1.36,3.774c0.851,0.824,2.088,1.349,3.776,1.598l2.495,0.348
			c1.01,0.153,1.565,0.379,2.055,0.833c0.505,0.471,0.771,1.179,0.771,2.046c0,1.109-0.53,2.97-4.074,2.97
			c-2.125,0-3.761-0.519-4.986-1.582L298.832,18.781z M381.437,21.755h-14.451V0.244h14.451v4.429h-9.586v4.025h8.163v4.429h-8.163
			v4.199h9.586V21.755z M367.812,20.929h12.798v-2.776h-9.587V12.3h8.163V9.524h-8.163V3.847h9.587V1.071h-12.798V20.929z
			 M365.604,21.755h-4.864v-8.657h-6.175v8.657h-4.864V0.244h4.864v8.454h6.175V0.244h4.864V21.755z M361.566,20.929h3.211V1.071
			h-3.211v8.453h-7.827V1.071h-3.212v19.857h3.212v-8.657h7.827V20.929z M332.115,21.755H326.5l-4.038-8.25h-2.233v8.25h-4.864
			V0.244h8.518c2.117,0,3.925,0.688,5.228,1.991c1.224,1.224,1.896,2.912,1.896,4.756c0,2.565-1.342,4.645-3.613,5.646
			L332.115,21.755z M327.016,20.929h3.74l-4.523-8.733l0.443-0.161c2.193-0.795,3.504-2.68,3.504-5.043
			c0-3.485-2.59-5.92-6.298-5.92h-7.691v19.857h3.211v-8.251h3.576L327.016,20.929z M296.943,21.755h-14.248V0.244h4.864v17.082
			h9.384V21.755z M283.521,20.929h12.595v-2.776h-9.383V1.071h-3.212V20.929z M281.9,21.755h-5.615l-4.038-8.25h-2.233v8.25h-4.864
			V0.244h8.518c2.117,0,3.925,0.688,5.228,1.991c1.224,1.224,1.896,2.912,1.896,4.756c0,2.565-1.341,4.645-3.613,5.646L281.9,21.755
			z M276.801,20.929h3.74l-4.522-8.733l0.442-0.161c2.194-0.795,3.504-2.68,3.504-5.043c0-3.485-2.59-5.92-6.298-5.92h-7.691v19.857
			h3.212v-8.251h3.575L276.801,20.929z M264.469,21.755h-5.101l-1.221-3.66h-6.756l-1.249,3.66h-10.646l-5.141-9.103l-2.193,2.622
			v6.48h-4.865V0.244h4.865v8.252l6.681-8.252h5.989l-7.234,8.676l7.493,12.706l7.778-21.382h3.745l0.099,0.271L264.469,21.755z
			 M259.964,20.929h3.323l-7.251-19.857h-2.588l-7.224,19.857h3.326l1.249-3.661h7.943L259.964,20.929z M239.979,20.929h3.741
			l-7.13-12.091l6.477-7.767h-3.829l-7.902,9.76v-9.76h-3.211v19.857h3.211v-5.954l3.152-3.769L239.979,20.929z M257.945,14.695
			h-6.298l3.202-9.215L257.945,14.695z M252.81,13.869h3.986l-1.959-5.832L252.81,13.869z M323.621,10.135h-4.22V3.847h4.22
			c1.971,0,3.347,1.293,3.347,3.145C326.968,8.842,325.592,10.135,323.621,10.135z M320.229,9.309h3.393
			c1.507,0,2.521-0.932,2.521-2.317c0-1.387-1.014-2.318-2.521-2.318h-3.393V9.309z M273.405,10.135h-4.218V3.847h4.218
			c1.972,0,3.348,1.293,3.348,3.145C276.753,8.842,275.377,10.135,273.405,10.135z M270.014,9.309h3.392
			c1.509,0,2.521-0.932,2.521-2.317c0-1.387-1.013-2.318-2.521-2.318h-3.392V9.309z"/>
	</g>
</g>
</svg>
