<?xml version="1.0" encoding="utf-8"?>
<!-- Generator: Adobe Illustrator 16.0.4, SVG Export Plug-In . SVG Version: 6.00 Build 0)  -->
<!DOCTYPE svg PUBLIC "-//W3C//DTD SVG 1.1//EN" "http://www.w3.org/Graphics/SVG/1.1/DTD/svg11.dtd">
<svg version="1.1" id="Ebene_1" xmlns="http://www.w3.org/2000/svg" xmlns:xlink="http://www.w3.org/1999/xlink" x="0px" y="0px"
	 width="878px" height="1218px" viewBox="145.519 202.964 878 1218" enable-background="new 145.519 202.964 878 1218"
	 xml:space="preserve">
<g>
	<g>
		<g>
			<g>
				<path fill="none" stroke="#0095BC" stroke-width="4.2682" stroke-miterlimit="10" d="M309.901,370.723l75.041,43.326
					l182.879,0.784l29.794,17.2l44.265-0.264l66.375,38.325l97.144-168.26l59.048-35.059l-33.845-58.562 M335.651,324.525
					l-31.546,54.644 M319.926,384.079l-50.59,87.623l-33.512,19.557 M185.772,310.85l132.327,76.4l22.811-39.511l78.605-46.12"/>
				<polyline fill="none" stroke="#0095BC" stroke-width="15.3648" stroke-miterlimit="10" points="515.992,1064.585 
					515.181,906.195 565.577,818.913 567.821,414.825 				"/>
				<path fill="none" stroke="#0095BC" stroke-width="4.2682" stroke-miterlimit="10" d="M747.19,972.685l43.187,2.489
					 M791.962,1065.861l-1.584-90.688l24.679-2.496l17.415-13.226 M183.636,1001.875l-0.187,26.681l55.219,34.829l553.294,2.477
					l49.785,96.971"/>
				<path fill="none" stroke="#0095BC" stroke-width="2.5602" stroke-miterlimit="10" d="M323.75,1187.951l8.264,12.65l0.135,19.301
					l-4.889,2.338l-0.208,13.398l-7.13-0.694l11.833,1.346 M281.737,1154.44l-22.988-13.274 M266.201,1129.576l-6.88,11.916
					l-0.639,1.108l-13.409-1.575 M289.406,1142.164l-46.861-27.055 M255.08,1107.592c-1.491,1.615-12.271,7.074-12.271,7.074
					l-0.485,0.839l-21.906,37.937 M229.263,1158.545l38.014,21.951l35.131-60.844l93.617-55.566 M162.525,1103.354l53.235,34.565
					l11.11,0.889l0.999,20.723l1.853,38.755 M171.44,1085.287l-20.609,35.697 M669.265,930.122l-43.023,74.521 M630.987,951.322
					l58.341,113.423"/>
				<polyline fill="none" stroke="#0095BC" stroke-width="6.8284" stroke-miterlimit="10" points="360.398,1085.314 
					398.004,1150.938 675.617,1311.221 				"/>
				<path fill="none" stroke="#0095BC" stroke-width="2.5602" stroke-miterlimit="10" d="M503.502,1267.923l55.607-0.734
					l37.284-0.492 M592.451,1301.982l-8.222-4.112l-8.711,4.085l-4.861,2.913 M519.363,1041.747l29.028-2.435l31.129-20.084
					 M479.499,1000.197l10.701,18.414l-74.798,45.322l-16.082-0.513l86.293-51.752 M464.691,942.169l-0.596,29.108l14.716,28.678
					l31.646-19.273l-59.557,36.091l24.741,10.153l15.563,1.699l-0.028-0.284l-0.035-0.277l-0.943-9.452l21.742-11.583l1.033,27.721
					l-1.172,5.771l-19.425-12.206l-2.168-0.264 M471.98,925.545l10.64,16.229l-40.85-0.591 M580.54,932.633l0.152-42.098
					l-0.628,24.288l-34.451-0.201 M366.057,972.595l43.821-23.178l78.72,0.61l8.656-4.1l47.965,0.889l0.378-30.975l0.017-1.22
					l-60.109-33.714 M307.803,1024.492l7.778,14.903 M303.521,1032.772l20.844,12.033l20.852-36.112l20.841-36.099l-28.726-0.382
					l6.459,0.27l0.874,35.732l16.309,29.925l-42.521,26.078l-2.229-8.323l7.029-11.741l13.52,7.81 M284.976,1063.746l22.828-39.254
					l-22.207-12.817l4.116-6.561 M516.52,1075.557l39.477,67.994l-5.161,13.774l-17.49,30.286l-17.706,30.668l42.028-2.399
					l15.042-27.388l32.437-0.305l19.104-1.422l11.436-19.808l-26.333-4.536l-17.911,9.468 M647.3,1246.5l-6.592-3.51l25.082-43.436
					l8.949-3.148l0.476-50.213l-36.905-1.407l-27.607,0.991l-17.768,2.851l-27.152,9.203l-9.786-14.28l1.977-21.465l13.717-21.547
					 M535.8,1120.463l59.027,3.344 M588.432,1077.693l17.366,2.926l5.579,8.802l-7.119,7.067l-0.492,6.567l-32.076-2.518
					l-24.514-26.591l0.808-8.432l14.508-0.507l-26.722,46.286l-3.412,5.901l-46.668-26.943l-30.904,53.534l34.847,20.119
					l14.852-25.716l15.432,8.911l-10.778,18.672l28.154-48.77l8.354-14.475l-3.619-2.088 M595.084,1078.498l8.471-14.669
					 M603.079,1024.193l-5.054,8.754l28.761,16.603 M660.062,1299.39l40.627-25.052l-20.599,36.106l-4.986-2.372l5.521-8.238
					l-17.158-11.173l-5.527-3.19l-0.797,13.253l-26.535-14.308l13.281-35.75l21.506-13.497l4.045-32.964l-21.729-13.823
					l37.375-20.32l1.283-27.721l3.604-0.964l16.031,26.777l-79.708,40.836l-4.71,71.947l-21.85-13.629l-17.2-8.918l12.293-132.583
					l16.559-0.084l0.732-59.769l-0.703-12.852l12.979-22.478l11.048,6.374l-17.047,29.517l-15.146,1.158l10.333-17.9l-59.803-34.531
					l15.344-27.457l8.485-5.007l28.296,47.32l17.763,11.014 M497.306,1206.948l16.932-29.337l4.842-8.378l-8.185-4.73
					l-10.999,19.046 M480.109,1186.6l-1.311,11.943l-0.079,42.36l-7.611,11.866 M498.21,1231.34l14.891,1.483 M478.718,1240.903
					l18.542,1.311l0.312-11.706l0.031-1.138l0.506-19.42 M527.18,1267.362l1.574-21.181l-16.439-1.88l2.157-24.405
					 M511.568,1258.346l0.992,9.723 M482.408,1258.276l29.16,0.069l16.617,0.382l52.071,1.179 M463.506,1225.021l15.622,9.016
					 M426.932,1259.774l9.765,19.6l21.773,11.562 M504.021,1267.451l-9.486-1.158l-22.612-14.072l-34.188,1.603l-10.801,5.951
					l-31.715-51.072 M519.488,1267.5l26.86,15.501l12.272,0.735 M536.428,1292.261l5.309,8.397 M521.236,1299.229l22.002-10.409
					l12.918-21.485 M541.736,1300.658l31.396-17.428l8.163,15.223l0.152,0.298l4.154,7.754"/>
				
					<line fill="none" stroke="#0095BC" stroke-width="8.5364" stroke-miterlimit="10" x1="369.684" y1="1140.84" x2="370.974" y2="1140.174"/>
				<path fill="none" stroke="#0095BC" stroke-width="2.5602" stroke-miterlimit="10" d="M358.872,1087.257l-1.931,18.296
					l33.744,51.412 M380.292,996.39l38.856,22.437l-5.458,9.445l-18.442-10.652l-10.902,18.878l1.796,28.837 M414.777,1010.163
					l-16.479,28.54l0.825,25.938 M421.2,950.359l1.061,18.454l38.297,61.927l51.303,28.746l1.079,4.717 M368.103,1156.693
					l-19.596-35.022l-23.778,18.31l-14.661,11.27l-6.363-1.873l-13.18-7.607l-8.19,14.183l14.384,8.3l-22.671,39.269l18.594,10.743
					l8.281-14.351l21.718-12.483l3.804,14.183l-14.522,3.897l-44.31-25.584 M379.841,1122.565l-42.254,27.734l-2.687,27.229
					l4.112,7.622 M391.932,1141.131l-23.83,15.562l1.422,9.148l-34.261,22.033l-12.625-0.443"/>
				<path fill="none" stroke="#0095BC" stroke-width="8.5364" stroke-miterlimit="10" d="M567.938,715.75l130.254-3.654
					l72.858,44.531 M473.708,1154.412l97.331-171.199l106.031-61.087l318.477-550.079l25.224-16.651 M500.62,1064.453
					l-62.97,109.059"/>
				<path fill="none" stroke="#0095BC" stroke-width="4.2682" stroke-miterlimit="10" d="M602.057,444.675l45.741,26.41L643,479.4
					l-16.639-9.605l143.985-85.056l60.902-35.065l46.585,0.402 M608.338,431.664l-38.166,70.374 M790.307,597.717l-10.984-0.187
					l11.707,16l23.954,15.064 M565.13,414.728l98.152-2.476l-1.544,49.63l-0.638,38.443l92.053-0.452 M569.087,611.685
					L751.29,503.106l37.249,60.323l1.768,34.289l41.359-0.146l25.221,13.941 M741.385,734.982l39.366,0.859 M741.565,697.69
					l8.412,0.639 M741.569,636.194l-0.618,61.28l-0.408,39.685 M724.865,441.165l27.873,50.935l-2.761,206.229l25.689-0.527"/>
				<polyline fill="none" stroke="#0095BC" stroke-width="2.5602" stroke-miterlimit="10" points="532.038,356.81 547.715,358.468 
					562.459,384.211 567.578,393.152 568.209,394.248 568.268,394.359 587.767,384.059 580.54,373.107 554.317,391.849 
					542.438,414.562 				"/>
				
					<line fill="none" stroke="#0095BC" stroke-width="4.2682" stroke-miterlimit="10" x1="546.238" y1="414.256" x2="568.205" y2="394.248"/>
				<path fill="none" stroke="#0095BC" stroke-width="2.5602" stroke-miterlimit="10" d="M337.775,1052.572l29.839,19.545
					l13.583,24.544l-5.614,13.718 M360.426,1037.385l18.934,36.626 M324.285,1106.204l18.08-41.986 M503.502,1267.916l-7.414,15.709
					l-20.013-11.555 M464.483,1265.378l11.593,6.692l7.702-13.344 M472.21,1251.625l-14.03,24.302 M570.81,1266.835l4.092,15.278
					 M604.207,1273.188l-8.624,14.938l8.42,4.862 M587,1277.66l0.51,7.922 M573.129,1283.23l19.866-8.247 M594.435,1300.381
					l19.693,11.374 M580.79,1267.515l35.106,20.271 M592.909,1301.192l11.017-6.977l6.124-21.251 M588.599,1203.104l33.533-7.663
					l13.863-4.474l11.713-2.579 M607.879,1221.666l3.176-33.804 M602.407,1232.172l20.938,12.088l-1.082,14.225l-26.059-15.05
					l-3.731,6.457l42.319,24.44 M624.364,1231.18l-16.484-9.516l-21.479,37.202 M658.66,1195.441l-24.177,41.884l-11.19,19.37
					 M626.293,1206.989l25.736,14.855 M639.522,1122.621l-3.832,44.337l23.186,15.243 M748.019,1123.48l47.445,27.394l-3.856,6.679
					l-69.267-39.996l-21.444,5.743l-88.814-0.486l-0.62,39.138 M755.089,1176.572l17.314-11.979l30.484,18.185l2.799-33.13
					l-43.666-25.21 M706.149,1178.014l58.345-21.848l16.522,1.221 M741.697,1117.453l22.263,1.574l-38.838,67.273l-19.551,33.852
					 M730.361,1135.562l4.169-6.207l20.56,47.216l-14.314,23.511l13.444,0.639l-5.333,8.204l-8.905-5.146l30.74,17.754l0.34,23.067
					l197.714,107.097 M701.035,1215.159l37.555-65.046l-31.688,15.271 M728.61,1199.291l-3.8-0.11l-0.008,15.444 M693.905,1232.123
					l21.609,12.477 M683.513,1217.219l13.812,7.976l-8.614,14.919l-5.794-3.336 M728.971,1254.746l15.39,33.525l-30.526-17.622
					l-4.043-15.099 M692.089,1202.863l36.882,51.883l16.894,2.629l-26.235,45.44 M743.743,1333.081l54.498,31.195 M710.419,1285.323
					l22.054,12.734l-3.085,5.347l231.834,116.23 M702.055,1273.069l16.257,9.391l-11.055,19.148 M642.105,1294.597l7.726,13.372
					l18.927,10.93 M657.699,1303.6l-14.811,8.67 M651.01,1315.182l10.474,6.04 M663.404,1306.595l-6.694,11.583 M702.272,1309.737
					l-0.752,26 M799.5,1286.268l-66.018,35.253l-32.229,1.282l-13.011-0.083l-14.81-12.414 M685.174,1302.829l11.139,6.429
					l21.788-0.194l29.402,16.978l-3.76,7.04l-13.812-7.976l-7.077,12.255 M670.388,1276.475l9.494,16.465l-8.613,14.932
					 M665.4,1278.937l18.871-11.081 M638.597,1264.656l13.068,3.087l13.736,11.193l-20.147,11.243 M694.43,1273.423l-34.31-19.807
					l-20.445,35.418 M659.264,1239.162l35.412,20.446l13.885-3.717l11.249-19.495l20.966-36.314l-45.171-3.808 M680.523,1241.937
					l13.594,7.851l0.51,27.908 M770.351,1066.291l-43.468,75.291l-23.788,41.209l-28.428,49.229l8.246,4.764l-5.784,10.021
					 M824.329,978.954l18.937,10.929 M933.543,803.122L833.459,984.226 M827.113,963.328l14.932,8.622 M767.992,984.447l8.247,4.766
					l-6.426,11.131l-9.135-5.277l-11.589-6.686 M724.38,1050.742l24.725,14.273 M766.899,995.1l-34.598,59.916 M720.336,978.018
					l10.674,15.966l7.043,1.692l15.921,22.852 M730.94,974.037l-13.896,24.065 M772.861,974.488l-23.021,39.871 M755.485,956.733
					l34.787-9.321l-13.808,20.833l43.872-1.401l1.912,0.812 M756.577,932.717l7.861,34.232 M762.254,920.836l12.66,47.257
					l-16.662-1.747l-0.284,6.666 M751.701,933.458l13.882-3.718 M738.927,950.436l8.707,19.128l-16.693,4.474l-2.168-8.072
					 M708.275,940.762l19.155,11.053l10.161-17.587L715.6,972.31l16.687-7.296 M737.15,905.154l-22.252,38.54 M685.307,912.645
					l35.865,20.709 M678.079,866.005l13.586,7.844l-36.005,62.362 M689.162,863.786l-6.433,11.139 M681.942,859.318l12.025,6.943
					 M688.128,846.551l-12.22,21.16 M661.892,897.645l20.494,11.83 M656.892,867.725l3.059,11.423l-10.352,17.935l2.66,9.932
					 M646.321,847.966l29.232,4.403l-0.662,20.71l7.799,2.421l-12.553,19.183l-16.929-9.772l-5.757-17.289 M614.235,865.984
					l42.656,1.74l4.723-36.474l5.833,0.701 M558.481,921.397l-0.363,25.321 M573.598,938.438l-4.113,7.13 M546.196,922.625
					l35.936,19.551 M542.423,968.253l-21.735,37.645 M580.97,936.469l0.472,1.754l-0.773,14.703l-37.987-0.548l1.026,13.655
					l-22.471,9.6l23.359-9.093l26.323,14.6 M613.899,913.9l-18.393,31.848l-50.288,1.061 M628.824,914.795l-0.791,34.289
					 M613.494,868.813l0.405,45.087l45.843,0.326l14.218,8.808 M594.751,829.781l20.046,11.568l-7.976,13.814l-8.295-13.405
					l15.708,24.226l-0.743,2.829l-10.194-2.912l-11.683-7.04l4.502-7.796l-11.832,20.487l-16.701-9.647l7.441,4.598l-5.017,8.69
					 M561.162,828.797l32.961,19.037l21.606-37.43 M883.573,290.911l12.221-21.174 M876.354,262.794l2.597,9.688l24.298,14.03
					l10.785,6.221 M865.614,265.672l10.74-2.878l4.771-1.283l34.791,20.092 M942.593,282.13l-12.227,21.173 M873.352,311.23
					l17.013,9.82l9.24-7.269l-6.313-10.444 M862.917,276.463l10.31,20.578l11.562,6.166 M852.323,283.462l15.774-10.307
					 M864.683,268.155l9.812,17.513l9.724,5.874l-11.305,20.446l-20.591-28.525l-17.269,20.293 M875.188,329.436l-1.678,9.252
					 M878.109,355.825l-4.599-17.138l11.776-3.155 M842.506,341.081l23.445,13.531l11.159,6.443 M915.42,265.437l-34.714,60.129
					l-22.811,13.297l-6.331,10.972 M957.484,289.967c-0.95-0.547-47.271-27.291-47.271-27.291 M724.664,518.792l-1.058,24.557
					l-7.418-0.346l35.464,2.642 M778.386,597.009c-0.538,0.48-18.84-1.435-18.84-1.435l0.67-6.166l-3.024,21.597l-15.958-3.709
					l8.822-13.003 M771.086,577.847l9.354,18.781 M752.603,546.721l18.483,31.125l17.196-1.615 M689.154,434.036l8.295,16.062
					l10.819,6.248 M717.881,555.48l-1.317,11.873l5.805-1.887l2.517,3.814 M703.053,544.87l5.515,6.339l9.314,4.271l1.686,0.756
					l5.188-6.706l-4.335-2.504l10.036,5.798 M670.117,515.886l-6.29,2.142 M677.722,500.608l-8.264,15.688l6.01,3.21
					 M706.854,500.123l-31.386,19.384l18.277,32.847l9.307-7.484l-26.007-44.906l-3.363-21.882l-11.689-0.187l0.766-7.685
					l35.63,1.422 M662.488,500.207l-0.076,16.477l17.231,28.304 M642.671,503.189l18.773-9.356 M637.767,501.677l3.937,2.274
					l-4.424,7.663l-7.282-4.204l16.721,9.654 M628.131,496.114l9.636,5.562l7.27-12.595l9.432-16.327l-5.178-1.942 M643.034,478.485
					l-20.021,9.68 M612.894,482.07l-7.833,13.573 M627.617,460.668l-5.791,10.028l-13.181-7.608l-10.448,18.102l-6.359,11.006
					l-12.979-7.489 M622.159,458.303l-13.059,22.623 M584.403,478.728l27.148,2.04l17.828,13.176l-27.027,46.813 M571.288,514.167
					l8.458,4.883l16.124-27.935l10.032,5.797l-10.216,17.699l-24.593-14.197 M576.004,493.285l40.319,23.281 M616.68,544.571
					l-13.433-1.72l-20.259-11.7 M594.272,636.083l3.308,26.548 M585.692,630.667l-15.34,26.569l11.783,6.803 M572.869,623.267
					l26.341,15.203 M540.044,609.701l19.21,2.469 M527.689,627.366l8.491,13.835 M524.166,638.268l31.227-19.398 M521.44,629.917
					l2.11,7.519l2.719,9.73L521.44,629.917z M537.396,609.292l16.624-4.46l-6.924-25.848l-10.833,3.891l3.683,36.869l-18.653,10.688
					l-7.608-4.397l6.99,26.091 M464.989,640.078l12.881,7.427l59.525-38.214l23.754,12.935 M477.737,705.188l7.434-12.879
					l4.397,2.538l21.624-37.457l51.073-31.009 M479.825,698.204l9.076,5.235l3.207-5.555l-6.589,11.417 M481.08,451.805
					l30.703,17.727 M503.904,434.848l-7.41,12.83l-11.926,20.66 M505.343,372.4l-1.439,62.447l14.051,13.69l-14.502,25.12
					 M479.925,370.015l27.136,2.636l10.882,6.291l12.552-3.364 M398.729,327.599l16.031-7.192 M412.888,351.407l-14.661,25.397
					 M388.739,371.326l19.256,11.117l9.717-7.788 M430.147,294.343l32.111,18.539l4.126,15.396l4.376,2.531l6.671-11.561
					 M425.805,326.78l-7.712,13.363l1.984,9.023 M398.05,355.285l23.303-6.242l13.226-0.077 M395.699,336.801l9.504,5.493
					l-21.507,37.25 M394.866,317.479l3.534,13.17l-4.97,8.614l-7.566,13.101 M416.914,273.356l-7.858,13.614l12.824,21.105
					l-7.119,12.331l11.044,6.374l22.104-38.276l10.271,5.93l-15.872,27.491l-9.193,15.931l3.94,25.224 M392.744,273.093
					l10.206,38.096 M399.565,252.37l7.972,4.605 M408.036,235.337l-4.598,7.962l9.758,5.638L404,264.868l-29.44,18.968
					 M379.706,251.177l43.936,25.369 M375.579,235.781l9.762,5.638l-21.365,36.993l14.391,8.316l15.217,30.009 M366.116,238.541
					l23.376,13.497 M384.033,221.14l-12.013,20.807 M377.389,216.625l12.595,7.269 M459.684,214.122l-55.331,95.833
					 M442.876,204.073l32.371,18.684 M215.976,447.554l26.797,15.472l-6.326,31.771 M200.818,471.141l-2.119,15.41 M175.996,472.521
					l4.147,15.486 M186.744,458.705l-1.658-6.193l-19.495,5.223l-7.005,12.13 M191.562,505.845l7.203-12.477l7.546-0.264
					l67.818,3.113l26.396,16.166 M182.055,500.969l15.016,8.67l-3.332,5.776 M280.758,485.261l27,0.188l0.277-10.618l-21.18-5.458
					l-6.95,0.305l-15.535,25.842l-7.969,13.26l-25.855,10.638l14.1,13.996l-10.431,8.454l-18.22-24.995l-10.722-6.498
					 M263.822,476.716l44.588,25.744l9.484-4.688 M205.801,481.724l-0.039,52.341l5.018,9.98l53.572-30.363l26.941-52.521
					 M146.556,463.228l30.03,17.338l50.951,1.38l1.848-50.676 M663.976,377.47l7.328,4.238 M659.968,329.499l1.258,39.608
					 M628.519,354.611l-10.625,18.399 M606.61,348.349l1.9,7.075l-7.074,1.893l2.874,16.43 M558.839,354.063l10.258-2.753
					l10.909,21.354 M717.306,408.07l9.237-5.639l2.871,5.056 M680.604,381.5l-6.903,11.964 M639.595,373.773l34.701,20.038
					l5.982,13.814 M638.521,413.625l1.83,6.852 M697.075,427.898l19.891,11.479 M699.302,412.634l-12.861,22.284 M683.856,423.855
					l-7.029-14.425 M694.696,388.858l-5.347,9.26l3.279,7.074 M664.042,412.225l28.774-7.712l31.293,37.001 M681.876,500.484
					l37.649-65.2l18.482-32.014 M707.638,469.691l-6.65,11.52l-0.042,18.726 M745.144,478.991l-35.911,20.744 M781.056,488.957
					l-0.582,12.421l18.635,2.594 M745.872,478.409l15.115-8.219 M773.087,460.626l5.604,7.219l66.109,38.166 M798.99,496.919
					l7.345-12.712 M789.337,568.922l14.093,1.149 M747.155,445.459l20.611,35.439l31.715,16.908l-0.395,36.264l2.185,19.003
					l8.975,5.188l-6.817,11.81l9.272,5.355 M755.617,439.779l-24.434,14.009l-10.406,7.685l11.308,16.755 M745.775,421.934
					l36.976,67.21 M768.589,407.979l-23.58,13.573l-13.444,7.726 M780.306,402.188l7.466-1.872l31.403,18.136 M686.346,368.087
					l59.374,34.275l22.893,31.161l50.178-24.08l20.099-0.951 M710.162,330.982l-3.26,14.266l9.127,5.271 M635.527,331.766
					l5.023,18.753l-3.065,5.305l57.21,33.034l21.673-37.542l7.816-10.438l-2.852-7.836 M627.957,343.14l13.843-6.352l4.229-5.937
					l46.362,26.771l-6.045,10.465l-12.116-6.999l-29.01,50.255l35.144-60.873 M626.682,394.636l-12.563-0.492 M606.426,413.022
					l7.438-17.845l-0.669-20.495 M595.771,413.625l0.194-39.255 M581.865,373.323l77.593,0.527l-4.962,10.652l-13.015,15.807
					l-23.868,13.255"/>
				<path fill="none" stroke="#0095BC" stroke-width="2.5602" stroke-miterlimit="10" d="M589.889,1034.493l-17.858,30.938
					 M565.778,1157.831l-10.844,18.788l-23.667,40.988 M543.525,1169.601l30.069,17.36l2.667,1.539 M678.492,1087.77l-18.621,19.766
					l-6.919,71.435 M620.426,1063.572l9.106,59.076 M732.3,1055.021l-39.191,67.891 M690.806,1090.648l38.381,9.861
					 M690.913,1077.991l-1.842,44.29 M677.704,1089.858l24.725-23.007 M677.379,1122.725l1.571-56.301 M754.222,1200.72
					l10.213-2.739 M783.642,1198.486l21.293,12.296 M768.253,1200.186l13.517-0.666l9.616-23.254 M753.678,1179.914l14.475,21.916
					l0.558,18.114 M793.539,1195.296l15.57,8.987l-16.514,28.602 M810.261,1190.553l5.097-0.028l1.437,14.384l-12.814,16.333
					 M808.858,1178.291l0.805,14.031l-6.775,8.8 M917.842,1104.769l-17.55,4.702l-19.079,33.055l-78.325,40.252 M797.853,1145.25
					l8.44-14.619l19.451-3.606 M773.468,1102.348l37.738-1.512l-7.486-14.924l-26.06,45.135l-14.165,24.538 M763.96,1119.027
					l11.44-21.492l-34.005-19.634l-21.937,37.999l-2.104,3.634 M472.3,1082.187l-87.32,44.407 M479.772,1065.688l-7.473,16.498
					l12.913,7.456 M395.414,1077.367l23.466,49.268l60.195-29.487 M422.178,1093.34l-42.008,21.998 M376.023,1086.473l40.322-22.199
					l5.833,29.066l78.931,51.994"/>
			</g>
		</g>
	</g>
</g>
</svg>
