<?xml version="1.0" encoding="utf-8"?>
<!-- Generator: Adobe Illustrator 16.0.0, SVG Export Plug-In . SVG Version: 6.00 Build 0)  -->
<!DOCTYPE svg PUBLIC "-//W3C//DTD SVG 1.0//EN" "http://www.w3.org/TR/2001/REC-SVG-20010904/DTD/svg10.dtd">
<svg version="1.0" id="Ebene_1" xmlns="http://www.w3.org/2000/svg" xmlns:xlink="http://www.w3.org/1999/xlink" x="0px" y="0px"
	 width="877.207px" height="1217.814px" viewBox="145.916 202.964 877.207 1217.814"
	 enable-background="new 145.916 202.964 877.207 1217.814" xml:space="preserve">
<g>
	<g>
		<g>
			<g>
				<path fill="none" stroke="#FF6B5D" stroke-width="4.2682" stroke-miterlimit="10" d="M309.901,370.723l75.041,43.326
					l182.879,0.784l29.794,17.2l44.265-0.265l66.375,38.325l97.145-168.26l59.048-35.059l-33.846-58.562 M335.651,324.525
					l-31.546,54.644 M319.926,384.079l-50.59,87.623l-33.512,19.557 M185.772,310.85l132.327,76.4l22.812-39.511l78.604-46.12"/>
				<polyline fill="none" stroke="#FF6B5D" stroke-width="15.3648" stroke-miterlimit="10" points="515.992,1064.585 
					515.181,906.195 565.577,818.913 567.821,414.825 				"/>
				<path fill="none" stroke="#FF6B5D" stroke-width="4.2682" stroke-miterlimit="10" d="M747.19,972.685l43.187,2.489
					 M791.962,1065.861l-1.584-90.688l24.679-2.496l17.415-13.226 M183.636,1001.875l-0.187,26.681l55.219,34.829l553.294,2.478
					l49.785,96.971"/>
				<path fill="none" stroke="#FF6B5D" stroke-width="2.5602" stroke-miterlimit="10" d="M323.75,1187.951l8.264,12.65l0.136,19.301
					l-4.89,2.338l-0.208,13.397l-7.13-0.693l11.833,1.346 M281.737,1154.439l-22.988-13.273 M266.201,1129.576l-6.88,11.916
					l-0.639,1.107l-13.409-1.574 M289.406,1142.164l-46.861-27.055 M255.08,1107.592c-1.491,1.615-12.271,7.074-12.271,7.074
					l-0.485,0.839l-21.906,37.938 M229.263,1158.545l38.014,21.951l35.131-60.844l93.617-55.566 M162.525,1103.354l53.235,34.565
					l11.11,0.889l0.999,20.724l1.853,38.755 M171.44,1085.287l-20.609,35.697 M669.265,930.122l-43.022,74.521 M630.987,951.322
					l58.341,113.423"/>
				<polyline fill="none" stroke="#FF6B5D" stroke-width="6.8284" stroke-miterlimit="10" points="360.398,1085.314 
					398.004,1150.938 675.617,1311.221 				"/>
				<path fill="none" stroke="#FF6B5D" stroke-width="2.5602" stroke-miterlimit="10" d="M503.502,1267.923l55.607-0.733
					l37.283-0.492 M592.451,1301.982l-8.223-4.112l-8.711,4.085l-4.86,2.913 M519.363,1041.747l29.027-2.436l31.129-20.084
					 M479.499,1000.197l10.701,18.414l-74.798,45.321l-16.082-0.513l86.293-51.752 M464.691,942.169l-0.597,29.108l14.716,28.678
					l31.646-19.273l-59.557,36.092l24.74,10.152l15.563,1.699l-0.028-0.284l-0.035-0.277l-0.942-9.452l21.742-11.582l1.032,27.721
					l-1.172,5.771l-19.425-12.206l-2.168-0.264 M471.98,925.545l10.64,16.229l-40.851-0.592 M580.54,932.633l0.152-42.098
					l-0.628,24.288l-34.451-0.201 M366.057,972.595l43.821-23.178l78.72,0.61l8.656-4.101l47.965,0.89l0.378-30.976l0.018-1.22
					l-60.109-33.714 M307.803,1024.492l7.778,14.902 M303.521,1032.771l20.844,12.033l20.852-36.111l20.841-36.1l-28.726-0.382
					l6.459,0.271l0.874,35.731l16.309,29.925l-42.521,26.078l-2.229-8.323l7.029-11.74l13.521,7.81 M284.976,1063.746l22.828-39.254
					l-22.207-12.817l4.116-6.561 M516.52,1075.557l39.478,67.994l-5.161,13.774l-17.49,30.286l-17.706,30.668l42.028-2.399
					l15.042-27.388l32.438-0.306l19.104-1.422l11.437-19.808l-26.334-4.536l-17.91,9.468 M647.3,1246.5l-6.592-3.51l25.082-43.437
					l8.949-3.147l0.476-50.213l-36.904-1.407l-27.607,0.991l-17.768,2.851l-27.152,9.203l-9.786-14.28l1.977-21.465l13.718-21.547
					 M535.8,1120.463l59.027,3.344 M588.432,1077.693l17.366,2.926l5.579,8.802l-7.119,7.067l-0.492,6.566l-32.075-2.518
					l-24.515-26.591l0.809-8.433l14.508-0.507l-26.723,46.286l-3.411,5.901l-46.668-26.943l-30.904,53.534l34.847,20.119
					l14.853-25.716l15.432,8.911l-10.778,18.672l28.154-48.771l8.354-14.475l-3.619-2.088 M595.084,1078.498l8.471-14.669
					 M603.079,1024.193l-5.054,8.754l28.761,16.603 M660.062,1299.39l40.627-25.052l-20.6,36.106l-4.986-2.372l5.521-8.238
					l-17.158-11.173l-5.526-3.19l-0.798,13.254l-26.534-14.309l13.28-35.75l21.506-13.497l4.046-32.964l-21.729-13.823
					l37.375-20.319l1.283-27.721l3.604-0.965l16.031,26.777l-79.708,40.836l-4.71,71.947l-21.85-13.629l-17.2-8.918l12.293-132.583
					l16.559-0.084l0.732-59.77l-0.703-12.852l12.979-22.479l11.048,6.374l-17.047,29.518l-15.146,1.157l10.333-17.899
					l-59.803-34.531l15.344-27.457l8.485-5.007l28.296,47.319l17.763,11.015 M497.306,1206.948l16.933-29.337l4.842-8.379
					l-8.186-4.729l-10.999,19.046 M480.109,1186.6l-1.312,11.943l-0.079,42.36l-7.61,11.865 M498.21,1231.34l14.891,1.483
					 M478.718,1240.903l18.542,1.311l0.312-11.706l0.03-1.138l0.507-19.42 M527.18,1267.362l1.574-21.182l-16.439-1.88l2.157-24.404
					 M511.568,1258.346l0.991,9.724 M482.408,1258.276l29.16,0.068l16.616,0.382l52.071,1.18 M463.506,1225.021l15.622,9.016
					 M426.932,1259.774l9.766,19.6l21.772,11.562 M504.021,1267.451l-9.486-1.158l-22.612-14.072l-34.188,1.604l-10.802,5.951
					l-31.715-51.072 M519.488,1267.5l26.859,15.501l12.272,0.735 M536.428,1292.261l5.31,8.397 M521.236,1299.229l22.002-10.408
					l12.918-21.485 M541.736,1300.658l31.396-17.428l8.163,15.223l0.152,0.298l4.153,7.754"/>
				
					<line fill="none" stroke="#FF6B5D" stroke-width="8.5364" stroke-miterlimit="10" x1="369.684" y1="1140.84" x2="370.974" y2="1140.174"/>
				<path fill="none" stroke="#FF6B5D" stroke-width="2.5602" stroke-miterlimit="10" d="M358.872,1087.257l-1.931,18.296
					l33.743,51.412 M380.292,996.39l38.856,22.438l-5.458,9.444l-18.442-10.651l-10.902,18.878l1.796,28.837 M414.777,1010.163
					l-16.479,28.54l0.825,25.938 M421.2,950.359l1.061,18.453l38.297,61.928l51.304,28.746l1.079,4.717 M368.103,1156.693
					l-19.596-35.022l-23.778,18.311l-14.66,11.27l-6.363-1.873l-13.18-7.606l-8.19,14.183l14.384,8.3l-22.671,39.27l18.594,10.742
					l8.281-14.351l21.718-12.483l3.805,14.184l-14.522,3.896l-44.31-25.584 M379.841,1122.564l-42.254,27.734l-2.687,27.229
					l4.111,7.622 M391.932,1141.131l-23.83,15.562l1.423,9.147l-34.262,22.033l-12.625-0.443"/>
				<path fill="none" stroke="#FF6B5D" stroke-width="8.5364" stroke-miterlimit="10" d="M567.938,715.75l130.255-3.654
					l72.857,44.531 M473.708,1154.412l97.331-171.199l106.031-61.087l318.477-550.079l25.225-16.651 M500.62,1064.453
					l-62.97,109.059"/>
				<path fill="none" stroke="#FF6B5D" stroke-width="4.2682" stroke-miterlimit="10" d="M602.057,444.675l45.741,26.41L643,479.4
					l-16.639-9.605l143.984-85.056l60.902-35.065l46.585,0.402 M608.338,431.664l-38.166,70.374 M790.307,597.717l-10.983-0.187
					l11.707,16l23.954,15.063 M565.13,414.728l98.152-2.476l-1.544,49.63l-0.639,38.443l92.054-0.452 M569.087,611.685
					L751.29,503.106l37.249,60.322l1.768,34.289l41.359-0.146l25.221,13.94 M741.385,734.982l39.366,0.858 M741.565,697.69
					l8.411,0.639 M741.569,636.194l-0.618,61.279l-0.408,39.686 M724.865,441.165l27.873,50.935l-2.762,206.229l25.689-0.527"/>
				<polyline fill="none" stroke="#FF6B5D" stroke-width="2.5602" stroke-miterlimit="10" points="532.038,356.81 547.715,358.468 
					562.459,384.211 567.578,393.152 568.209,394.248 568.268,394.359 587.767,384.059 580.54,373.107 554.317,391.849 
					542.438,414.562 				"/>
				
					<line fill="none" stroke="#FF6B5D" stroke-width="4.2682" stroke-miterlimit="10" x1="546.238" y1="414.256" x2="568.205" y2="394.248"/>
				<path fill="none" stroke="#FF6B5D" stroke-width="2.5602" stroke-miterlimit="10" d="M337.775,1052.572l29.839,19.545
					l13.583,24.544l-5.614,13.718 M360.426,1037.385l18.935,36.626 M324.285,1106.204l18.08-41.986 M503.502,1267.916l-7.414,15.709
					l-20.013-11.555 M464.483,1265.378l11.593,6.692l7.702-13.344 M472.21,1251.625l-14.03,24.302 M570.81,1266.835l4.093,15.278
					 M604.207,1273.188l-8.624,14.938l8.42,4.862 M587,1277.66l0.51,7.922 M573.129,1283.23l19.866-8.247 M594.435,1300.381
					l19.693,11.374 M580.79,1267.515l35.106,20.271 M592.909,1301.192l11.017-6.978l6.124-21.251 M588.599,1203.104l33.533-7.662
					l13.863-4.475l11.713-2.579 M607.879,1221.666l3.176-33.804 M602.407,1232.172l20.938,12.088l-1.082,14.226l-26.059-15.051
					l-3.731,6.457l42.319,24.44 M624.364,1231.18l-16.484-9.516l-21.479,37.202 M658.66,1195.441l-24.177,41.884l-11.19,19.37
					 M626.293,1206.989l25.736,14.854 M639.521,1122.621l-3.831,44.337l23.186,15.243 M748.019,1123.48l47.445,27.394l-3.855,6.679
					l-69.268-39.996l-21.444,5.743l-88.813-0.485l-0.62,39.138 M755.089,1176.572l17.314-11.979l30.483,18.186l2.799-33.13
					l-43.666-25.21 M706.149,1178.014l58.345-21.848l16.521,1.221 M741.697,1117.453l22.263,1.574l-38.838,67.272l-19.551,33.853
					 M730.361,1135.562l4.169-6.207l20.56,47.216l-14.313,23.511l13.443,0.639l-5.333,8.204l-8.904-5.146l30.739,17.754l0.34,23.066
					l197.715,107.098 M701.035,1215.159l37.555-65.046l-31.688,15.271 M728.61,1199.291l-3.801-0.11l-0.008,15.444
					 M693.905,1232.123l21.608,12.477 M683.513,1217.219l13.812,7.977l-8.614,14.919l-5.794-3.337 M728.971,1254.746l15.391,33.525
					l-30.526-17.622l-4.043-15.1 M692.089,1202.863l36.882,51.883l16.895,2.629l-26.235,45.44 M743.743,1333.081l54.498,31.195
					 M710.419,1285.323l22.054,12.733l-3.085,5.348l231.834,116.229 M702.055,1273.069l16.258,9.391l-11.056,19.147
					 M642.105,1294.597l7.726,13.372l18.927,10.931 M657.699,1303.6l-14.812,8.67 M651.01,1315.182l10.475,6.04 M663.404,1306.595
					l-6.694,11.583 M702.271,1309.737l-0.752,26 M799.5,1286.268l-66.018,35.254l-32.229,1.281l-13.011-0.083l-14.811-12.414
					 M685.174,1302.829l11.139,6.429l21.788-0.193l29.402,16.978l-3.76,7.04l-13.812-7.976l-7.077,12.255 M670.388,1276.475
					l9.494,16.465l-8.612,14.933 M665.4,1278.938l18.871-11.082 M638.597,1264.656l13.068,3.087l13.736,11.192l-20.147,11.243
					 M694.43,1273.423l-34.31-19.807l-20.445,35.418 M659.264,1239.162l35.412,20.446l13.885-3.718l11.249-19.494l20.967-36.314
					l-45.171-3.808 M680.523,1241.938l13.594,7.851l0.51,27.908 M770.351,1066.291l-43.468,75.291l-23.788,41.209l-28.428,49.229
					l8.246,4.765l-5.784,10.021 M824.329,978.954l18.937,10.929 M933.543,803.122L833.459,984.226 M827.113,963.328l14.932,8.622
					 M767.992,984.447l8.247,4.766l-6.427,11.131l-9.135-5.276l-11.589-6.687 M724.38,1050.742l24.726,14.272 M766.899,995.1
					l-34.599,59.916 M720.336,978.018l10.674,15.967l7.043,1.691l15.921,22.853 M730.94,974.037l-13.896,24.064 M772.861,974.488
					l-23.021,39.871 M755.485,956.733l34.786-9.321l-13.808,20.833l43.872-1.401l1.912,0.812 M756.577,932.717l7.861,34.232
					 M762.254,920.836l12.66,47.257l-16.662-1.747l-0.284,6.666 M751.701,933.458l13.882-3.718 M738.927,950.436l8.707,19.129
					l-16.692,4.474l-2.168-8.072 M708.275,940.762l19.154,11.054l10.161-17.587L715.6,972.31l16.688-7.296 M737.15,905.154
					l-22.252,38.54 M685.307,912.645l35.865,20.709 M678.079,866.005l13.586,7.844l-36.005,62.362 M689.162,863.786l-6.434,11.139
					 M681.942,859.318l12.024,6.942 M688.128,846.551l-12.22,21.16 M661.892,897.645l20.494,11.83 M656.892,867.725l3.06,11.424
					l-10.353,17.935l2.66,9.932 M646.321,847.966l29.231,4.403l-0.662,20.71l7.8,2.421l-12.554,19.183l-16.929-9.771l-5.757-17.289
					 M614.235,865.984l42.655,1.739l4.724-36.474l5.833,0.701 M558.481,921.396l-0.363,25.321 M573.598,938.438l-4.112,7.131
					 M546.196,922.625l35.936,19.551 M542.423,968.253l-21.735,37.646 M580.97,936.469l0.473,1.754l-0.773,14.703l-37.987-0.548
					l1.026,13.655l-22.471,9.6l23.358-9.093l26.323,14.6 M613.899,913.9l-18.394,31.848l-50.288,1.061 M628.824,914.795
					l-0.791,34.289 M613.494,868.812l0.405,45.088l45.843,0.325l14.218,8.809 M594.751,829.781l20.046,11.567l-7.976,13.814
					l-8.295-13.405l15.708,24.227l-0.743,2.828l-10.194-2.911l-11.683-7.04l4.502-7.796l-11.832,20.486l-16.701-9.646l7.441,4.598
					l-5.018,8.69 M561.162,828.797l32.961,19.037l21.605-37.43 M883.573,290.911l12.221-21.174 M876.354,262.794l2.598,9.688
					l24.298,14.03l10.785,6.221 M865.614,265.672l10.739-2.878l4.771-1.283l34.791,20.092 M942.593,282.13l-12.227,21.173
					 M873.352,311.23l17.014,9.82l9.24-7.269l-6.313-10.444 M862.917,276.463l10.31,20.578l11.562,6.166 M852.323,283.462
					l15.773-10.307 M864.683,268.155l9.812,17.513l9.724,5.874l-11.305,20.446l-20.591-28.525l-17.27,20.293 M875.188,329.436
					l-1.678,9.252 M878.109,355.825l-4.6-17.138l11.776-3.155 M842.506,341.081l23.445,13.531l11.159,6.443 M915.42,265.437
					l-34.714,60.129l-22.812,13.297l-6.33,10.972 M957.484,289.967c-0.95-0.547-47.271-27.291-47.271-27.291 M724.664,518.792
					l-1.058,24.557l-7.419-0.346l35.465,2.642 M778.386,597.009c-0.538,0.48-18.84-1.435-18.84-1.435l0.67-6.166l-3.023,21.597
					l-15.958-3.709l8.821-13.003 M771.086,577.847l9.354,18.781 M752.604,546.721l18.482,31.125l17.196-1.614 M689.154,434.036
					l8.295,16.062l10.818,6.248 M717.881,555.48l-1.316,11.872l5.805-1.887l2.517,3.814 M703.053,544.87l5.516,6.339l9.313,4.271
					l1.687,0.756l5.188-6.706l-4.335-2.504l10.036,5.798 M670.117,515.886l-6.29,2.143 M677.722,500.608l-8.264,15.688l6.01,3.21
					 M706.854,500.123l-31.386,19.384l18.277,32.847l9.307-7.483l-26.007-44.906l-3.363-21.882l-11.688-0.188l0.766-7.685
					l35.63,1.422 M662.488,500.207l-0.076,16.477l17.23,28.305 M642.671,503.189l18.773-9.356 M637.767,501.677l3.938,2.274
					l-4.424,7.663l-7.282-4.204l16.721,9.654 M628.131,496.114l9.636,5.562l7.271-12.595l9.432-16.327l-5.178-1.941
					 M643.034,478.485l-20.021,9.68 M612.894,482.07l-7.833,13.572 M627.617,460.668l-5.791,10.028l-13.182-7.608l-10.447,18.103
					l-6.359,11.006l-12.979-7.489 M622.159,458.303l-13.06,22.623 M584.403,478.728l27.147,2.04l17.828,13.177l-27.027,46.812
					 M571.288,514.167l8.458,4.883l16.124-27.935l10.032,5.797l-10.217,17.699l-24.593-14.197 M576.004,493.285l40.319,23.281
					 M616.68,544.571l-13.433-1.721l-20.259-11.699 M594.271,636.083l3.309,26.548 M585.692,630.667l-15.341,26.569l11.783,6.803
					 M572.869,623.267l26.341,15.203 M540.044,609.701l19.21,2.469 M527.689,627.366l8.49,13.835 M524.166,638.268l31.227-19.397
					 M521.44,629.917l2.109,7.519l2.719,9.73L521.44,629.917z M537.396,609.292l16.623-4.46l-6.924-25.848l-10.833,3.891
					l3.684,36.869l-18.653,10.688l-7.608-4.396l6.99,26.091 M464.989,640.078l12.881,7.427l59.524-38.214l23.755,12.935
					 M477.737,705.188l7.434-12.879l4.397,2.538l21.624-37.457l51.072-31.009 M479.825,698.204l9.076,5.235l3.207-5.556
					l-6.59,11.417 M481.08,451.805l30.703,17.728 M503.904,434.848l-7.41,12.83l-11.926,20.66 M505.343,372.4l-1.438,62.447
					l14.051,13.69l-14.502,25.12 M479.925,370.015l27.136,2.636l10.883,6.291l12.552-3.364 M398.729,327.599l16.031-7.192
					 M412.888,351.407l-14.661,25.397 M388.739,371.326l19.256,11.117l9.717-7.788 M430.147,294.343l32.11,18.539l4.126,15.396
					l4.376,2.531l6.671-11.561 M425.805,326.78l-7.712,13.363l1.984,9.023 M398.05,355.285l23.303-6.242l13.227-0.077
					 M395.699,336.801l9.504,5.493l-21.507,37.25 M394.866,317.479l3.534,13.17l-4.971,8.614l-7.565,13.101 M416.914,273.356
					l-7.858,13.614l12.824,21.105l-7.119,12.331l11.044,6.374l22.104-38.276l10.271,5.93l-15.872,27.491l-9.192,15.931l3.939,25.224
					 M392.744,273.093l10.206,38.096 M399.565,252.37l7.972,4.605 M408.036,235.337l-4.598,7.962l9.758,5.638L404,264.868
					l-29.44,18.968 M379.706,251.177l43.936,25.369 M375.579,235.781l9.762,5.638l-21.365,36.993l14.392,8.316l15.217,30.009
					 M366.116,238.541l23.376,13.497 M384.033,221.14l-12.014,20.807 M377.389,216.625l12.596,7.269 M459.684,214.122
					l-55.331,95.833 M442.876,204.073l32.371,18.684 M215.976,447.554l26.797,15.473l-6.326,31.771 M200.818,471.141l-2.119,15.41
					 M175.996,472.521l4.147,15.485 M186.744,458.705l-1.658-6.193l-19.495,5.224l-7.005,12.13 M191.562,505.845l7.203-12.477
					l7.546-0.265l67.818,3.113l26.396,16.166 M182.055,500.969l15.016,8.67l-3.332,5.776 M280.758,485.261l27,0.188l0.277-10.618
					l-21.18-5.458l-6.95,0.305L264.37,495.52l-7.969,13.261l-25.855,10.638l14.1,13.996l-10.431,8.454l-18.22-24.995l-10.722-6.498
					 M263.822,476.716l44.588,25.744l9.483-4.688 M205.801,481.724l-0.039,52.342l5.018,9.979l53.572-30.363l26.941-52.521
					 M146.556,463.228l30.03,17.339l50.951,1.38l1.848-50.677 M663.976,377.47l7.328,4.238 M659.968,329.499l1.258,39.608
					 M628.519,354.611l-10.625,18.399 M606.61,348.349l1.899,7.075l-7.074,1.893l2.875,16.43 M558.839,354.063l10.258-2.753
					l10.909,21.354 M717.306,408.07l9.237-5.639l2.871,5.056 M680.604,381.5l-6.902,11.964 M639.595,373.773l34.701,20.038
					l5.982,13.814 M638.521,413.625l1.829,6.852 M697.075,427.898l19.891,11.479 M699.302,412.634l-12.86,22.284 M683.856,423.855
					l-7.029-14.425 M694.696,388.858l-5.348,9.26l3.279,7.074 M664.042,412.225l28.774-7.712l31.293,37 M681.876,500.484
					l37.649-65.2l18.481-32.014 M707.638,469.691l-6.649,11.52l-0.042,18.727 M745.144,478.991l-35.91,20.744 M781.056,488.957
					l-0.582,12.421l18.636,2.594 M745.872,478.409l15.115-8.219 M773.087,460.626l5.604,7.219l66.108,38.166 M798.99,496.919
					l7.345-12.712 M789.337,568.922l14.093,1.149 M747.155,445.459l20.61,35.439l31.716,16.907l-0.396,36.265l2.186,19.003
					l8.975,5.188l-6.817,11.811l9.272,5.354 M755.617,439.779l-24.435,14.009l-10.405,7.685l11.308,16.755 M745.775,421.934
					l36.976,67.21 M768.589,407.979l-23.58,13.573l-13.444,7.727 M780.306,402.188l7.467-1.872l31.402,18.136 M686.346,368.087
					l59.374,34.275l22.894,31.162l50.178-24.081l20.099-0.951 M710.162,330.982l-3.26,14.266l9.127,5.271 M635.527,331.766
					l5.022,18.753l-3.064,5.305l57.21,33.034l21.673-37.542l7.815-10.438l-2.852-7.836 M627.957,343.14l13.843-6.352l4.229-5.937
					l46.361,26.771l-6.045,10.465l-12.115-6.999l-29.011,50.255l35.145-60.873 M626.682,394.636l-12.562-0.492 M606.426,413.022
					l7.438-17.845l-0.669-20.495 M595.771,413.625l0.193-39.255 M581.865,373.323l77.593,0.527l-4.962,10.652l-13.015,15.807
					l-23.868,13.255"/>
				<path fill="none" stroke="#FF6B5D" stroke-width="2.5602" stroke-miterlimit="10" d="M589.889,1034.493l-17.857,30.938
					 M565.778,1157.831l-10.845,18.788l-23.667,40.988 M543.525,1169.601l30.068,17.36l2.667,1.539 M678.492,1087.77l-18.621,19.767
					l-6.919,71.435 M620.426,1063.572l9.106,59.076 M732.3,1055.021l-39.19,67.891 M690.806,1090.648l38.382,9.86 M690.913,1077.991
					l-1.842,44.29 M677.704,1089.858l24.725-23.007 M677.379,1122.725l1.571-56.301 M754.222,1200.72l10.213-2.739
					 M783.642,1198.486l21.294,12.296 M768.253,1200.186l13.517-0.666l9.616-23.254 M753.678,1179.914l14.476,21.916l0.558,18.114
					 M793.539,1195.296l15.57,8.987l-16.515,28.602 M810.261,1190.553l5.098-0.027l1.437,14.384l-12.814,16.333 M808.858,1178.291
					l0.805,14.031l-6.775,8.8 M917.842,1104.77l-17.55,4.701l-19.079,33.056l-78.325,40.252 M797.854,1145.25l8.439-14.619
					l19.451-3.605 M773.468,1102.348l37.738-1.512l-7.486-14.924l-26.06,45.135l-14.165,24.538 M763.96,1119.027l11.44-21.492
					l-34.006-19.634l-21.937,37.999l-2.104,3.634 M472.3,1082.188l-87.319,44.406 M479.772,1065.688l-7.474,16.498l12.913,7.457
					 M395.414,1077.367l23.466,49.268l60.195-29.486 M422.178,1093.34l-42.008,21.998 M376.023,1086.473l40.321-22.198l5.833,29.065
					l78.932,51.994"/>
			</g>
		</g>
	</g>
</g>
</svg>
