<?xml version="1.0" encoding="utf-8"?>
<!-- Generator: Adobe Illustrator 16.0.4, SVG Export Plug-In . SVG Version: 6.00 Build 0)  -->
<!DOCTYPE svg PUBLIC "-//W3C//DTD SVG 1.1//EN" "http://www.w3.org/Graphics/SVG/1.1/DTD/svg11.dtd">
<svg version="1.1" id="Ebene_1" xmlns="http://www.w3.org/2000/svg" xmlns:xlink="http://www.w3.org/1999/xlink" x="0px" y="0px"
	 width="150px" height="65px" viewBox="0 0 150 65" enable-background="new 0 0 150 65" xml:space="preserve">
<g>
	<g>
		<path d="M77.298,21.001c-1.675,0-2.796-1.195-2.796-2.747s1.121-2.744,2.796-2.744c1.67,0,2.787,1.198,2.787,2.744
			C80.085,19.806,78.968,21.001,77.298,21.001z M77.298,16.54c-0.959,0-1.52,0.648-1.52,1.715c0,1.076,0.561,1.714,1.52,1.714
			c0.951,0,1.512-0.638,1.512-1.714C78.81,17.188,78.25,16.54,77.298,16.54z"/>
		<path d="M83.546,19.146v1.797H82.3v-5.374h1.895c1.512,0,2.161,0.764,2.161,1.756c0,1.072-0.675,1.821-2.161,1.821H83.546
			L83.546,19.146z M83.546,18.207h0.648c0.649,0,0.914-0.325,0.914-0.882c0-0.49-0.287-0.822-0.914-0.822h-0.648V18.207z"/>
		<path d="M92.087,15.569v0.959h-2.205v1.254h1.689v0.922h-1.689v1.28h2.205v0.959h-3.459v-5.374H92.087L92.087,15.569z"/>
		<path d="M95.776,15.761l2.552,3.227c-0.018-0.206-0.029-0.401-0.029-0.575v-2.844h1.099v5.374h-0.649
			c-0.191,0-0.312-0.048-0.436-0.206l-2.533-3.201c0.016,0.188,0.026,0.368,0.026,0.527v2.88h-1.099v-5.374h0.656
			C95.577,15.569,95.639,15.594,95.776,15.761z"/>
	</g>
	<g>
		<path d="M76.029,27.711h0.199c0.186,0,0.317-0.06,0.398-0.174l1.21-1.755c0.133-0.192,0.292-0.247,0.538-0.247h1.085l-1.594,2.172
			c-0.114,0.157-0.235,0.254-0.364,0.324c0.188,0.069,0.339,0.181,0.468,0.384l1.622,2.493h-1.113c-0.283,0-0.387-0.083-0.486-0.229
			l-1.218-1.869c-0.088-0.137-0.21-0.189-0.442-0.189h-0.303v2.287h-1.246v-5.373h1.246V27.711z"/>
		<path d="M83.03,25.727l2.552,3.227c-0.018-0.207-0.029-0.402-0.029-0.574v-2.844h1.099v5.373h-0.649
			c-0.191,0-0.312-0.048-0.436-0.207L83.033,27.5c0.016,0.188,0.026,0.37,0.026,0.528v2.881H81.96v-5.373h0.656
			C82.831,25.536,82.893,25.561,83.03,25.727z"/>
		<path d="M91.822,30.967c-1.674,0-2.795-1.195-2.795-2.747c0-1.554,1.121-2.743,2.795-2.743c1.67,0,2.789,1.197,2.789,2.743
			C94.611,29.772,93.492,30.967,91.822,30.967z M91.822,26.504c-0.958,0-1.52,0.649-1.52,1.716c0,1.076,0.562,1.714,1.52,1.714
			c0.951,0,1.513-0.638,1.513-1.714C93.334,27.154,92.773,26.504,91.822,26.504z"/>
		<path d="M95.975,25.536h1.048c0.217,0,0.368,0.105,0.412,0.27l0.738,2.803c0.047,0.181,0.103,0.39,0.129,0.615
			c0.048-0.233,0.11-0.435,0.166-0.615l0.87-2.803c0.044-0.137,0.199-0.27,0.405-0.27h0.369c0.218,0,0.357,0.103,0.412,0.27
			l0.863,2.803c0.057,0.172,0.118,0.364,0.162,0.585c0.041-0.218,0.082-0.413,0.126-0.585l0.737-2.803
			c0.041-0.145,0.199-0.27,0.406-0.27h0.98l-1.659,5.373h-1.128l-1.011-3.331c-0.033-0.104-0.073-0.229-0.106-0.365
			c-0.033,0.137-0.074,0.262-0.107,0.365l-1.025,3.331h-1.129L95.975,25.536z"/>
		<path d="M107.298,29.912h1.99v0.997h-3.237v-5.373h1.247V29.912L107.298,29.912z"/>
		<path d="M115.396,25.536v0.958h-2.205v1.254h1.689v0.922h-1.689v1.28h2.205v0.959h-3.458v-5.373H115.396L115.396,25.536z"/>
		<path d="M120.103,30.909h-2.088v-5.373h2.088c1.67,0,2.787,1.139,2.787,2.685C122.89,29.772,121.773,30.909,120.103,30.909z
			 M120.103,26.494h-0.834v3.456h0.834c0.951,0,1.512-0.656,1.512-1.729C121.615,27.154,121.054,26.494,120.103,26.494z"/>
		<path d="M128.475,29.845v-0.813h-0.532c-0.158,0-0.25-0.093-0.25-0.221v-0.688h1.91v2.268c-0.55,0.403-1.18,0.576-2.059,0.576
			c-1.569,0-2.742-1.173-2.742-2.747c0-1.604,1.105-2.743,2.839-2.743c0.899,0,1.567,0.309,1.999,0.722l-0.361,0.549
			c-0.07,0.104-0.166,0.167-0.28,0.167c-0.073,0-0.151-0.025-0.229-0.075c-0.395-0.234-0.671-0.335-1.172-0.335
			c-0.93,0-1.52,0.686-1.52,1.716c0,1.135,0.664,1.788,1.563,1.788C127.984,30.008,128.239,29.946,128.475,29.845z"/>
		<path d="M135.585,25.536v0.958h-2.205v1.254h1.689v0.922h-1.689v1.28h2.205v0.959h-3.459v-5.373H135.585L135.585,25.536z"/>
	</g>
	<path d="M78.243,35.5v0.958h-2.206v1.361h1.838v0.964h-1.838v2.09h-1.253V35.5H78.243L78.243,35.5z"/>
	<path d="M86.408,38.184c0,0.389-0.066,0.751-0.2,1.084c-0.135,0.335-0.323,0.625-0.566,0.873s-0.536,0.441-0.88,0.581
		c-0.343,0.14-0.723,0.209-1.141,0.209s-0.799-0.069-1.145-0.209c-0.344-0.14-0.639-0.333-0.883-0.581s-0.434-0.538-0.568-0.873
		c-0.133-0.333-0.2-0.695-0.2-1.084s0.067-0.75,0.2-1.084c0.135-0.334,0.324-0.625,0.568-0.871s0.539-0.439,0.883-0.579
		c0.346-0.14,0.727-0.209,1.145-0.209s0.798,0.069,1.141,0.212c0.344,0.141,0.637,0.336,0.88,0.581s0.433,0.535,0.566,0.87
		C86.341,37.438,86.408,37.799,86.408,38.184z M85.132,38.184c0-0.265-0.035-0.504-0.104-0.717s-0.168-0.393-0.297-0.541
		c-0.129-0.146-0.287-0.261-0.474-0.338c-0.188-0.08-0.4-0.119-0.638-0.119c-0.242,0-0.457,0.039-0.645,0.119
		c-0.188,0.077-0.346,0.191-0.476,0.338c-0.13,0.148-0.229,0.328-0.297,0.541c-0.069,0.213-0.103,0.452-0.103,0.717
		c0,0.269,0.033,0.508,0.103,0.723c0.068,0.213,0.167,0.392,0.297,0.539c0.13,0.148,0.287,0.261,0.476,0.337
		c0.188,0.077,0.402,0.117,0.645,0.117c0.237,0,0.45-0.04,0.638-0.117c0.187-0.076,0.345-0.188,0.474-0.337
		c0.129-0.147,0.229-0.328,0.297-0.539C85.097,38.692,85.132,38.453,85.132,38.184z"/>
	<path d="M91.453,39.889c0.168,0,0.316-0.029,0.449-0.084c0.131-0.055,0.242-0.134,0.334-0.238c0.091-0.102,0.16-0.229,0.209-0.378
		c0.047-0.149,0.07-0.317,0.07-0.507V35.5h1.247v3.183c0,0.329-0.054,0.633-0.16,0.906c-0.107,0.276-0.261,0.515-0.46,0.713
		s-0.441,0.354-0.726,0.465c-0.286,0.111-0.606,0.165-0.964,0.165c-0.358,0-0.68-0.054-0.965-0.165
		c-0.286-0.111-0.527-0.267-0.727-0.465s-0.352-0.437-0.457-0.713c-0.107-0.273-0.159-0.577-0.159-0.906V35.5h1.247v3.179
		c0,0.19,0.023,0.358,0.072,0.508c0.047,0.148,0.117,0.275,0.207,0.381c0.092,0.104,0.203,0.184,0.334,0.238
		S91.287,39.889,91.453,39.889z"/>
	<path d="M97.58,35.507c0.037,0.005,0.07,0.015,0.1,0.026c0.029,0.015,0.057,0.034,0.085,0.058c0.027,0.024,0.058,0.059,0.093,0.101
		l2.552,3.228c-0.011-0.104-0.017-0.205-0.022-0.302c-0.005-0.097-0.008-0.189-0.008-0.274V35.5h1.1v5.373h-0.649
		c-0.097,0-0.177-0.015-0.243-0.044s-0.131-0.084-0.191-0.162l-2.535-3.201c0.009,0.092,0.014,0.185,0.02,0.275
		c0.005,0.09,0.008,0.172,0.008,0.252v2.88h-1.1V35.5h0.656C97.498,35.5,97.542,35.5,97.58,35.507z"/>
	<path d="M109.452,38.184c0,0.389-0.067,0.748-0.201,1.074c-0.134,0.329-0.322,0.613-0.565,0.853
		c-0.244,0.239-0.537,0.427-0.881,0.561c-0.342,0.135-0.723,0.201-1.141,0.201h-2.088V35.5h2.088c0.418,0,0.799,0.068,1.141,0.203
		c0.344,0.135,0.637,0.322,0.881,0.56c0.243,0.238,0.432,0.522,0.565,0.852C109.384,37.44,109.452,37.799,109.452,38.184z
		 M108.176,38.184c0-0.265-0.035-0.506-0.104-0.719c-0.068-0.214-0.167-0.395-0.297-0.544c-0.129-0.149-0.287-0.264-0.473-0.343
		c-0.188-0.081-0.4-0.121-0.639-0.121h-0.834v3.457h0.834c0.238,0,0.451-0.04,0.639-0.119c0.186-0.081,0.345-0.195,0.473-0.345
		c0.13-0.147,0.229-0.33,0.297-0.544C108.141,38.694,108.176,38.453,108.176,38.184z"/>
	<path d="M117.263,40.873h-0.967c-0.107,0-0.197-0.025-0.267-0.074c-0.071-0.051-0.119-0.116-0.146-0.194l-0.318-0.938h-2.043
		l-0.316,0.938c-0.024,0.068-0.073,0.131-0.145,0.186c-0.071,0.057-0.158,0.083-0.262,0.083h-0.974l2.081-5.373h1.275
		L117.263,40.873z M113.811,38.819h1.468l-0.494-1.471c-0.031-0.096-0.068-0.205-0.113-0.33c-0.042-0.127-0.084-0.266-0.127-0.412
		c-0.039,0.15-0.08,0.288-0.121,0.417c-0.041,0.128-0.082,0.237-0.117,0.331L113.811,38.819z"/>
	<path d="M123.814,35.5v0.988h-1.513v4.385h-1.247v-4.385h-1.512V35.5H123.814z"/>
	<path d="M127.907,40.873h-1.253V35.5h1.253V40.873z"/>
	<path d="M136.419,38.184c0,0.389-0.066,0.751-0.201,1.084c-0.134,0.335-0.322,0.625-0.565,0.873s-0.537,0.441-0.88,0.581
		s-0.724,0.209-1.143,0.209c-0.417,0-0.799-0.069-1.143-0.209s-0.639-0.333-0.883-0.581c-0.245-0.248-0.435-0.538-0.568-0.873
		c-0.135-0.333-0.201-0.695-0.201-1.084s0.066-0.75,0.201-1.084c0.134-0.334,0.323-0.625,0.568-0.871
		c0.244-0.246,0.539-0.439,0.883-0.579s0.726-0.209,1.143-0.209c0.419,0,0.8,0.069,1.143,0.212c0.343,0.141,0.637,0.336,0.88,0.581
		s0.432,0.535,0.565,0.87C136.353,37.438,136.419,37.799,136.419,38.184z M135.143,38.184c0-0.265-0.034-0.504-0.103-0.717
		c-0.069-0.213-0.168-0.393-0.297-0.541c-0.13-0.146-0.287-0.261-0.475-0.338c-0.187-0.08-0.399-0.119-0.639-0.119
		c-0.24,0-0.455,0.039-0.643,0.119c-0.188,0.077-0.348,0.191-0.476,0.338c-0.13,0.148-0.229,0.328-0.297,0.541
		c-0.069,0.213-0.104,0.452-0.104,0.717c0,0.269,0.035,0.508,0.104,0.723c0.068,0.213,0.167,0.392,0.297,0.539
		c0.128,0.148,0.287,0.261,0.476,0.337c0.188,0.077,0.402,0.117,0.643,0.117c0.239,0,0.452-0.04,0.639-0.117
		c0.188-0.076,0.345-0.188,0.475-0.337c0.129-0.147,0.228-0.328,0.297-0.539C135.109,38.692,135.143,38.453,135.143,38.184z"/>
	<path d="M140.023,35.507c0.037,0.005,0.07,0.015,0.1,0.026c0.029,0.015,0.058,0.034,0.084,0.058
		c0.027,0.024,0.059,0.059,0.093,0.101l2.552,3.228c-0.01-0.104-0.017-0.205-0.021-0.302c-0.006-0.097-0.008-0.189-0.008-0.274V35.5
		h1.1v5.373h-0.649c-0.096,0-0.177-0.015-0.243-0.044s-0.131-0.084-0.192-0.162l-2.533-3.201c0.007,0.092,0.013,0.185,0.019,0.275
		c0.004,0.09,0.007,0.172,0.007,0.252v2.88h-1.099V35.5h0.656C139.941,35.5,139.986,35.5,140.023,35.507z"/>
	<rect x="52.601" y="0.684" transform="matrix(-0.8012 -0.5985 0.5985 -0.8012 91.0473 48.8701)" width="2.084" height="17.25"/>
	<rect x="46.055" y="6.35" transform="matrix(-0.895 -0.4461 0.4461 -0.895 84.5634 40.9144)" width="2.084" height="8.308"/>
	<rect x="42.48" y="0.03" transform="matrix(-0.9603 -0.2789 0.2789 -0.9603 83.4875 25.0005)" width="2.084" height="13.064"/>
	<polygon points="39.003,12.211 36.931,11.997 37.785,3.734 39.858,3.95 	"/>
	<polygon points="33.123,12.132 32.412,2.852 34.49,2.693 35.201,11.973 	"/>
	<polygon points="29.402,12.943 27.788,6.781 29.804,6.254 31.416,12.417 	"/>
	<rect x="23.793" y="10.99" transform="matrix(-0.422 -0.9066 0.9066 -0.422 25.9592 40.6144)" width="4.269" height="2.084"/>
	<polygon points="22.684,16.475 21.719,15.108 23.42,13.907 24.385,15.274 	"/>
	<polygon points="19.906,19.083 15.018,14.284 16.478,12.797 21.365,17.594 	"/>
	<polygon points="17.636,22.142 10.075,16.957 11.246,15.233 18.807,20.418 	"/>
	<polygon points="15.95,25.557 11.188,23.447 12.033,21.542 16.795,23.653 	"/>
	<polygon points="0.797,25.803 14.902,29.221 15.392,27.195 1.289,23.778 	"/>
	<rect x="4.054" y="30.622" transform="matrix(-0.9983 -0.0581 0.0581 -0.9983 16.7943 63.8173)" width="10.541" height="2.085"/>
	<rect x="8.561" y="31.26" transform="matrix(-0.1212 -0.9926 0.9926 -0.1212 -25.3637 50.3409)" width="2.083" height="10.275"/>
	<rect x="13.315" y="38.658" transform="matrix(-0.2966 -0.955 0.955 -0.2966 -19.4432 65.3847)" width="2.084" height="2.389"/>
	<rect x="12.068" y="40.689" transform="matrix(-0.462 -0.8869 0.8869 -0.462 -20.7546 77.4327)" width="2.083" height="8.645"/>
	<rect x="14.273" y="44.416" transform="matrix(-0.613 -0.79 0.79 -0.613 -14.0699 91.2611)" width="2.083" height="9.32"/>
	<rect x="17.516" y="47.844" transform="matrix(-0.7444 -0.6678 0.6678 -0.7444 -2.6092 103.7727)" width="2.084" height="9.084"/>
	<rect x="22.493" y="50.974" transform="matrix(-0.8518 -0.5239 0.5239 -0.8518 15.7754 110.6051)" width="2.084" height="4.194"/>
	<polygon points="26.043,60.967 24.102,60.209 27.071,52.605 29.013,53.362 	"/>
	<rect x="29.939" y="53.978" transform="matrix(-0.9816 -0.1908 0.1908 -0.9816 50.3782 120.3007)" width="2.083" height="7.493"/>
	<polygon points="36.453,59.664 34.37,59.636 34.438,54.426 36.522,54.454 	"/>
	<polygon points="39.915,64.26 38.247,54.323 40.303,53.977 41.97,63.917 	"/>
	<rect x="40.949" y="55.011" transform="matrix(-0.3389 -0.9408 0.9408 -0.3389 6.1671 116.4398)" width="6.087" height="2.084"/>
	<polygon points="45.506,52.108 53.064,64.999 54.868,63.953 47.309,51.064 	"/>
	<polygon points="49.915,51.293 48.764,50.112 50.27,48.67 51.421,49.853 	"/>
	<polygon points="56.719,51.742 51.523,47.484 52.844,45.872 58.04,50.129 	"/>
	<polygon points="59.125,47.389 53.819,44.442 54.83,42.62 60.136,45.567 	"/>
	<polygon points="58.095,41.911 55.532,41.04 56.202,39.065 58.765,39.936 	"/>
	<rect x="56.72" y="35.915" transform="matrix(-0.9891 -0.1472 0.1472 -0.9891 115.4573 82.4599)" width="8.12" height="2.085"/>
	<polygon points="57.021,33.596 56.955,31.514 62.108,31.353 62.174,33.435 	"/>
	<rect x="58.671" y="24.837" transform="matrix(-0.2092 -0.9779 0.9779 -0.2092 44.7316 92.3643)" width="2.084" height="6.516"/>
	<polygon points="55.801,26.106 55.007,24.18 59.118,22.487 59.911,24.413 	"/>
	<polygon points="54.209,22.645 53.084,20.892 63.966,13.913 65.091,15.667 	"/>
	<polygon points="52.025,19.524 50.606,17.999 52.25,16.467 53.668,17.993 	"/>
	<g>
		<path d="M34.169,31.632c-0.167-0.192-0.371-0.34-0.612-0.442c-0.241-0.104-0.516-0.154-0.824-0.154h-1.076v4.459h1.076
			c0.308,0,0.583-0.051,0.824-0.154c0.241-0.103,0.445-0.25,0.612-0.442s0.294-0.427,0.383-0.703
			c0.088-0.276,0.133-0.585,0.133-0.932c0-0.343-0.044-0.653-0.133-0.93S34.336,31.825,34.169,31.632z"/>
		<path d="M48.873,33.631l-0.047-1.526l-4.628,0.143l4.529-0.965l-0.318-1.495l-4.531,0.965l4.286-1.758l-0.58-1.412l-4.282,1.756
			l3.899-2.492l-0.823-1.287l-3.903,2.494l3.395-3.151l-1.039-1.118l-3.395,3.151l2.778-3.707l-1.223-0.916l-2.777,3.706
			l2.071-4.143l-1.366-0.682l-2.072,4.142l1.299-4.446L38.68,20.46l-1.299,4.446l0.485-4.605l-1.519-0.16l-0.502,4.769l-0.375-4.779
			l-1.522,0.118l0.361,4.617l-1.178-4.479l-1.478,0.389l1.18,4.48l-1.96-4.196l-1.385,0.646l1.96,4.196l-2.677-3.778l-1.247,0.882
			l2.679,3.78l-3.31-3.242l-1.068,1.092l3.307,3.239L25.3,25.278l-0.858,1.264l3.835,2.6l-4.237-1.873l-0.617,1.396l4.237,1.873
			l-4.504-1.086l-0.358,1.485l4.501,1.085l-4.622-0.266l-0.088,1.526l4.625,0.265l-4.598,0.563l0.187,1.517l4.598-0.564
			l-4.423,1.376l0.453,1.458l4.422-1.374l-4.105,2.143l0.707,1.354l4.105-2.143l-3.658,2.841l0.937,1.206l3.658-2.841l-3.092,3.448
			l1.137,1.019l3.092-3.446l-2.427,3.943l1.301,0.802l2.428-3.947l-1.685,4.315l1.423,0.556l1.685-4.315l-0.888,4.547l1.499,0.294
			l0.887-4.545l-0.061,4.629l1.527,0.021l0.062-4.634l0.766,4.57l1.506-0.254l-0.765-4.565l1.568,4.356l1.437-0.518l-1.569-4.357
			l2.321,4.009l1.322-0.768l-2.32-4.006l2.999,3.529l1.164-0.989l-3-3.53l3.58,2.938l0.969-1.182l-3.583-2.938l4.05,2.253
			l0.743-1.334l-4.046-2.252l4.382,1.493l0.493-1.446l-4.385-1.492l4.581,0.686l0.227-1.512l-4.583-0.686L48.873,33.631z
			 M36.073,34.651c-0.172,0.424-0.416,0.79-0.729,1.1c-0.314,0.309-0.693,0.551-1.136,0.723c-0.443,0.174-0.934,0.26-1.474,0.26
			h-2.693v-6.936h2.693c0.54,0,1.031,0.088,1.474,0.262c0.443,0.175,0.821,0.416,1.136,0.725c0.314,0.306,0.558,0.672,0.729,1.096
			c0.173,0.424,0.26,0.886,0.26,1.384C36.333,33.765,36.246,34.227,36.073,34.651z M41.569,31.036h-2.847v1.618h2.181v1.19h-2.181
			v1.65h2.847v1.238h-4.466v-6.936h4.466V31.036z"/>
	</g>
	<g>
		<path d="M79.229,46.983c0,0.395-0.062,0.752-0.187,1.075c-0.125,0.322-0.301,0.599-0.528,0.829
			c-0.228,0.229-0.501,0.407-0.819,0.534c-0.317,0.126-0.669,0.188-1.057,0.188h-1.966v-5.257h1.966
			c0.388,0,0.739,0.062,1.057,0.187c0.318,0.127,0.592,0.305,0.819,0.537c0.228,0.231,0.403,0.508,0.528,0.831
			C79.167,46.23,79.229,46.588,79.229,46.983z M78.5,46.983c0-0.322-0.044-0.611-0.133-0.865c-0.088-0.256-0.213-0.47-0.374-0.646
			c-0.161-0.176-0.356-0.311-0.587-0.404c-0.23-0.092-0.485-0.14-0.768-0.14h-1.251v4.106h1.251c0.282,0,0.537-0.047,0.768-0.139
			c0.23-0.093,0.426-0.228,0.587-0.402c0.161-0.174,0.286-0.391,0.374-0.645C78.456,47.594,78.5,47.306,78.5,46.983z"/>
		<path d="M85.61,44.353v0.579h-2.524v1.747h2.044v0.558h-2.044v1.794h2.524v0.579h-3.239v-5.257H85.61z"/>
		<path d="M90.85,49.045c0.218,0,0.411-0.037,0.583-0.109c0.172-0.074,0.316-0.178,0.436-0.31c0.117-0.132,0.209-0.29,0.271-0.474
			s0.093-0.385,0.093-0.604v-3.196h0.709v3.196c0,0.301-0.049,0.584-0.146,0.842c-0.097,0.261-0.234,0.484-0.415,0.675
			c-0.179,0.188-0.399,0.338-0.658,0.444c-0.259,0.107-0.55,0.162-0.873,0.162s-0.614-0.055-0.874-0.162
			c-0.259-0.106-0.479-0.256-0.66-0.444c-0.181-0.19-0.319-0.414-0.416-0.675c-0.097-0.258-0.146-0.541-0.146-0.842v-3.196h0.709
			v3.19c0,0.221,0.03,0.423,0.093,0.605c0.062,0.184,0.152,0.343,0.271,0.475c0.119,0.131,0.265,0.234,0.438,0.309
			C90.437,49.007,90.632,49.045,90.85,49.045z"/>
		<path d="M99.917,44.353v0.597h-1.7v4.66h-0.712v-4.66H95.8v-0.597H99.917z"/>
		<path d="M105.531,45.174c-0.022,0.035-0.045,0.064-0.07,0.083c-0.024,0.018-0.057,0.026-0.095,0.026
			c-0.042,0-0.09-0.02-0.146-0.062c-0.055-0.042-0.125-0.089-0.209-0.138c-0.084-0.051-0.186-0.097-0.305-0.139
			c-0.119-0.041-0.262-0.062-0.43-0.062c-0.16,0-0.301,0.021-0.423,0.063c-0.123,0.043-0.225,0.102-0.306,0.175
			c-0.083,0.073-0.145,0.16-0.186,0.259c-0.042,0.098-0.062,0.206-0.062,0.32c0,0.147,0.035,0.27,0.107,0.365
			c0.072,0.097,0.168,0.181,0.287,0.247c0.118,0.07,0.253,0.129,0.402,0.178c0.151,0.051,0.305,0.104,0.463,0.157
			c0.158,0.055,0.312,0.114,0.463,0.183c0.15,0.066,0.285,0.151,0.402,0.254c0.119,0.103,0.215,0.229,0.287,0.378
			c0.072,0.148,0.107,0.333,0.107,0.551c0,0.229-0.039,0.445-0.117,0.646c-0.078,0.202-0.191,0.379-0.343,0.527
			c-0.15,0.149-0.335,0.267-0.554,0.353c-0.219,0.085-0.469,0.128-0.746,0.128c-0.341,0-0.651-0.062-0.932-0.186
			c-0.279-0.123-0.519-0.29-0.717-0.5l0.205-0.338c0.02-0.026,0.044-0.049,0.072-0.068c0.028-0.019,0.059-0.028,0.094-0.028
			c0.051,0,0.109,0.028,0.176,0.085c0.066,0.053,0.148,0.115,0.248,0.18c0.099,0.067,0.219,0.127,0.359,0.184
			c0.141,0.054,0.312,0.082,0.516,0.082c0.168,0,0.319-0.023,0.451-0.07c0.133-0.047,0.244-0.112,0.336-0.196
			s0.162-0.186,0.211-0.304c0.049-0.117,0.073-0.247,0.073-0.392c0-0.158-0.036-0.288-0.108-0.39s-0.167-0.188-0.284-0.256
			c-0.118-0.068-0.251-0.127-0.401-0.175s-0.305-0.097-0.463-0.147c-0.158-0.049-0.312-0.107-0.463-0.173
			c-0.149-0.067-0.283-0.152-0.4-0.257c-0.118-0.106-0.213-0.236-0.285-0.396c-0.072-0.157-0.108-0.353-0.108-0.584
			c0-0.188,0.036-0.366,0.108-0.54s0.177-0.328,0.314-0.463c0.136-0.133,0.306-0.241,0.508-0.322
			c0.201-0.081,0.434-0.122,0.695-0.122c0.293,0,0.561,0.048,0.803,0.14c0.243,0.094,0.454,0.229,0.635,0.404L105.531,45.174z"/>
		<path d="M112.605,48.523c0.039,0,0.074,0.017,0.106,0.048l0.278,0.305c-0.215,0.251-0.477,0.444-0.783,0.584
			s-0.677,0.209-1.109,0.209c-0.379,0-0.723-0.066-1.031-0.196s-0.571-0.314-0.789-0.551s-0.387-0.519-0.506-0.849
			c-0.121-0.33-0.18-0.693-0.18-1.09c0-0.396,0.064-0.76,0.192-1.091c0.128-0.33,0.309-0.612,0.541-0.851
			c0.233-0.236,0.511-0.42,0.835-0.553c0.324-0.13,0.682-0.196,1.072-0.196c0.388,0,0.721,0.061,1.001,0.181
			c0.279,0.119,0.528,0.283,0.747,0.487l-0.232,0.327c-0.016,0.023-0.036,0.045-0.059,0.061c-0.021,0.016-0.053,0.023-0.095,0.023
			c-0.032,0-0.065-0.012-0.101-0.035c-0.036-0.021-0.078-0.051-0.127-0.086c-0.049-0.034-0.107-0.07-0.173-0.11
			c-0.065-0.038-0.144-0.075-0.234-0.11c-0.091-0.033-0.196-0.062-0.315-0.085c-0.121-0.024-0.258-0.035-0.415-0.035
			c-0.281,0-0.538,0.048-0.772,0.145c-0.233,0.097-0.436,0.235-0.604,0.413c-0.168,0.179-0.301,0.396-0.395,0.653
			s-0.142,0.544-0.142,0.862c0,0.328,0.048,0.62,0.142,0.877s0.223,0.475,0.385,0.65c0.163,0.178,0.355,0.312,0.579,0.406
			c0.222,0.092,0.462,0.14,0.719,0.14c0.156,0,0.297-0.009,0.423-0.028c0.124-0.018,0.24-0.046,0.346-0.086
			c0.106-0.038,0.206-0.089,0.297-0.148c0.092-0.059,0.185-0.131,0.277-0.215C112.526,48.542,112.566,48.523,112.605,48.523z"/>
		<path d="M120.362,49.61h-0.716v-2.393h-2.832v2.393h-0.715v-5.257h0.715v2.344h2.832v-2.344h0.716V49.61z"/>
		<path d="M124.53,49.012h2.276v0.598h-2.988v-5.257h0.712V49.012z"/>
		<path d="M134.089,49.61h-0.551c-0.064,0-0.115-0.016-0.154-0.047c-0.039-0.032-0.068-0.073-0.088-0.123l-0.491-1.27h-2.36
			l-0.492,1.27c-0.016,0.045-0.045,0.084-0.088,0.118c-0.041,0.034-0.092,0.052-0.153,0.052h-0.551l2.103-5.257h0.723L134.089,49.61
			z M130.644,47.659h1.963l-0.826-2.14c-0.055-0.132-0.106-0.297-0.157-0.497c-0.026,0.102-0.054,0.194-0.079,0.278
			s-0.051,0.159-0.076,0.222L130.644,47.659z"/>
		<path d="M137.433,44.375c0.031,0.016,0.066,0.049,0.105,0.098l3.045,3.963c-0.008-0.063-0.012-0.125-0.015-0.186
			s-0.004-0.117-0.004-0.175v-3.723h0.624v5.257h-0.359c-0.057,0-0.104-0.01-0.142-0.029s-0.075-0.053-0.112-0.099l-3.042-3.96
			c0.006,0.062,0.009,0.121,0.011,0.18c0.003,0.061,0.004,0.113,0.004,0.162v3.746h-0.623v-5.257h0.367
			C137.355,44.353,137.403,44.359,137.433,44.375z"/>
		<path d="M149.203,46.983c0,0.395-0.062,0.752-0.188,1.075c-0.125,0.322-0.301,0.599-0.528,0.829
			c-0.228,0.229-0.5,0.407-0.817,0.534c-0.318,0.126-0.671,0.188-1.058,0.188h-1.966v-5.257h1.966c0.387,0,0.739,0.062,1.058,0.187
			c0.317,0.127,0.59,0.305,0.817,0.537c0.228,0.231,0.403,0.508,0.528,0.831C149.14,46.23,149.203,46.588,149.203,46.983z
			 M148.472,46.983c0-0.322-0.044-0.611-0.133-0.865c-0.086-0.256-0.212-0.47-0.373-0.646c-0.162-0.176-0.357-0.311-0.587-0.404
			c-0.23-0.092-0.485-0.14-0.768-0.14h-1.251v4.106h1.251c0.282,0,0.537-0.047,0.768-0.139c0.229-0.093,0.425-0.228,0.587-0.402
			c0.161-0.174,0.287-0.391,0.373-0.645C148.428,47.594,148.472,47.306,148.472,46.983z"/>
	</g>
</g>
</svg>
