<?xml version="1.0" encoding="utf-8"?>
<!-- Generator: Adobe Illustrator 16.0.4, SVG Export Plug-In . SVG Version: 6.00 Build 0)  -->
<!DOCTYPE svg PUBLIC "-//W3C//DTD SVG 1.1//EN" "http://www.w3.org/Graphics/SVG/1.1/DTD/svg11.dtd">
<svg version="1.1" id="Ebene_1" xmlns="http://www.w3.org/2000/svg" xmlns:xlink="http://www.w3.org/1999/xlink" x="0px" y="0px"
	 width="207px" height="22px" viewBox="33.963 3.521 207 22" enable-background="new 33.963 3.521 207 22" xml:space="preserve">
<g>
	<path fill="#19181B" d="M202.826,11.487l-0.128,0.123v8.73l0.128,0.129h1.916l0.127-0.129v-8.982l-0.127-0.123L202.826,11.487z
		 M167.586,11.487l-0.127,0.123v8.73l0.127,0.129h1.918l0.125-0.129v-8.982l-0.125-0.123L167.586,11.487z M49.215,11.487
		l-0.127,0.123v8.73l0.127,0.129h1.917l0.127-0.129v-8.982l-0.127-0.123L49.215,11.487z M44.323,20.537l3.422-9.178l-0.144-0.106
		l-2.193,0.217l-0.125,0.141l-1.506,5.144l-0.343,1.468l-0.416-1.468l-0.885-2.569v-2.827l-0.127-0.123l-1.846,0.252l-0.127,0.126
		v2.467l-0.925,2.666l-0.397,1.474l-0.361-1.474l-1.594-5.388l-0.145-0.106l-2.136,0.217l-0.109,0.141l3.261,8.566l0.127,0.146
		l1.645,0.322l0.148-0.108l1.085-3.042l0.396-1.286l0.364,1.286l0.993,2.646l0.127,0.143l1.666,0.361L44.323,20.537z M51.185,9.583
		l0.126-0.109V7.521L51.185,7.41H49.18l-0.13,0.111v1.954l0.13,0.109H51.185z M55.552,13.983c0-0.615,0.615-0.979,1.468-0.979
		c0.76,0,1.575,0.58,1.575,0.58l0.161-0.017l1.05-1.342l-0.017-0.178c0,0-1.156-0.902-2.805-0.902c-1.796,0-3.639,0.847-3.639,2.839
		c0,1.846,1.627,2.391,2.968,2.789c0.796,0.237,1.541,0.475,1.541,1.017c0,0.834-0.706,1.031-1.471,1.031
		c-0.979,0-1.938-0.688-1.938-0.688l-0.177,0.017l-1.031,1.339l0.035,0.182c0.831,0.618,1.991,1.011,3.167,1.011
		c1.921,0,3.623-0.668,3.623-2.891c0-1.866-1.573-2.338-2.914-2.719C56.312,14.836,55.552,14.599,55.552,13.983 M63.791,13.983
		c0-0.615,0.612-0.979,1.465-0.979c0.762,0,1.577,0.58,1.577,0.58l0.163-0.017l1.05-1.342l-0.018-0.178c0,0-1.157-0.902-2.808-0.902
		c-1.793,0-3.638,0.847-3.638,2.839c0,1.846,1.626,2.391,2.969,2.789c0.796,0.237,1.54,0.475,1.54,1.017
		c0,0.834-0.708,1.031-1.469,1.031c-0.977,0-1.938-0.688-1.938-0.688l-0.18,0.017l-1.033,1.339l0.04,0.182
		c0.83,0.618,1.991,1.011,3.166,1.011c1.923,0,3.624-0.668,3.624-2.891c0-1.866-1.578-2.338-2.918-2.719
		C64.552,14.836,63.791,14.599,63.791,13.983 M72.119,14.692c0-1.125,0.58-1.667,1.578-1.667c0.94,0,1.34,0.452,1.34,0.905
		c0,0.926-0.708,1.16-1.634,1.16c-0.469,0-1.031-0.091-1.285-0.233V14.692z M77.48,18.53l-0.092-0.161l-1.683-0.545l-0.16,0.091
		c-0.346,0.562-0.835,0.905-1.758,0.905c-1.016,0-1.669-0.546-1.669-1.849v-0.454l-0.127-0.867c0.489,0.832,1.394,1.175,2.265,1.175
		c1.559,0,3.004-1.011,3.004-2.825c0-1.357-0.922-2.857-3.511-2.857c-2.264,0-3.801,1.245-3.801,3.349v2.897
		c0,2.171,1.446,3.29,3.912,3.29C75.525,20.681,76.936,19.907,77.48,18.53 M86.839,20.47l0.129-0.129v-6.012
		c0-2.121-1.411-3.185-2.896-3.185c-1.089,0-2.158,0.633-2.536,1.643l-0.58-1.448l-0.145-0.105l-1.757,0.234l-0.107,0.141
		l0.523,1.849v6.882l0.127,0.13h1.917l0.13-0.13v-7.119c0.433-0.106,1.267-0.272,1.575-0.272c0.87,0,1.578,0.51,1.578,1.758v5.634
		l0.127,0.129H86.839z M91.188,13.983c0-0.615,0.615-0.979,1.467-0.979c0.761,0,1.577,0.58,1.577,0.58l0.161-0.017l1.049-1.342
		l-0.018-0.178c0,0-1.155-0.902-2.807-0.902c-1.793,0-3.639,0.847-3.639,2.839c0,1.846,1.629,2.391,2.969,2.789
		c0.798,0.237,1.54,0.475,1.54,1.017c0,0.834-0.704,1.031-1.469,1.031c-0.976,0-1.934-0.688-1.934-0.688l-0.181,0.017l-1.032,1.339
		l0.035,0.182c0.833,0.618,1.99,1.011,3.168,1.011c1.921,0,3.621-0.668,3.621-2.891c0-1.866-1.574-2.338-2.914-2.719
		C91.947,14.836,91.188,14.599,91.188,13.983 M104.858,18.495l-0.092-0.164l-1.683-0.542l-0.163,0.091
		c-0.346,0.579-0.796,0.94-1.775,0.94c-0.996,0-1.63-0.598-1.63-1.72v-2.394c0-1.122,0.634-1.703,1.63-1.703
		c0.742,0,1.358,0.363,1.685,0.979l0.178,0.073l1.67-0.562l0.07-0.164c-0.633-1.5-1.973-2.186-3.513-2.186
		c-2.459,0-3.892,1.339-3.892,3.293v2.954c0,1.937,1.432,3.29,3.892,3.29C102.974,20.681,104.277,19.942,104.858,18.495
		 M114.131,20.47l0.123-0.129v-6.012c0-2.121-1.411-3.185-2.891-3.185c-1.09,0-2.158,0.633-2.539,1.643l0.126-1.048V7.251
		l-0.126-0.129l-1.917,0.255l-0.128,0.126v12.837l0.128,0.129h1.917l0.126-0.129v-7.119c0.435-0.106,1.253-0.272,1.556-0.272
		c0.875,0,1.582,0.51,1.582,1.758v5.634l0.126,0.129L114.131,20.47L114.131,20.47z M121.228,18.53c0,0-0.796,0.381-1.702,0.381
		c-0.762,0-1.213-0.397-1.213-0.96c0-1.665,2.445-0.291,2.915-2.3V18.53z M123.799,20.358l0.109-0.144l-0.527-1.849v-4.292
		c0-2.136-1.611-2.929-3.656-2.929c-1.05,0-2.171,0.326-2.966,0.973l-0.04,0.182l0.943,1.324l0.179,0.036
		c0.525-0.419,1.176-0.653,1.866-0.653c0.812,0,1.506,0.255,1.506,1.325v0.453c-0.349,0.507-2.593,0.035-3.861,0.814
		c-0.796,0.489-1.283,1.283-1.283,2.354c0,1.664,1.283,2.73,2.731,2.73c1.942,0,2.521-1.678,2.521-1.678l0.579,1.482l0.146,0.107
		L123.799,20.358z M131.116,8.661l0.83-1.556l-0.07-0.146c0,0-0.686-0.308-1.829-0.308c-1.831,0-3.638,1.104-3.638,3.334v1.374
		h-1.142l-0.125,0.129v1.611l0.125,0.123h1.142v10.397l0.052,0.161l1.376,0.779l0.127-0.126l0.615-2.695v-8.516h2.044l0.127-0.123
		l0.397-1.614l-0.125-0.126h-2.443V9.912c0-0.799,0.688-1.342,1.467-1.342c0.524,0,0.867,0.126,0.867,0.126L131.116,8.661z
		 M134.645,17.045v-3.824h2.483l0.126-0.123l0.396-1.614l-0.125-0.126h-2.881V9.26l-0.125-0.129l-1.574,0.237l-0.13,0.126
		l-0.215,1.863h-1.104l-0.127,0.129v1.611l0.127,0.123h0.976v3.896c0,2.352,1.393,3.562,3.186,3.562
		c0.905,0,1.811-0.252,2.501-0.721l0.035-0.182l-0.726-1.395l-0.18-0.033c0,0-0.707,0.434-1.415,0.434
		C135.1,18.785,134.645,18.062,134.645,17.045 M169.559,9.583l0.127-0.109V7.521l-0.127-0.111h-2.008l-0.127,0.111v1.954
		l0.127,0.109H169.559z M184.839,20.47l0.13-0.129v-6.012c0-2.121-1.32-3.185-2.807-3.185c-1.084,0-2.139,0.686-2.535,1.678
		c-0.453-1.119-1.463-1.678-2.533-1.678c-1.088,0-1.976,0.633-2.355,1.643l-0.582-1.448l-0.145-0.105l-1.754,0.234l-0.109,0.141
		l0.527,1.849v6.882l0.124,0.13h1.92l0.128-0.13v-7.119c0.435-0.106,1.084-0.272,1.395-0.272c0.87,0,1.486,0.51,1.486,1.758v5.634
		l0.125,0.129h1.919l0.126-0.129v-6.012c0-0.381-0.055-0.744-0.126-1.052c0.436-0.109,1.231-0.329,1.538-0.329
		c0.87,0,1.488,0.51,1.488,1.758v5.634l0.125,0.129H184.839z M197.5,18.604c-0.434,0.108-1.125,0.272-1.429,0.272
		c-0.869,0-1.615-0.508-1.615-1.759v-2.411c0-1.122,0.649-1.702,1.541-1.702c0.979,0,1.504,0.504,1.504,1.505L197.5,18.604
		L197.5,18.604z M200.088,20.358l0.109-0.144l-0.527-1.849V7.251l-0.127-0.129l-1.916,0.255l-0.128,0.126v3.226l0.108,0.941
		c-0.541-0.363-1.158-0.524-1.812-0.524c-1.956,0-3.51,1.209-3.51,3.29v3.062c0,2.118,1.448,3.185,2.934,3.185
		c1.085,0,2.008-0.63,2.389-1.642l0.58,1.445l0.146,0.108L200.088,20.358z M204.795,9.583l0.129-0.109V7.521l-0.129-0.111h-2.008
		l-0.124,0.111v1.954l0.124,0.109H204.795z M212.366,18.53c0,0-0.796,0.381-1.704,0.381c-0.762,0-1.214-0.397-1.214-0.96
		c0-1.665,2.448-0.291,2.919-2.3L212.366,18.53L212.366,18.53z M214.938,20.358l0.108-0.144l-0.525-1.849v-4.292
		c0-2.136-1.609-2.929-3.658-2.929c-1.048,0-2.173,0.326-2.969,0.973l-0.035,0.182l0.94,1.324l0.18,0.036
		c0.527-0.419,1.178-0.653,1.865-0.653c0.814,0,1.505,0.255,1.505,1.325v0.453c-0.343,0.507-2.593,0.035-3.858,0.814
		c-0.795,0.489-1.283,1.283-1.283,2.354c0,1.664,1.283,2.73,2.733,2.73c1.938,0,2.516-1.678,2.516-1.678l0.583,1.482l0.143,0.107
		L214.938,20.358z M220.422,20.376l0.271-1.646l-0.127-0.126h-0.127c-0.417,0-0.831-0.161-0.831-0.649V7.251l-0.128-0.129
		l-1.916,0.255l-0.127,0.126v10.757c0,2.08,1.826,2.263,2.516,2.263c0.143,0,0.323-0.018,0.346-0.018L220.422,20.376z
		 M228.176,17.101c0,1.122-0.633,1.72-1.668,1.72c-1.068,0-1.669-0.598-1.669-1.72v-2.394c0-1.122,0.601-1.703,1.669-1.703
		c1.035,0,1.668,0.58,1.668,1.703V17.101z M230.348,17.391v-2.954c0-2.139-1.646-3.293-3.84-3.293s-3.836,1.154-3.836,3.293v2.954
		c0,2.133,1.643,3.29,3.836,3.29S230.348,19.523,230.348,17.391 M237.99,14.707c0,1.181-0.617,1.834-1.797,1.834
		c-1.064,0-1.721-0.674-1.721-1.834c0-1.122,0.71-1.717,1.721-1.717C237.373,12.99,237.99,13.585,237.99,14.707 M240.561,12.372
		l-0.273-1.482l-0.143-0.109l-2.315,0.454h-1.724c-2.337,0-3.766,1.248-3.766,3.472c0,1.545,0.65,2.751,2.118,3.278
		c-0.634,0.287-0.996,1.055-0.996,1.52c0,0.982,0.905,1.668,2.644,1.668h1.121c0.566,0,0.853,0.307,0.853,0.686
		c0,0.457-0.562,0.928-1.631,0.928c-1.864,0-2.372-1.016-2.372-1.016l-0.16-0.091l-1.629,0.653l-0.074,0.164
		c0.668,1.591,2.371,2.153,4.275,2.153c1.881,0,3.762-0.87,3.762-2.751c0-1.506-1.033-2.59-3.023-2.59h-1.266
		c-0.637,0-0.926-0.255-0.926-0.762c0-0.109,0.018-0.256,0.055-0.398c0.365,0.074,0.761,0.109,1.195,0.109
		c2.229,0,3.842-1.269,3.842-3.366c0-0.796-0.293-1.562-0.871-2.069l1.195-0.304L240.561,12.372z"/>
	<path fill="#19181B" d="M154.688,7.148c0-1.995-1.595-3.627-3.599-3.627c-1.927,0-3.563,1.632-3.563,3.627
		c0,1.914,1.637,3.542,3.563,3.542C153.093,10.691,154.688,9.062,154.688,7.148"/>
	<path fill="#19181B" d="M154.688,20.657c0-1.998-1.595-3.627-3.599-3.627c-1.927,0-3.563,1.629-3.563,3.627
		c0,1.91,1.637,3.542,3.563,3.542C153.093,24.199,154.688,22.567,154.688,20.657"/>
</g>
</svg>
