<?xml version="1.0" encoding="utf-8"?>
<!-- Generator: Adobe Illustrator 16.0.0, SVG Export Plug-In . SVG Version: 6.00 Build 0)  -->
<!DOCTYPE svg PUBLIC "-//W3C//DTD SVG 1.1//EN" "http://www.w3.org/Graphics/SVG/1.1/DTD/svg11.dtd">
<svg version="1.1" id="Ebene_1" xmlns="http://www.w3.org/2000/svg" xmlns:xlink="http://www.w3.org/1999/xlink" x="0px" y="0px"
	 width="219.187px" height="21.859px" viewBox="53.189 3.644 219.187 21.859" enable-background="new 53.189 3.644 219.187 21.859"
	 xml:space="preserve">
<path d="M194.8,7.568h-3.951v5.676h3.951c1.846,0,3.051-1.178,3.051-2.836C197.852,8.747,196.645,7.568,194.8,7.568 M198.062,25.322
	l-4.196-8.574h-3.019v8.574h-4.197V3.825h8.423c4.377,0,6.975,2.989,6.975,6.583c0,3.018-1.841,4.89-3.925,5.645l4.801,9.271
	L198.062,25.322L198.062,25.322z"/>
<polygon points="143.711,3.825 139.756,12.491 135.739,3.825 131.183,3.825 137.642,16.506 137.642,25.32 141.81,25.32 
	141.81,16.506 148.271,3.825 "/>
<path d="M159.523,8.534c-0.604-0.693-1.542-1.146-2.688-1.146c-1.147,0-2.113,0.452-2.718,1.146
	c-0.813,0.907-1.026,1.904-1.026,6.039c0,4.137,0.213,5.134,1.026,6.038c0.604,0.695,1.57,1.147,2.718,1.147
	c1.146,0,2.083-0.452,2.688-1.147c0.813-0.904,1.056-1.901,1.056-6.038C160.58,10.438,160.337,9.441,159.523,8.534 M162.633,23.148
	c-1.512,1.511-3.351,2.354-5.797,2.354c-2.445,0-4.316-0.845-5.828-2.354c-2.173-2.174-2.112-4.86-2.112-8.575
	c0-3.713-0.061-6.4,2.112-8.574c1.512-1.509,3.384-2.354,5.829-2.354c2.446,0,4.285,0.847,5.796,2.355
	c2.175,2.174,2.144,4.861,2.144,8.575C164.773,18.287,164.807,20.975,162.633,23.148"/>
<path d="M175.932,25.503c-4.408,0-7.91-2.986-7.91-7.547V3.825h4.199v13.979c0,2.478,1.446,3.953,3.711,3.953
	c2.267,0,3.743-1.479,3.743-3.953V3.825h4.167v14.131C183.843,22.514,180.341,25.503,175.932,25.503"/>
<polygon points="265.914,16.506 265.914,25.322 261.747,25.322 261.747,16.506 255.287,3.825 259.846,3.825 263.861,12.491 
	267.816,3.825 272.376,3.825 "/>
<path d="M220.785,25.503c-2.354,0-4.288-0.845-5.797-2.354c-2.174-2.174-2.113-4.86-2.113-8.574S212.814,8.174,214.988,6
	c1.509-1.509,3.441-2.354,5.797-2.354c4.016,0,7.154,2.295,7.908,6.794h-4.256c-0.424-1.722-1.51-3.05-3.623-3.05
	c-1.146,0-2.082,0.422-2.688,1.117c-0.814,0.905-1.058,1.933-1.058,6.069c0,4.136,0.242,5.163,1.058,6.068
	c0.604,0.693,1.539,1.115,2.688,1.115c2.113,0,3.199-1.328,3.623-3.049h4.256C227.939,23.208,224.77,25.503,220.785,25.503"/>
<rect x="231.24" y="3.825" width="4.197" height="21.495"/>
<polygon points="248.059,7.569 248.059,25.322 243.859,25.322 243.859,7.569 238.244,7.569 238.244,3.825 253.674,3.825 
	253.674,7.569 "/>
<path fill="#2F3536" d="M65.008,13.125V4.688h3.227v19.835h-3.227v-8.641h-7.79v8.641h-3.224V4.688h3.224v8.437H65.008z
	 M64.205,3.884v8.438h-6.183V3.884h-4.833v21.445h4.833v-8.64h6.183v8.64h0.401h4.433V3.884H64.205z"/>
<path d="M80.954,4.325h-3.16l-7.888,20.641h4.583L75.81,22l7.103-0.024l1.053,2.99h4.526L80.954,4.325z M81.824,18.445l-5.287-0.014
	l2.662-7.267L81.824,18.445z"/>
<g>
	<path fill="#2F3536" d="M96.086,25.1v-0.402c-2.164-0.004-3.896-0.766-5.278-2.143c-0.931-0.935-1.397-1.939-1.646-3.146
		c-0.25-1.206-0.266-2.61-0.266-4.248c0-0.182,0-0.366,0-0.553c0-0.188,0-0.373,0-0.556c0-1.638,0.015-3.04,0.265-4.246
		c0.25-1.207,0.717-2.215,1.646-3.147c1.383-1.378,3.115-2.141,5.278-2.143c1.854,0,3.473,0.524,4.719,1.55
		c1.242,1.022,2.132,2.555,2.48,4.637l0.398-0.065v-0.405h-4.088v0.402l0.391-0.097c-0.215-0.88-0.608-1.687-1.247-2.283
		S97.214,7.3,96.117,7.302c-1.2-0.001-2.224,0.449-2.886,1.212l0.305,0.265l-0.302-0.271c-0.212,0.238-0.402,0.499-0.551,0.815
		c-0.227,0.475-0.364,1.056-0.449,1.88c-0.084,0.827-0.116,1.904-0.116,3.4c0.001,1.994,0.056,3.248,0.22,4.148
		c0.083,0.45,0.193,0.815,0.346,1.133c0.148,0.314,0.338,0.577,0.551,0.814l0.302-0.269l-0.305,0.264
		c0.662,0.764,1.686,1.213,2.886,1.211c1.096,0.003,1.982-0.355,2.621-0.953c0.639-0.596,1.031-1.403,1.247-2.283l-0.391-0.096
		v0.402h4.088v-0.402l-0.398-0.065c-0.349,2.08-1.243,3.611-2.491,4.637c-1.248,1.024-2.868,1.551-4.707,1.551V25.1l0.001,0.401
		c1.991,0.001,3.808-0.576,5.219-1.731c1.412-1.156,2.401-2.89,2.775-5.127l0.079-0.47h-4.88l-0.075,0.308
		c-0.189,0.772-0.522,1.431-1.015,1.886c-0.491,0.452-1.145,0.733-2.073,0.735c-1.005,0-1.78-0.362-2.278-0.935l-0.004-0.004v-0.002
		c-0.176-0.196-0.309-0.385-0.423-0.623c-0.17-0.354-0.295-0.839-0.374-1.616c-0.08-0.773-0.114-1.835-0.114-3.316
		c0-1.979,0.061-3.205,0.208-4.004c0.074-0.401,0.167-0.694,0.279-0.932c0.114-0.236,0.247-0.425,0.423-0.623l0.005-0.004
		c0.498-0.57,1.273-0.932,2.279-0.934c0.927,0.003,1.58,0.283,2.072,0.737c0.492,0.452,0.825,1.108,1.016,1.884l0.075,0.307h4.88
		l-0.079-0.469c-0.374-2.238-1.354-3.97-2.765-5.127c-1.409-1.158-3.227-1.734-5.229-1.734c-2.355-0.004-4.334,0.859-5.849,2.379
		c-1.048,1.046-1.598,2.238-1.867,3.557c-0.271,1.317-0.28,2.766-0.28,4.408c-0.001,0.185,0,0.366,0,0.556
		c0,0.187-0.001,0.369-0.001,0.553c0.001,1.643,0.011,3.092,0.281,4.41c0.269,1.317,0.818,2.51,1.866,3.555
		c1.515,1.521,3.493,2.382,5.849,2.379L96.086,25.1L96.086,25.1z"/>
</g>
<path fill="#2F3536" d="M118.222,4.688h3.848l-6.473,7.762l7.12,12.075h-3.757l-5.476-9.696l-3.134,3.749v5.947h-3.226V4.688h3.226
	v9.722L118.222,4.688z M117.839,3.884l-6.683,8.254V3.884h-4.836v21.445h4.836V18.87l2.2-2.632l5.134,9.091h0.235h5.4l-7.547-12.799
	l7.21-8.646H117.839z"/>
</svg>
