<?xml version="1.0" encoding="utf-8"?>
<!-- Generator: Adobe Illustrator 16.0.0, SVG Export Plug-In . SVG Version: 6.00 Build 0)  -->
<!DOCTYPE svg PUBLIC "-//W3C//DTD SVG 1.0//EN" "http://www.w3.org/TR/2001/REC-SVG-20010904/DTD/svg10.dtd">
<svg version="1.0" id="Ebene_1" xmlns="http://www.w3.org/2000/svg" xmlns:xlink="http://www.w3.org/1999/xlink" x="0px" y="0px"
	 width="219.187px" height="21.859px" viewBox="53.189 3.644 219.187 21.859" enable-background="new 53.189 3.644 219.187 21.859"
	 xml:space="preserve">
<g>
	<path fill="#FFFFFF" d="M194.8,7.568h-3.952v5.676h3.952c1.845,0,3.05-1.178,3.05-2.836C197.852,8.747,196.645,7.568,194.8,7.568
		 M198.062,25.322l-4.196-8.574h-3.019v8.574h-4.197V3.825h8.423c4.377,0,6.975,2.989,6.975,6.583c0,3.018-1.841,4.89-3.925,5.645
		l4.801,9.27H198.062L198.062,25.322z"/>
	<polygon fill="#FFFFFF" points="143.711,3.825 139.756,12.491 135.739,3.825 131.183,3.825 137.642,16.506 137.642,25.32 
		141.81,25.32 141.81,16.506 148.271,3.825 	"/>
	<path fill="#FFFFFF" d="M159.523,8.534c-0.604-0.693-1.542-1.146-2.687-1.146c-1.148,0-2.114,0.453-2.718,1.146
		c-0.814,0.907-1.026,1.904-1.026,6.039c0,4.137,0.212,5.134,1.026,6.038c0.604,0.695,1.57,1.148,2.718,1.148
		c1.145,0,2.083-0.453,2.687-1.148c0.814-0.904,1.056-1.901,1.056-6.038C160.58,10.438,160.337,9.441,159.523,8.534 M162.633,23.148
		c-1.512,1.511-3.351,2.354-5.797,2.354c-2.446,0-4.317-0.845-5.828-2.354c-2.173-2.174-2.113-4.86-2.113-8.575
		c0-3.713-0.06-6.4,2.113-8.574c1.511-1.509,3.383-2.355,5.829-2.355c2.446,0,4.285,0.847,5.796,2.356
		c2.174,2.174,2.143,4.861,2.143,8.575C164.773,18.287,164.807,20.975,162.633,23.148"/>
	<path fill="#FFFFFF" d="M175.932,25.503c-4.408,0-7.91-2.987-7.91-7.547V3.825h4.199v13.979c0,2.478,1.447,3.954,3.711,3.954
		c2.267,0,3.744-1.479,3.744-3.954V3.825h4.167v14.131C183.843,22.514,180.341,25.503,175.932,25.503"/>
	<polygon fill="#FFFFFF" points="265.914,16.506 265.914,25.322 261.747,25.322 261.747,16.506 255.287,3.825 259.846,3.825 
		263.861,12.491 267.816,3.825 272.376,3.825 	"/>
	<path fill="#FFFFFF" d="M220.785,25.503c-2.355,0-4.288-0.845-5.797-2.354c-2.174-2.174-2.113-4.86-2.113-8.574
		c0-3.714-0.061-6.401,2.113-8.575c1.509-1.509,3.441-2.354,5.797-2.354c4.016,0,7.154,2.295,7.908,6.794h-4.256
		c-0.424-1.721-1.51-3.05-3.623-3.05c-1.146,0-2.082,0.422-2.687,1.118c-0.815,0.905-1.058,1.932-1.058,6.069
		c0,4.136,0.242,5.163,1.058,6.068c0.604,0.694,1.539,1.116,2.687,1.116c2.113,0,3.199-1.329,3.623-3.049h4.256
		C227.939,23.208,224.77,25.503,220.785,25.503"/>
	<rect x="231.24" y="3.825" fill="#FFFFFF" width="4.197" height="21.495"/>
	<polygon fill="#FFFFFF" points="248.059,7.569 248.059,25.322 243.859,25.322 243.859,7.569 238.244,7.569 238.244,3.825 
		253.674,3.825 253.674,7.569 	"/>
	<path fill="#2F3536" d="M65.008,13.125V4.688h3.226v19.835h-3.226v-8.64h-7.79v8.64h-3.224V4.688h3.224v8.437H65.008z
		 M64.205,3.884v8.437h-6.183V3.884h-4.833v21.445h4.833v-8.64h6.183v8.64h0.401h4.433V3.884H64.205z"/>
	<path fill="#FFFFFF" d="M80.954,4.325h-3.16l-7.888,20.641h4.583L75.81,22l7.103-0.025l1.053,2.991h4.526L80.954,4.325z
		 M81.824,18.445l-5.287-0.014l2.662-7.266L81.824,18.445z"/>
	<g>
		<path fill="#2F3536" d="M96.086,25.1v-0.402c-2.164-0.004-3.896-0.766-5.279-2.143c-0.93-0.934-1.397-1.939-1.646-3.146
			c-0.25-1.206-0.266-2.61-0.266-4.248c0-0.182,0-0.366,0-0.553c0-0.188,0-0.373,0-0.555c0-1.638,0.015-3.041,0.265-4.247
			c0.25-1.207,0.717-2.214,1.646-3.147c1.383-1.378,3.116-2.141,5.279-2.143c1.854,0,3.472,0.525,4.718,1.55
			c1.243,1.023,2.132,2.555,2.481,4.637l0.398-0.066v-0.405h-4.088v0.403l0.391-0.097c-0.215-0.88-0.608-1.687-1.247-2.283
			c-0.639-0.597-1.524-0.955-2.621-0.953c-1.2-0.001-2.224,0.449-2.886,1.211l0.305,0.265l-0.302-0.27
			c-0.212,0.238-0.402,0.499-0.551,0.815c-0.226,0.475-0.364,1.056-0.449,1.88c-0.084,0.827-0.116,1.904-0.116,3.4
			c0.001,1.994,0.056,3.248,0.22,4.149c0.083,0.45,0.193,0.815,0.345,1.133c0.149,0.314,0.338,0.577,0.551,0.814l0.302-0.269
			l-0.305,0.264c0.662,0.764,1.686,1.213,2.886,1.211c1.096,0.003,1.982-0.355,2.621-0.953c0.639-0.596,1.031-1.403,1.247-2.283
			l-0.391-0.096v0.402h4.088v-0.402l-0.398-0.065c-0.349,2.08-1.243,3.611-2.491,4.636s-2.868,1.551-4.707,1.551V25.1l0.001,0.402
			c1.991,0.001,3.807-0.576,5.218-1.732c1.413-1.156,2.402-2.889,2.776-5.127l0.079-0.469h-4.88l-0.075,0.307
			c-0.19,0.773-0.523,1.431-1.015,1.886c-0.491,0.452-1.144,0.733-2.073,0.735c-1.005,0-1.78-0.362-2.278-0.934l-0.004-0.004v-0.002
			c-0.176-0.196-0.309-0.385-0.423-0.623c-0.17-0.354-0.295-0.839-0.374-1.616c-0.08-0.774-0.114-1.835-0.114-3.317
			c0-1.979,0.06-3.205,0.208-4.004c0.074-0.401,0.167-0.694,0.279-0.931c0.114-0.237,0.247-0.425,0.423-0.623l0.005-0.004
			c0.498-0.571,1.273-0.932,2.279-0.934c0.927,0.003,1.58,0.283,2.072,0.737c0.492,0.453,0.825,1.109,1.016,1.884l0.075,0.307h4.88
			l-0.079-0.469c-0.374-2.238-1.355-3.97-2.765-5.127c-1.409-1.158-3.226-1.734-5.229-1.734c-2.356-0.004-4.334,0.859-5.849,2.379
			c-1.048,1.046-1.598,2.238-1.867,3.556c-0.271,1.318-0.28,2.766-0.28,4.409c-0.001,0.184,0,0.366,0,0.555
			c0,0.187-0.001,0.369-0.001,0.553c0.001,1.643,0.01,3.092,0.281,4.41c0.268,1.317,0.818,2.51,1.866,3.555
			c1.515,1.52,3.493,2.382,5.849,2.379L96.086,25.1L96.086,25.1z"/>
	</g>
	<path fill="#2F3536" d="M118.222,4.688h3.848l-6.473,7.762l7.121,12.075h-3.757l-5.476-9.696l-3.134,3.749v5.947h-3.225V4.688
		h3.225v9.722L118.222,4.688z M117.839,3.884l-6.683,8.253V3.884h-4.836v21.445h4.836V18.87l2.2-2.632l5.134,9.091h0.235h5.401
		l-7.547-12.799l7.21-8.646H117.839z"/>
</g>
</svg>
