<?xml version="1.0" encoding="utf-8"?>
<!-- Generator: Adobe Illustrator 16.0.4, SVG Export Plug-In . SVG Version: 6.00 Build 0)  -->
<!DOCTYPE svg PUBLIC "-//W3C//DTD SVG 1.1//EN" "http://www.w3.org/Graphics/SVG/1.1/DTD/svg11.dtd">
<svg version="1.1" id="Ebene_1" xmlns="http://www.w3.org/2000/svg" xmlns:xlink="http://www.w3.org/1999/xlink" x="0px" y="0px"
	 width="219.188px" height="21.859px" viewBox="0 0 219.188 21.859" enable-background="new 0 0 219.188 21.859"
	 xml:space="preserve">
<g>
	<path fill="#2F3536" d="M141.611,3.923h-3.951v5.676h3.951c1.846,0,3.051-1.178,3.051-2.836
		C144.664,5.101,143.457,3.923,141.611,3.923 M144.873,21.677l-4.195-8.574h-3.02v8.574h-4.197V0.179h8.424
		c4.377,0,6.975,2.989,6.975,6.583c0,3.018-1.842,4.89-3.926,5.645l4.801,9.271L144.873,21.677L144.873,21.677z"/>
	<polygon fill="#2F3536" points="90.522,0.179 86.567,8.845 82.55,0.179 77.994,0.179 84.453,12.86 84.453,21.675 88.621,21.675 
		88.621,12.86 95.082,0.179 	"/>
	<path fill="#2F3536" d="M106.334,4.888c-0.604-0.693-1.542-1.146-2.688-1.146s-2.112,0.451-2.718,1.146
		c-0.812,0.907-1.026,1.904-1.026,6.039c0,4.137,0.214,5.134,1.026,6.038c0.604,0.695,1.57,1.146,2.718,1.146
		c1.146,0,2.083-0.451,2.688-1.146c0.812-0.904,1.056-1.901,1.056-6.038C107.391,6.793,107.148,5.796,106.334,4.888 M109.444,19.503
		c-1.512,1.511-3.351,2.354-5.797,2.354c-2.444,0-4.315-0.845-5.828-2.354c-2.173-2.174-2.111-4.86-2.111-8.575
		c0-3.713-0.062-6.4,2.111-8.574C99.331,0.844,101.203,0,103.648,0c2.446,0,4.285,0.847,5.796,2.354
		c2.175,2.174,2.144,4.861,2.144,8.575C111.584,14.641,111.619,17.33,109.444,19.503"/>
	<path fill="#2F3536" d="M122.744,21.857c-4.408,0-7.91-2.985-7.91-7.547V0.179h4.199v13.979c0,2.478,1.445,3.952,3.711,3.952
		s3.742-1.479,3.742-3.952V0.179h4.166V14.31C130.654,18.869,127.152,21.857,122.744,21.857"/>
	<polygon fill="#2F3536" points="212.724,12.86 212.724,21.677 208.558,21.677 208.558,12.86 202.097,0.179 206.658,0.179 
		210.672,8.845 214.627,0.179 219.187,0.179 	"/>
	<path fill="#2F3536" d="M167.595,21.857c-2.354,0-4.287-0.845-5.797-2.354c-2.174-2.174-2.113-4.86-2.113-8.574
		s-0.061-6.401,2.113-8.575c1.51-1.509,3.441-2.354,5.797-2.354c4.016,0,7.154,2.295,7.908,6.794h-4.256
		c-0.424-1.723-1.51-3.05-3.623-3.05c-1.146,0-2.082,0.422-2.688,1.116c-0.814,0.905-1.059,1.934-1.059,6.069
		s0.242,5.163,1.059,6.068c0.604,0.692,1.539,1.114,2.688,1.114c2.113,0,3.199-1.327,3.623-3.049h4.256
		C174.75,19.562,171.582,21.857,167.595,21.857"/>
	<rect x="178.051" y="0.179" fill="#2F3536" width="4.197" height="21.495"/>
	<polygon fill="#2F3536" points="194.871,3.924 194.871,21.677 190.67,21.677 190.67,3.924 185.054,3.924 185.054,0.179 
		200.484,0.179 200.484,3.924 	"/>
	<path fill="#2F3536" d="M11.819,9.479V1.043h3.228v19.835h-3.228v-8.642h-7.79v8.642H0.805V1.043h3.224v8.437H11.819z
		 M11.016,0.238v8.438H4.833V0.238H0v21.445h4.833v-8.64h6.183v8.64h0.401h4.433V0.238H11.016z"/>
	<g>
		<path fill="#2F3536" d="M42.897,21.455v-0.402c-2.164-0.004-3.896-0.766-5.277-2.143c-0.932-0.936-1.397-1.939-1.646-3.146
			c-0.25-1.206-0.266-2.61-0.266-4.248c0-0.182,0-0.366,0-0.553c0-0.188,0-0.373,0-0.557c0-1.638,0.015-3.039,0.265-4.245
			c0.25-1.207,0.717-2.216,1.646-3.147c1.383-1.378,3.114-2.141,5.277-2.143c1.854,0,3.474,0.523,4.72,1.55
			c1.241,1.021,2.132,2.555,2.479,4.637l0.398-0.064V6.588h-4.088v0.401l0.391-0.097c-0.215-0.88-0.608-1.687-1.247-2.283
			c-0.639-0.596-1.524-0.955-2.621-0.953c-1.2-0.001-2.224,0.449-2.886,1.213l0.305,0.265l-0.302-0.271
			c-0.212,0.238-0.402,0.499-0.551,0.815c-0.228,0.475-0.364,1.056-0.449,1.88c-0.084,0.827-0.116,1.904-0.116,3.4
			c0.001,1.994,0.056,3.248,0.22,4.147c0.083,0.45,0.193,0.815,0.347,1.133c0.147,0.314,0.338,0.577,0.551,0.814l0.302-0.269
			l-0.305,0.264c0.662,0.764,1.686,1.213,2.886,1.211c1.096,0.003,1.982-0.355,2.621-0.953c0.639-0.596,1.031-1.403,1.247-2.283
			l-0.391-0.096v0.402h4.088v-0.402l-0.398-0.065c-0.349,2.08-1.243,3.611-2.491,4.638c-1.248,1.023-2.868,1.551-4.707,1.551
			L42.897,21.455l0.002,0.4c1.991,0.001,3.809-0.576,5.22-1.73c1.412-1.156,2.4-2.891,2.774-5.127l0.079-0.471h-4.88l-0.075,0.309
			c-0.188,0.771-0.521,1.431-1.015,1.886c-0.491,0.452-1.146,0.733-2.073,0.735c-1.005,0-1.78-0.362-2.278-0.936l-0.004-0.004
			v-0.002c-0.176-0.196-0.309-0.385-0.423-0.623c-0.17-0.354-0.295-0.839-0.374-1.616c-0.08-0.772-0.114-1.835-0.114-3.315
			c0-1.979,0.062-3.205,0.208-4.004c0.074-0.401,0.167-0.694,0.279-0.933c0.114-0.235,0.247-0.425,0.423-0.623l0.005-0.004
			c0.498-0.569,1.273-0.932,2.279-0.934c0.927,0.003,1.58,0.283,2.072,0.737c0.492,0.451,0.825,1.107,1.016,1.884l0.075,0.307h4.88
			l-0.079-0.469c-0.374-2.238-1.354-3.97-2.765-5.127C46.72,0.637,44.902,0.061,42.9,0.061c-2.354-0.004-4.334,0.859-5.849,2.379
			c-1.048,1.046-1.598,2.238-1.867,3.558c-0.271,1.316-0.28,2.766-0.28,4.407c-0.001,0.186,0,0.366,0,0.557
			c0,0.187-0.001,0.369-0.001,0.553c0.001,1.643,0.012,3.092,0.281,4.41c0.27,1.317,0.818,2.51,1.866,3.555
			c1.515,1.521,3.493,2.382,5.849,2.379L42.897,21.455L42.897,21.455z"/>
	</g>
	<path fill="#2F3536" d="M65.033,1.043h3.848l-6.473,7.762l7.119,12.075h-3.757l-5.476-9.696l-3.134,3.749v5.947h-3.227V1.043h3.227
		v9.722L65.033,1.043z M64.65,0.238l-6.683,8.255V0.238h-4.836v21.445h4.836v-6.459l2.2-2.632l5.134,9.091h0.235h5.399L63.389,8.885
		l7.21-8.646H64.65z"/>
	<path fill="#2F3536" d="M28.141,0.363h-3.265l-8.154,21.335h4.736l1.365-3.066l7.342-0.028l1.088,3.095h4.679L28.141,0.363z
		 M29.041,14.958l-5.467-0.013l2.754-7.511L29.041,14.958z"/>
	<g id="XMLID_2_">
		<polygon fill="#FFFFFF" points="32.402,15.361 32.402,17.824 30.977,17.824 30.977,18.238 30.988,18.633 30.977,18.633 
			30.977,20.848 28.382,20.848 28.382,17.824 19.737,17.824 19.737,15.02 24.966,1.013 28.33,1.013 22.975,15.361 28.382,15.361 
			28.382,11.377 30.977,11.377 30.977,15.361 		"/>
		<polygon fill="#2F3536" points="31.8,18.622 31.8,18.643 31.79,18.643 30.988,18.643 30.988,18.633 31.782,18.633 31.728,18.622 
					"/>
		<polygon fill="#2F3536" points="31.8,18.643 31.811,21.681 27.548,21.681 27.548,18.657 18.904,18.657 18.904,14.868 24.388,0.18 
			29.532,0.18 24.175,14.529 27.548,14.529 27.548,10.544 31.811,10.544 31.811,14.529 33.235,14.529 33.235,18.657 31.8,18.643 
			31.8,18.622 31.728,18.622 31.782,18.633 30.988,18.633 30.977,18.238 30.977,17.824 32.402,17.824 32.402,15.361 30.977,15.361 
			30.977,11.377 28.382,11.377 28.382,15.361 22.975,15.361 28.33,1.013 24.966,1.013 19.737,15.02 19.737,17.824 28.382,17.824 
			28.382,20.848 30.977,20.848 30.977,18.633 30.988,18.633 30.988,18.643 31.79,18.643 		"/>
	</g>
</g>
</svg>
