<?xml version="1.0" encoding="utf-8"?>
<!-- Generator: Adobe Illustrator 16.0.0, SVG Export Plug-In . SVG Version: 6.00 Build 0)  -->
<!DOCTYPE svg PUBLIC "-//W3C//DTD SVG 1.0//EN" "http://www.w3.org/TR/2001/REC-SVG-20010904/DTD/svg10.dtd">
<svg version="1.0" id="Ebene_1" xmlns="http://www.w3.org/2000/svg" xmlns:xlink="http://www.w3.org/1999/xlink" x="0px" y="0px"
	 width="212.122px" height="197.937px" viewBox="0.715 0.224 212.122 197.937" enable-background="new 0.715 0.224 212.122 197.937"
	 xml:space="preserve">
<g>
	<path d="M182.844,79.798h-11.303v16.225h11.303c5.264,0,8.713-3.367,8.713-8.11C191.557,83.165,188.107,79.798,182.844,79.798
		 M192.164,130.537l-11.994-24.505h-8.627v24.505h-11.996V69.101h24.076c12.508,0,19.932,8.543,19.932,18.812
		c0,8.626-5.264,13.977-11.219,16.135l13.723,26.489H192.164z"/>
	<polygon points="153.057,172.45 153.057,197.645 141.148,197.645 141.148,172.45 122.684,136.208 135.713,136.208 147.191,160.973 
		158.494,136.208 171.523,136.208 	"/>
	<polygon points="36.833,69.101 25.528,93.866 14.049,69.101 1.022,69.101 19.486,105.341 19.486,130.535 31.397,130.535 
		31.397,105.341 49.862,69.101 	"/>
	<path d="M82.022,82.561c-1.727-1.984-4.403-3.279-7.681-3.279c-3.278,0-6.041,1.295-7.767,3.279
		c-2.328,2.589-2.933,5.438-2.933,17.256c0,11.822,0.604,14.672,2.933,17.258c1.727,1.986,4.488,3.281,7.767,3.281
		c3.277,0,5.954-1.295,7.681-3.281c2.329-2.586,3.02-5.437,3.02-17.258C85.042,87.999,84.352,85.15,82.022,82.561 M90.909,124.325
		c-4.316,4.313-9.579,6.729-16.567,6.729c-6.989,0-12.339-2.415-16.652-6.729c-6.212-6.213-6.042-13.895-6.042-24.508
		c0-10.61-0.171-18.291,6.042-24.504c4.313-4.312,9.664-6.731,16.652-6.731c6.989,0,12.251,2.419,16.567,6.731
		c6.211,6.214,6.124,13.894,6.124,24.504C97.032,110.431,97.12,118.112,90.909,124.325"/>
	<path d="M128.92,131.054c-12.599,0-22.606-8.542-22.606-21.57V69.101h11.993v39.951c0,7.076,4.141,11.303,10.613,11.303
		c6.469,0,10.697-4.228,10.697-11.303V69.101h11.908v40.382C151.525,122.512,141.516,131.054,128.92,131.054"/>
	<path d="M24.078,198.161c-6.728,0-12.251-2.418-16.566-6.729c-6.211-6.214-6.041-13.892-6.041-24.507
		c0-10.608-0.171-18.293,6.041-24.506c4.315-4.313,9.839-6.729,16.566-6.729c11.479,0,20.453,6.559,22.609,19.418H34.521
		c-1.209-4.92-4.314-8.719-10.355-8.719c-3.279,0-5.953,1.207-7.678,3.194c-2.33,2.586-3.02,5.522-3.02,17.342
		c0,11.822,0.689,14.757,3.02,17.347c1.726,1.983,4.398,3.19,7.678,3.19c6.041,0,9.146-3.797,10.355-8.715h12.166
		C44.531,191.604,35.471,198.161,24.078,198.161"/>
	<rect x="53.964" y="136.206" width="11.995" height="61.438"/>
	<polygon points="102.023,146.907 102.023,197.645 90.028,197.645 90.028,146.907 73.979,146.907 73.979,136.208 118.076,136.208 
		118.076,146.907 	"/>
	<path fill="#2F3536" d="M36.063,28.377V3.148h9.642v59.316h-9.642V36.632H12.765v25.833H3.126V3.148h9.639v25.229H36.063z
		 M33.657,0.742v25.226H15.172V0.742H0.715v64.131h14.456V39.04h18.486v25.833h1.203h13.255V0.742H33.657z"/>
	<path d="M83.743,2.064h-9.448L50.707,63.785H64.41l3.948-8.872l21.237-0.077l3.149,8.948h13.536L83.743,2.064z M86.344,44.288
		L70.53,44.251l7.965-21.729L86.344,44.288z"/>
	<g>
		<path fill="#2F3536" d="M128.993,64.188v-1.204c-6.471-0.01-11.655-2.287-15.792-6.407c-2.779-2.792-4.174-5.804-4.923-9.414
			c-0.746-3.605-0.796-7.802-0.793-12.704c0-0.542,0.001-1.094,0.001-1.654s-0.001-1.111,0-1.655
			c-0.003-4.898,0.045-9.094,0.792-12.701c0.749-3.609,2.144-6.621,4.923-9.412c4.137-4.122,9.321-6.399,15.792-6.409
			c5.54,0.003,10.384,1.576,14.103,4.636c3.721,3.062,6.375,7.641,7.424,13.866l1.188-0.198v-1.206h-12.223v1.206l1.167-0.289
			c-0.645-2.63-1.815-5.045-3.729-6.826c-1.906-1.786-4.558-2.854-7.838-2.846c-3.586-0.006-6.646,1.338-8.625,3.62l0.908,0.791
			l-0.894-0.807c-0.642,0.712-1.207,1.493-1.654,2.438c-0.673,1.422-1.086,3.158-1.342,5.624c-0.25,2.469-0.349,5.699-0.349,10.168
			c0.004,5.963,0.17,9.713,0.66,12.409c0.244,1.347,0.578,2.441,1.029,3.386c0.447,0.944,1.014,1.726,1.654,2.438l0.894-0.805
			l-0.909,0.791c1.981,2.282,5.041,3.625,8.627,3.621c3.279,0.009,5.931-1.062,7.838-2.847c1.914-1.781,3.084-4.198,3.729-6.827
			l-1.167-0.287v1.204h12.224v-1.204l-1.188-0.199c-1.049,6.222-3.723,10.799-7.455,13.865c-3.731,3.06-8.574,4.632-14.07,4.634
			L128.993,64.188l0.001,1.205c5.95,0,11.382-1.721,15.599-5.183c4.226-3.458,7.187-8.633,8.302-15.328l0.235-1.403h-14.588
			l-0.226,0.919c-0.569,2.313-1.563,4.275-3.032,5.636c-1.471,1.356-3.419,2.193-6.199,2.203c-3.004-0.003-5.32-1.087-6.81-2.793
			l-0.015-0.013v-0.002c-0.529-0.588-0.928-1.151-1.269-1.864c-0.506-1.061-0.882-2.509-1.12-4.833
			c-0.238-2.32-0.336-5.489-0.336-9.925c-0.001-5.912,0.178-9.578,0.622-11.972c0.218-1.199,0.496-2.072,0.834-2.782
			c0.341-0.711,0.739-1.273,1.269-1.862l0.015-0.016c1.487-1.705,3.804-2.787,6.81-2.792c2.78,0.009,4.729,0.845,6.199,2.203
			c1.467,1.358,2.463,3.321,3.032,5.635l0.226,0.917h14.588l-0.233-1.401c-1.115-6.692-4.058-11.87-8.267-15.329
			c-4.211-3.465-9.644-5.187-15.636-5.184c-7.048-0.012-12.963,2.568-17.493,7.115c-3.135,3.124-4.775,6.688-5.58,10.628
			c-0.811,3.944-0.838,8.273-0.838,13.186c-0.004,0.546,0,1.096,0,1.654c0,0.56-0.004,1.109-0.004,1.655
			c0.004,4.913,0.031,9.244,0.842,13.189c0.805,3.938,2.445,7.503,5.58,10.629c4.53,4.545,10.445,7.123,17.493,7.113L128.993,64.188
			L128.993,64.188z"/>
	</g>
	<path fill="#2F3536" d="M195.18,3.148h11.506L187.332,26.36l21.291,36.105h-11.234l-16.371-28.992l-9.371,11.207v17.785h-9.643
		V3.148h9.643v29.07L195.18,3.148z M194.034,0.742L174.053,25.42V0.742h-14.459v64.131h14.459V45.556l6.578-7.868l15.354,27.186
		h0.703h16.149l-22.571-38.275l21.561-25.854h-17.792V0.742z"/>
</g>
</svg>
