<?xml version="1.0" encoding="utf-8"?>
<!-- Generator: Adobe Illustrator 16.0.4, SVG Export Plug-In . SVG Version: 6.00 Build 0)  -->
<!DOCTYPE svg PUBLIC "-//W3C//DTD SVG 1.1//EN" "http://www.w3.org/Graphics/SVG/1.1/DTD/svg11.dtd">
<svg version="1.1" id="Ebene_1" xmlns="http://www.w3.org/2000/svg" xmlns:xlink="http://www.w3.org/1999/xlink" x="0px" y="0px"
	 width="474px" height="268px" viewBox="-0.266 0 474 268" enable-background="new -0.266 0 474 268" xml:space="preserve">
<path fill="#FFFFFF" d="M182.844,79.798h-11.303v16.225h11.303c5.264,0,8.713-3.367,8.713-8.11
	C191.557,83.165,188.107,79.798,182.844,79.798 M192.164,130.537l-11.994-24.505h-8.627v24.505h-11.996V69.101h24.076
	c12.508,0,19.932,8.543,19.932,18.812c0,8.626-5.264,13.977-11.219,16.135l13.723,26.489H192.164z"/>
<polygon fill="#FFFFFF" points="153.057,172.45 153.057,197.644 141.149,197.644 141.149,172.45 122.684,136.208 135.713,136.208 
	147.191,160.972 158.494,136.208 171.524,136.208 "/>
<polygon fill="#FFFFFF" points="36.833,69.101 25.528,93.866 14.049,69.101 1.022,69.101 19.486,105.341 19.486,130.535 
	31.397,130.535 31.397,105.341 49.862,69.101 "/>
<path fill="#FFFFFF" d="M82.022,82.561c-1.727-1.984-4.403-3.279-7.681-3.279c-3.278,0-6.041,1.295-7.767,3.279
	c-2.328,2.589-2.933,5.438-2.933,17.256c0,11.822,0.604,14.672,2.933,17.258c1.727,1.986,4.488,3.281,7.767,3.281
	c3.277,0,5.954-1.295,7.681-3.281c2.329-2.586,3.02-5.437,3.02-17.258C85.042,87.999,84.352,85.15,82.022,82.561 M90.909,124.325
	c-4.316,4.313-9.579,6.729-16.567,6.729c-6.989,0-12.339-2.415-16.652-6.729c-6.212-6.213-6.042-13.895-6.042-24.508
	c0-10.61-0.171-18.291,6.042-24.504c4.313-4.312,9.664-6.731,16.652-6.731c6.989,0,12.251,2.419,16.567,6.731
	c6.211,6.214,6.124,13.894,6.124,24.504C97.032,110.431,97.12,118.112,90.909,124.325"/>
<path fill="#FFFFFF" d="M128.92,131.054c-12.599,0-22.606-8.542-22.606-21.57V69.101h11.993v39.951
	c0,7.076,4.141,11.303,10.613,11.303c6.469,0,10.697-4.228,10.697-11.303V69.101h11.908v40.382
	C151.525,122.512,141.516,131.054,128.92,131.054"/>
<path fill="#FFFFFF" d="M24.078,198.161c-6.728,0-12.251-2.418-16.566-6.73c-6.211-6.213-6.041-13.891-6.041-24.506
	c0-10.609-0.171-18.293,6.041-24.506c4.315-4.314,9.839-6.73,16.566-6.73c11.479,0,20.453,6.559,22.609,19.418H34.521
	c-1.209-4.92-4.314-8.719-10.355-8.719c-3.279,0-5.953,1.207-7.678,3.195c-2.33,2.586-3.02,5.523-3.02,17.342
	c0,11.822,0.689,14.756,3.02,17.346c1.726,1.984,4.398,3.191,7.678,3.191c6.041,0,9.146-3.797,10.355-8.715h12.166
	C44.531,191.603,35.471,198.161,24.078,198.161"/>
<rect x="53.964" y="136.206" fill="#FFFFFF" width="11.995" height="61.438"/>
<polygon fill="#FFFFFF" points="102.023,146.907 102.023,197.644 90.028,197.644 90.028,146.907 73.979,146.907 73.979,136.208 
	118.076,136.208 118.076,146.907 "/>
<path fill="#2F3536" d="M36.063,28.377V3.148h9.642v59.316h-9.642V36.632H12.765v25.833H3.126V3.148h9.639v25.229H36.063z
	 M33.657,0.742v25.226H15.172V0.742H0.715v64.131h14.456V39.04h18.486v25.833h1.203h13.255V0.742H33.657z"/>
<path fill="#FFFFFF" d="M83.743,2.064h-9.448L50.707,63.785H64.41l3.948-8.872l21.237-0.077l3.149,8.948h13.536L83.743,2.064z
	 M86.344,44.288l-15.814-0.037l7.965-21.729L86.344,44.288z"/>
<polyline fill="#2F3536" points="94.119,54.892 94.281,54.914 91.944,54.914 91.944,61.332 84.441,61.332 84.441,52.578 
	59.423,52.578 59.423,44.469 74.555,3.948 84.292,3.948 68.794,45.455 84.441,45.455 84.441,33.925 91.944,33.925 91.944,45.455 
	96.069,45.455 96.069,52.578 91.944,52.578 91.944,53.782 91.977,54.953 94.301,54.953 98.479,54.987 98.479,43.047 94.354,43.047 
	94.354,31.519 82.031,31.519 82.031,43.048 72.265,43.048 87.762,1.54 72.883,1.54 57.018,44.033 57.018,54.987 82.031,54.987 
	82.031,63.741 94.354,63.741 94.329,54.892 "/>
<g>
	<path fill="#2F3536" d="M128.993,64.188v-1.204c-6.471-0.01-11.655-2.287-15.792-6.407c-2.779-2.792-4.174-5.804-4.923-9.414
		c-0.746-3.605-0.796-7.802-0.793-12.704c0-0.542,0.001-1.094,0.001-1.654c0-0.56-0.001-1.111,0-1.655
		c-0.003-4.898,0.045-9.094,0.792-12.701c0.749-3.609,2.144-6.621,4.923-9.412c4.137-4.122,9.321-6.399,15.792-6.409
		c5.54,0.003,10.384,1.576,14.103,4.636c3.721,3.062,6.375,7.641,7.424,13.866l1.188-0.198v-1.206h-12.223v1.206l1.168-0.289
		c-0.645-2.63-1.816-5.045-3.73-6.826c-1.906-1.786-4.558-2.854-7.838-2.846c-3.586-0.006-6.646,1.338-8.625,3.62l0.908,0.791
		l-0.894-0.807c-0.642,0.712-1.207,1.493-1.654,2.438c-0.673,1.422-1.086,3.158-1.342,5.624c-0.25,2.469-0.349,5.699-0.349,10.168
		c0.004,5.963,0.17,9.713,0.66,12.409c0.244,1.347,0.578,2.441,1.029,3.386c0.447,0.944,1.014,1.726,1.654,2.438l0.894-0.805
		l-0.909,0.791c1.981,2.282,5.041,3.625,8.627,3.621c3.279,0.009,5.931-1.062,7.838-2.847c1.914-1.781,3.084-4.198,3.729-6.827
		l-1.168-0.287v1.204h12.224v-1.204l-1.188-0.199c-1.048,6.222-3.722,10.799-7.454,13.865c-3.732,3.06-8.575,4.632-14.071,4.634
		V64.188v1.205c5.95,0,11.382-1.721,15.599-5.183c4.226-3.458,7.187-8.633,8.302-15.328l0.235-1.403h-14.588l-0.226,0.919
		c-0.569,2.313-1.563,4.275-3.032,5.636c-1.471,1.356-3.419,2.193-6.199,2.203c-3.004-0.003-5.32-1.087-6.81-2.793l-0.015-0.013
		v-0.002c-0.529-0.588-0.928-1.151-1.269-1.864c-0.506-1.061-0.882-2.509-1.12-4.833c-0.238-2.32-0.336-5.489-0.336-9.925
		c-0.001-5.912,0.178-9.578,0.622-11.972c0.218-1.199,0.496-2.072,0.834-2.782c0.341-0.711,0.739-1.273,1.269-1.862l0.015-0.016
		c1.487-1.705,3.804-2.787,6.81-2.792c2.78,0.009,4.729,0.845,6.199,2.203c1.467,1.358,2.463,3.321,3.032,5.635l0.226,0.917h14.588
		l-0.233-1.401c-1.116-6.692-4.058-11.87-8.267-15.329c-4.211-3.465-9.644-5.187-15.636-5.184
		c-7.048-0.012-12.963,2.568-17.493,7.115c-3.135,3.124-4.775,6.688-5.58,10.628c-0.811,3.944-0.838,8.273-0.838,13.186
		c-0.004,0.546,0,1.096,0,1.654c0,0.56-0.004,1.109-0.004,1.655c0.004,4.913,0.031,9.244,0.842,13.189
		c0.805,3.938,2.445,7.503,5.58,10.629c4.53,4.545,10.445,7.123,17.493,7.113V64.188L128.993,64.188z"/>
</g>
<path fill="#2F3536" d="M195.18,3.148h11.505L187.332,26.36l21.291,36.105h-11.234l-16.371-28.992l-9.372,11.207v17.785h-9.642
	V3.148h9.642v29.07L195.18,3.148z M194.034,0.742L174.053,25.42V0.742h-14.459v64.131h14.459V45.556l6.578-7.868l15.354,27.186
	h0.703h16.149l-22.571-38.275l21.56-25.854h-17.792V0.742z"/>
<g>
	<g>
		<path fill="#2F3536" d="M346.904,268c-14.232,0-24.561-9.881-24.561-23.495v-42.878h14.889v42.434
			c0,6.502,3.615,10.384,9.672,10.384c6.111,0,9.76-3.882,9.76-10.384v-42.434h14.801v42.878
			C371.465,258.119,361.137,268,346.904,268z M324.873,204.157v40.348c0,6.108,2.203,11.371,6.373,15.221
			c4.012,3.704,9.572,5.744,15.658,5.744s11.646-2.04,15.658-5.744c4.17-3.85,6.373-9.112,6.373-15.221v-40.348h-9.74v39.903
			c0,7.845-4.824,12.913-12.291,12.913c-7.412,0-12.201-5.068-12.201-12.913v-39.903H324.873z M242.111,268
			c-10.799,0-17.982-2.612-24.02-8.735l-0.883-0.895l9.785-9.785l0.895,0.895c3.342,3.34,8.053,4.965,14.4,4.965
			c6.594,0,9.938-2.208,9.938-6.561c0-1.35-0.27-3.211-1.553-4.41c-0.938-0.869-2.045-1.46-4.93-1.896l-7.631-1.065
			c-5.723-0.844-9.965-2.672-12.977-5.59c-3.314-3.314-4.92-7.679-4.92-13.357c0-5.986,2.184-11.098,6.314-14.781
			c4.174-3.723,10.053-5.689,17.002-5.689c9.221,0,15.799,2.386,21.33,7.736l0.93,0.899l-9.617,9.509l-0.891-0.85
			c-3.693-3.53-8.193-4.006-12.107-4.006c-5.252,0-8.516,2.582-8.516,6.737c0,0.837,0.189,2.42,1.465,3.61
			c1.162,1.079,3.051,1.867,5.18,2.161l7.475,1.067c5.834,0.809,9.775,2.418,12.777,5.218c3.514,3.33,5.291,8.156,5.291,14.352
			C266.85,259.773,256.908,268,242.111,268z M220.793,258.364c5.342,4.969,11.803,7.105,21.318,7.105
			c6.336,0,11.992-1.682,15.93-4.736c4.107-3.187,6.279-7.753,6.279-13.205c0-5.474-1.514-9.682-4.496-12.508
			c-2.588-2.416-6.105-3.823-11.396-4.556l-7.475-1.067c-2.662-0.368-4.99-1.368-6.549-2.815c-1.467-1.368-2.271-3.307-2.271-5.462
			c0-4.275,2.893-9.268,11.045-9.268c4.107,0,8.807,0.484,12.936,3.89l6.041-5.973c-4.873-4.296-10.525-6.146-18.621-6.146
			c-12.627,0-20.785,7.042-20.785,17.94c0,4.974,1.361,8.752,4.164,11.554c2.604,2.523,6.391,4.127,11.561,4.89l7.637,1.065
			c3.09,0.468,4.791,1.158,6.287,2.549c1.545,1.442,2.361,3.607,2.361,6.262c0,3.396-1.621,9.09-12.469,9.09
			c-6.504,0-11.512-1.586-15.262-4.842L220.793,258.364z M473.631,267.467h-44.232v-65.84h44.232v13.556h-29.342v12.319h24.986
			v13.556h-24.986v12.853h29.342V267.467z M431.93,264.937h39.172v-8.496h-29.344v-17.913h24.986v-8.495h-24.986v-17.38h29.344
			v-8.495H431.93V264.937z M425.172,267.467h-14.889v-26.498h-18.9v26.498h-14.889v-65.84h14.889v25.875h18.9v-25.875h14.889
			V267.467z M412.812,264.937h9.828v-60.779h-9.828v25.875h-23.959v-25.875h-9.83v60.779h9.83v-26.498h23.959V264.937z
			 M322.666,267.467H305.48l-12.359-25.253h-6.838v25.253h-14.889v-65.84h26.072c6.48,0,12.014,2.107,16,6.095
			c3.744,3.744,5.805,8.913,5.805,14.555c0,7.854-4.105,14.218-11.061,17.282L322.666,267.467z M307.059,264.937h11.447
			l-13.844-26.731l1.355-0.491c6.715-2.434,10.725-8.204,10.725-15.438c0-10.668-7.926-18.119-19.275-18.119h-23.543v60.779h9.83
			v-25.253h10.945L307.059,264.937z M215.012,267.467h-43.609v-65.84h14.889v52.283h28.721V267.467z M173.932,264.937h38.551v-8.496
			h-28.721v-52.283h-9.83V264.937z M168.969,267.467h-17.186l-12.36-25.253h-6.837v25.253h-14.89v-65.84h26.073
			c6.48,0,12.012,2.107,16,6.095c3.744,3.744,5.805,8.913,5.805,14.555c0,7.854-4.105,14.218-11.059,17.282L168.969,267.467z
			 M153.361,264.937h11.447l-13.844-26.731l1.355-0.491c6.715-2.434,10.725-8.204,10.725-15.438
			c0-10.668-7.926-18.119-19.275-18.119h-23.542v60.779h9.829v-25.253h10.946L153.361,264.937z M115.615,267.467h-15.613
			l-3.734-11.204h-20.68l-3.823,11.204H39.177l-15.735-27.86l-6.713,8.025v19.835H1.839v-65.84h14.89v25.257l20.45-25.257h18.332
			l-22.144,26.554l22.936,38.891l23.806-65.444h11.463l0.304,0.831L115.615,267.467z M101.825,264.937h10.173l-22.195-60.779h-7.921
			l-22.109,60.779h10.182l3.823-11.204H98.09L101.825,264.937z M40.655,264.937h11.451l-21.824-37.006l19.825-23.773H38.385
			l-24.187,29.872v-29.872H4.37v60.779h9.829v-18.223l9.648-11.535L40.655,264.937z M95.648,245.859H76.371l9.802-28.207
			L95.648,245.859z M79.929,243.329h12.199l-5.996-17.852L79.929,243.329z M296.668,231.899h-12.914v-19.247h12.914
			c6.031,0,10.244,3.958,10.244,9.624S302.699,231.899,296.668,231.899z M286.283,229.369h10.385c4.613,0,7.715-2.851,7.715-7.093
			c0-4.243-3.102-7.094-7.715-7.094h-10.385V229.369z M142.969,231.899h-12.913v-19.247h12.913c6.033,0,10.246,3.958,10.246,9.624
			S149.002,231.899,142.969,231.899z M132.586,229.369h10.382c4.615,0,7.717-2.851,7.717-7.093c0-4.243-3.102-7.094-7.717-7.094
			h-10.382V229.369z"/>
	</g>
</g>
</svg>
