<?xml version="1.0" encoding="utf-8"?>
<!-- Generator: Adobe Illustrator 16.0.4, SVG Export Plug-In . SVG Version: 6.00 Build 0)  -->
<!DOCTYPE svg PUBLIC "-//W3C//DTD SVG 1.1//EN" "http://www.w3.org/Graphics/SVG/1.1/DTD/svg11.dtd">
<svg version="1.1" id="Ebene_1" xmlns="http://www.w3.org/2000/svg" xmlns:xlink="http://www.w3.org/1999/xlink" x="0px" y="0px"
	 width="364px" height="268px" viewBox="-0.163 0 364 268" enable-background="new -0.163 0 364 268" xml:space="preserve">
<path fill="#FFFFFF" d="M182.844,79.798h-11.303v16.225h11.303c5.264,0,8.713-3.367,8.713-8.11
	C191.557,83.165,188.107,79.798,182.844,79.798 M192.164,130.537l-11.994-24.505h-8.627v24.505h-11.996V69.101h24.076
	c12.508,0,19.932,8.543,19.932,18.812c0,8.626-5.264,13.977-11.219,16.135l13.723,26.489H192.164z"/>
<polygon fill="#FFFFFF" points="153.057,172.45 153.057,197.644 141.149,197.644 141.149,172.45 122.684,136.208 135.713,136.208 
	147.191,160.972 158.494,136.208 171.524,136.208 "/>
<polygon fill="#FFFFFF" points="36.833,69.101 25.528,93.866 14.049,69.101 1.022,69.101 19.486,105.341 19.486,130.535 
	31.397,130.535 31.397,105.341 49.862,69.101 "/>
<path fill="#FFFFFF" d="M82.022,82.561c-1.727-1.984-4.403-3.279-7.681-3.279c-3.278,0-6.041,1.295-7.767,3.279
	c-2.328,2.589-2.933,5.438-2.933,17.256c0,11.822,0.604,14.672,2.933,17.258c1.727,1.986,4.488,3.281,7.767,3.281
	c3.277,0,5.954-1.295,7.681-3.281c2.329-2.586,3.02-5.437,3.02-17.258C85.042,87.999,84.352,85.15,82.022,82.561 M90.909,124.325
	c-4.316,4.313-9.579,6.729-16.567,6.729c-6.989,0-12.339-2.415-16.652-6.729c-6.212-6.213-6.042-13.895-6.042-24.508
	c0-10.61-0.171-18.291,6.042-24.504c4.313-4.312,9.664-6.731,16.652-6.731c6.989,0,12.251,2.419,16.567,6.731
	c6.211,6.214,6.124,13.894,6.124,24.504C97.032,110.431,97.12,118.112,90.909,124.325"/>
<path fill="#FFFFFF" d="M128.92,131.054c-12.599,0-22.606-8.542-22.606-21.57V69.101h11.993v39.951
	c0,7.076,4.141,11.303,10.613,11.303c6.469,0,10.697-4.228,10.697-11.303V69.101h11.908v40.382
	C151.525,122.512,141.516,131.054,128.92,131.054"/>
<path fill="#FFFFFF" d="M24.078,198.161c-6.728,0-12.251-2.418-16.566-6.73c-6.211-6.213-6.041-13.891-6.041-24.506
	c0-10.609-0.171-18.293,6.041-24.506c4.315-4.314,9.839-6.73,16.566-6.73c11.479,0,20.453,6.559,22.609,19.418H34.521
	c-1.209-4.92-4.314-8.719-10.355-8.719c-3.279,0-5.953,1.207-7.678,3.195c-2.33,2.586-3.02,5.523-3.02,17.342
	c0,11.822,0.689,14.756,3.02,17.346c1.726,1.984,4.398,3.191,7.678,3.191c6.041,0,9.146-3.797,10.355-8.715h12.166
	C44.531,191.603,35.471,198.161,24.078,198.161"/>
<rect x="53.964" y="136.206" fill="#FFFFFF" width="11.995" height="61.438"/>
<polygon fill="#FFFFFF" points="102.023,146.907 102.023,197.644 90.028,197.644 90.028,146.907 73.979,146.907 73.979,136.208 
	118.076,136.208 118.076,146.907 "/>
<path fill="#2F3536" d="M36.063,28.377V3.148h9.642v59.316h-9.642V36.632H12.765v25.833H3.126V3.148h9.639v25.229H36.063z
	 M33.657,0.742v25.226H15.172V0.742H0.715v64.131h14.456V39.04h18.486v25.833h1.203h13.255V0.742H33.657z"/>
<path fill="#FFFFFF" d="M83.743,2.064h-9.448L50.707,63.785H64.41l3.948-8.872l21.237-0.077l3.149,8.948h13.536L83.743,2.064z
	 M86.344,44.288l-15.814-0.037l7.965-21.729L86.344,44.288z"/>
<polyline fill="#2F3536" points="94.119,54.892 94.281,54.914 91.944,54.914 91.944,61.332 84.441,61.332 84.441,52.578 
	59.423,52.578 59.423,44.469 74.555,3.948 84.292,3.948 68.794,45.455 84.441,45.455 84.441,33.925 91.944,33.925 91.944,45.455 
	96.069,45.455 96.069,52.578 91.944,52.578 91.944,53.782 91.977,54.953 94.301,54.953 98.479,54.987 98.479,43.047 94.354,43.047 
	94.354,31.519 82.031,31.519 82.031,43.048 72.265,43.048 87.762,1.54 72.883,1.54 57.018,44.033 57.018,54.987 82.031,54.987 
	82.031,63.741 94.354,63.741 94.329,54.892 "/>
<g>
	<path fill="#2F3536" d="M128.993,64.188v-1.204c-6.471-0.01-11.655-2.287-15.792-6.407c-2.779-2.792-4.174-5.804-4.923-9.414
		c-0.746-3.605-0.796-7.802-0.793-12.704c0-0.542,0.001-1.094,0.001-1.654c0-0.56-0.001-1.111,0-1.655
		c-0.003-4.898,0.045-9.094,0.792-12.701c0.749-3.609,2.144-6.621,4.923-9.412c4.137-4.122,9.321-6.399,15.792-6.409
		c5.54,0.003,10.384,1.576,14.103,4.636c3.721,3.062,6.375,7.641,7.424,13.866l1.188-0.198v-1.206h-12.223v1.206l1.168-0.289
		c-0.645-2.63-1.816-5.045-3.73-6.826c-1.906-1.786-4.558-2.854-7.838-2.846c-3.586-0.006-6.646,1.338-8.625,3.62l0.908,0.791
		l-0.894-0.807c-0.642,0.712-1.207,1.493-1.654,2.438c-0.673,1.422-1.086,3.158-1.342,5.624c-0.25,2.469-0.349,5.699-0.349,10.168
		c0.004,5.963,0.17,9.713,0.66,12.409c0.244,1.347,0.578,2.441,1.029,3.386c0.447,0.944,1.014,1.726,1.654,2.438l0.894-0.805
		l-0.909,0.791c1.981,2.282,5.041,3.625,8.627,3.621c3.279,0.009,5.931-1.062,7.838-2.847c1.914-1.781,3.084-4.198,3.729-6.827
		l-1.168-0.287v1.204h12.224v-1.204l-1.188-0.199c-1.048,6.222-3.722,10.799-7.454,13.865c-3.732,3.06-8.575,4.632-14.071,4.634
		V64.188v1.205c5.95,0,11.382-1.721,15.599-5.183c4.226-3.458,7.187-8.633,8.302-15.328l0.235-1.403h-14.588l-0.226,0.919
		c-0.569,2.313-1.563,4.275-3.032,5.636c-1.471,1.356-3.419,2.193-6.199,2.203c-3.004-0.003-5.32-1.087-6.81-2.793l-0.015-0.013
		v-0.002c-0.529-0.588-0.928-1.151-1.269-1.864c-0.506-1.061-0.882-2.509-1.12-4.833c-0.238-2.32-0.336-5.489-0.336-9.925
		c-0.001-5.912,0.178-9.578,0.622-11.972c0.218-1.199,0.496-2.072,0.834-2.782c0.341-0.711,0.739-1.273,1.269-1.862l0.015-0.016
		c1.487-1.705,3.804-2.787,6.81-2.792c2.78,0.009,4.729,0.845,6.199,2.203c1.467,1.358,2.463,3.321,3.032,5.635l0.226,0.917h14.588
		l-0.233-1.401c-1.116-6.692-4.058-11.87-8.267-15.329c-4.211-3.465-9.644-5.187-15.636-5.184
		c-7.048-0.012-12.963,2.568-17.493,7.115c-3.135,3.124-4.775,6.688-5.58,10.628c-0.811,3.944-0.838,8.273-0.838,13.186
		c-0.004,0.546,0,1.096,0,1.654c0,0.56-0.004,1.109-0.004,1.655c0.004,4.913,0.031,9.244,0.842,13.189
		c0.805,3.938,2.445,7.503,5.58,10.629c4.53,4.545,10.445,7.123,17.493,7.113V64.188L128.993,64.188z"/>
</g>
<path fill="#2F3536" d="M195.18,3.148h11.505L187.332,26.36l21.291,36.105h-11.234l-16.371-28.992l-9.372,11.207v17.785h-9.642
	V3.148h9.642v29.07L195.18,3.148z M194.034,0.742L174.053,25.42V0.742h-14.459v64.131h14.459V45.556l6.578-7.868l15.354,27.186
	h0.703h16.149l-22.571-38.275l21.56-25.854h-17.792V0.742z"/>
<g>
	<g>
		<path fill="#2F3536" d="M180.912,268.767c-10.793,0-17.977-2.614-24.019-8.741l-1.014-1.027l10.005-10.004l1.027,1.027
			c3.282,3.282,7.92,4.878,14.177,4.878c6.427,0,9.686-2.128,9.686-6.326c0-1.896-0.499-3.323-1.482-4.241
			c-0.903-0.838-1.979-1.408-4.796-1.836l-7.587-1.058c-5.732-0.847-9.984-2.682-13.008-5.611c-3.337-3.337-4.95-7.722-4.95-13.419
			c0-12.29,9.395-20.548,23.376-20.548c9.222,0,15.804,2.389,21.342,7.746l1.067,1.032l-9.839,9.729l-1.021-0.976
			c-3.624-3.462-8.05-3.929-11.902-3.929c-5.103,0-8.271,2.492-8.271,6.503c0,0.801,0.181,2.314,1.394,3.445
			c1.129,1.048,2.968,1.813,5.043,2.099l7.433,1.062c5.84,0.808,9.792,2.424,12.808,5.238c3.535,3.35,5.324,8.195,5.324,14.409
			C205.703,260.509,195.74,268.767,180.912,268.767z M160.001,258.986c5.242,4.805,11.594,6.874,20.911,6.874
			c13.295,0,21.885-6.925,21.885-17.642c0-5.385-1.483-9.521-4.408-12.292c-2.543-2.373-6.006-3.756-11.222-4.478l-7.432-1.062
			c-2.685-0.369-5.038-1.381-6.619-2.849c-1.497-1.397-2.32-3.375-2.32-5.573c0-4.341,2.928-9.409,11.178-9.409
			c3.838,0,8.676,0.456,12.846,3.801l5.732-5.668c-4.77-4.139-10.315-5.923-18.225-5.923c-12.435,0-20.47,6.925-20.47,17.642
			c0,4.888,1.335,8.6,4.082,11.348c2.556,2.476,6.284,4.053,11.383,4.806l7.593,1.059c3.116,0.473,4.835,1.173,6.356,2.584
			c1.577,1.473,2.409,3.674,2.409,6.369c0,5.867-4.59,9.232-12.592,9.232c-6.436,0-11.413-1.554-15.163-4.743L160.001,258.986z
			 M363.674,268.237h-13.207l-22.683-35.152v35.152H312.59v-65.847h13.206l22.685,35.074v-35.074h15.193V268.237z M352.051,265.331
			h8.717v-60.034h-9.381v42.012l-27.173-42.012h-8.718v60.034h9.382v-42.109L352.051,265.331z M307.894,268.237h-44.365v-65.847
			h44.365v13.868h-29.17v11.856h24.839v13.866h-24.839v12.388h29.17V268.237z M266.435,265.331h38.553v-8.056h-29.17v-18.2h24.839
			v-8.054h-24.839v-17.669h29.17v-8.056h-38.553V265.331z M233.867,268.237h-24.172v-65.847h24.172
			c7.332,0,13.435,2.226,17.646,6.438c6.907,6.907,6.855,15.144,6.8,23.863c-0.005,0.78-0.01,1.565-0.01,2.356
			c0,0.788,0.005,1.574,0.01,2.357c0.054,8.596,0.109,17.484-6.8,24.395C247.301,266.012,241.198,268.237,233.867,268.237z
			 M212.602,265.331h21.266c6.544,0,11.936-1.932,15.592-5.586c6.051-6.052,6.001-13.954,5.948-22.321
			c-0.005-0.789-0.01-1.582-0.01-2.376c0-0.797,0.005-1.589,0.01-2.374c0.054-8.447,0.1-15.743-5.948-21.791
			c-3.655-3.654-9.047-5.586-15.592-5.586h-21.266V265.331z M153.522,268.237h-44.365v-65.847h44.365v13.868h-29.171v11.856h24.839
			v13.866h-24.839v12.388h29.171V268.237z M112.063,265.331h38.553v-8.056h-29.171v-18.2h24.839v-8.054h-24.839v-17.669h29.171
			v-8.056h-38.553V265.331z M107.253,268.237H89.727l-12.288-25.105h-6.48v25.105H55.765v-65.847h26.117
			c12.878,0,21.873,8.521,21.873,20.724c0,7.819-4.05,14.167-10.922,17.276L107.253,268.237z M91.541,265.331h10.935l-13.718-26.487
			l1.557-0.564c6.596-2.39,10.533-8.059,10.533-15.165c0-10.49-7.799-17.817-18.966-17.817h-23.21v60.034h9.382v-25.105h11.2
			L91.541,265.331z M26.102,268.237H1.931v-65.847h24.171c7.333,0,13.436,2.226,17.647,6.438c6.907,6.907,6.855,15.144,6.8,23.863
			c-0.005,0.78-0.01,1.565-0.01,2.356c0,0.788,0.005,1.574,0.01,2.357c0.054,8.596,0.109,17.484-6.8,24.395
			C39.537,266.012,33.435,268.237,26.102,268.237z M4.837,265.331h21.265c6.545,0,11.937-1.932,15.592-5.586
			c6.05-6.052,6.001-13.954,5.948-22.321c-0.005-0.789-0.01-1.582-0.01-2.376c0-0.797,0.005-1.589,0.01-2.374
			c0.053-8.447,0.099-15.743-5.949-21.791c-3.655-3.654-9.046-5.586-15.592-5.586H4.837V265.331z M232.718,257.275h-10.735v-43.923
			h10.735c4.542,0,7.819,1.403,10.312,4.415c2.705,3.33,2.986,7.822,2.986,17.28c0,9.969-0.414,14.646-2.978,17.801
			C240.536,255.872,237.26,257.275,232.718,257.275z M224.889,254.369h7.829c3.658,0,6.148-1.037,8.074-3.363
			c1.995-2.456,2.318-6.717,2.318-15.958c0-9.278-0.352-13.005-2.327-15.438c-1.916-2.314-4.406-3.352-8.065-3.352h-7.829V254.369z
			 M24.953,257.275H14.218v-43.923h10.735c4.543,0,7.82,1.403,10.313,4.415c2.704,3.329,2.986,7.821,2.986,17.28
			c0,9.97-0.414,14.646-2.978,17.801C32.772,255.872,29.495,257.275,24.953,257.275z M17.124,254.369h7.829
			c3.659,0,6.149-1.037,8.074-3.363c1.996-2.455,2.319-6.716,2.319-15.958c0-9.278-0.352-13.006-2.327-15.438
			c-1.916-2.314-4.406-3.352-8.065-3.352h-7.829V254.369z M81.086,232.877H68.053v-19.524h13.033c6.113,0,10.382,4.015,10.382,9.762
			C91.468,228.862,87.199,232.877,81.086,232.877z M70.959,229.971h10.127c4.542,0,7.476-2.691,7.476-6.856
			s-2.934-6.855-7.476-6.855H70.959V229.971z"/>
	</g>
</g>
</svg>
