<?xml version="1.0" encoding="utf-8"?>
<!-- Generator: Adobe Illustrator 16.0.4, SVG Export Plug-In . SVG Version: 6.00 Build 0)  -->
<!DOCTYPE svg PUBLIC "-//W3C//DTD SVG 1.1//EN" "http://www.w3.org/Graphics/SVG/1.1/DTD/svg11.dtd">
<svg version="1.1" id="Ebene_1" xmlns="http://www.w3.org/2000/svg" xmlns:xlink="http://www.w3.org/1999/xlink" x="0px" y="0px"
	 width="444px" height="268px" viewBox="-0.762 0 444 268" enable-background="new -0.762 0 444 268" xml:space="preserve">
<g>
	<path fill="#FFFFFF" d="M182.844,79.798h-11.303v16.225h11.303c5.264,0,8.713-3.367,8.713-8.11
		C191.557,83.165,188.107,79.798,182.844,79.798 M192.164,130.537l-11.994-24.505h-8.627v24.505h-11.996V69.101h24.076
		c12.508,0,19.932,8.543,19.932,18.812c0,8.626-5.264,13.977-11.219,16.135l13.723,26.489H192.164z"/>
	<polygon fill="#FFFFFF" points="36.833,69.101 25.528,93.866 14.049,69.101 1.022,69.101 19.486,105.341 19.486,130.535 
		31.397,130.535 31.397,105.341 49.862,69.101 	"/>
	<path fill="#FFFFFF" d="M82.022,82.561c-1.727-1.984-4.403-3.279-7.681-3.279c-3.278,0-6.041,1.295-7.767,3.279
		c-2.328,2.589-2.933,5.438-2.933,17.256c0,11.822,0.604,14.672,2.933,17.258c1.727,1.986,4.488,3.281,7.767,3.281
		c3.277,0,5.954-1.295,7.681-3.281c2.329-2.586,3.02-5.437,3.02-17.258C85.042,87.999,84.352,85.15,82.022,82.561 M90.909,124.325
		c-4.316,4.313-9.579,6.729-16.567,6.729c-6.989,0-12.339-2.415-16.652-6.729c-6.212-6.213-6.042-13.895-6.042-24.508
		c0-10.61-0.171-18.291,6.042-24.504c4.313-4.312,9.664-6.731,16.652-6.731c6.989,0,12.251,2.419,16.567,6.731
		c6.211,6.214,6.124,13.894,6.124,24.504C97.032,110.431,97.12,118.112,90.909,124.325"/>
	<path fill="#FFFFFF" d="M128.92,131.054c-12.599,0-22.606-8.542-22.606-21.57V69.101h11.993v39.951
		c0,7.076,4.141,11.303,10.613,11.303c6.469,0,10.697-4.228,10.697-11.303V69.101h11.908v40.382
		C151.525,122.512,141.516,131.054,128.92,131.054"/>
</g>
<g>
	<polygon fill="#FFFFFF" points="153.057,172.45 153.057,197.644 141.149,197.644 141.149,172.45 122.684,136.208 135.713,136.208 
		147.191,160.972 158.494,136.208 171.524,136.208 	"/>
	<path fill="#FFFFFF" d="M24.078,198.161c-6.728,0-12.251-2.418-16.566-6.73c-6.211-6.213-6.041-13.891-6.041-24.506
		c0-10.609-0.171-18.293,6.041-24.506c4.315-4.314,9.839-6.73,16.566-6.73c11.479,0,20.453,6.559,22.609,19.418H34.521
		c-1.209-4.92-4.314-8.719-10.355-8.719c-3.279,0-5.953,1.207-7.678,3.195c-2.33,2.586-3.02,5.523-3.02,17.342
		c0,11.822,0.689,14.756,3.02,17.346c1.726,1.984,4.398,3.191,7.678,3.191c6.041,0,9.146-3.797,10.355-8.715h12.166
		C44.531,191.603,35.471,198.161,24.078,198.161"/>
	<rect x="53.964" y="136.206" fill="#FFFFFF" width="11.995" height="61.438"/>
	<polygon fill="#FFFFFF" points="102.023,146.907 102.023,197.644 90.028,197.644 90.028,146.907 73.979,146.907 73.979,136.208 
		118.076,136.208 118.076,146.907 	"/>
</g>
<g>
	<path fill="#2F3536" d="M36.063,28.377V3.148h9.642v59.316h-9.642V36.632H12.765v25.833H3.126V3.148h9.639v25.229H36.063z
		 M33.657,0.742v25.226H15.172V0.742H0.715v64.131h14.456V39.04h18.486v25.833h1.203h13.255V0.742H33.657z"/>
	<path fill="#FFFFFF" d="M83.743,2.064h-9.448L50.707,63.785H64.41l3.948-8.872l21.237-0.077l3.149,8.948h13.536L83.743,2.064z
		 M86.344,44.288l-15.814-0.037l7.965-21.729L86.344,44.288z"/>
	<polyline fill="#2F3536" points="94.119,54.892 94.281,54.914 91.944,54.914 91.944,61.332 84.441,61.332 84.441,52.578 
		59.423,52.578 59.423,44.469 74.555,3.948 84.292,3.948 68.794,45.455 84.441,45.455 84.441,33.925 91.944,33.925 91.944,45.455 
		96.069,45.455 96.069,52.578 91.944,52.578 91.944,53.782 91.977,54.953 94.301,54.953 98.479,54.987 98.479,43.047 94.354,43.047 
		94.354,31.519 82.031,31.519 82.031,43.048 72.265,43.048 87.762,1.54 72.883,1.54 57.018,44.033 57.018,54.987 82.031,54.987 
		82.031,63.741 94.354,63.741 94.329,54.892 	"/>
	<g>
		<path fill="#2F3536" d="M128.993,64.188v-1.204c-6.471-0.01-11.655-2.287-15.792-6.407c-2.779-2.792-4.174-5.804-4.923-9.414
			c-0.746-3.605-0.796-7.802-0.793-12.704c0-0.542,0.001-1.094,0.001-1.654c0-0.56-0.001-1.111,0-1.655
			c-0.003-4.898,0.045-9.094,0.792-12.701c0.749-3.609,2.144-6.621,4.923-9.412c4.137-4.122,9.321-6.399,15.792-6.409
			c5.54,0.003,10.384,1.576,14.103,4.636c3.721,3.062,6.375,7.641,7.424,13.866l1.188-0.198v-1.206h-12.223v1.206l1.168-0.289
			c-0.645-2.63-1.816-5.045-3.73-6.826c-1.906-1.786-4.558-2.854-7.838-2.846c-3.586-0.006-6.646,1.338-8.625,3.62l0.908,0.791
			l-0.894-0.807c-0.642,0.712-1.207,1.493-1.654,2.438c-0.673,1.422-1.086,3.158-1.342,5.624c-0.25,2.469-0.349,5.699-0.349,10.168
			c0.004,5.963,0.17,9.713,0.66,12.409c0.244,1.347,0.578,2.441,1.029,3.386c0.447,0.944,1.014,1.726,1.654,2.438l0.894-0.805
			l-0.909,0.791c1.981,2.282,5.041,3.625,8.627,3.621c3.279,0.009,5.931-1.062,7.838-2.847c1.914-1.781,3.084-4.198,3.729-6.827
			l-1.168-0.287v1.204h12.224v-1.204l-1.188-0.199c-1.048,6.222-3.722,10.799-7.454,13.865c-3.732,3.06-8.575,4.632-14.071,4.634
			V64.188v1.205c5.95,0,11.382-1.721,15.599-5.183c4.226-3.458,7.187-8.633,8.302-15.328l0.235-1.403h-14.588l-0.226,0.919
			c-0.569,2.313-1.563,4.275-3.032,5.636c-1.471,1.356-3.419,2.193-6.199,2.203c-3.004-0.003-5.32-1.087-6.81-2.793l-0.015-0.013
			v-0.002c-0.529-0.588-0.928-1.151-1.269-1.864c-0.506-1.061-0.882-2.509-1.12-4.833c-0.238-2.32-0.336-5.489-0.336-9.925
			c-0.001-5.912,0.178-9.578,0.622-11.972c0.218-1.199,0.496-2.072,0.834-2.782c0.341-0.711,0.739-1.273,1.269-1.862l0.015-0.016
			c1.487-1.705,3.804-2.787,6.81-2.792c2.78,0.009,4.729,0.845,6.199,2.203c1.467,1.358,2.463,3.321,3.032,5.635l0.226,0.917h14.588
			l-0.233-1.401c-1.116-6.692-4.058-11.87-8.267-15.329c-4.211-3.465-9.644-5.187-15.636-5.184
			c-7.048-0.012-12.963,2.568-17.493,7.115c-3.135,3.124-4.775,6.688-5.58,10.628c-0.811,3.944-0.838,8.273-0.838,13.186
			c-0.004,0.546,0,1.096,0,1.654c0,0.56-0.004,1.109-0.004,1.655c0.004,4.913,0.031,9.244,0.842,13.189
			c0.805,3.938,2.445,7.503,5.58,10.629c4.53,4.545,10.445,7.123,17.493,7.113V64.188L128.993,64.188z"/>
	</g>
	<path fill="#2F3536" d="M195.18,3.148h11.505L187.332,26.36l21.291,36.105h-11.234l-16.371-28.992l-9.372,11.207v17.785h-9.642
		V3.148h9.642v29.07L195.18,3.148z M194.034,0.742L174.053,25.42V0.742h-14.459v64.131h14.459V45.556l6.578-7.868l15.354,27.186
		h0.703h16.149l-22.571-38.275l21.56-25.854h-17.792V0.742z"/>
</g>
<g>
	<g>
		<g>
			<g>
				<g>
					<path fill="#2F3536" d="M304.055,268c-14.232,0-24.562-9.881-24.562-23.495v-42.878h14.891v42.434
						c0,6.502,3.615,10.384,9.672,10.384c6.111,0,9.76-3.882,9.76-10.384v-42.434h14.801v42.878
						C328.615,258.119,318.285,268,304.055,268z M282.023,204.157v40.348c0,6.108,2.203,11.371,6.373,15.221
						c4.012,3.704,9.572,5.744,15.658,5.744s11.646-2.04,15.658-5.744c4.17-3.85,6.373-9.112,6.373-15.221v-40.348h-9.74v39.903
						c0,7.845-4.824,12.913-12.291,12.913c-7.412,0-12.203-5.068-12.203-12.913v-39.903H282.023z M79.468,268
						c-7.233,0-13.14-2.391-18.056-7.307c-6.604-6.603-6.6-14.847-6.595-25.283v-0.863v-0.863
						c-0.005-10.438-0.009-18.681,6.595-25.284c4.916-4.916,10.822-7.306,18.056-7.306c7.173,0,13.05,2.39,17.966,7.306
						c6.687,6.687,6.686,15.078,6.685,25.704v0.887c0.001,10.625,0.002,19.018-6.685,25.703C92.518,265.609,86.641,268,79.468,268z
						 M79.468,203.624c-6.528,0-11.85,2.147-16.267,6.564c-5.861,5.861-5.858,13.258-5.854,23.494l0.001,0.864l-0.001,0.864
						c-0.004,10.236-0.007,17.632,5.854,23.493c4.417,4.418,9.738,6.565,16.267,6.565c6.558,0,11.698-2.086,16.177-6.565
						c5.945-5.944,5.944-13.481,5.943-23.914v-0.887c0.001-10.433,0.002-17.971-5.943-23.915
						C91.166,205.71,86.025,203.624,79.468,203.624z M418.312,267.467h-24.117v-65.84h24.117c7.324,0,13.414,2.219,17.611,6.417
						c6.889,6.891,6.867,15.136,6.811,23.865c-0.004,0.784-0.01,1.575-0.01,2.371c0,0.792,0.006,1.583,0.01,2.371
						c0.055,8.606,0.082,17.506-6.811,24.397C431.727,265.247,425.637,267.467,418.312,267.467z M396.727,264.937h21.586
						c6.639,0,12.109-1.963,15.822-5.676c6.145-6.146,6.094-14.135,6.041-22.594c-0.006-0.793-0.01-1.589-0.01-2.387
						c0-0.802,0.004-1.598,0.01-2.387c0.055-8.541,0.102-15.918-6.041-22.061c-3.713-3.713-9.184-5.676-15.822-5.676h-21.586
						V264.937z M386.412,267.467h-12.98l-23.121-35.829v35.829h-14.889v-65.84H348.4l23.121,35.748v-35.748h14.891V267.467z
						 M374.811,264.937h9.07v-60.779h-9.828v41.788l-27.029-41.788h-9.072v60.779h9.83v-41.886L374.811,264.937z M273.236,267.467
						h-14.889v-32.843l-10.049,19.949h-9.914l-10.139-19.983v32.877h-14.891v-65.84h14.24l15.742,32.584l15.658-32.584h14.24
						V267.467z M260.879,264.937h9.828v-60.779h-10.121l-17.242,35.883l-17.334-35.883h-10.125v60.779h9.83v-40.925l14.225,28.031
						h6.801l14.139-28.066V264.937z M191.967,267.467h-14.889v-52.284h-16.539v-13.556h47.967v13.556h-16.539V267.467z
						 M179.607,264.937h9.83v-52.284h16.537v-8.495h-42.906v8.495h16.539V264.937z M161.039,267.467h-17.186l-12.359-25.253h-6.837
						v25.253h-14.89v-65.84h26.073c6.479,0,12.013,2.107,15.999,6.095c3.744,3.744,5.807,8.913,5.807,14.555
						c0,7.854-4.105,14.218-11.061,17.282L161.039,267.467z M145.434,264.937h11.445l-13.844-26.731l1.355-0.491
						c6.715-2.433,10.725-8.204,10.725-15.438c0-10.668-7.926-18.119-19.274-18.119h-23.543v60.779h9.829v-25.253h10.946
						L145.434,264.937z M25.14,267.467H1.022v-65.84H25.14c7.323,0,13.413,2.219,17.61,6.417c6.891,6.891,6.838,15.136,6.783,23.864
						c-0.005,0.784-0.01,1.575-0.01,2.372c0,0.793,0.005,1.584,0.01,2.372c0.054,8.606,0.109,17.505-6.783,24.396
						C38.553,265.247,32.463,267.467,25.14,267.467z M3.553,264.937H25.14c6.638,0,12.108-1.963,15.821-5.676
						c6.145-6.146,6.095-14.134,6.042-22.592c-0.005-0.794-0.01-1.591-0.01-2.389c0-0.802,0.005-1.598,0.01-2.388
						c0.054-8.541,0.101-15.917-6.042-22.06c-3.713-3.713-9.184-5.676-15.821-5.676H3.553V264.937z M79.468,256.974
						c-3.585,0-6.85-1.39-8.957-3.813c-2.739-3.044-3.334-6.352-3.334-18.613c0-12.263,0.595-15.57,3.348-18.63
						c2.094-2.407,5.358-3.798,8.943-3.798c3.58,0,6.729,1.354,8.868,3.813c2.78,3.09,3.423,6.571,3.423,18.614
						c0,12.042-0.643,15.524-3.438,18.63C86.197,255.62,83.048,256.974,79.468,256.974z M79.468,214.649
						c-2.853,0-5.422,1.073-7.048,2.944c-2.072,2.302-2.713,4.937-2.713,16.953c0,12.016,0.641,14.65,2.698,16.938
						c1.642,1.887,4.21,2.96,7.062,2.96c2.836,0,5.308-1.046,6.959-2.944c2.14-2.378,2.802-5.022,2.802-16.953
						c0-11.932-0.662-14.575-2.788-16.938C84.775,215.695,82.305,214.649,79.468,214.649z M417.156,256.44h-10.602v-43.788h10.602
						c4.506,0,7.754,1.39,10.223,4.371c2.68,3.298,2.957,7.79,2.957,17.257c0,9.978-0.41,14.653-2.949,17.78
						C424.91,255.052,421.662,256.44,417.156,256.44z M409.086,253.91h8.07c3.744,0,6.297-1.065,8.273-3.453
						c2.045-2.519,2.377-6.833,2.377-16.177c0-9.386-0.359-13.161-2.385-15.652c-1.969-2.38-4.521-3.445-8.266-3.445h-8.07V253.91z
						 M23.983,256.44H13.382v-43.788h10.602c4.506,0,7.754,1.39,10.222,4.371c2.68,3.297,2.958,7.789,2.958,17.257
						c0,9.978-0.41,14.653-2.95,17.78C31.737,255.052,28.489,256.44,23.983,256.44z M15.912,253.91h8.071
						c3.745,0,6.296-1.065,8.272-3.453c2.046-2.519,2.377-6.832,2.377-16.177c0-9.386-0.359-13.161-2.384-15.652
						c-1.97-2.38-4.521-3.445-8.266-3.445h-8.071V253.91z M135.04,231.899h-12.913v-19.247h12.913
						c6.034,0,10.247,3.958,10.247,9.624S141.074,231.899,135.04,231.899z M124.657,229.369h10.383c4.616,0,7.716-2.851,7.716-7.093
						c0-4.243-3.1-7.094-7.716-7.094h-10.383V229.369z"/>
				</g>
			</g>
		</g>
	</g>
</g>
</svg>
