<?xml version="1.0" encoding="utf-8"?>
<!-- Generator: Adobe Illustrator 16.0.4, SVG Export Plug-In . SVG Version: 6.00 Build 0)  -->
<!DOCTYPE svg PUBLIC "-//W3C//DTD SVG 1.1//EN" "http://www.w3.org/Graphics/SVG/1.1/DTD/svg11.dtd">
<svg version="1.1" id="Ebene_1" xmlns="http://www.w3.org/2000/svg" xmlns:xlink="http://www.w3.org/1999/xlink" x="0px" y="0px"
	 width="373px" height="22px" viewBox="-0.901 0 373 22" enable-background="new -0.901 0 373 22" xml:space="preserve">
<path fill="#FFFFFF" d="M142.046,3.994h-3.952v5.677h3.952c1.845,0,3.05-1.178,3.05-2.836
	C145.098,5.174,143.891,3.994,142.046,3.994 M145.309,21.748l-4.196-8.574h-3.019v8.574h-4.197V0.252h8.423
	c4.377,0,6.975,2.988,6.975,6.583c0,3.018-1.841,4.89-3.925,5.644l4.801,9.27H145.309L145.309,21.748z"/>
<polygon fill="#FFFFFF" points="90.957,0.252 87.002,8.918 82.985,0.252 78.43,0.252 84.889,12.934 84.889,21.748 89.057,21.748 
	89.057,12.934 95.518,0.252 "/>
<path fill="#FFFFFF" d="M106.77,4.961c-0.604-0.693-1.542-1.146-2.688-1.146c-1.147,0-2.113,0.453-2.718,1.146
	c-0.813,0.906-1.026,1.903-1.026,6.039c0,4.137,0.213,5.134,1.026,6.038c0.604,0.695,1.57,1.148,2.718,1.148
	c1.146,0,2.083-0.453,2.688-1.148c0.813-0.904,1.056-1.901,1.056-6.038C107.826,6.864,107.583,5.867,106.77,4.961 M109.879,19.575
	c-1.512,1.511-3.351,2.354-5.797,2.354c-2.445,0-4.316-0.845-5.828-2.354c-2.173-2.174-2.112-4.86-2.112-8.575
	c0-3.714-0.061-6.4,2.112-8.574c1.512-1.509,3.384-2.355,5.829-2.355c2.446,0,4.285,0.848,5.796,2.356
	c2.174,2.174,2.143,4.86,2.143,8.575C112.02,14.714,112.053,17.401,109.879,19.575"/>
<path fill="#FFFFFF" d="M123.178,21.839c-4.408,0-7.91-2.987-7.91-7.547V0.161h4.199v13.979c0,2.478,1.447,3.954,3.711,3.954
	c2.267,0,3.744-1.479,3.744-3.954V0.161h4.167v14.131C131.089,18.85,127.587,21.839,123.178,21.839"/>
<polygon fill="#FFFFFF" points="213.16,12.932 213.16,21.748 208.993,21.748 208.993,12.932 202.533,0.252 207.092,0.252 
	211.107,8.918 215.062,0.252 219.622,0.252 "/>
<path fill="#FFFFFF" d="M168.031,21.93c-2.355,0-4.288-0.846-5.797-2.355c-2.174-2.174-2.113-4.859-2.113-8.574
	s-0.061-6.401,2.113-8.575c1.509-1.509,3.441-2.354,5.797-2.354c4.016,0,7.154,2.295,7.908,6.794h-4.256
	c-0.424-1.721-1.51-3.05-3.623-3.05c-1.146,0-2.082,0.422-2.687,1.118c-0.815,0.905-1.058,1.932-1.058,6.069
	c0,4.137,0.242,5.164,1.058,6.068c0.604,0.695,1.539,1.117,2.687,1.117c2.113,0,3.199-1.33,3.623-3.049h4.256
	C175.186,19.635,172.016,21.93,168.031,21.93"/>
<rect x="178.486" y="0.252" fill="#FFFFFF" width="4.197" height="21.496"/>
<polygon fill="#FFFFFF" points="195.305,3.995 195.305,21.748 191.105,21.748 191.105,3.995 185.49,3.995 185.49,0.252 
	200.92,0.252 200.92,3.995 "/>
<path fill="#2F3536" d="M12.254,9.519V1.081h3.227v19.836h-3.227v-8.64h-7.79v8.64H1.24V1.081h3.224v8.438H12.254z M11.451,0.277
	v8.437H5.269V0.277H0.436v21.445h4.833v-8.64h6.183v8.64h0.401h4.433V0.277H11.451z"/>
<path fill="#FFFFFF" d="M28.2,0.68h-3.16L17.152,21.32h4.583l1.321-2.966l7.103-0.025l1.053,2.991h4.526L28.2,0.68z M29.07,14.8
	l-5.287-0.014l2.662-7.266L29.07,14.8z"/>
<g>
	<path fill="#2F3536" d="M43.332,21.495v-0.402c-2.164-0.004-3.896-0.766-5.278-2.143c-0.931-0.934-1.397-1.939-1.646-3.146
		c-0.25-1.206-0.266-2.61-0.266-4.248c0-0.182,0-0.366,0-0.553c0-0.188,0-0.373,0-0.555c0-1.638,0.015-3.041,0.265-4.247
		c0.25-1.207,0.717-2.214,1.646-3.146c1.383-1.378,3.115-2.142,5.278-2.144c1.854,0,3.473,0.525,4.719,1.55
		c1.242,1.023,2.132,2.556,2.48,4.638l0.398-0.066V6.627H46.84V7.03l0.392-0.097c-0.215-0.88-0.608-1.688-1.247-2.283
		c-0.639-0.597-1.524-0.955-2.621-0.953c-1.2-0.001-2.224,0.449-2.886,1.211l0.305,0.265l-0.302-0.27
		c-0.212,0.238-0.402,0.499-0.551,0.815c-0.227,0.475-0.364,1.056-0.449,1.88c-0.084,0.827-0.116,1.904-0.116,3.4
		c0.001,1.994,0.056,3.248,0.22,4.149c0.083,0.45,0.193,0.815,0.346,1.133c0.148,0.314,0.338,0.577,0.551,0.814l0.302-0.269
		l-0.305,0.264c0.662,0.764,1.686,1.213,2.886,1.211c1.096,0.003,1.982-0.355,2.621-0.953c0.639-0.596,1.031-1.403,1.247-2.283
		l-0.391-0.096v0.402h4.088V14.97l-0.398-0.065c-0.349,2.08-1.243,3.611-2.491,4.636s-2.868,1.551-4.707,1.551V21.495l0.001,0.402
		c1.991,0.001,3.808-0.576,5.219-1.732c1.412-1.156,2.401-2.889,2.775-5.127l0.079-0.469h-4.88l-0.075,0.307
		c-0.189,0.773-0.522,1.431-1.015,1.886c-0.491,0.452-1.145,0.733-2.073,0.735c-1.005,0-1.78-0.362-2.278-0.934l-0.004-0.004v-0.002
		c-0.176-0.196-0.309-0.385-0.423-0.623c-0.17-0.354-0.295-0.839-0.374-1.616c-0.08-0.774-0.114-1.835-0.114-3.317
		c0-1.979,0.061-3.205,0.208-4.005c0.074-0.4,0.167-0.693,0.279-0.931c0.114-0.237,0.247-0.425,0.423-0.623l0.005-0.004
		c0.498-0.571,1.273-0.933,2.279-0.935c0.927,0.003,1.58,0.283,2.072,0.737c0.492,0.453,0.825,1.109,1.016,1.884l0.075,0.308h4.88
		l-0.079-0.47c-0.374-2.237-1.354-3.97-2.765-5.127c-1.409-1.157-3.227-1.733-5.229-1.733C40.979,0.099,39,0.961,37.485,2.481
		c-1.048,1.046-1.598,2.238-1.867,3.556c-0.271,1.318-0.28,2.767-0.28,4.409c-0.001,0.184,0,0.366,0,0.555
		c0,0.187-0.001,0.369-0.001,0.553c0.001,1.643,0.011,3.092,0.281,4.41c0.269,1.317,0.818,2.51,1.866,3.555
		c1.515,1.52,3.493,2.382,5.849,2.379L43.332,21.495L43.332,21.495z"/>
</g>
<path fill="#2F3536" d="M65.469,1.081h3.848l-6.473,7.763l7.12,12.075h-3.757l-5.476-9.696l-3.134,3.749v5.947h-3.226V1.081h3.226
	v9.723L65.469,1.081z M65.085,0.277L58.402,8.53V0.277h-4.836v21.445h4.836v-6.459l2.2-2.632l5.134,9.091h0.235h5.4L63.825,8.924
	l7.21-8.646H65.085z"/>
<g>
	<g>
		<g>
			<g>
				<g>
					<path fill="#2F3536" d="M326.301,21.93c-4.65,0-8.025-3.229-8.025-7.677V0.244h4.865v13.864c0,2.124,1.182,3.393,3.16,3.393
						c1.996,0,3.189-1.269,3.189-3.393V0.244h4.834v14.009C334.324,18.701,330.949,21.93,326.301,21.93z M319.104,1.071v13.182
						c0,1.996,0.719,3.716,2.082,4.973c1.311,1.211,3.127,1.877,5.115,1.877s3.805-0.666,5.115-1.877
						c1.363-1.257,2.082-2.977,2.082-4.973V1.071h-3.182v13.037c0,2.562-1.576,4.219-4.016,4.219c-2.422,0-3.986-1.656-3.986-4.219
						V1.071H319.104z M252.926,21.93c-2.363,0-4.293-0.781-5.898-2.388c-2.158-2.157-2.156-4.851-2.154-8.26V11v-0.282
						c-0.002-3.41-0.004-6.104,2.154-8.261c1.605-1.606,3.535-2.387,5.898-2.387c2.344,0,4.264,0.78,5.869,2.387
						c2.186,2.185,2.186,4.927,2.186,8.397v0.29c0,3.472,0,6.214-2.186,8.397C257.189,21.148,255.27,21.93,252.926,21.93z
						 M252.926,0.897c-2.133,0-3.871,0.701-5.314,2.145c-1.914,1.915-1.914,4.331-1.912,7.676V11v0.282
						c-0.002,3.345-0.002,5.761,1.912,7.676c1.443,1.443,3.182,2.145,5.314,2.145c2.143,0,3.822-0.682,5.285-2.145
						c1.943-1.942,1.941-4.405,1.941-7.813v-0.29c0-3.408,0.002-5.871-1.941-7.812C256.748,1.578,255.068,0.897,252.926,0.897z
						 M363.631,21.755h-7.881V0.244h7.881c2.393,0,4.383,0.726,5.754,2.097c2.25,2.251,2.242,4.945,2.225,7.797
						c-0.002,0.257-0.004,0.515-0.004,0.775c0,0.259,0.002,0.517,0.004,0.774c0.018,2.812,0.027,5.719-2.225,7.971
						C368.014,21.03,366.023,21.755,363.631,21.755z M356.578,20.929h7.053c2.168,0,3.955-0.642,5.168-1.854
						c2.008-2.008,1.992-4.618,1.975-7.382c-0.002-0.259-0.004-0.519-0.004-0.779c0-0.263,0.002-0.522,0.004-0.78
						c0.018-2.79,0.033-5.2-1.975-7.207c-1.213-1.213-3-1.854-5.168-1.854h-7.053V20.929z M353.207,21.755h-4.24l-7.553-11.705
						v11.705h-4.865V0.244h4.24l7.555,11.68V0.244h4.863V21.755z M349.418,20.929h2.963V1.071h-3.211v13.652l-8.83-13.652h-2.965
						v19.857h3.211V7.244L349.418,20.929z M316.232,21.755h-4.865V11.025l-3.283,6.518h-3.238l-3.312-6.529v10.741h-4.865V0.244
						h4.652l5.145,10.646l5.115-10.646h4.652V21.755z M312.195,20.929h3.211V1.071H312.1l-5.633,11.724l-5.664-11.724h-3.309v19.857
						h3.213V7.558l4.646,9.158h2.223l4.619-9.17V20.929z M289.68,21.755h-4.863V4.673h-5.404V0.244h15.672v4.429h-5.404V21.755z
						 M285.643,20.929h3.211V3.847h5.404V1.071h-14.02v2.775h5.404V20.929z M279.576,21.755h-5.615l-4.037-8.25h-2.234v8.25h-4.863
						V0.244h8.518c2.117,0,3.924,0.688,5.227,1.991c1.223,1.224,1.898,2.912,1.898,4.756c0,2.565-1.342,4.645-3.615,5.646
						L279.576,21.755z M274.479,20.929h3.738l-4.523-8.733l0.443-0.161c2.193-0.795,3.504-2.68,3.504-5.043
						c0-3.485-2.59-5.92-6.297-5.92h-7.691v19.857h3.211v-8.251h3.576L274.479,20.929z M235.176,21.755h-7.879V0.244h7.879
						c2.393,0,4.383,0.726,5.754,2.097c2.252,2.251,2.234,4.945,2.217,7.797c-0.002,0.256-0.004,0.515-0.004,0.775
						c0,0.259,0.002,0.518,0.004,0.774c0.018,2.812,0.035,5.719-2.217,7.971C239.559,21.03,237.568,21.755,235.176,21.755z
						 M228.123,20.929h7.053c2.17,0,3.957-0.642,5.17-1.854c2.008-2.008,1.99-4.618,1.973-7.381c0-0.26-0.002-0.52-0.002-0.78
						c0-0.263,0.002-0.522,0.002-0.78c0.018-2.791,0.033-5.2-1.973-7.207c-1.213-1.213-3-1.854-5.17-1.854h-7.053V20.929z
						 M252.926,18.327c-1.172,0-2.238-0.454-2.926-1.246c-0.895-0.994-1.09-2.075-1.09-6.081c0-4.007,0.195-5.087,1.094-6.087
						c0.684-0.786,1.75-1.24,2.922-1.24c1.17,0,2.199,0.442,2.898,1.245c0.908,1.01,1.117,2.147,1.117,6.082
						c0,3.934-0.209,5.072-1.123,6.086C255.125,17.885,254.096,18.327,252.926,18.327z M252.926,4.499
						c-0.932,0-1.771,0.351-2.303,0.962c-0.676,0.752-0.887,1.613-0.887,5.539s0.211,4.786,0.883,5.533
						c0.535,0.616,1.375,0.968,2.307,0.968c0.926,0,1.734-0.342,2.273-0.962c0.699-0.777,0.916-1.642,0.916-5.539
						c0-3.898-0.217-4.762-0.912-5.534C254.66,4.841,253.854,4.499,252.926,4.499z M363.252,18.152h-3.463V3.847h3.463
						c1.473,0,2.533,0.454,3.34,1.428c0.875,1.078,0.967,2.545,0.967,5.639c0,3.26-0.135,4.787-0.963,5.809
						C365.785,17.699,364.725,18.152,363.252,18.152z M360.615,17.326h2.637c1.225,0,2.059-0.349,2.703-1.128
						c0.668-0.823,0.777-2.232,0.777-5.285c0-3.066-0.117-4.3-0.779-5.114c-0.643-0.777-1.477-1.126-2.701-1.126h-2.637V17.326z
						 M234.799,18.152h-3.465V3.847h3.465c1.473,0,2.533,0.454,3.34,1.428c0.875,1.077,0.967,2.545,0.967,5.639
						c0,3.26-0.135,4.787-0.965,5.809C237.332,17.699,236.271,18.152,234.799,18.152z M232.162,17.326h2.637
						c1.223,0,2.057-0.349,2.703-1.128c0.668-0.823,0.775-2.232,0.775-5.285c0-3.066-0.117-4.3-0.777-5.114
						c-0.645-0.777-1.479-1.126-2.701-1.126h-2.637V17.326z M271.082,10.135h-4.219V3.847h4.219c1.971,0,3.348,1.293,3.348,3.145
						C274.43,8.842,273.053,10.135,271.082,10.135z M267.689,9.309h3.393c1.508,0,2.521-0.932,2.521-2.317
						c0-1.387-1.014-2.318-2.521-2.318h-3.393V9.309z"/>
				</g>
			</g>
		</g>
	</g>
</g>
</svg>
