<?xml version="1.0" encoding="utf-8"?>
<!-- Generator: Adobe Illustrator 16.0.0, SVG Export Plug-In . SVG Version: 6.00 Build 0)  -->
<!DOCTYPE svg PUBLIC "-//W3C//DTD SVG 1.1//EN" "http://www.w3.org/Graphics/SVG/1.1/DTD/svg11.dtd">
<svg version="1.1" id="Ebene_1" xmlns="http://www.w3.org/2000/svg" xmlns:xlink="http://www.w3.org/1999/xlink" x="0px" y="0px"
	 width="371px" height="150px" viewBox="0 0 371 150" enable-background="new 0 0 371 150" xml:space="preserve">
<image overflow="visible" enable-background="new    " width="2000" height="720" xlink:href="../../../../../Downloads/2000px-FH_Dortmund-logo.svg.png"  transform="matrix(0.162 0 0 0.162 -476 -58.3198)">
</image>
<line fill="none" x1="607.336" y1="299.445" x2="255.445" y2="299.445"/>
<line fill="none" x1="607.336" y1="299.445" x2="255.445" y2="299.445"/>
<line fill="none" x1="607.336" y1="299.445" x2="255.445" y2="299.445"/>
<line fill="none" x1="607.336" y1="299.445" x2="255.445" y2="299.445"/>
<line fill="none" x1="607.336" y1="299.445" x2="255.445" y2="299.445"/>
<line fill="none" x1="607.336" y1="299.445" x2="255.445" y2="299.445"/>
<line fill="none" x1="607.336" y1="299.445" x2="255.445" y2="299.445"/>
<line fill="none" x1="607.336" y1="299.445" x2="255.445" y2="299.445"/>
<line fill="none" x1="607.336" y1="299.445" x2="255.445" y2="299.445"/>
<line fill="none" x1="607.336" y1="299.445" x2="255.445" y2="299.445"/>
<line fill="none" x1="607.336" y1="299.445" x2="255.445" y2="299.445"/>
<line fill="none" x1="607.336" y1="299.445" x2="255.445" y2="299.445"/>
<line fill="none" x1="607.336" y1="299.445" x2="255.445" y2="299.445"/>
<line fill="none" x1="607.336" y1="299.445" x2="255.445" y2="299.445"/>
<g>
	<polygon fill="#878787" points="833.832,39.755 825,39.755 825,2.951 845.18,2.951 845.18,11.172 833.832,11.172 833.832,16.937 
		844.566,16.937 844.566,25.156 833.832,25.156 	"/>
	<path fill="#878787" d="M856.526,40.981l-8.835-1.963l13.189-36.068h7.484l13.188,36.068l-8.834,1.963l-2.27-7.421h-11.654
		L856.526,40.981z M864.623,14.422l-3.312,10.918h6.625L864.623,14.422z"/>
	<path fill="#878787" d="M903.877,20.127c4.602,1.227,7.055,4.539,7.055,8.894c0,6.993-6.441,10.734-14.414,10.734h-11.041V2.952
		h10.428c7.053,0,13.494,2.699,13.494,9.201C909.398,15.834,907.559,18.593,903.877,20.127 M895.904,17.06
		c3.066,0,4.906-0.92,4.906-3.374c0-1.717-1.41-2.76-4.906-2.76h-1.533v6.133H895.904z M896.211,31.782
		c3.986,0,5.826-1.227,5.826-3.681c0-2.76-1.84-3.68-5.826-3.68h-1.84v7.361H896.211z"/>
	<polygon fill="#878787" points="833.832,76.656 846.714,76.656 846.714,84.877 825,84.877 825,48.071 833.832,48.071 	"/>
	<path fill="#878787" d="M857.262,86.102l-8.832-1.961l13.188-36.068h7.484l13.187,36.068l-8.832,1.961l-2.271-7.424h-11.654
		L857.262,86.102z M865.359,59.542l-3.312,10.918h6.625L865.359,59.542z"/>
	<path fill="#878787" d="M904.613,65.246c4.602,1.227,7.055,4.54,7.055,8.895c0,6.992-6.441,10.732-14.416,10.732h-11.039V48.071
		h10.428c7.053,0,13.494,2.7,13.494,9.202C910.135,60.954,908.295,63.713,904.613,65.246 M896.641,62.18
		c3.066,0,4.906-0.92,4.906-3.374c0-1.717-1.41-2.76-4.906-2.76h-1.535v6.134H896.641z M896.945,76.9
		c3.988,0,5.828-1.227,5.828-3.68c0-2.76-1.84-3.681-5.828-3.681h-1.84v7.36H896.945z"/>
	<path fill="#878787" d="M843.4,110.367c4.601,1.227,7.055,4.539,7.055,8.893c0,6.994-6.441,10.734-14.414,10.734H825V93.191h10.428
		c7.054,0,13.495,2.699,13.495,9.201C848.923,106.074,847.082,108.832,843.4,110.367 M835.426,107.301
		c3.068,0,4.908-0.922,4.908-3.375c0-1.717-1.411-2.76-4.908-2.76h-1.533v6.135H835.426z M835.734,122.021
		c3.986,0,5.826-1.227,5.826-3.682c0-2.76-1.84-3.68-5.826-3.68h-1.84v7.361H835.734L835.734,122.021z"/>
	<polygon fill="#878787" points="865.46,121.775 878.648,121.775 878.648,129.994 856.628,129.994 856.628,93.191 878.035,93.191 
		878.035,101.412 865.46,101.412 865.46,106.562 876.194,106.562 876.194,114.783 865.46,114.783 	"/>
	<path fill="#878787" d="M904.391,115.582l9.877,11.775l-7.791,3.865l-10.428-13.371h-1.35v12.145h-8.833V93.191h10.243
		c7.424,0,14.477,4.906,14.477,12.33C910.586,109.57,908.379,113.434,904.391,115.582 M894.699,109.631h1.41
		c2.699,0,5.521-1.41,5.521-4.109s-1.412-4.109-5.521-4.109h-1.41V109.631z"/>
	<polygon fill="#878787" points="926.717,121.775 939.598,121.775 939.598,129.994 917.881,129.994 917.881,93.191 926.717,93.191 	
		"/>
	<rect x="945.537" y="93.191" fill="#878787" width="8.955" height="36.805"/>
	<polygon fill="#878787" points="983.916,129.994 971.281,109.139 971.281,129.994 962.447,129.994 962.447,93.191 971.281,93.191 
		983.916,114.049 983.916,93.191 992.752,93.191 992.752,129.994 	"/>
	<path fill="#878787" d="M816.996,126.195c0,2.09-1.709,3.797-3.798,3.797c-2.093,0-3.798-1.707-3.798-3.797
		c0-2.092,1.705-3.799,3.798-3.799C815.287,122.396,816.996,124.104,816.996,126.195"/>
	<path fill="#FCE26B" d="M985.123,39.849c-1.938-2.276-4.77-2.466-7.387-1.587c-2.719,0.924-4.652,2.517-6.518,4.6
		c-3.355,3.747-5.971,9.444-5.682,14.668c0.375,6.73,5.463,9.364,11.305,6.111c4.572-2.54,8.039-7.727,9.459-12.583
		c2.01-1.162,4.018-2.32,6.029-3.482v13.088c-10.502,6.066-21.002,12.131-31.504,18.191c0.049,1.508,0.107,3.025,0.158,4.537
		c30.781-1.094,49.799-34.037,35.359-61.241c-1.336,0.709-2.674,1.422-4.014,2.127v11.399
		C989.928,37.075,987.527,38.458,985.123,39.849"/>
	<path fill="#64C6E6" d="M945.076,20.459c-1,2.815,0.248,5.359,2.322,7.183c2.158,1.896,4.504,2.775,7.232,3.347
		c4.926,1.033,11.166,0.453,15.547-2.412c5.637-3.688,5.375-9.41-0.357-12.847c-4.488-2.689-10.717-3.098-15.627-1.901
		c-2.012-1.155-4.021-2.321-6.033-3.484c3.777-2.183,7.555-4.364,11.336-6.548c10.498,6.067,21.004,12.127,31.502,18.195
		c1.283-0.803,2.566-1.606,3.85-2.414c-16.336-26.104-54.363-26.104-70.705,0c1.285,0.804,2.566,1.61,3.848,2.414
		c3.291-1.901,6.586-3.801,9.869-5.704C940.27,17.681,942.674,19.065,945.076,20.459"/>
	<path fill="#EA535D" d="M948.303,64.833c2.943-0.536,4.525-2.896,5.064-5.604c0.564-2.818,0.145-5.291-0.721-7.941
		c-1.564-4.786-5.193-9.904-9.863-12.262c-6.016-3.036-10.844,0.055-10.949,6.741c-0.084,5.229,2.682,10.818,6.168,14.481v6.969
		c-3.775-2.183-7.559-4.365-11.332-6.552V24.282c-1.338-0.708-2.676-1.419-4.012-2.124c-14.443,27.211,4.574,60.145,35.357,61.239
		c0.053-1.514,0.109-3.023,0.158-4.533c-3.291-1.9-6.578-3.807-9.871-5.705V64.833L948.303,64.833z"/>
</g>
<g>
	<defs>
		<rect id="SVGID_1_" x="25.855" y="21.353" width="319.289" height="115.194"/>
	</defs>
	<clipPath id="SVGID_2_">
		<use xlink:href="#SVGID_1_"  overflow="visible"/>
	</clipPath>
	<path clip-path="url(#SVGID_2_)" fill="#F29517" d="M340.397,41.233c-0.063-1.913-0.555-3.36-1.477-4.342
		c-0.91-0.933-2.075-1.399-3.499-1.399c-1.421,0-2.588,0.466-3.496,1.399c-0.893,0.981-1.385,2.429-1.474,4.342H340.397z
		 M330.452,45.258c0,1.967,0.544,3.46,1.633,4.483c1.013,1.038,2.345,1.557,3.997,1.557c1.923,0,3.643-0.796,5.155-2.383
		l3.429,3.038c-2.408,2.65-5.24,3.958-8.493,3.926c-1.243,0-2.455-0.188-3.635-0.563c-0.592-0.204-1.165-0.476-1.725-0.823
		c-0.592-0.297-1.144-0.665-1.659-1.103c-1-0.909-1.809-2.176-2.432-3.807c-0.681-1.565-1.021-3.601-1.021-6.107
		c0-2.412,0.296-4.417,0.885-6.014c0.591-1.627,1.348-2.913,2.271-3.852c0.939-0.957,1.991-1.645,3.158-2.069
		c1.149-0.42,2.285-0.632,3.405-0.632c2.696,0.033,4.976,0.949,6.836,2.75c1.893,1.836,2.855,4.36,2.887,7.574v4.025H330.452z
		 M314.448,21.353h4.75v27.979c0,1.112,0.592,1.669,1.779,1.669h1.644v4.583h-2.117c-1.732,0-3.158-0.445-4.281-1.33
		c-1.181-0.903-1.774-2.42-1.774-4.547V21.353z M288.616,31.207h4.751v14.545c0,1.647,0.447,2.934,1.345,3.859
		c0.882,0.928,2.005,1.391,3.374,1.391c1.365,0,2.483-0.463,3.353-1.391c0.879-0.925,1.321-2.212,1.321-3.859V31.207h4.747v24.378
		h-4.747v-2.608h-0.092c-1.564,1.936-3.606,2.903-6.127,2.903c-1.957-0.029-3.727-0.763-5.305-2.203
		c-1.717-1.407-2.591-3.485-2.62-6.237V31.207z M262.785,21.353h4.747v12.443h0.092c1.565-1.925,3.612-2.887,6.15-2.887
		c1.958,0,3.751,0.713,5.373,2.136c1.609,1.439,2.45,3.554,2.528,6.338v16.201h-4.75V41.056c0-1.71-0.442-3.01-1.319-3.905
		c-0.869-0.908-1.983-1.362-3.353-1.362c-1.371,0-2.494,0.454-3.376,1.362c-0.897,0.895-1.346,2.195-1.346,3.905v14.528h-4.747
		V21.353z M258.852,51.677c-1.034,1.214-2.248,2.203-3.644,2.967c-1.397,0.793-3.012,1.207-4.847,1.235
		c-2.787,0-5.234-0.978-7.341-2.934c-2.186-1.959-3.306-5.129-3.366-9.515c0.061-4.432,1.184-7.644,3.366-9.631
		c2.109-1.959,4.557-2.922,7.346-2.889c1.835,0.033,3.447,0.421,4.845,1.171c1.393,0.765,2.606,1.788,3.641,3.069l-3.507,3.21
		c-1.199-1.65-2.798-2.508-4.8-2.57c-4.033-0.064-6.08,2.485-6.143,7.641c0.062,5.125,2.109,7.648,6.143,7.571
		c2.002-0.033,3.601-0.882,4.8-2.549L258.852,51.677z M219.062,48.145c1.932,2.103,4.421,3.154,7.47,3.154
		c1.366,0,2.483-0.276,3.35-0.826c0.866-0.546,1.298-1.315,1.298-2.302c0-0.879-0.259-1.491-0.774-1.836
		c-0.531-0.361-1.237-0.558-2.117-0.586l-4.19-0.378c-1.986-0.187-3.604-0.876-4.847-2.069c-1.277-1.161-1.926-2.782-1.96-4.867
		c0.034-2.508,0.887-4.39,2.572-5.644c1.639-1.255,3.717-1.882,6.234-1.882c1.094,0,2.073,0.069,2.937,0.209
		c0.863,0.158,1.678,0.374,2.434,0.655c1.455,0.609,2.762,1.429,3.913,2.461l-2.937,3.537c-0.911-0.68-1.874-1.243-2.892-1.688
		c-1.003-0.394-2.154-0.593-3.46-0.593c-1.487,0-2.526,0.273-3.12,0.823c-0.62,0.549-0.932,1.256-0.932,2.12
		c-0.031,0.55,0.204,1.029,0.704,1.436c0.455,0.454,1.259,0.746,2.416,0.872l3.915,0.306c2.457,0.188,4.234,0.957,5.328,2.307
		c1.016,1.319,1.523,2.99,1.523,5.015c-0.031,2.371-0.963,4.199-2.798,5.485c-1.819,1.319-4.148,1.995-6.982,2.023
		c-3.853,0-7.317-1.447-10.396-4.347L219.062,48.145z M192.522,21.353h4.747v12.443h0.092c1.564-1.925,3.614-2.887,6.15-2.887
		c1.955,0,3.75,0.713,5.373,2.136c1.606,1.439,2.452,3.554,2.528,6.338v16.201h-4.751V41.056c0-1.71-0.439-3.01-1.321-3.905
		c-0.866-0.908-1.981-1.362-3.353-1.362c-1.366,0-2.491,0.454-3.373,1.362c-0.898,0.895-1.346,2.195-1.346,3.905v14.528h-4.747
		V21.353z M188.586,51.677c-1.031,1.214-2.246,2.203-3.642,2.967c-1.396,0.793-3.013,1.207-4.848,1.235
		c-2.787,0-5.234-0.978-7.341-2.934c-2.182-1.959-3.305-5.129-3.363-9.515c0.059-4.432,1.182-7.644,3.363-9.631
		c2.109-1.959,4.557-2.922,7.347-2.889c1.836,0.033,3.448,0.421,4.844,1.171c1.394,0.765,2.608,1.788,3.64,3.069l-3.505,3.21
		c-1.198-1.65-2.798-2.508-4.8-2.57c-4.033-0.064-6.081,2.485-6.143,7.641c0.062,5.125,2.109,7.648,6.143,7.571
		c2.002-0.033,3.602-0.882,4.8-2.549L188.586,51.677z M160.675,43.43c0-1.744-0.076-3.02-0.225-3.821
		c-0.153-0.769-0.465-1.447-0.934-2.029c-0.348-0.548-0.863-0.98-1.544-1.297c-0.65-0.33-1.406-0.493-2.269-0.493
		c-0.806,0-1.545,0.164-2.225,0.493c-0.654,0.316-1.182,0.749-1.593,1.297c-0.407,0.582-0.701,1.26-0.885,2.029
		c-0.182,0.801-0.272,2.061-0.272,3.773c0,1.7,0.091,2.94,0.272,3.728c0.184,0.801,0.478,1.509,0.885,2.12
		c0.411,0.475,0.938,0.89,1.593,1.252c0.68,0.346,1.419,0.52,2.225,0.52c0.862,0,1.618-0.174,2.269-0.52
		c0.681-0.362,1.196-0.777,1.544-1.252c0.469-0.611,0.78-1.319,0.934-2.12C160.599,46.322,160.675,45.097,160.675,43.43
		 M145.98,43.382c0-2.573,0.206-4.55,0.613-5.931c0.424-1.351,1.075-2.486,1.953-3.414c0.651-0.809,1.56-1.532,2.726-2.171
		c1.15-0.608,2.627-0.926,4.429-0.957c1.862,0.033,3.371,0.351,4.521,0.962c1.136,0.644,2.012,1.373,2.634,2.184
		c0.938,0.925,1.605,2.061,1.999,3.406c0.377,1.38,0.568,3.353,0.568,5.92c0,2.57-0.191,4.526-0.568,5.875
		c-0.394,1.345-1.061,2.514-1.999,3.499c-0.304,0.36-0.673,0.713-1.112,1.056c-0.394,0.391-0.9,0.729-1.521,1.01
		c-1.15,0.672-2.657,1.027-4.519,1.056c-1.805-0.029-3.281-0.384-4.432-1.056c-1.166-0.611-2.074-1.299-2.726-2.069
		c-0.878-0.983-1.529-2.151-1.953-3.497C146.187,47.908,145.98,45.952,145.98,43.382 M121.295,21.353h4.748v12.443h0.092
		c1.565-1.925,3.616-2.887,6.15-2.887c1.956,0,3.749,0.713,5.373,2.136c1.608,1.439,2.452,3.554,2.528,6.338v16.201h-4.749V41.056
		c0-1.71-0.439-3.01-1.321-3.905c-0.869-0.908-1.984-1.362-3.353-1.362s-2.493,0.454-3.374,1.362
		c-0.898,0.895-1.347,2.195-1.347,3.905v14.528h-4.748V21.353z M95.463,21.353h4.749v12.443h0.09
		c1.565-1.925,3.616-2.887,6.152-2.887c1.956,0,3.749,0.713,5.373,2.136c1.608,1.439,2.452,3.554,2.526,6.338v16.201h-4.749V41.056
		c0-1.71-0.439-3.01-1.321-3.905c-0.867-0.908-1.982-1.362-3.353-1.362c-1.366,0-2.491,0.454-3.374,1.362
		c-0.897,0.895-1.345,2.195-1.345,3.905v14.528h-4.749V21.353z M91.528,51.677c-1.031,1.214-2.246,2.203-3.642,2.967
		c-1.396,0.793-3.013,1.207-4.849,1.235c-2.788,0-5.234-0.978-7.34-2.934c-2.182-1.959-3.304-5.129-3.364-9.515
		c0.06-4.432,1.183-7.644,3.364-9.631c2.108-1.959,4.555-2.922,7.345-2.889c1.836,0.033,3.449,0.421,4.846,1.171
		c1.394,0.765,2.608,1.788,3.64,3.069l-3.506,3.21c-1.197-1.65-2.798-2.508-4.796-2.57c-4.037-0.064-6.084,2.485-6.146,7.641
		c0.062,5.125,2.109,7.648,6.143,7.571c2.002-0.033,3.603-0.882,4.8-2.549L91.528,51.677z M62.47,45.258h-5.682
		c-2.76,0.064-4.125,1.048-4.092,2.948c0,0.833,0.354,1.543,1.066,2.125c0.683,0.643,1.811,0.967,3.387,0.967
		c1.986,0.03,3.388-0.215,4.208-0.731c0.742-0.52,1.112-1.699,1.112-3.537V45.258z M62.47,53.449h-0.089
		c-0.44,0.827-1.12,1.433-2.042,1.824c-0.91,0.406-2.166,0.606-3.769,0.606c-2.631-0.029-4.657-0.75-6.081-2.157
		c-1.499-1.378-2.246-3.139-2.246-5.283c0-2.051,0.649-3.749,1.951-5.094c1.299-1.378,3.205-2.081,5.718-2.112h6.556v-2.585
		c0.031-2.166-1.578-3.219-4.835-3.155c-1.179,0-2.109,0.125-2.792,0.378c-0.71,0.299-1.271,0.806-1.677,1.519l-3.726-2.946
		c1.802-2.419,4.459-3.598,7.97-3.534c2.967-0.033,5.336,0.547,7.107,1.736c1.772,1.22,2.672,3.319,2.703,6.293v16.646H62.47V53.449
		z M25.855,21.353h21.169v4.88H30.859V36.35h13.799v4.577H30.859v14.658h-5.004V21.353z"/>
	<path clip-path="url(#SVGID_2_)" fill="#F29517" d="M217.992,81.793c-1.125,0-1.983,0.193-2.575,0.588
		c-0.657,0.428-1.136,1.006-1.437,1.746c-0.291,0.738-0.481,1.539-0.571,2.405c-0.091,0.927-0.139,1.88-0.139,2.853
		c0,0.93,0.048,1.832,0.139,2.711c0.09,0.93,0.28,1.765,0.571,2.5c0.301,0.709,0.779,1.291,1.437,1.748
		c0.592,0.439,1.45,0.66,2.575,0.66c1.123,0,2.013-0.236,2.667-0.707c0.651-0.458,1.1-1.055,1.345-1.795
		c0.304-0.738,0.508-1.565,0.615-2.477c0.029-0.895,0.045-1.777,0.045-2.641c0-0.941-0.016-1.848-0.045-2.711
		c-0.107-0.863-0.312-1.668-0.615-2.405c-0.245-0.741-0.693-1.337-1.345-1.793C220.005,82.021,219.115,81.793,217.992,81.793
		 M222.664,99.059c-1.565,1.82-3.606,2.764-6.124,2.826c-1.43-0.034-2.651-0.338-3.667-0.919c-1.065-0.565-1.952-1.316-2.664-2.259
		c-0.654-0.767-1.086-1.809-1.301-3.125c-0.257-1.254-0.385-3.323-0.385-6.207c0-2.932,0.128-5.016,0.385-6.253
		c0.215-1.257,0.646-2.267,1.301-3.036c1.335-2.039,3.446-3.096,6.331-3.174c1.212,0,2.337,0.256,3.371,0.771
		c0.955,0.545,1.873,1.243,2.753,2.102V67.356h4.75v34.229h-4.75V99.059z M182.69,77.21h4.749v2.583h0.092
		c1.562-1.921,3.611-2.881,6.147-2.881c1.958,0,3.753,0.711,5.376,2.135c1.606,1.442,2.449,3.555,2.528,6.339v16.2h-4.751V87.059
		c0-1.707-0.441-3.01-1.321-3.902c-0.869-0.908-1.983-1.363-3.35-1.363c-1.372,0-2.494,0.455-3.376,1.363
		c-0.898,0.893-1.346,2.195-1.346,3.902v14.527h-4.749V77.21z M156.857,77.21h4.749v14.544c0,1.648,0.448,2.936,1.346,3.859
		c0.882,0.928,2.005,1.391,3.375,1.391c1.368,0,2.483-0.463,3.353-1.391c0.879-0.924,1.321-2.211,1.321-3.859V77.21h4.749v24.376
		h-4.749v-2.606h-0.092c-1.564,1.937-3.607,2.905-6.127,2.905c-1.959-0.034-3.724-0.768-5.306-2.203
		c-1.715-1.408-2.586-3.486-2.619-6.24V77.21z M115.701,77.21h4.76v2.583h0.092c1.613-1.921,3.733-2.881,6.364-2.881
		c1.688,0.031,3.051,0.321,4.085,0.868c1.018,0.61,1.948,1.385,2.795,2.327c1.907-2.162,4.467-3.227,7.679-3.195
		c2.018,0,3.867,0.711,5.542,2.135c1.659,1.442,2.519,3.555,2.583,6.339v16.2h-4.757V87.059c0-1.707-0.455-3.01-1.361-3.902
		c-0.909-0.908-2.079-1.363-3.513-1.363c-1.432,0-2.611,0.455-3.535,1.363c-0.94,0.893-1.41,2.195-1.41,3.902v14.527h-4.749V87.059
		c0-1.707-0.453-3.01-1.358-3.902c-0.92-0.908-2.097-1.363-3.526-1.363s-2.598,0.455-3.503,1.363
		c-0.952,0.893-1.43,2.195-1.43,3.902v14.527h-4.757V77.21z M101.373,69.788h4.748v7.422h3.458v3.731h-3.458v14.248
		c-0.032,1.24,0.527,1.846,1.684,1.814h1.774v4.582h-2.478c-1.667,0-3.033-0.533-4.092-1.596c-1.094-1.021-1.637-2.492-1.637-4.416
		V80.941h-2.381V77.21h2.381V69.788z M79.954,77.21h4.749v2.583h0.099c1.56-1.921,3.609-2.881,6.143-2.881
		c1.897,0.031,3.551,0.654,4.961,1.871l-3.46,4.234c-1.002-0.819-2.043-1.225-3.119-1.225c-1.218,0-2.258,0.405-3.12,1.222
		c-0.974,0.798-1.474,2.091-1.503,3.876v14.695h-4.749V77.21z M69.454,89.432c0-1.745-0.075-3.018-0.228-3.82
		c-0.151-0.77-0.461-1.445-0.931-2.025c-0.348-0.553-0.862-0.984-1.544-1.299c-0.65-0.33-1.41-0.494-2.272-0.494
		c-0.802,0-1.544,0.164-2.225,0.494c-0.651,0.314-1.179,0.746-1.59,1.299c-0.41,0.58-0.704,1.256-0.883,2.027
		c-0.183,0.801-0.273,2.058-0.273,3.771c0,1.699,0.09,2.941,0.273,3.727c0.179,0.801,0.474,1.511,0.883,2.123
		c0.411,0.471,0.938,0.89,1.59,1.248c0.681,0.349,1.422,0.521,2.225,0.521c0.862,0,1.622-0.173,2.272-0.521
		c0.682-0.358,1.196-0.777,1.544-1.248c0.47-0.612,0.78-1.322,0.931-2.123C69.379,92.326,69.454,91.1,69.454,89.432 M54.759,89.385
		c0-2.572,0.203-4.551,0.614-5.93c0.423-1.354,1.075-2.49,1.954-3.416c0.647-0.809,1.557-1.533,2.724-2.17
		c1.15-0.607,2.628-0.926,4.428-0.957c1.862,0.031,3.369,0.354,4.521,0.963c1.136,0.641,2.012,1.371,2.634,2.186
		c0.938,0.924,1.606,2.059,2,3.407c0.378,1.376,0.568,3.35,0.568,5.917c0,2.57-0.19,4.525-0.568,5.873
		c-0.394,1.348-1.061,2.516-2,3.502c-0.302,0.361-0.672,0.712-1.112,1.057c-0.394,0.393-0.9,0.729-1.521,1.008
		c-1.15,0.676-2.659,1.026-4.521,1.061c-1.8-0.034-3.278-0.385-4.428-1.061c-1.165-0.607-2.074-1.301-2.724-2.064
		c-0.879-0.986-1.531-2.154-1.954-3.502C54.962,93.91,54.759,91.955,54.759,89.385 M31.082,96.705h6.008
		c2.822,0,4.872-0.997,6.145-2.988c0.562-0.736,0.92-1.668,1.069-2.801c0.138-1.112,0.207-3.195,0.207-6.258
		c0-2.979-0.069-5.111-0.207-6.398c-0.179-1.285-0.614-2.33-1.296-3.13c-1.396-1.992-3.369-2.955-5.917-2.895h-6.008V96.705z
		 M26.078,67.356h11.584c4.482,0.031,7.845,1.958,10.085,5.773c0.798,1.288,1.305,2.633,1.517,4.038
		c0.167,1.41,0.25,3.845,0.25,7.305c0,3.678-0.129,6.244-0.386,7.699c-0.123,0.736-0.303,1.393-0.547,1.971
		c-0.258,0.562-0.568,1.152-0.93,1.762c-0.967,1.612-2.315,2.941-4.041,3.991c-1.71,1.128-3.808,1.69-6.291,1.69H26.078V67.356z"/>
	<path clip-path="url(#SVGID_2_)" fill="#1A171B" d="M345.145,129.676c0-1.426-0.809-2.316-2.502-2.682l-1.24-0.27
		c-0.997-0.213-1.354-0.658-1.354-1.391c0-0.945,0.696-1.582,1.77-1.582c0.824,0,1.521,0.289,2.351,0.695l0.541-1.117
		c-0.79-0.467-1.879-0.775-2.854-0.775c-1.958,0-3.329,1.217-3.329,2.953c0,1.332,0.824,2.316,2.368,2.645l1.167,0.25
		c1.07,0.232,1.542,0.715,1.542,1.582c0,1.021-0.754,1.66-1.903,1.66c-1.03,0-2.01-0.309-2.968-0.906l-0.565,1.117
		c0.958,0.598,2.257,0.967,3.442,0.967C343.716,132.822,345.145,131.547,345.145,129.676 M336.626,122.922h-2.351
		c0-1.271,0.188-2.779,0.188-2.779l-1.541,0.348c0,0-0.152,1.508-0.152,2.432h-1.222v1.139h1.222v6.6c0,0.967,0.246,1.58,0.903,1.91
		c0.358,0.174,0.732,0.27,1.222,0.27c0.657,0,1.184-0.133,1.654-0.387l-0.204-0.963c-0.267,0.137-0.51,0.191-0.924,0.191
		c-0.921,0-1.204-0.365-1.204-1.424v-6.197h1.955L336.626,122.922z M330.119,122.729c0,0-0.264-0.098-0.507-0.098
		c-0.958,0-1.955,0.621-2.631,1.604c0.055-0.811-0.304-1.562-0.304-1.562l-1.465,0.404c0,0,0.318,0.639,0.318,2.047v7.408H327v-6.02
		c0-0.793,0.112-1.084,0.544-1.525c0.433-0.441,0.997-0.693,1.562-0.693c0.149,0,0.319,0.039,0.411,0.076L330.119,122.729z
		 M320.133,127.166h-4.005l2.034-6.482L320.133,127.166z M323.504,132.531l-4.271-13.234h-2.013l-4.306,13.234h1.561l1.24-4.068
		h4.815l1.223,4.068H323.504z M304.754,130.082c0,0-0.173,0.406-0.565,0.693c-0.602,0.445-1.036,0.617-1.809,0.617
		c-0.86,0-1.447-0.326-1.876-1.117c-0.304-0.561-0.38-1.393-0.38-2.51c0-1.35,0.154-2.047,0.604-2.779
		c0.393-0.654,1.016-1.006,1.749-1.006c1.109,0,1.803,0.33,2.276,1.006V130.082z M306.518,132.531
		c-0.204-0.561-0.279-1.447-0.279-3.105v-10.73l-1.466-0.25v4.033c0,0.693,0.019,1.484,0.019,1.484
		c-0.565-0.771-1.487-1.217-2.542-1.217c-0.675,0-1.203,0.176-1.803,0.602c-1.277,0.906-1.937,2.41-1.937,4.457
		c0,3.068,1.39,4.863,3.815,4.863c1.092,0,1.806-0.33,2.483-1.121c0.019,0.504,0.207,0.984,0.207,0.984H306.518z M295.725,132.531
		v-7.293c0-0.389-0.076-0.773-0.225-1.119c-0.377-0.85-1.28-1.41-2.296-1.41c-0.997,0-1.973,0.482-2.949,1.486
		c0-0.793-0.34-1.504-0.34-1.504l-1.43,0.406c0,0,0.356,0.654,0.356,2.025v7.408h1.432v-7.158c0.675-0.734,1.84-1.35,2.594-1.35
		c0.432,0,0.829,0.152,1.033,0.402c0.265,0.328,0.338,0.582,0.338,1.605v6.5H295.725z M283.84,127.648l-0.055,2.512
		c-0.435,0.906-1.319,1.502-2.276,1.502c-1.071,0-1.618-0.615-1.618-1.752c0-1.469,0.849-2.299,3.217-2.299
		C283.369,127.611,283.597,127.629,283.84,127.648 M286.005,131.82c-0.699-0.389-0.791-0.791-0.754-2.355l0.076-3.168
		c0.018-0.869,0-1.598-0.207-2.121c-0.396-0.984-1.298-1.504-2.594-1.504c-1.358,0-2.693,0.443-3.934,1.291l0.735,1.08
		c0.6-0.557,1.935-1.135,2.989-1.135c0.583,0,0.958,0.17,1.261,0.518c0.262,0.309,0.302,0.658,0.302,1.508v0.676
		c0,0-0.265-0.021-0.66-0.021c-3.141,0-4.965,1.275-4.965,3.455c0,1.293,0.696,2.74,3.008,2.74c1.072,0,1.806-0.367,2.711-1.293
		c0.168,0.676,0.636,1.195,1.277,1.408L286.005,131.82z M271.523,129.676c0-1.426-0.809-2.316-2.502-2.682l-1.24-0.27
		c-0.997-0.213-1.355-0.658-1.355-1.391c0-0.945,0.698-1.582,1.769-1.582c0.827,0,1.523,0.289,2.351,0.695l0.545-1.117
		c-0.788-0.467-1.88-0.775-2.855-0.775c-1.958,0-3.329,1.217-3.329,2.953c0,1.332,0.824,2.316,2.368,2.645l1.165,0.25
		c1.073,0.232,1.541,0.715,1.541,1.582c0,1.021-0.751,1.66-1.897,1.66c-1.033,0-2.013-0.309-2.971-0.906l-0.564,1.117
		c0.957,0.598,2.256,0.967,3.438,0.967C270.092,132.822,271.523,131.547,271.523,129.676 M260.841,126.84h-4.287
		c0.076-1.99,0.827-2.992,2.162-2.992c0.717,0,1.374,0.328,1.695,0.852C260.691,125.162,260.822,125.797,260.841,126.84
		 M262.4,127.979v-0.213c0-2.295-0.262-3.203-1.07-4.051c-0.639-0.676-1.523-1.043-2.539-1.043c-1.128,0-2.049,0.426-2.8,1.334
		c-0.791,0.963-1.128,2.004-1.128,3.623c0,3.186,1.56,5.115,4.153,5.115c1.204,0,2.332-0.424,3.159-1.197l-0.563-0.963
		c-0.659,0.615-1.392,0.906-2.292,0.906c-0.942,0-1.807-0.346-2.335-1.178c-0.319-0.5-0.432-1.195-0.432-2.104v-0.23H262.4z
		 M253,131.473l-0.81-0.967c-0.544,0.676-1.259,1.041-2.013,1.041c-1.504,0-2.313-1.174-2.313-3.338
		c0-1.406,0.171-2.469,0.529-3.145c0.337-0.656,1.033-1.084,1.767-1.084c0.714,0,1.128,0.215,1.787,0.773l0.809-1.039
		c-0.678-0.582-1.374-1.043-2.56-1.043c-0.997,0-1.803,0.367-2.538,1.119c-0.809,0.828-1.408,1.988-1.408,4.09
		c0,1.43,0.28,2.492,0.902,3.416c0.657,0.965,1.654,1.447,2.989,1.447C251.307,132.744,252.133,132.379,253,131.473
		 M243.407,132.531v-7.293c0-0.389-0.073-0.773-0.225-1.119c-0.374-0.85-1.277-1.41-2.293-1.41c-0.997,0-1.976,0.482-2.954,1.486
		c0-0.793-0.338-1.504-0.338-1.504l-1.429,0.406c0,0,0.358,0.654,0.358,2.025v7.408h1.426v-7.158c0.678-0.734,1.846-1.35,2.6-1.35
		c0.432,0,0.824,0.152,1.033,0.402c0.262,0.328,0.338,0.582,0.338,1.605v6.5H243.407z M231.939,126.84h-4.29
		c0.076-1.99,0.83-2.992,2.162-2.992c0.717,0,1.374,0.328,1.696,0.852C231.787,125.162,231.918,125.797,231.939,126.84
		 M233.496,127.979v-0.213c0-2.295-0.262-3.203-1.07-4.051c-0.639-0.676-1.523-1.043-2.538-1.043c-1.128,0-2.05,0.426-2.801,1.334
		c-0.79,0.963-1.128,2.004-1.128,3.623c0,3.186,1.56,5.115,4.153,5.115c1.204,0,2.332-0.424,3.159-1.197l-0.562-0.963
		c-0.657,0.615-1.393,0.906-2.293,0.906c-0.942,0-1.806-0.346-2.335-1.178c-0.319-0.5-0.432-1.195-0.432-2.104v-0.23H233.496z
		 M223.062,132.531v-9.822l-1.523,0.252v9.57H223.062z M223.476,119.949c0-0.652-0.508-1.176-1.149-1.176
		c-0.636,0-1.146,0.541-1.146,1.199c0,0.633,0.511,1.156,1.146,1.156C222.968,121.129,223.476,120.605,223.476,119.949
		 M219.036,131.473l-0.806-0.967c-0.547,0.676-1.264,1.041-2.013,1.041c-1.508,0-2.313-1.174-2.313-3.338
		c0-1.406,0.17-2.469,0.526-3.145c0.337-0.656,1.033-1.084,1.769-1.084c0.712,0,1.128,0.215,1.785,0.773l0.809-1.039
		c-0.678-0.582-1.371-1.043-2.557-1.043c-0.997,0-1.806,0.367-2.541,1.119c-0.807,0.828-1.408,1.988-1.408,4.09
		c0,1.43,0.279,2.492,0.902,3.416c0.66,0.965,1.654,1.447,2.989,1.447C217.346,132.744,218.173,132.379,219.036,131.473
		 M209.955,128.789c0-0.83-0.319-1.719-0.848-2.334c-0.526-0.617-1.129-0.967-2.274-1.332l-1.487-0.484
		c-1.521-0.5-2.143-1.098-2.143-2.16c0-1.35,0.96-2.182,2.575-2.182c1.109,0,1.899,0.289,3.141,1.123l0.678-1.143
		c-1.22-0.848-2.5-1.271-3.892-1.271c-2.502,0-4.178,1.545-4.178,3.801c0,0.85,0.285,1.582,0.809,2.162
		c0.511,0.539,1.131,0.811,2.296,1.178l1.298,0.402c1.562,0.484,2.313,1.293,2.313,2.473c0,0.773-0.301,1.406-0.921,1.891
		c-0.547,0.424-1.073,0.578-2.05,0.578c-1.298,0-2.389-0.346-3.46-1.137l-0.678,1.232c1.277,0.812,2.594,1.197,4.138,1.197
		c1.184,0,2.05-0.252,2.897-0.812C209.316,131.221,209.955,130.023,209.955,128.789 M192.276,130.082c0,0-0.168,0.406-0.561,0.693
		c-0.604,0.445-1.036,0.617-1.809,0.617c-0.866,0-1.447-0.326-1.882-1.117c-0.298-0.561-0.374-1.393-0.374-2.51
		c0-1.35,0.149-2.047,0.604-2.779c0.393-0.654,1.011-1.006,1.746-1.006c1.109,0,1.806,0.33,2.274,1.006V130.082z M194.045,132.531
		c-0.204-0.561-0.282-1.447-0.282-3.105v-10.73l-1.466-0.25v4.033c0,0.693,0.016,1.484,0.016,1.484
		c-0.56-0.771-1.481-1.217-2.536-1.217c-0.678,0-1.204,0.176-1.806,0.602c-1.279,0.906-1.936,2.41-1.936,4.457
		c0,3.068,1.392,4.863,3.817,4.863c1.089,0,1.806-0.33,2.481-1.121c0.018,0.504,0.204,0.984,0.204,0.984H194.045z M182.123,126.84
		h-4.289c0.075-1.99,0.829-2.992,2.163-2.992c0.716,0,1.372,0.328,1.693,0.852C181.973,125.162,182.104,125.797,182.123,126.84
		 M183.683,127.979v-0.213c0-2.295-0.263-3.203-1.072-4.051c-0.638-0.676-1.522-1.043-2.538-1.043c-1.128,0-2.051,0.426-2.801,1.334
		c-0.79,0.963-1.128,2.004-1.128,3.623c0,3.186,1.56,5.115,4.153,5.115c1.204,0,2.332-0.424,3.16-1.197l-0.562-0.963
		c-0.659,0.615-1.394,0.906-2.294,0.906c-0.94,0-1.807-0.346-2.332-1.178c-0.321-0.5-0.435-1.195-0.435-2.104v-0.23H183.683z
		 M173.246,132.531v-9.822l-1.521,0.252v9.57H173.246z M173.659,119.949c0-0.652-0.507-1.176-1.146-1.176
		c-0.639,0-1.147,0.541-1.147,1.199c0,0.633,0.509,1.156,1.147,1.156C173.152,121.129,173.659,120.605,173.659,119.949
		 M169.184,132.514l-0.3-0.984c0,0-0.132,0.037-0.188,0.037c-0.412,0-0.527-0.209-0.527-0.963v-9.822
		c0-1.467-0.243-2.279-0.243-2.279l-1.467,0.289c0,0,0.225,0.715,0.225,1.971v10.189c0,0.693,0.15,1.1,0.45,1.369
		c0.284,0.271,0.659,0.404,1.109,0.404C168.639,132.725,168.808,132.686,169.184,132.514 M162.169,127.902
		c0,1.078-0.112,1.812-0.394,2.428c-0.32,0.717-1.108,1.199-1.975,1.199c-0.79,0-1.601-0.445-2.294-1.254v-4.848
		c0.713-0.883,1.56-1.35,2.501-1.35c0.752,0,1.428,0.408,1.731,1.062C162.001,125.719,162.169,126.742,162.169,127.902
		 M163.729,127.709c0-1.721-0.338-2.895-1.034-3.783c-0.601-0.771-1.541-1.197-2.501-1.197c-1.033,0-1.994,0.484-2.762,1.41
		c0-1.062-0.095-1.467-0.095-1.467l-1.506,0.268c0,0,0.207,0.602,0.207,2.068v11.539l1.468-0.291v-4.594
		c0.657,0.693,1.616,1.121,2.575,1.121c1.223,0,2.22-0.637,2.897-1.754C163.504,130.139,163.729,129.252,163.729,127.709
		 M151.525,127.902c0,1.078-0.112,1.812-0.394,2.428c-0.319,0.717-1.11,1.199-1.977,1.199c-0.787,0-1.597-0.445-2.294-1.254v-4.848
		c0.716-0.883,1.562-1.35,2.501-1.35c0.754,0,1.432,0.408,1.731,1.062C151.356,125.719,151.525,126.742,151.525,127.902
		 M153.088,127.709c0-1.721-0.34-2.895-1.035-3.783c-0.604-0.771-1.543-1.197-2.501-1.197c-1.033,0-1.993,0.484-2.765,1.41
		c0-1.062-0.095-1.467-0.095-1.467l-1.503,0.268c0,0,0.206,0.602,0.206,2.068v11.539l1.466-0.291v-4.594
		c0.66,0.693,1.619,1.121,2.575,1.121c1.226,0,2.22-0.637,2.897-1.754C152.862,130.139,153.088,129.252,153.088,127.709
		 M139.998,127.166h-4.006l2.031-6.482L139.998,127.166z M143.365,132.531l-4.271-13.234h-2.013l-4.306,13.234h1.562l1.24-4.068
		h4.812l1.223,4.068H143.365z M128.641,119.121c-0.547-0.367-1.26-0.561-2.068-0.561c-0.698,0-1.204,0.154-1.657,0.5
		c-0.394,0.309-1.033,0.93-1.033,2.359v1.502h-0.9v1.139h0.9v8.471h1.543v-8.471h2.145l0.45-1.139h-2.595v-1.484
		c0-1.102,0.449-1.701,1.278-1.701c0.506,0,1.035,0.236,1.391,0.445L128.641,119.121z M119.03,127.996
		c0,0.947-0.075,1.488-0.281,2.086c-0.321,0.924-1.053,1.447-2.032,1.447c-0.809,0-1.56-0.385-1.899-0.965
		c-0.356-0.598-0.581-1.797-0.581-3.146c0-1.139,0.15-1.91,0.45-2.508c0.319-0.639,1.091-1.045,1.918-1.045
		c0.772,0,1.598,0.389,1.994,1.238C118.898,125.74,119.03,126.646,119.03,127.996 M120.706,127.881c0-1.562-0.284-2.701-0.867-3.57
		c-0.64-0.943-1.655-1.68-3.215-1.68c-2.463,0-3.988,1.914-3.988,5.041c0,3.164,1.47,5.111,4.045,5.111
		C119.03,132.783,120.706,131.084,120.706,127.881 M106.413,122.922h-1.675l-1.844,6.312c-0.226,0.789-0.582,2.025-0.582,2.025
		h-0.037c0,0-0.281-1.486-0.565-2.395l-1.917-6.234l-1.45,0.502l2.013,6.023c0.319,0.963,0.829,2.836,0.941,3.453l0.604-0.096
		c-0.51,1.947-0.96,2.566-2.163,2.951l0.432,1.021c1.634-0.402,2.406-1.678,3.027-3.607L106.413,122.922z M97.084,122.922h-2.35
		c0-1.271,0.187-2.779,0.187-2.779l-1.541,0.348c0,0-0.149,1.508-0.149,2.432h-1.222v1.139h1.222v6.6c0,0.967,0.243,1.58,0.903,1.91
		c0.355,0.174,0.731,0.27,1.222,0.27c0.657,0,1.185-0.133,1.653-0.387l-0.206-0.963c-0.263,0.137-0.509,0.191-0.922,0.191
		c-0.922,0-1.203-0.365-1.203-1.424v-6.197h1.956L97.084,122.922z M89.523,132.531v-9.822l-1.522,0.252v9.57H89.523z
		 M89.939,119.949c0-0.652-0.509-1.176-1.147-1.176c-0.64,0-1.146,0.541-1.146,1.199c0,0.633,0.507,1.156,1.146,1.156
		C89.431,121.129,89.939,120.605,89.939,119.949 M85.219,129.676c0-1.426-0.809-2.316-2.503-2.682l-1.241-0.27
		c-0.997-0.213-1.353-0.658-1.353-1.391c0-0.945,0.696-1.582,1.767-1.582c0.827,0,1.524,0.289,2.353,0.695l0.543-1.117
		c-0.791-0.467-1.881-0.775-2.857-0.775c-1.956,0-3.33,1.217-3.33,2.953c0,1.332,0.827,2.316,2.371,2.645l1.166,0.25
		c1.072,0.232,1.542,0.715,1.542,1.582c0,1.021-0.754,1.66-1.9,1.66c-1.035,0-2.01-0.309-2.97-0.906l-0.565,1.117
		c0.959,0.598,2.257,0.967,3.441,0.967C83.789,132.822,85.219,131.547,85.219,129.676 M77.057,122.729c0,0-0.263-0.098-0.507-0.098
		c-0.959,0-1.956,0.621-2.634,1.604c0.056-0.811-0.301-1.562-0.301-1.562l-1.465,0.404c0,0,0.319,0.639,0.319,2.047v7.408h1.465
		v-6.02c0-0.793,0.113-1.084,0.547-1.525c0.432-0.441,0.998-0.693,1.56-0.693c0.15,0,0.322,0.039,0.415,0.076L77.057,122.729z
		 M67.881,126.84h-4.289c0.075-1.99,0.829-2.992,2.163-2.992c0.715,0,1.372,0.328,1.693,0.852
		C67.73,125.162,67.861,125.797,67.881,126.84 M69.44,127.979v-0.213c0-2.295-0.263-3.203-1.073-4.051
		c-0.638-0.676-1.522-1.043-2.538-1.043c-1.128,0-2.05,0.426-2.803,1.334c-0.788,0.963-1.128,2.004-1.128,3.623
		c0,3.186,1.562,5.115,4.156,5.115c1.204,0,2.332-0.424,3.16-1.197l-0.562-0.963c-0.66,0.615-1.394,0.906-2.295,0.906
		c-0.939,0-1.806-0.346-2.333-1.178c-0.319-0.5-0.432-1.195-0.432-2.104v-0.23H69.44z M60.491,122.922h-1.56l-2.144,6.389
		c-0.299,0.869-0.45,1.621-0.45,1.621H56.3c0,0-0.188-0.85-0.453-1.641l-2.181-6.619L52.162,123l3.366,9.629h1.447L60.491,122.922z
		 M50.093,132.531v-9.822l-1.522,0.252v9.57H50.093z M50.506,119.949c0-0.652-0.507-1.176-1.147-1.176
		c-0.637,0-1.147,0.541-1.147,1.199c0,0.633,0.51,1.156,1.147,1.156C49.999,121.129,50.506,120.605,50.506,119.949 M45.129,132.531
		v-7.293c0-0.389-0.074-0.773-0.228-1.119c-0.375-0.85-1.278-1.41-2.294-1.41c-0.997,0-1.972,0.482-2.951,1.486
		c0-0.793-0.34-1.504-0.34-1.504l-1.428,0.406c0,0,0.356,0.654,0.356,2.025v7.408h1.432v-7.158c0.675-0.734,1.841-1.35,2.594-1.35
		c0.432,0,0.828,0.152,1.035,0.402c0.262,0.328,0.337,0.582,0.337,1.605v6.5H45.129z M34.635,128.711v-9.414h-1.522v9.221
		c0,0.889-0.056,1.467-0.491,2.066c-0.394,0.539-1.203,0.83-2.275,0.83c-1.578,0-2.274-0.715-2.519-1.295
		c-0.169-0.404-0.225-1.254-0.225-1.91v-8.912h-1.524v9.492c0,0.578,0.038,1.426,0.378,2.064c0.693,1.312,1.822,1.91,3.816,1.91
		c1.562,0,2.598-0.328,3.385-1.021C34.429,131.066,34.635,130.312,34.635,128.711"/>
</g>
</svg>
