<?xml version="1.0" encoding="utf-8"?>
<!-- Generator: Adobe Illustrator 16.0.0, SVG Export Plug-In . SVG Version: 6.00 Build 0)  -->
<!DOCTYPE svg PUBLIC "-//W3C//DTD SVG 1.1//EN" "http://www.w3.org/Graphics/SVG/1.1/DTD/svg11.dtd">
<svg version="1.1" id="Ebene_1" xmlns="http://www.w3.org/2000/svg" xmlns:xlink="http://www.w3.org/1999/xlink" x="0px" y="0px"
	 width="371px" height="150px" viewBox="0 0 371 150" enable-background="new 0 0 371 150" xml:space="preserve">
<image overflow="visible" enable-background="new    " width="2000" height="720" xlink:href="../../../../../Downloads/2000px-FH_Dortmund-logo.svg.png"  transform="matrix(0.162 0 0 0.162 -324 -94.3193)">
</image>
<polygon fill="#878787" points="111.939,48.144 103.107,48.144 103.107,11.339 123.287,11.339 123.287,19.561 111.939,19.561 
	111.939,25.326 122.674,25.326 122.674,33.545 111.939,33.545 "/>
<path fill="#878787" d="M134.634,49.37l-8.834-1.963l13.189-36.068h7.484l13.187,36.068l-8.833,1.963l-2.27-7.421h-11.655
	L134.634,49.37z M142.73,22.811l-3.313,10.918h6.625L142.73,22.811z"/>
<line fill="none" x1="607.336" y1="299.445" x2="255.445" y2="299.445"/>
<path fill="#878787" d="M181.984,28.516c4.602,1.227,7.055,4.539,7.055,8.894c0,6.993-6.441,10.734-14.415,10.734h-11.041V11.34
	h10.428c7.053,0,13.495,2.699,13.495,9.201C187.506,24.223,185.667,26.982,181.984,28.516 M174.011,25.448
	c3.067,0,4.906-0.92,4.906-3.374c0-1.717-1.409-2.76-4.906-2.76h-1.533v6.133H174.011z M174.318,40.17
	c3.986,0,5.827-1.227,5.827-3.681c0-2.76-1.841-3.68-5.827-3.68h-1.84v7.361H174.318z"/>
<line fill="none" x1="607.336" y1="299.445" x2="255.445" y2="299.445"/>
<polygon fill="#878787" points="111.939,85.045 124.821,85.045 124.821,93.266 103.107,93.266 103.107,56.46 111.939,56.46 "/>
<line fill="none" x1="607.336" y1="299.445" x2="255.445" y2="299.445"/>
<path fill="#878787" d="M135.37,94.49l-8.833-1.961l13.188-36.068h7.483l13.187,36.068l-8.832,1.961l-2.271-7.424h-11.655
	L135.37,94.49z M143.466,67.931l-3.312,10.918h6.625L143.466,67.931z"/>
<line fill="none" x1="607.336" y1="299.445" x2="255.445" y2="299.445"/>
<path fill="#878787" d="M182.72,73.634c4.602,1.227,7.055,4.54,7.055,8.895c0,6.992-6.442,10.732-14.416,10.732h-11.04V56.46h10.427
	c7.054,0,13.495,2.7,13.495,9.202C188.242,69.342,186.402,72.102,182.72,73.634 M174.748,70.568c3.066,0,4.906-0.92,4.906-3.374
	c0-1.717-1.41-2.76-4.906-2.76h-1.534v6.134H174.748z M175.053,85.289c3.987,0,5.827-1.227,5.827-3.68
	c0-2.76-1.84-3.681-5.827-3.681h-1.84v7.36H175.053z"/>
<line fill="none" x1="607.336" y1="299.445" x2="255.445" y2="299.445"/>
<path fill="#878787" d="M121.507,118.756c4.601,1.227,7.055,4.539,7.055,8.893c0,6.994-6.441,10.734-14.415,10.734h-11.041V101.58
	h10.428c7.054,0,13.495,2.699,13.495,9.201C127.03,114.463,125.189,117.221,121.507,118.756 M113.534,115.689
	c3.067,0,4.908-0.922,4.908-3.375c0-1.717-1.411-2.76-4.908-2.76H112v6.135H113.534z M113.841,130.41
	c3.987,0,5.827-1.227,5.827-3.682c0-2.76-1.84-3.68-5.827-3.68h-1.84v7.361H113.841L113.841,130.41z"/>
<line fill="none" x1="607.336" y1="299.445" x2="255.445" y2="299.445"/>
<polygon fill="#878787" points="143.567,130.164 156.756,130.164 156.756,138.383 134.735,138.383 134.735,101.58 156.142,101.58 
	156.142,109.801 143.567,109.801 143.567,114.951 154.302,114.951 154.302,123.172 143.567,123.172 "/>
<line fill="none" x1="607.336" y1="299.445" x2="255.445" y2="299.445"/>
<path fill="#878787" d="M182.499,123.971l9.876,11.775l-7.792,3.865l-10.428-13.371h-1.349v12.145h-8.833V101.58h10.243
	c7.424,0,14.477,4.906,14.477,12.33C188.693,117.959,186.486,121.822,182.499,123.971 M172.807,118.02h1.409
	c2.699,0,5.521-1.41,5.521-4.109s-1.411-4.109-5.521-4.109h-1.409V118.02z"/>
<line fill="none" x1="607.336" y1="299.445" x2="255.445" y2="299.445"/>
<polygon fill="#878787" points="204.824,130.164 217.705,130.164 217.705,138.383 195.988,138.383 195.988,101.58 204.824,101.58 
	"/>
<line fill="none" x1="607.336" y1="299.445" x2="255.445" y2="299.445"/>
<rect x="223.645" y="101.58" fill="#878787" width="8.955" height="36.805"/>
<line fill="none" x1="607.336" y1="299.445" x2="255.445" y2="299.445"/>
<polygon fill="#878787" points="262.023,138.383 249.389,117.527 249.389,138.383 240.555,138.383 240.555,101.58 249.389,101.58 
	262.023,122.438 262.023,101.58 270.859,101.58 270.859,138.383 "/>
<line fill="none" x1="607.336" y1="299.445" x2="255.445" y2="299.445"/>
<path fill="#878787" d="M95.104,134.584c0,2.09-1.708,3.797-3.798,3.797c-2.092,0-3.798-1.707-3.798-3.797
	c0-2.092,1.706-3.799,3.798-3.799C93.395,130.785,95.104,132.492,95.104,134.584"/>
<line fill="none" x1="607.336" y1="299.445" x2="255.445" y2="299.445"/>
<path fill="#FCE26B" d="M263.23,48.238c-1.938-2.276-4.77-2.466-7.387-1.587c-2.719,0.924-4.652,2.517-6.518,4.6
	c-3.355,3.747-5.971,9.444-5.682,14.668c0.375,6.73,5.463,9.364,11.305,6.111c4.572-2.54,8.039-7.727,9.459-12.583
	c2.01-1.162,4.018-2.32,6.029-3.482v13.088c-10.502,6.066-21.002,12.131-31.504,18.191c0.049,1.508,0.107,3.025,0.158,4.537
	c30.781-1.094,49.799-34.037,35.359-61.241c-1.336,0.709-2.674,1.422-4.014,2.127v11.399
	C268.035,45.463,265.635,46.846,263.23,48.238"/>
<line fill="none" x1="607.336" y1="299.445" x2="255.445" y2="299.445"/>
<path fill="#64C6E6" d="M223.184,28.848c-1,2.815,0.248,5.359,2.322,7.183c2.158,1.896,4.504,2.775,7.232,3.347
	c4.926,1.033,11.166,0.453,15.547-2.412c5.637-3.688,5.375-9.41-0.357-12.847c-4.488-2.689-10.717-3.098-15.627-1.901
	c-2.012-1.155-4.021-2.321-6.033-3.484c3.777-2.183,7.555-4.364,11.336-6.548c10.498,6.067,21.004,12.127,31.502,18.195
	c1.283-0.803,2.566-1.606,3.85-2.414c-16.336-26.104-54.363-26.104-70.705,0c1.285,0.804,2.566,1.61,3.848,2.414
	c3.291-1.901,6.586-3.801,9.869-5.704C218.377,26.069,220.781,27.454,223.184,28.848"/>
<line fill="none" x1="607.336" y1="299.445" x2="255.445" y2="299.445"/>
<path fill="#EA535D" d="M226.41,73.222c2.943-0.536,4.525-2.896,5.064-5.604c0.564-2.818,0.145-5.291-0.721-7.941
	c-1.564-4.786-5.193-9.904-9.863-12.262c-6.016-3.036-10.844,0.055-10.949,6.741c-0.084,5.229,2.682,10.818,6.168,14.481v6.969
	c-3.775-2.183-7.559-4.365-11.332-6.552V32.67c-1.338-0.708-2.676-1.419-4.012-2.124c-14.443,27.211,4.574,60.145,35.357,61.239
	c0.053-1.514,0.109-3.023,0.158-4.533c-3.291-1.9-6.578-3.807-9.871-5.705V73.222L226.41,73.222z"/>
</svg>
