<?xml version="1.0" encoding="utf-8"?>
<!-- Generator: Adobe Illustrator 16.0.0, SVG Export Plug-In . SVG Version: 6.00 Build 0)  -->
<!DOCTYPE svg PUBLIC "-//W3C//DTD SVG 1.0//EN" "http://www.w3.org/TR/2001/REC-SVG-20010904/DTD/svg10.dtd">
<svg version="1.0" xmlns="http://www.w3.org/2000/svg" xmlns:xlink="http://www.w3.org/1999/xlink" x="0px" y="0px" width="324px"
	 height="119.778px" viewBox="0 0 324 119.778" enable-background="new 0 0 324 119.778" xml:space="preserve">
<g id="Layer_2">
</g>
<g id="Layer_1">
	<g>
		<path fill="#F08262" d="M106.833,46.422c0,2.074-1.68,3.752-3.754,3.752H85.876c-2.072,0-3.752-1.678-3.752-3.752V30.1
			c0-2.074,1.68-3.754,3.752-3.754h17.204c2.074,0,3.754,1.68,3.754,3.754V46.422z"/>
		<path fill="#3B3A39" d="M121.817,84.412c0,3.331-2.699,6.027-6.028,6.027H88.151c-3.329,0-6.027-2.696-6.027-6.027V58.193
			c0-3.329,2.698-6.027,6.027-6.027h27.638c3.329,0,6.028,2.698,6.028,6.027V84.412z"/>
		<path fill="#B0B1B2" d="M79.837,90.274c0,3.937-3.192,7.125-7.125,7.125H40.05c-3.936,0-7.125-3.188-7.125-7.125V59.288
			c0-3.933,3.189-7.123,7.125-7.123h32.662c3.933,0,7.125,3.189,7.125,7.123V90.274z"/>
		<path fill="#E30613" d="M79.837,45.381c0,2.649-2.148,4.793-4.793,4.793H53.069c-2.647,0-4.791-2.144-4.791-4.793V24.536
			c0-2.645,2.143-4.792,4.791-4.792h21.975c2.645,0,4.793,2.147,4.793,4.792V45.381z"/>
		<path fill="#3B3A39" d="M83.03,94.55h4.146c3.515,0,4.146,2.406,4.146,6.095c0,4.446-0.948,6.448-4.304,6.448H83.03V94.55z
			 M85.561,105.23h1.124c1.757,0,2.107-1.106,2.107-4.514c0-2.846-0.229-4.304-2.161-4.304h-1.07V105.23z"/>
		<path fill="#3B3A39" d="M92.987,94.55h4.671c2.074,0,3.339,1.09,3.339,3.232c0,1.669-0.668,2.793-2.091,3.092v0.034
			c1.721,0.229,1.984,1.177,2.02,3.831c0.018,1.317,0.088,2.001,0.563,2.248v0.105h-2.741c-0.247-0.352-0.299-0.826-0.316-1.318
			l-0.071-2.406c-0.035-0.982-0.474-1.581-1.493-1.581h-1.353v5.305h-2.529V94.55z M95.516,100.031h1.054
			c1.212,0,1.897-0.527,1.897-1.879c0-1.159-0.614-1.74-1.757-1.74h-1.194V100.031z"/>
		<path fill="#3B3A39" d="M109.758,94.55v2.073h-4.479v2.952h4.216v2.073h-4.216v3.373h4.655v2.073h-7.185V94.55H109.758z"/>
		<path fill="#3B3A39" d="M113.233,103.175v0.369c0,1.178,0.333,1.932,1.668,1.932c0.773,0,1.512-0.492,1.512-1.545
			c0-1.142-0.58-1.563-2.249-2.143c-2.248-0.773-3.286-1.704-3.286-3.794c0-2.441,1.494-3.689,3.883-3.689
			c2.249,0,3.882,0.966,3.882,3.372v0.352h-2.424c0-1.177-0.404-1.862-1.369-1.862c-1.143,0-1.441,0.72-1.441,1.458
			c0,0.772,0.228,1.247,1.3,1.704l1.949,0.843c1.896,0.825,2.389,1.792,2.389,3.32c0,2.652-1.616,3.847-4.357,3.847
			c-2.862,0-3.987-1.335-3.987-3.654v-0.51H113.233z"/>
		<path fill="#3B3A39" d="M120.431,94.55h4.146c3.514,0,4.146,2.406,4.146,6.095c0,4.446-0.948,6.448-4.304,6.448h-3.988V94.55z
			 M122.961,105.23h1.124c1.757,0,2.107-1.106,2.107-4.514c0-2.846-0.229-4.304-2.161-4.304h-1.071V105.23z"/>
		<path fill="#3B3A39" d="M137.396,94.55v2.073h-4.479v2.952h4.216v2.073h-4.216v3.373h4.654v2.073h-7.184V94.55H137.396z"/>
		<path fill="#3B3A39" d="M141.749,94.55l3.057,8.59h0.035v-8.59h2.319v12.543h-2.881l-3.092-8.784h-0.036v8.784h-2.318V94.55
			H141.749z"/>
		<path fill="#B0B1B2" d="M0,114.207l5.483-10.236H0.375v-2.461h8.569v2.273l-5.566,10.154h5.649v2.459H0V114.207z"/>
		<path fill="#B0B1B2" d="M18.89,101.51v2.461h-5.316v3.502h5.003v2.461h-5.003v4.002h5.525v2.459h-8.528V101.51H18.89z"/>
		<path fill="#B0B1B2" d="M24.062,101.51l3.627,10.195h0.042V101.51h2.752v14.886h-3.419l-3.669-10.424h-0.042v10.424h-2.752V101.51
			H24.062z"/>
		<path fill="#B0B1B2" d="M41.284,101.51v2.461h-3.253v12.425h-3.002v-12.425h-3.252v-2.461H41.284z"/>
		<path fill="#B0B1B2" d="M42.578,101.51h5.546c2.46,0,3.961,1.293,3.961,3.837c0,1.98-0.792,3.314-2.481,3.669v0.042
			c2.043,0.27,2.355,1.396,2.397,4.544c0.021,1.564,0.104,2.377,0.667,2.669v0.125h-3.252c-0.292-0.417-0.354-0.979-0.375-1.563
			l-0.083-2.856c-0.042-1.167-0.563-1.877-1.772-1.877h-1.605v6.296h-3.002V101.51z M45.581,108.016h1.25
			c1.439,0,2.252-0.625,2.252-2.231c0-1.376-0.729-2.063-2.085-2.063h-1.417V108.016z"/>
		<path fill="#B0B1B2" d="M57.195,101.51v10.383c0,1.48,0.354,2.585,1.751,2.585c1.396,0,1.751-1.104,1.751-2.585V101.51h3.001
			v10.383c0,3.795-2.314,4.795-4.753,4.795c-2.439,0-4.754-0.812-4.754-4.795V101.51H57.195z"/>
		<path fill="#B0B1B2" d="M65.66,101.51h4.462l2.126,10.508h0.042l2.148-10.508h4.44v14.886h-2.752v-11.883h-0.042l-2.648,11.883
			h-2.334l-2.648-11.883h-0.042v11.883H65.66V101.51z"/>
		<path fill="#E30613" d="M26.111,3.11h3.758l1.792,8.854h0.035l1.809-8.854h3.742v12.543h-2.319V5.64h-0.035l-2.231,10.013h-1.967
			L28.465,5.64h-0.036v10.013h-2.318V3.11z"/>
		<path fill="#E30613" d="M46.061,3.11v2.073h-4.479v2.951h4.216v2.073h-4.216v3.373h4.655v2.073h-7.184V3.11H46.061z"/>
		<path fill="#E30613" d="M47.62,3.11h4.146c3.514,0,4.146,2.407,4.146,6.096c0,4.444-0.949,6.447-4.304,6.447H47.62V3.11z
			 M50.15,13.791h1.124c1.757,0,2.107-1.106,2.107-4.515c0-2.846-0.229-4.303-2.161-4.303h-1.07V13.791z"/>
		<path fill="#E30613" d="M57.7,15.653V3.11h2.53v12.543H57.7z"/>
		<path fill="#E30613" d="M69.115,3.11v2.073h-4.479v2.951h4.216v2.073h-4.216v3.373h4.654v2.073h-7.184V3.11H69.115z"/>
		<path fill="#E30613" d="M73.468,3.11l3.057,8.59h0.035V3.11h2.319v12.543h-2.881l-3.092-8.784h-0.035v8.784h-2.318V3.11H73.468z"
			/>
		<path fill="#F08262" d="M86.946,3.09v7.685H87l4.89-7.685h4.19l-5.212,8.221l5.803,10.961h-4.353l-3.949-7.871l-1.424,2.175v5.696
			h-3.869V3.09H86.946z"/>
		<path fill="#F08262" d="M101.13,3.09v13.379c0,1.908,0.457,3.332,2.256,3.332c1.801,0,2.257-1.424,2.257-3.332V3.09h3.869v13.379
			c0,4.889-2.982,6.179-6.126,6.179c-3.143,0-6.125-1.047-6.125-6.179V3.09H101.13z"/>
		<path fill="#F08262" d="M111.955,22.272V3.09h3.868v16.013h6.851v3.169H111.955z"/>
		<path fill="#F08262" d="M133.634,3.09v3.17h-4.191v16.012h-3.869V6.26h-4.19V3.09H133.634z"/>
		<path fill="#F08262" d="M138.925,3.09v13.379c0,1.908,0.457,3.332,2.256,3.332c1.801,0,2.257-1.424,2.257-3.332V3.09h3.87v13.379
			c0,4.889-2.983,6.179-6.127,6.179c-3.143,0-6.125-1.047-6.125-6.179V3.09H138.925z"/>
		<path fill="#F08262" d="M149.752,3.09h7.146c3.17,0,5.104,1.666,5.104,4.944c0,2.552-1.021,4.272-3.197,4.728v0.053
			c2.633,0.35,3.036,1.801,3.089,5.858c0.028,2.015,0.135,3.062,0.86,3.439v0.161h-4.191c-0.376-0.538-0.457-1.263-0.484-2.015
			l-0.107-3.681c-0.054-1.504-0.726-2.418-2.284-2.418h-2.069v8.114h-3.868V3.09z M153.62,11.473h1.612
			c1.853,0,2.902-0.807,2.902-2.875c0-1.772-0.941-2.66-2.688-2.66h-1.827V11.473z"/>
		<circle fill="#FFFFFF" cx="80.729" cy="52.166" r="8.529"/>
		<circle fill="none" stroke="#FFFFFF" stroke-width="0.2744" cx="80.73" cy="52.166" r="10.458"/>
		<circle fill="none" stroke="#FFFFFF" stroke-width="0.1372" cx="80.729" cy="52.166" r="13.015"/>
	</g>
</g>
</svg>
