<?xml version="1.0" encoding="utf-8"?>
<!-- Generator: Adobe Illustrator 16.0.0, SVG Export Plug-In . SVG Version: 6.00 Build 0)  -->
<!DOCTYPE svg PUBLIC "-//W3C//DTD SVG 1.1//EN" "http://www.w3.org/Graphics/SVG/1.1/DTD/svg11.dtd">
<svg version="1.1" id="Ebene_1" xmlns="http://www.w3.org/2000/svg" xmlns:xlink="http://www.w3.org/1999/xlink" x="0px" y="0px"
	 width="371px" height="150px" viewBox="0 0 371 150" enable-background="new 0 0 371 150" xml:space="preserve">
<image overflow="visible" enable-background="new    " width="2000" height="720" xlink:href="../../../../../Downloads/2000px-FH_Dortmund-logo.svg.png"  transform="matrix(0.162 0 0 0.162 -476 -58.3198)">
</image>
<line fill="none" x1="-47.535" y1="400.288" x2="-480.07" y2="400.288"/>
<line fill="none" x1="-47.535" y1="400.288" x2="-480.07" y2="400.288"/>
<line fill="none" x1="-47.535" y1="400.288" x2="-480.07" y2="400.288"/>
<line fill="none" x1="-47.535" y1="400.288" x2="-480.07" y2="400.288"/>
<line fill="none" x1="-47.535" y1="400.288" x2="-480.07" y2="400.288"/>
<line fill="none" x1="-47.535" y1="400.288" x2="-480.07" y2="400.288"/>
<line fill="none" x1="-47.535" y1="400.288" x2="-480.07" y2="400.288"/>
<line fill="none" x1="-47.535" y1="400.288" x2="-480.07" y2="400.288"/>
<line fill="none" x1="-47.535" y1="400.288" x2="-480.07" y2="400.288"/>
<line fill="none" x1="-47.535" y1="400.288" x2="-480.07" y2="400.288"/>
<line fill="none" x1="-47.535" y1="400.288" x2="-480.07" y2="400.288"/>
<line fill="none" x1="-47.535" y1="400.288" x2="-480.07" y2="400.288"/>
<line fill="none" x1="-47.535" y1="400.288" x2="-480.07" y2="400.288"/>
<line fill="none" x1="-47.535" y1="400.288" x2="-480.07" y2="400.288"/>
<g>
	<polygon fill="#878787" points="833.832,39.755 825,39.755 825,2.951 845.18,2.951 845.18,11.172 833.832,11.172 833.832,16.937 
		844.566,16.937 844.566,25.156 833.832,25.156 	"/>
	<path fill="#878787" d="M856.526,40.981l-8.835-1.963l13.189-36.068h7.484l13.188,36.068l-8.834,1.963l-2.27-7.421h-11.654
		L856.526,40.981z M864.623,14.422l-3.312,10.918h6.625L864.623,14.422z"/>
	<path fill="#878787" d="M903.877,20.127c4.602,1.227,7.055,4.539,7.055,8.894c0,6.993-6.441,10.734-14.414,10.734h-11.041V2.952
		h10.428c7.053,0,13.494,2.699,13.494,9.201C909.398,15.834,907.559,18.593,903.877,20.127 M895.904,17.06
		c3.066,0,4.906-0.92,4.906-3.374c0-1.717-1.41-2.76-4.906-2.76h-1.533v6.133H895.904z M896.211,31.782
		c3.986,0,5.826-1.227,5.826-3.681c0-2.76-1.84-3.68-5.826-3.68h-1.84v7.361H896.211z"/>
	<polygon fill="#878787" points="833.832,76.656 846.714,76.656 846.714,84.877 825,84.877 825,48.071 833.832,48.071 	"/>
	<path fill="#878787" d="M857.262,86.102l-8.832-1.961l13.188-36.068h7.484l13.187,36.068l-8.832,1.961l-2.271-7.424h-11.654
		L857.262,86.102z M865.359,59.542l-3.312,10.918h6.625L865.359,59.542z"/>
	<path fill="#878787" d="M904.613,65.246c4.602,1.227,7.055,4.54,7.055,8.895c0,6.992-6.441,10.732-14.416,10.732h-11.039V48.071
		h10.428c7.053,0,13.494,2.7,13.494,9.202C910.135,60.954,908.295,63.713,904.613,65.246 M896.641,62.18
		c3.066,0,4.906-0.92,4.906-3.374c0-1.717-1.41-2.76-4.906-2.76h-1.535v6.134H896.641z M896.945,76.9
		c3.988,0,5.828-1.227,5.828-3.68c0-2.76-1.84-3.681-5.828-3.681h-1.84v7.36H896.945z"/>
	<path fill="#878787" d="M843.4,110.367c4.601,1.227,7.055,4.539,7.055,8.893c0,6.994-6.441,10.734-14.414,10.734H825V93.191h10.428
		c7.054,0,13.495,2.699,13.495,9.201C848.923,106.074,847.082,108.832,843.4,110.367 M835.426,107.301
		c3.068,0,4.908-0.922,4.908-3.375c0-1.717-1.411-2.76-4.908-2.76h-1.533v6.135H835.426z M835.734,122.021
		c3.986,0,5.826-1.227,5.826-3.682c0-2.76-1.84-3.68-5.826-3.68h-1.84v7.361H835.734L835.734,122.021z"/>
	<polygon fill="#878787" points="865.46,121.775 878.648,121.775 878.648,129.994 856.628,129.994 856.628,93.191 878.035,93.191 
		878.035,101.412 865.46,101.412 865.46,106.562 876.194,106.562 876.194,114.783 865.46,114.783 	"/>
	<path fill="#878787" d="M904.391,115.582l9.877,11.775l-7.791,3.865l-10.428-13.371h-1.35v12.145h-8.833V93.191h10.243
		c7.424,0,14.477,4.906,14.477,12.33C910.586,109.57,908.379,113.434,904.391,115.582 M894.699,109.631h1.41
		c2.699,0,5.521-1.41,5.521-4.109s-1.412-4.109-5.521-4.109h-1.41V109.631z"/>
	<polygon fill="#878787" points="926.717,121.775 939.598,121.775 939.598,129.994 917.881,129.994 917.881,93.191 926.717,93.191 	
		"/>
	<rect x="945.537" y="93.191" fill="#878787" width="8.955" height="36.805"/>
	<polygon fill="#878787" points="983.916,129.994 971.281,109.139 971.281,129.994 962.447,129.994 962.447,93.191 971.281,93.191 
		983.916,114.049 983.916,93.191 992.752,93.191 992.752,129.994 	"/>
	<path fill="#878787" d="M816.996,126.195c0,2.09-1.709,3.797-3.798,3.797c-2.093,0-3.798-1.707-3.798-3.797
		c0-2.092,1.705-3.799,3.798-3.799C815.287,122.396,816.996,124.104,816.996,126.195"/>
	<path fill="#FCE26B" d="M985.123,39.849c-1.938-2.276-4.77-2.466-7.387-1.587c-2.719,0.924-4.652,2.517-6.518,4.6
		c-3.355,3.747-5.971,9.444-5.682,14.668c0.375,6.73,5.463,9.364,11.305,6.111c4.572-2.54,8.039-7.727,9.459-12.583
		c2.01-1.162,4.018-2.32,6.029-3.482v13.088c-10.502,6.066-21.002,12.131-31.504,18.191c0.049,1.508,0.107,3.025,0.158,4.537
		c30.781-1.094,49.799-34.037,35.359-61.241c-1.336,0.709-2.674,1.422-4.014,2.127v11.399
		C989.928,37.075,987.527,38.458,985.123,39.849"/>
	<path fill="#64C6E6" d="M945.076,20.459c-1,2.815,0.248,5.359,2.322,7.183c2.158,1.896,4.504,2.775,7.232,3.347
		c4.926,1.033,11.166,0.453,15.547-2.412c5.637-3.688,5.375-9.41-0.357-12.847c-4.488-2.689-10.717-3.098-15.627-1.901
		c-2.012-1.155-4.021-2.321-6.033-3.484c3.777-2.183,7.555-4.364,11.336-6.548c10.498,6.067,21.004,12.127,31.502,18.195
		c1.283-0.803,2.566-1.606,3.85-2.414c-16.336-26.104-54.363-26.104-70.705,0c1.285,0.804,2.566,1.61,3.848,2.414
		c3.291-1.901,6.586-3.801,9.869-5.704C940.27,17.681,942.674,19.065,945.076,20.459"/>
	<path fill="#EA535D" d="M948.303,64.833c2.943-0.536,4.525-2.896,5.064-5.604c0.564-2.818,0.145-5.291-0.721-7.941
		c-1.564-4.786-5.193-9.904-9.863-12.262c-6.016-3.036-10.844,0.055-10.949,6.741c-0.084,5.229,2.682,10.818,6.168,14.481v6.969
		c-3.775-2.183-7.559-4.365-11.332-6.552V24.282c-1.338-0.708-2.676-1.419-4.012-2.124c-14.443,27.211,4.574,60.145,35.357,61.239
		c0.053-1.514,0.109-3.023,0.158-4.533c-3.291-1.9-6.578-3.807-9.871-5.705V64.833L948.303,64.833z"/>
</g>
<g>
	<defs>
		<rect id="SVGID_1_" x="352.77" y="307.852" width="319.289" height="115.193"/>
	</defs>
	<clipPath id="SVGID_2_">
		<use xlink:href="#SVGID_1_"  overflow="visible"/>
	</clipPath>
	<path clip-path="url(#SVGID_2_)" fill="#F29517" d="M667.312,327.731c-0.063-1.913-0.555-3.36-1.477-4.342
		c-0.91-0.933-2.075-1.399-3.499-1.399c-1.421,0-2.588,0.467-3.496,1.399c-0.893,0.981-1.385,2.429-1.474,4.342H667.312z
		 M657.366,331.757c0,1.967,0.544,3.46,1.633,4.483c1.013,1.037,2.345,1.557,3.997,1.557c1.923,0,3.643-0.795,5.155-2.383
		l3.429,3.037c-2.408,2.65-5.24,3.959-8.493,3.926c-1.243,0-2.455-0.188-3.635-0.562c-0.592-0.204-1.165-0.477-1.725-0.823
		c-0.592-0.297-1.144-0.665-1.659-1.103c-1-0.91-1.809-2.177-2.432-3.807c-0.681-1.565-1.021-3.602-1.021-6.107
		c0-2.412,0.296-4.416,0.885-6.014c0.591-1.627,1.348-2.914,2.271-3.852c0.939-0.957,1.991-1.645,3.158-2.069
		c1.149-0.42,2.285-0.632,3.405-0.632c2.696,0.033,4.976,0.949,6.836,2.75c1.893,1.836,2.855,4.359,2.887,7.573v4.025H657.366z
		 M641.362,307.852h4.75v27.979c0,1.113,0.592,1.67,1.779,1.67h1.644v4.583h-2.117c-1.732,0-3.158-0.445-4.281-1.329
		c-1.181-0.903-1.774-2.42-1.774-4.548V307.852z M615.53,317.705h4.751v14.545c0,1.647,0.447,2.934,1.345,3.859
		c0.882,0.928,2.005,1.391,3.374,1.391c1.365,0,2.483-0.463,3.353-1.391c0.879-0.926,1.321-2.212,1.321-3.859v-14.545h4.747v24.378
		h-4.747v-2.608h-0.092c-1.564,1.936-3.606,2.902-6.127,2.902c-1.957-0.028-3.727-0.763-5.305-2.202
		c-1.717-1.407-2.591-3.485-2.62-6.237V317.705z M589.699,307.852h4.747v12.443h0.092c1.565-1.925,3.612-2.887,6.15-2.887
		c1.958,0,3.751,0.713,5.373,2.136c1.609,1.439,2.45,3.554,2.528,6.339v16.2h-4.75v-14.528c0-1.71-0.442-3.01-1.319-3.904
		c-0.869-0.908-1.983-1.362-3.353-1.362c-1.371,0-2.494,0.454-3.376,1.362c-0.897,0.895-1.346,2.194-1.346,3.904v14.528h-4.747
		V307.852z M585.766,338.176c-1.034,1.214-2.248,2.202-3.644,2.967c-1.397,0.793-3.012,1.206-4.847,1.234
		c-2.787,0-5.234-0.977-7.341-2.934c-2.186-1.959-3.306-5.129-3.366-9.515c0.061-4.433,1.184-7.644,3.366-9.632
		c2.109-1.959,4.557-2.922,7.346-2.889c1.835,0.033,3.447,0.422,4.845,1.171c1.393,0.765,2.606,1.788,3.641,3.069l-3.507,3.209
		c-1.199-1.649-2.798-2.508-4.8-2.569c-4.033-0.064-6.08,2.485-6.143,7.641c0.062,5.124,2.109,7.648,6.143,7.571
		c2.002-0.033,3.601-0.882,4.8-2.549L585.766,338.176z M545.977,334.644c1.932,2.103,4.421,3.153,7.47,3.153
		c1.366,0,2.483-0.275,3.35-0.825c0.866-0.546,1.298-1.315,1.298-2.302c0-0.879-0.259-1.49-0.774-1.836
		c-0.531-0.361-1.237-0.558-2.117-0.586l-4.19-0.379c-1.986-0.188-3.604-0.877-4.847-2.068c-1.277-1.161-1.926-2.782-1.96-4.867
		c0.034-2.508,0.887-4.391,2.572-5.644c1.639-1.255,3.717-1.882,6.234-1.882c1.094,0,2.073,0.069,2.937,0.209
		c0.863,0.158,1.678,0.375,2.434,0.656c1.455,0.608,2.762,1.429,3.913,2.461l-2.937,3.537c-0.911-0.68-1.874-1.243-2.892-1.688
		c-1.003-0.395-2.154-0.594-3.46-0.594c-1.487,0-2.526,0.273-3.12,0.824c-0.62,0.549-0.932,1.256-0.932,2.119
		c-0.031,0.55,0.204,1.029,0.704,1.436c0.455,0.454,1.259,0.746,2.416,0.871l3.915,0.307c2.457,0.188,4.234,0.957,5.328,2.307
		c1.016,1.32,1.523,2.99,1.523,5.016c-0.031,2.371-0.963,4.199-2.798,5.484c-1.819,1.32-4.148,1.995-6.982,2.023
		c-3.853,0-7.317-1.447-10.396-4.347L545.977,334.644z M519.437,307.852h4.747v12.443h0.092c1.564-1.925,3.614-2.887,6.15-2.887
		c1.955,0,3.75,0.713,5.373,2.136c1.606,1.439,2.452,3.554,2.528,6.339v16.2h-4.751v-14.528c0-1.71-0.439-3.01-1.321-3.904
		c-0.866-0.908-1.981-1.362-3.353-1.362c-1.366,0-2.491,0.454-3.373,1.362c-0.898,0.895-1.346,2.194-1.346,3.904v14.528h-4.747
		V307.852z M515.5,338.176c-1.031,1.214-2.246,2.202-3.642,2.967c-1.396,0.793-3.013,1.206-4.848,1.234
		c-2.787,0-5.234-0.977-7.341-2.934c-2.182-1.959-3.305-5.129-3.363-9.515c0.059-4.433,1.182-7.644,3.363-9.632
		c2.109-1.959,4.557-2.922,7.347-2.889c1.836,0.033,3.448,0.422,4.844,1.171c1.394,0.765,2.608,1.788,3.64,3.069l-3.505,3.209
		c-1.198-1.649-2.798-2.508-4.8-2.569c-4.033-0.064-6.081,2.485-6.143,7.641c0.062,5.124,2.109,7.648,6.143,7.571
		c2.002-0.033,3.602-0.882,4.8-2.549L515.5,338.176z M487.589,329.929c0-1.744-0.076-3.021-0.225-3.821
		c-0.153-0.77-0.465-1.447-0.934-2.029c-0.348-0.549-0.863-0.98-1.544-1.297c-0.65-0.33-1.406-0.493-2.269-0.493
		c-0.806,0-1.545,0.163-2.225,0.493c-0.654,0.316-1.182,0.748-1.593,1.297c-0.407,0.582-0.701,1.26-0.885,2.029
		c-0.182,0.801-0.272,2.061-0.272,3.773c0,1.699,0.091,2.939,0.272,3.728c0.184,0.801,0.478,1.509,0.885,2.12
		c0.411,0.475,0.938,0.89,1.593,1.252c0.68,0.346,1.419,0.52,2.225,0.52c0.862,0,1.618-0.174,2.269-0.52
		c0.681-0.362,1.196-0.777,1.544-1.252c0.469-0.611,0.78-1.319,0.934-2.12C487.513,332.82,487.589,331.596,487.589,329.929
		 M472.895,329.881c0-2.573,0.206-4.551,0.613-5.932c0.424-1.35,1.075-2.486,1.953-3.414c0.651-0.809,1.56-1.531,2.726-2.17
		c1.15-0.609,2.627-0.927,4.429-0.957c1.862,0.033,3.371,0.351,4.521,0.962c1.136,0.644,2.012,1.372,2.634,2.185
		c0.938,0.924,1.605,2.061,1.999,3.406c0.377,1.38,0.568,3.352,0.568,5.92c0,2.569-0.191,4.525-0.568,5.875
		c-0.394,1.346-1.061,2.514-1.999,3.499c-0.304,0.36-0.673,0.714-1.112,1.056c-0.394,0.392-0.9,0.729-1.521,1.011
		c-1.15,0.673-2.657,1.027-4.519,1.056c-1.805-0.028-3.281-0.383-4.432-1.056c-1.166-0.611-2.074-1.3-2.726-2.069
		c-0.878-0.982-1.529-2.15-1.953-3.496C473.101,334.406,472.895,332.45,472.895,329.881 M448.209,307.852h4.748v12.443h0.092
		c1.565-1.925,3.616-2.887,6.15-2.887c1.956,0,3.749,0.713,5.373,2.136c1.608,1.439,2.452,3.554,2.528,6.339v16.2h-4.749v-14.528
		c0-1.71-0.439-3.01-1.321-3.904c-0.869-0.908-1.984-1.362-3.353-1.362s-2.493,0.454-3.374,1.362
		c-0.898,0.895-1.347,2.194-1.347,3.904v14.528h-4.748V307.852z M422.377,307.852h4.749v12.443h0.09
		c1.565-1.925,3.616-2.887,6.152-2.887c1.956,0,3.749,0.713,5.373,2.136c1.608,1.439,2.452,3.554,2.526,6.339v16.2h-4.749v-14.528
		c0-1.71-0.439-3.01-1.321-3.904c-0.867-0.908-1.982-1.362-3.353-1.362c-1.366,0-2.491,0.454-3.374,1.362
		c-0.897,0.895-1.345,2.194-1.345,3.904v14.528h-4.749V307.852z M418.442,338.176c-1.031,1.214-2.246,2.202-3.642,2.967
		c-1.396,0.793-3.013,1.206-4.849,1.234c-2.788,0-5.234-0.977-7.34-2.934c-2.182-1.959-3.304-5.129-3.364-9.515
		c0.061-4.433,1.183-7.644,3.364-9.632c2.108-1.959,4.556-2.922,7.345-2.889c1.836,0.033,3.449,0.422,4.846,1.171
		c1.394,0.765,2.608,1.788,3.64,3.069l-3.506,3.209c-1.197-1.649-2.798-2.508-4.796-2.569c-4.037-0.064-6.084,2.485-6.146,7.641
		c0.062,5.124,2.109,7.648,6.143,7.571c2.002-0.033,3.603-0.882,4.8-2.549L418.442,338.176z M389.384,331.757h-5.683
		c-2.76,0.063-4.124,1.048-4.092,2.948c0,0.834,0.354,1.543,1.066,2.125c0.684,0.643,1.812,0.967,3.387,0.967
		c1.986,0.03,3.389-0.215,4.209-0.73c0.742-0.52,1.112-1.699,1.112-3.537V331.757z M389.384,339.947h-0.089
		c-0.439,0.827-1.12,1.433-2.041,1.824c-0.91,0.406-2.166,0.605-3.77,0.605c-2.631-0.028-4.657-0.75-6.08-2.156
		c-1.499-1.378-2.246-3.139-2.246-5.283c0-2.051,0.648-3.748,1.951-5.094c1.299-1.378,3.205-2.08,5.719-2.112h6.556v-2.585
		c0.031-2.166-1.578-3.22-4.835-3.156c-1.18,0-2.109,0.126-2.793,0.379c-0.711,0.299-1.271,0.807-1.678,1.52l-3.725-2.946
		c1.801-2.419,4.459-3.599,7.97-3.534c2.967-0.033,5.337,0.547,7.106,1.736c1.772,1.22,2.673,3.318,2.703,6.293v16.646h-4.749
		V339.947z M352.77,307.852h21.169v4.88h-16.165v10.116h13.799v4.578h-13.799v14.657h-5.004V307.852z"/>
	<path clip-path="url(#SVGID_2_)" fill="#F29517" d="M544.906,368.291c-1.125,0-1.983,0.193-2.575,0.588
		c-0.657,0.428-1.136,1.006-1.437,1.746c-0.291,0.738-0.481,1.539-0.571,2.406c-0.091,0.926-0.139,1.879-0.139,2.852
		c0,0.93,0.048,1.832,0.139,2.711c0.09,0.93,0.28,1.766,0.571,2.5c0.301,0.709,0.779,1.291,1.437,1.748
		c0.592,0.439,1.45,0.66,2.575,0.66c1.123,0,2.013-0.236,2.667-0.707c0.651-0.457,1.1-1.055,1.345-1.795
		c0.304-0.738,0.508-1.564,0.615-2.477c0.029-0.895,0.045-1.777,0.045-2.641c0-0.941-0.016-1.848-0.045-2.711
		c-0.107-0.863-0.312-1.668-0.615-2.404c-0.245-0.742-0.693-1.338-1.345-1.793C546.919,368.52,546.029,368.291,544.906,368.291
		 M549.578,385.557c-1.565,1.82-3.606,2.764-6.124,2.826c-1.43-0.033-2.651-0.338-3.667-0.918c-1.065-0.566-1.952-1.316-2.664-2.26
		c-0.654-0.766-1.086-1.809-1.301-3.125c-0.257-1.254-0.385-3.322-0.385-6.207c0-2.932,0.128-5.016,0.385-6.252
		c0.215-1.258,0.646-2.268,1.301-3.037c1.335-2.039,3.446-3.096,6.331-3.174c1.212,0,2.337,0.256,3.371,0.771
		c0.955,0.545,1.873,1.244,2.753,2.102v-12.428h4.75v34.229h-4.75V385.557z M509.604,363.709h4.749v2.582h0.092
		c1.562-1.92,3.611-2.881,6.147-2.881c1.958,0,3.753,0.711,5.376,2.135c1.606,1.443,2.449,3.555,2.528,6.34v16.199h-4.751v-14.527
		c0-1.707-0.441-3.01-1.321-3.902c-0.869-0.908-1.983-1.363-3.35-1.363c-1.372,0-2.494,0.455-3.376,1.363
		c-0.898,0.893-1.346,2.195-1.346,3.902v14.527h-4.749V363.709z M483.771,363.709h4.749v14.543c0,1.648,0.448,2.936,1.346,3.859
		c0.882,0.928,2.005,1.391,3.375,1.391c1.368,0,2.483-0.463,3.353-1.391c0.879-0.924,1.321-2.211,1.321-3.859v-14.543h4.749v24.375
		h-4.749v-2.605h-0.092c-1.564,1.936-3.607,2.904-6.127,2.904c-1.959-0.033-3.724-0.768-5.306-2.203
		c-1.715-1.408-2.586-3.486-2.619-6.24V363.709z M442.615,363.709h4.76v2.582h0.092c1.613-1.92,3.733-2.881,6.364-2.881
		c1.688,0.031,3.051,0.322,4.085,0.869c1.018,0.609,1.948,1.385,2.795,2.326c1.907-2.162,4.467-3.227,7.679-3.195
		c2.018,0,3.867,0.711,5.542,2.135c1.659,1.443,2.519,3.555,2.583,6.34v16.199h-4.757v-14.527c0-1.707-0.455-3.01-1.361-3.902
		c-0.909-0.908-2.079-1.363-3.513-1.363c-1.432,0-2.611,0.455-3.535,1.363c-0.94,0.893-1.41,2.195-1.41,3.902v14.527h-4.749v-14.527
		c0-1.707-0.453-3.01-1.358-3.902c-0.92-0.908-2.097-1.363-3.526-1.363s-2.598,0.455-3.503,1.363
		c-0.952,0.893-1.43,2.195-1.43,3.902v14.527h-4.757V363.709z M428.287,356.286h4.748v7.423h3.458v3.73h-3.458v14.248
		c-0.032,1.24,0.527,1.846,1.684,1.814h1.774v4.582h-2.478c-1.667,0-3.033-0.533-4.092-1.596c-1.094-1.021-1.637-2.492-1.637-4.416
		v-14.633h-2.381v-3.73h2.381V356.286z M406.867,363.709h4.75v2.582h0.099c1.56-1.92,3.609-2.881,6.143-2.881
		c1.897,0.031,3.551,0.654,4.961,1.871l-3.46,4.234c-1.002-0.818-2.043-1.225-3.119-1.225c-1.218,0-2.258,0.406-3.12,1.223
		c-0.974,0.797-1.474,2.09-1.503,3.875v14.695h-4.75V363.709z M396.367,375.93c0-1.744-0.074-3.018-0.227-3.82
		c-0.151-0.77-0.461-1.445-0.932-2.025c-0.348-0.553-0.861-0.984-1.543-1.299c-0.65-0.33-1.41-0.494-2.272-0.494
		c-0.802,0-1.544,0.164-2.225,0.494c-0.651,0.314-1.179,0.746-1.59,1.299c-0.409,0.58-0.704,1.256-0.884,2.027
		c-0.183,0.801-0.273,2.059-0.273,3.771c0,1.699,0.091,2.941,0.273,3.727c0.18,0.801,0.475,1.512,0.884,2.123
		c0.411,0.471,0.938,0.891,1.59,1.248c0.681,0.35,1.423,0.521,2.225,0.521c0.862,0,1.622-0.172,2.272-0.521
		c0.682-0.357,1.195-0.777,1.543-1.248c0.471-0.611,0.78-1.322,0.932-2.123C396.293,378.824,396.367,377.598,396.367,375.93
		 M381.674,375.883c0-2.572,0.203-4.551,0.613-5.93c0.423-1.354,1.074-2.49,1.954-3.416c0.647-0.809,1.558-1.533,2.724-2.17
		c1.15-0.607,2.629-0.926,4.429-0.957c1.862,0.031,3.368,0.354,4.521,0.963c1.136,0.641,2.013,1.371,2.634,2.186
		c0.938,0.924,1.605,2.059,2,3.408c0.378,1.375,0.568,3.35,0.568,5.916c0,2.57-0.19,4.525-0.568,5.873
		c-0.395,1.348-1.062,2.516-2,3.502c-0.303,0.361-0.672,0.713-1.112,1.057c-0.394,0.393-0.899,0.729-1.521,1.008
		c-1.15,0.676-2.659,1.027-4.521,1.061c-1.8-0.033-3.278-0.385-4.429-1.061c-1.164-0.607-2.073-1.301-2.724-2.064
		c-0.88-0.986-1.531-2.154-1.954-3.502C381.877,380.408,381.674,378.453,381.674,375.883 M357.996,383.203h6.008
		c2.822,0,4.871-0.996,6.145-2.988c0.562-0.736,0.92-1.668,1.069-2.801c0.138-1.111,0.207-3.195,0.207-6.258
		c0-2.979-0.069-5.111-0.207-6.398c-0.179-1.285-0.614-2.33-1.296-3.13c-1.396-1.991-3.369-2.955-5.918-2.895h-6.008V383.203z
		 M352.992,353.855h11.584c4.482,0.031,7.846,1.957,10.086,5.773c0.799,1.287,1.305,2.633,1.517,4.037
		c0.167,1.41,0.25,3.846,0.25,7.305c0,3.678-0.13,6.244-0.386,7.699c-0.123,0.736-0.304,1.393-0.547,1.971
		c-0.258,0.562-0.568,1.152-0.931,1.762c-0.968,1.613-2.315,2.941-4.041,3.992c-1.71,1.127-3.808,1.689-6.29,1.689h-11.242V353.855z
		"/>
	<path clip-path="url(#SVGID_2_)" fill="#1A171B" d="M672.059,416.174c0-1.426-0.809-2.316-2.502-2.682l-1.24-0.27
		c-0.997-0.213-1.354-0.658-1.354-1.391c0-0.945,0.696-1.582,1.77-1.582c0.824,0,1.521,0.289,2.351,0.695l0.541-1.117
		c-0.79-0.467-1.879-0.775-2.854-0.775c-1.958,0-3.329,1.217-3.329,2.953c0,1.332,0.824,2.316,2.368,2.645l1.167,0.25
		c1.07,0.232,1.542,0.715,1.542,1.582c0,1.021-0.754,1.66-1.903,1.66c-1.03,0-2.01-0.309-2.968-0.906l-0.565,1.117
		c0.958,0.598,2.257,0.967,3.442,0.967C670.63,419.32,672.059,418.045,672.059,416.174 M663.54,409.42h-2.351
		c0-1.271,0.188-2.779,0.188-2.779l-1.541,0.348c0,0-0.152,1.508-0.152,2.432h-1.222v1.139h1.222v6.6c0,0.967,0.246,1.58,0.903,1.91
		c0.358,0.174,0.732,0.27,1.222,0.27c0.657,0,1.184-0.133,1.654-0.387l-0.204-0.963c-0.267,0.137-0.51,0.191-0.924,0.191
		c-0.921,0-1.204-0.365-1.204-1.424v-6.197h1.955L663.54,409.42z M657.033,409.227c0,0-0.264-0.098-0.507-0.098
		c-0.958,0-1.955,0.621-2.631,1.604c0.055-0.811-0.304-1.562-0.304-1.562l-1.465,0.404c0,0,0.318,0.639,0.318,2.047v7.408h1.469
		v-6.02c0-0.793,0.112-1.084,0.544-1.525c0.433-0.441,0.997-0.693,1.562-0.693c0.149,0,0.319,0.039,0.411,0.076L657.033,409.227z
		 M647.047,413.664h-4.005l2.034-6.482L647.047,413.664z M650.418,419.029l-4.271-13.234h-2.013l-4.306,13.234h1.561l1.24-4.068
		h4.815l1.223,4.068H650.418z M631.668,416.58c0,0-0.173,0.406-0.565,0.693c-0.602,0.445-1.036,0.617-1.809,0.617
		c-0.86,0-1.447-0.326-1.876-1.117c-0.304-0.561-0.38-1.393-0.38-2.51c0-1.35,0.154-2.047,0.604-2.779
		c0.393-0.654,1.016-1.006,1.749-1.006c1.109,0,1.803,0.33,2.276,1.006V416.58z M633.432,419.029
		c-0.204-0.561-0.279-1.447-0.279-3.105v-10.73l-1.466-0.25v4.033c0,0.693,0.019,1.484,0.019,1.484
		c-0.565-0.771-1.487-1.217-2.542-1.217c-0.675,0-1.203,0.176-1.803,0.602c-1.277,0.906-1.937,2.41-1.937,4.457
		c0,3.068,1.39,4.863,3.815,4.863c1.092,0,1.806-0.33,2.483-1.121c0.019,0.504,0.207,0.984,0.207,0.984H633.432z M622.639,419.029
		v-7.293c0-0.389-0.076-0.773-0.225-1.119c-0.377-0.85-1.28-1.41-2.296-1.41c-0.997,0-1.973,0.482-2.949,1.486
		c0-0.793-0.34-1.504-0.34-1.504l-1.43,0.406c0,0,0.356,0.654,0.356,2.025v7.408h1.432v-7.158c0.675-0.734,1.84-1.35,2.594-1.35
		c0.432,0,0.829,0.152,1.033,0.402c0.265,0.328,0.338,0.582,0.338,1.605v6.5H622.639z M610.754,414.146l-0.055,2.512
		c-0.435,0.906-1.319,1.502-2.276,1.502c-1.071,0-1.618-0.615-1.618-1.752c0-1.469,0.849-2.299,3.217-2.299
		C610.283,414.109,610.511,414.127,610.754,414.146 M612.919,418.318c-0.699-0.389-0.791-0.791-0.754-2.355l0.076-3.168
		c0.018-0.869,0-1.598-0.207-2.121c-0.396-0.984-1.298-1.504-2.594-1.504c-1.358,0-2.693,0.443-3.934,1.291l0.735,1.08
		c0.6-0.557,1.935-1.135,2.989-1.135c0.583,0,0.958,0.17,1.261,0.518c0.262,0.309,0.302,0.658,0.302,1.508v0.676
		c0,0-0.265-0.021-0.66-0.021c-3.141,0-4.965,1.275-4.965,3.455c0,1.293,0.696,2.74,3.008,2.74c1.072,0,1.806-0.367,2.711-1.293
		c0.168,0.676,0.636,1.195,1.277,1.408L612.919,418.318z M598.438,416.174c0-1.426-0.809-2.316-2.502-2.682l-1.24-0.27
		c-0.997-0.213-1.355-0.658-1.355-1.391c0-0.945,0.698-1.582,1.769-1.582c0.827,0,1.523,0.289,2.351,0.695l0.545-1.117
		c-0.788-0.467-1.88-0.775-2.855-0.775c-1.958,0-3.329,1.217-3.329,2.953c0,1.332,0.824,2.316,2.368,2.645l1.165,0.25
		c1.073,0.232,1.541,0.715,1.541,1.582c0,1.021-0.751,1.66-1.897,1.66c-1.033,0-2.013-0.309-2.971-0.906l-0.564,1.117
		c0.957,0.598,2.256,0.967,3.438,0.967C597.006,419.32,598.438,418.045,598.438,416.174 M587.755,413.338h-4.287
		c0.076-1.99,0.827-2.992,2.162-2.992c0.717,0,1.374,0.328,1.695,0.852C587.605,411.66,587.736,412.295,587.755,413.338
		 M589.314,414.477v-0.213c0-2.295-0.262-3.203-1.07-4.051c-0.639-0.676-1.523-1.043-2.539-1.043c-1.128,0-2.049,0.426-2.8,1.334
		c-0.791,0.963-1.128,2.004-1.128,3.623c0,3.186,1.56,5.115,4.153,5.115c1.204,0,2.332-0.424,3.159-1.197l-0.563-0.963
		c-0.659,0.615-1.392,0.906-2.292,0.906c-0.942,0-1.807-0.346-2.335-1.178c-0.319-0.5-0.432-1.195-0.432-2.104v-0.23H589.314z
		 M579.914,417.971l-0.81-0.967c-0.544,0.676-1.259,1.041-2.013,1.041c-1.504,0-2.313-1.174-2.313-3.338
		c0-1.406,0.171-2.469,0.529-3.145c0.337-0.656,1.033-1.084,1.767-1.084c0.714,0,1.128,0.215,1.787,0.773l0.809-1.039
		c-0.678-0.582-1.374-1.043-2.56-1.043c-0.997,0-1.803,0.367-2.538,1.119c-0.809,0.828-1.408,1.988-1.408,4.09
		c0,1.43,0.28,2.492,0.902,3.416c0.657,0.965,1.654,1.447,2.989,1.447C578.221,419.242,579.047,418.877,579.914,417.971
		 M570.321,419.029v-7.293c0-0.389-0.073-0.773-0.225-1.119c-0.374-0.85-1.277-1.41-2.293-1.41c-0.997,0-1.976,0.482-2.954,1.486
		c0-0.793-0.338-1.504-0.338-1.504l-1.429,0.406c0,0,0.358,0.654,0.358,2.025v7.408h1.426v-7.158c0.678-0.734,1.846-1.35,2.6-1.35
		c0.432,0,0.824,0.152,1.033,0.402c0.262,0.328,0.338,0.582,0.338,1.605v6.5H570.321z M558.854,413.338h-4.29
		c0.076-1.99,0.83-2.992,2.162-2.992c0.717,0,1.374,0.328,1.696,0.852C558.701,411.66,558.832,412.295,558.854,413.338
		 M560.41,414.477v-0.213c0-2.295-0.262-3.203-1.07-4.051c-0.639-0.676-1.523-1.043-2.538-1.043c-1.128,0-2.05,0.426-2.801,1.334
		c-0.79,0.963-1.128,2.004-1.128,3.623c0,3.186,1.56,5.115,4.153,5.115c1.204,0,2.332-0.424,3.159-1.197l-0.562-0.963
		c-0.657,0.615-1.393,0.906-2.293,0.906c-0.942,0-1.806-0.346-2.335-1.178c-0.319-0.5-0.432-1.195-0.432-2.104v-0.23H560.41z
		 M549.976,419.029v-9.822l-1.523,0.252v9.57H549.976z M550.39,406.447c0-0.652-0.508-1.176-1.149-1.176
		c-0.636,0-1.146,0.541-1.146,1.199c0,0.633,0.511,1.156,1.146,1.156C549.882,407.627,550.39,407.104,550.39,406.447
		 M545.95,417.971l-0.806-0.967c-0.547,0.676-1.264,1.041-2.013,1.041c-1.508,0-2.313-1.174-2.313-3.338
		c0-1.406,0.17-2.469,0.526-3.145c0.337-0.656,1.033-1.084,1.769-1.084c0.712,0,1.128,0.215,1.785,0.773l0.809-1.039
		c-0.678-0.582-1.371-1.043-2.557-1.043c-0.997,0-1.806,0.367-2.541,1.119c-0.807,0.828-1.408,1.988-1.408,4.09
		c0,1.43,0.279,2.492,0.902,3.416c0.66,0.965,1.654,1.447,2.989,1.447C544.26,419.242,545.087,418.877,545.95,417.971
		 M536.869,415.287c0-0.83-0.319-1.719-0.848-2.334c-0.526-0.617-1.129-0.967-2.274-1.332l-1.487-0.484
		c-1.521-0.5-2.143-1.098-2.143-2.16c0-1.35,0.96-2.182,2.575-2.182c1.109,0,1.899,0.289,3.141,1.123l0.678-1.143
		c-1.22-0.848-2.5-1.271-3.892-1.271c-2.502,0-4.178,1.545-4.178,3.801c0,0.85,0.285,1.582,0.809,2.162
		c0.511,0.539,1.131,0.811,2.296,1.178l1.298,0.402c1.562,0.484,2.313,1.293,2.313,2.473c0,0.773-0.301,1.406-0.921,1.891
		c-0.547,0.424-1.073,0.578-2.05,0.578c-1.298,0-2.389-0.346-3.46-1.137l-0.678,1.232c1.277,0.812,2.594,1.197,4.138,1.197
		c1.184,0,2.05-0.252,2.897-0.812C536.23,417.719,536.869,416.521,536.869,415.287 M519.19,416.58c0,0-0.168,0.406-0.561,0.693
		c-0.604,0.445-1.036,0.617-1.809,0.617c-0.866,0-1.447-0.326-1.882-1.117c-0.298-0.561-0.374-1.393-0.374-2.51
		c0-1.35,0.149-2.047,0.604-2.779c0.393-0.654,1.011-1.006,1.746-1.006c1.109,0,1.806,0.33,2.274,1.006V416.58z M520.959,419.029
		c-0.204-0.561-0.282-1.447-0.282-3.105v-10.73l-1.466-0.25v4.033c0,0.693,0.016,1.484,0.016,1.484
		c-0.56-0.771-1.481-1.217-2.536-1.217c-0.678,0-1.204,0.176-1.806,0.602c-1.279,0.906-1.936,2.41-1.936,4.457
		c0,3.068,1.392,4.863,3.817,4.863c1.089,0,1.806-0.33,2.481-1.121c0.018,0.504,0.204,0.984,0.204,0.984H520.959z M509.037,413.338
		h-4.289c0.075-1.99,0.829-2.992,2.163-2.992c0.716,0,1.372,0.328,1.693,0.852C508.887,411.66,509.018,412.295,509.037,413.338
		 M510.597,414.477v-0.213c0-2.295-0.263-3.203-1.072-4.051c-0.638-0.676-1.522-1.043-2.538-1.043c-1.128,0-2.051,0.426-2.801,1.334
		c-0.79,0.963-1.128,2.004-1.128,3.623c0,3.186,1.56,5.115,4.153,5.115c1.204,0,2.332-0.424,3.16-1.197l-0.562-0.963
		c-0.659,0.615-1.394,0.906-2.294,0.906c-0.94,0-1.807-0.346-2.332-1.178c-0.321-0.5-0.435-1.195-0.435-2.104v-0.23H510.597z
		 M500.16,419.029v-9.822l-1.521,0.252v9.57H500.16z M500.573,406.447c0-0.652-0.507-1.176-1.146-1.176
		c-0.639,0-1.147,0.541-1.147,1.199c0,0.633,0.509,1.156,1.147,1.156C500.066,407.627,500.573,407.104,500.573,406.447
		 M496.098,419.012l-0.3-0.984c0,0-0.132,0.037-0.188,0.037c-0.412,0-0.527-0.209-0.527-0.963v-9.822
		c0-1.467-0.243-2.279-0.243-2.279l-1.467,0.289c0,0,0.225,0.715,0.225,1.971v10.189c0,0.693,0.15,1.1,0.45,1.369
		c0.284,0.271,0.659,0.404,1.109,0.404C495.553,419.223,495.722,419.184,496.098,419.012 M489.083,414.4
		c0,1.078-0.112,1.812-0.394,2.428c-0.32,0.717-1.108,1.199-1.975,1.199c-0.79,0-1.601-0.445-2.294-1.254v-4.848
		c0.713-0.883,1.56-1.35,2.501-1.35c0.752,0,1.428,0.408,1.731,1.062C488.915,412.217,489.083,413.24,489.083,414.4
		 M490.644,414.207c0-1.721-0.338-2.895-1.034-3.783c-0.601-0.771-1.541-1.197-2.501-1.197c-1.033,0-1.994,0.484-2.762,1.41
		c0-1.062-0.095-1.467-0.095-1.467l-1.506,0.268c0,0,0.207,0.602,0.207,2.068v11.539l1.468-0.291v-4.594
		c0.657,0.693,1.616,1.121,2.575,1.121c1.223,0,2.22-0.637,2.897-1.754C490.418,416.637,490.644,415.75,490.644,414.207
		 M478.439,414.4c0,1.078-0.112,1.812-0.394,2.428c-0.319,0.717-1.11,1.199-1.977,1.199c-0.787,0-1.597-0.445-2.294-1.254v-4.848
		c0.716-0.883,1.562-1.35,2.501-1.35c0.754,0,1.432,0.408,1.731,1.062C478.271,412.217,478.439,413.24,478.439,414.4
		 M480.002,414.207c0-1.721-0.34-2.895-1.035-3.783c-0.604-0.771-1.543-1.197-2.501-1.197c-1.033,0-1.993,0.484-2.765,1.41
		c0-1.062-0.095-1.467-0.095-1.467l-1.503,0.268c0,0,0.206,0.602,0.206,2.068v11.539l1.466-0.291v-4.594
		c0.66,0.693,1.619,1.121,2.575,1.121c1.226,0,2.22-0.637,2.897-1.754C479.776,416.637,480.002,415.75,480.002,414.207
		 M466.912,413.664h-4.006l2.031-6.482L466.912,413.664z M470.279,419.029l-4.271-13.234h-2.013l-4.306,13.234h1.562l1.24-4.068
		h4.812l1.223,4.068H470.279z M455.555,405.619c-0.547-0.367-1.26-0.561-2.068-0.561c-0.698,0-1.204,0.154-1.657,0.5
		c-0.394,0.309-1.033,0.93-1.033,2.359v1.502h-0.9v1.139h0.9v8.471h1.543v-8.471h2.145l0.45-1.139h-2.595v-1.484
		c0-1.102,0.449-1.701,1.278-1.701c0.506,0,1.035,0.236,1.391,0.445L455.555,405.619z M445.944,414.494
		c0,0.947-0.075,1.488-0.281,2.086c-0.321,0.924-1.053,1.447-2.032,1.447c-0.809,0-1.56-0.385-1.899-0.965
		c-0.356-0.598-0.581-1.797-0.581-3.146c0-1.139,0.15-1.91,0.45-2.508c0.319-0.639,1.091-1.045,1.918-1.045
		c0.772,0,1.598,0.389,1.994,1.238C445.812,412.238,445.944,413.145,445.944,414.494 M447.62,414.379
		c0-1.562-0.284-2.701-0.867-3.57c-0.64-0.943-1.655-1.68-3.215-1.68c-2.463,0-3.988,1.914-3.988,5.041
		c0,3.164,1.47,5.111,4.045,5.111C445.944,419.281,447.62,417.582,447.62,414.379 M433.327,409.42h-1.675l-1.844,6.312
		c-0.226,0.789-0.582,2.025-0.582,2.025h-0.037c0,0-0.281-1.486-0.565-2.395l-1.917-6.234l-1.45,0.502l2.013,6.023
		c0.319,0.963,0.829,2.836,0.941,3.453l0.604-0.096c-0.51,1.947-0.96,2.566-2.163,2.951l0.432,1.021
		c1.634-0.402,2.406-1.678,3.027-3.607L433.327,409.42z M423.998,409.42h-2.35c0-1.271,0.187-2.779,0.187-2.779l-1.541,0.348
		c0,0-0.149,1.508-0.149,2.432h-1.222v1.139h1.222v6.6c0,0.967,0.243,1.58,0.903,1.91c0.355,0.174,0.731,0.27,1.222,0.27
		c0.657,0,1.185-0.133,1.653-0.387l-0.206-0.963c-0.263,0.137-0.509,0.191-0.922,0.191c-0.922,0-1.203-0.365-1.203-1.424v-6.197
		h1.956L423.998,409.42z M416.438,419.029v-9.822l-1.522,0.252v9.57H416.438z M416.854,406.447c0-0.652-0.509-1.176-1.147-1.176
		c-0.64,0-1.146,0.541-1.146,1.199c0,0.633,0.507,1.156,1.146,1.156C416.345,407.627,416.854,407.104,416.854,406.447
		 M412.133,416.174c0-1.426-0.809-2.316-2.502-2.682l-1.241-0.27c-0.997-0.213-1.353-0.658-1.353-1.391
		c0-0.945,0.695-1.582,1.766-1.582c0.828,0,1.525,0.289,2.354,0.695l0.543-1.117c-0.791-0.467-1.881-0.775-2.857-0.775
		c-1.955,0-3.33,1.217-3.33,2.953c0,1.332,0.827,2.316,2.371,2.645l1.166,0.25c1.072,0.232,1.542,0.715,1.542,1.582
		c0,1.021-0.754,1.66-1.9,1.66c-1.035,0-2.01-0.309-2.97-0.906l-0.566,1.117c0.959,0.598,2.258,0.967,3.441,0.967
		C410.703,419.32,412.133,418.045,412.133,416.174 M403.971,409.227c0,0-0.264-0.098-0.507-0.098c-0.959,0-1.956,0.621-2.634,1.604
		c0.057-0.811-0.301-1.562-0.301-1.562l-1.466,0.404c0,0,0.319,0.639,0.319,2.047v7.408h1.465v-6.02
		c0-0.793,0.113-1.084,0.547-1.525c0.433-0.441,0.998-0.693,1.561-0.693c0.15,0,0.322,0.039,0.415,0.076L403.971,409.227z
		 M394.795,413.338h-4.289c0.075-1.99,0.829-2.992,2.164-2.992c0.715,0,1.371,0.328,1.693,0.852
		C394.645,411.66,394.775,412.295,394.795,413.338 M396.354,414.477v-0.213c0-2.295-0.263-3.203-1.073-4.051
		c-0.637-0.676-1.521-1.043-2.537-1.043c-1.128,0-2.051,0.426-2.803,1.334c-0.788,0.963-1.129,2.004-1.129,3.623
		c0,3.186,1.562,5.115,4.156,5.115c1.205,0,2.332-0.424,3.16-1.197l-0.562-0.963c-0.659,0.615-1.393,0.906-2.295,0.906
		c-0.939,0-1.806-0.346-2.333-1.178c-0.319-0.5-0.433-1.195-0.433-2.104v-0.23H396.354z M387.405,409.42h-1.56l-2.145,6.389
		c-0.299,0.869-0.449,1.621-0.449,1.621h-0.038c0,0-0.188-0.85-0.453-1.641l-2.181-6.619l-1.504,0.328l3.365,9.629h1.447
		L387.405,409.42z M377.008,419.029v-9.822l-1.522,0.252v9.57H377.008z M377.42,406.447c0-0.652-0.507-1.176-1.146-1.176
		c-0.638,0-1.148,0.541-1.148,1.199c0,0.633,0.511,1.156,1.148,1.156C376.913,407.627,377.42,407.104,377.42,406.447
		 M372.043,419.029v-7.293c0-0.389-0.074-0.773-0.227-1.119c-0.376-0.85-1.279-1.41-2.295-1.41c-0.996,0-1.972,0.482-2.95,1.486
		c0-0.793-0.341-1.504-0.341-1.504l-1.428,0.406c0,0,0.356,0.654,0.356,2.025v7.408h1.432v-7.158c0.675-0.734,1.841-1.35,2.594-1.35
		c0.432,0,0.828,0.152,1.035,0.402c0.262,0.328,0.337,0.582,0.337,1.605v6.5H372.043z M361.549,415.209v-9.414h-1.521v9.221
		c0,0.889-0.057,1.467-0.491,2.066c-0.394,0.539-1.202,0.83-2.275,0.83c-1.578,0-2.274-0.715-2.519-1.295
		c-0.17-0.404-0.226-1.254-0.226-1.91v-8.912h-1.524v9.492c0,0.578,0.037,1.426,0.378,2.064c0.693,1.312,1.821,1.91,3.815,1.91
		c1.562,0,2.598-0.328,3.386-1.021C361.344,417.564,361.549,416.811,361.549,415.209"/>
</g>
<path id="path51662" fill="#5F6569" d="M-150.284,423.046h-58.359v-17.614h58.359V423.046z M-147.498,297.875v63.748
	c0,14.058-7.944,31.823-31.899,31.823c-21.617,0-32.031-14.126-32.031-31.823v-63.748h19.658v62.438
	c0,11.587,4.95,16.148,12.115,16.148c8.594,0,12.499-5.724,12.499-16.148v-62.438H-147.498z"/>
<path id="path51706" fill="#5F6569" d="M0.456,305.581v-7.778h3.007v7.576c0,1.352,0.715,2.2,2.068,2.2
	c1.267,0,1.997-0.763,1.997-2.2v-7.576h2.956v7.658c0,3.016-2.232,4.605-5.053,4.605C2.367,310.066,0.456,308.611,0.456,305.581
	 M-10.877,303.364c1.101,0,1.763-0.624,1.763-1.607c0-1.027-0.681-1.587-1.763-1.587h-1.859v3.194H-10.877z M-15.763,297.805h5.275
	c2.738,0,4.316,1.568,4.316,3.804c0,1.474-0.712,2.905-2.271,3.55l2.756,4.706h-3.299l-2.383-4.264h-1.369v4.264h-3.026V297.805z
	 M-27.066,297.803h8.879v2.453h-5.847v2.301h4.919v2.436h-4.919v2.4h5.881v2.471h-8.913V297.803L-27.066,297.803z M-34.424,307.393
	c1.101,0,2.066-0.692,2.066-1.932v-3.312c0-1.167-0.953-1.88-2.148-1.88h-1.764v7.123H-34.424z M-39.295,297.803h5.036
	c2.694,0,4.927,1.435,4.927,4.246v3.398c0,2.99-2.371,4.416-4.905,4.416h-5.058V297.803L-39.295,297.803z M-52.556,297.803h2.926
	l4.599,6.813h0.035v-6.813h2.794v12.061h-2.812l-4.716-7.086h-0.038v7.086h-2.788V297.803L-52.556,297.803z M-65.277,305.581v-7.778
	h3.012v7.576c0,1.352,0.71,2.2,2.063,2.2c1.269,0,1.997-0.763,1.997-2.2v-7.576h2.958v7.658c0,3.016-2.234,4.605-5.057,4.605
	C-63.367,310.066-65.277,308.611-65.277,305.581 M-80.315,297.803h3.756l2.456,6.223h0.032l2.404-6.223h3.703v12.061h-2.793v-7.683
	h-0.034l-2.298,6.058h-2.08l-2.319-6.041h-0.033v7.666h-2.794V297.803L-80.315,297.803z M-88.434,300.221h-3.416v-2.419h9.863v2.419
	h-3.422v9.643h-3.025V300.221z M-97.873,303.364c1.098,0,1.756-0.624,1.756-1.607c0-1.027-0.673-1.587-1.756-1.587h-1.859v3.194
	H-97.873z M-102.761,297.805h5.274c2.743,0,4.316,1.568,4.316,3.804c0,1.474-0.712,2.905-2.267,3.55l2.76,4.706h-3.302l-2.385-4.264
	h-1.369v4.264h-3.028V297.805z M-108.157,305.6v-3.566c0-1.27-0.997-1.967-2.132-1.967c-1.083,0-2.081,0.575-2.081,1.983v3.532
	c0,1.283,0.9,1.994,2.132,1.994C-109.172,307.576-108.157,306.969-108.157,305.6 M-115.398,305.648v-3.484
	c0-3.06,2.505-4.564,5.096-4.564c2.684,0,5.174,1.438,5.174,4.55v3.351c0,3.143-2.592,4.563-5.11,4.563
	C-112.942,310.063-115.398,308.764-115.398,305.648 M-122.483,307.393c1.097,0,2.063-0.692,2.063-1.932v-3.312
	c0-1.167-0.948-1.88-2.146-1.88h-1.763v7.123H-122.483z M-127.354,297.803h5.036c2.691,0,4.926,1.435,4.926,4.246v3.398
	c0,2.99-2.37,4.416-4.905,4.416h-5.058V297.803z"/>
<path id="path51818" fill="#5F6569" d="M17.912,343.84h-4.077v-0.928h9.2v0.928h-4.058v11.129h-1.065V343.84z M9.166,340.286h0.994
	v1.626H9.166V340.286z M5.951,340.286h1.001v1.626H5.951V340.286z M10.268,350.266l-2.18-6.123h-0.02l-2.233,6.123H10.268
	L10.268,350.266z M7.598,342.873h1.011l4.433,12.099h-1.115l-1.358-3.806H5.531l-1.387,3.806H3.079L7.598,342.873L7.598,342.873z
	 M-2.487,343.84h-4.078v-0.928h9.201v0.928h-4.058v11.129h-1.065V343.84L-2.487,343.84z M-14.971,342.91h6.361v0.963h-2.657v10.136
	h2.657v0.963h-6.361v-0.963h2.639v-10.136h-2.639V342.91z M-26.155,342.91h1.101l3.521,10.691h0.017l3.566-10.691h1.098
	l-4.161,12.127h-1.062L-26.155,342.91L-26.155,342.91z M-34.388,342.91h6.354v0.963h-2.648v10.136h2.648v0.963h-6.354v-0.963h2.638
	v-10.136h-2.638V342.91z M-41.393,343.84h-4.078v-0.928h9.201v0.928h-4.058v11.129h-1.065V343.84z M-48.192,350.266l-2.18-6.12
	h-0.018l-2.235,6.12H-48.192L-48.192,350.266z M-50.862,342.875h1.01l4.433,12.096h-1.114l-1.352-3.805h-5.044l-1.387,3.805h-1.066
	L-50.862,342.875z M-64.771,342.91h7.527v0.949h-6.461v4.395h5.347v0.932h-5.347v4.837h6.499v0.948h-7.565V342.91L-64.771,342.91z
	 M-72.245,349.1c2.012,0,3.145-0.846,3.145-2.688c0-1.746-1.216-2.609-3.16-2.609h-2.705v5.297H-72.245L-72.245,349.1z
	 M-76.032,342.893h4.108c2.319,0,3.891,1.317,3.891,3.533c0,1.725-1.004,3.18-3.128,3.484l3.671,5.061h-1.222l-3.589-4.975h-2.665
	v4.975h-1.066V342.893L-76.032,342.893z M-87.182,342.893h1.065v6.564l6.176-6.564h1.3l-4.48,4.754l4.771,7.324h-1.256l-4.229-6.545
	l-2.28,2.332v4.213h-1.065V342.893L-87.182,342.893z M-98.599,354.023c2.045,0,3.197-1.339,3.197-3.029v-4.111
	c0-1.74-1.12-3.027-3.231-3.027h-3.25v10.168H-98.599L-98.599,354.023z M-102.945,342.912h4.413c2.435,0,4.193,1.4,4.193,3.939
	v4.074c0,2.538-1.824,4.046-4.193,4.046h-4.413V342.912z M-115.043,342.895h1.102l6.544,10.215h0.038v-10.215h1.01v12.078h-1.048
	l-6.61-10.366h-0.035v10.366h-1V342.895L-115.043,342.895z M-127.119,351.113v-8.199h1.066v7.965c0,2.387,1.504,3.35,3.33,3.35
	c2.065,0,3.367-1.204,3.3-3.264v-8.051h1.049v8.133c0.034,2.592-1.76,4.127-4.399,4.127
	C-124.937,355.174-127.119,354.024-127.119,351.113 M40.428,321.288h-4.08v-0.928h9.203v0.928h-4.058v11.129h-1.065V321.288
	L40.428,321.288z M26.608,329.779l0.978-0.355c0.493,1.422,1.745,2.267,3.483,2.267c1.711,0,3.032-0.896,3.032-2.369
	c0-1.421-0.813-1.978-1.932-2.333l-2.365-0.688c-1.708-0.512-2.588-1.442-2.588-3.034c0-1.893,1.625-3.127,3.754-3.127
	c1.81,0,3.279,0.662,3.925,2.196l-0.914,0.373c-0.559-1.05-1.552-1.66-2.995-1.66c-1.335,0-2.704,0.681-2.704,2.115
	c0,1.001,0.49,1.745,2.08,2.214l2.37,0.698c1.419,0.407,2.418,1.283,2.418,3.128c0,2.012-1.607,3.419-4.146,3.419
	C28.807,332.622,27.133,331.609,26.608,329.779 M15.239,320.341h1.101l6.545,10.216h0.038v-10.216h1.011v12.078h-1.049l-6.61-10.366
	H16.24v10.366h-1L15.239,320.341L15.239,320.341z M2.993,328.56v-8.199h1.065v7.966c0,2.387,1.509,3.349,3.336,3.349
	c2.06,0,3.364-1.204,3.295-3.264v-8.051h1.052v8.134c0.031,2.592-1.762,4.127-4.401,4.127C5.181,332.621,2.993,331.473,2.993,328.56
	 M-7.882,320.341h1.065v6.565l6.174-6.565h1.302l-4.481,4.754l4.771,7.324h-1.256l-4.229-6.544l-2.28,2.332v4.212h-1.065V320.341
	L-7.882,320.341z M-19.219,326.549c2.015,0,3.15-0.846,3.15-2.688c0-1.745-1.218-2.608-3.167-2.608h-2.705v5.297H-19.219z
	 M-23.006,320.342h4.109c2.317,0,3.891,1.318,3.891,3.533c0,1.725-0.997,3.18-3.129,3.483l3.671,5.061h-1.215l-3.588-4.974h-2.674
	v4.974h-1.065V320.342L-23.006,320.342z M-29.246,317.785h1v1.625h-1V317.785z M-32.458,317.785h0.98v1.625h-0.98V317.785z
	 M-34.745,328.56v-8.2h1.065v7.965c0,2.389,1.508,3.351,3.336,3.351c2.06,0,3.363-1.204,3.295-3.264v-8.052H-26v8.135
	c0.034,2.59-1.76,4.129-4.398,4.129C-32.564,332.623-34.745,331.471-34.745,328.56 M-44.133,320.359h7.428v0.948h-6.362v4.431h5.194
	v0.93h-5.194v5.751h-1.065V320.359z M-62.196,320.359h1.318l4.011,7.354h0.016l3.92-7.354h1.356v12.06h-1.049v-10.221h-0.03
	l-3.806,6.972h-0.849l-3.805-6.951h-0.053v10.2h-1.03V320.359L-62.196,320.359z M-74.105,328.56v-8.199h1.065v7.966
	c0,2.387,1.504,3.349,3.333,3.349c2.067,0,3.362-1.204,3.299-3.264v-8.051h1.048v8.134c0.035,2.592-1.76,4.127-4.398,4.127
	C-71.925,332.621-74.105,331.473-74.105,328.56 M-80.975,326.549c2.014,0,3.149-0.846,3.149-2.688c0-1.745-1.222-2.608-3.167-2.608
	h-2.705v5.297H-80.975L-80.975,326.549z M-84.762,320.342h4.107c2.321,0,3.895,1.318,3.895,3.533c0,1.725-1,3.18-3.131,3.483
	l3.673,5.061h-1.221l-3.584-4.974h-2.675v4.974h-1.064V320.342L-84.762,320.342z M-92.017,321.288h-4.082v-0.928h9.205v0.928h-4.062
	v11.13h-1.062V321.288L-92.017,321.288z M-106.905,320.341h1.098l6.548,10.216h0.033v-10.216h1.015v12.078h-1.048l-6.614-10.366
	h-0.034v10.366h-0.997V320.341L-106.905,320.341z M-117.306,320.357h7.528v0.948h-6.462v4.396h5.339v0.933h-5.339v4.836h6.492v0.948
	h-7.557V320.357z M-127.844,331.588l6.561-10.336h-6.327v-0.911h7.645v0.808l-6.527,10.321h6.565v0.949h-7.917V331.588
	L-127.844,331.588z"/>
<g>
	<g>
		<g>
			<path fill="#E95E27" d="M22.093,81.293c-0.019,0.094-0.075,0.13-0.188,0.13h-1.086c-0.112,0-0.168-0.036-0.188-0.13l-2.379-8.054
				c0-0.037-0.018-0.057-0.018-0.075c0-0.112,0.075-0.169,0.206-0.169h1.367c0.056,0,0.112,0.039,0.188,0.132l1.333,5.503
				l0.072,0.404l0.078-0.404l1.421-5.503c0.075-0.094,0.131-0.132,0.187-0.132h1.255c0.112,0,0.168,0.039,0.188,0.132l1.421,5.503
				l0.077,0.404l0.072-0.404l1.314-5.503c0.019-0.075,0.093-0.132,0.206-0.132h1.368c0.131,0,0.206,0.057,0.206,0.169
				c0,0.018-0.019,0.039-0.019,0.075l-2.416,8.054c-0.038,0.094-0.094,0.13-0.188,0.13h-1.048c-0.057,0-0.131-0.036-0.188-0.13
				l-1.61-5.818L22.093,81.293z"/>
			<path fill="#E95E27" d="M37.997,77.49h-4.683c-0.131,0-0.187,0.058-0.187,0.188v0.75c0,0.916,0.73,1.685,1.686,1.685
				c0.449,0,0.889-0.104,1.134-0.307c0.49-0.409,0.58-0.787,0.693-0.787c0.037,0,0.075,0.019,0.112,0.037l1.076,0.495
				c0.075,0.037,0.113,0.075,0.113,0.131c0,0.132-0.225,0.617-0.787,1.142s-1.349,0.787-2.341,0.787
				c-2.042,0-3.476-1.312-3.476-3.393v-1.914c0-2.048,1.602-3.496,3.476-3.496c1.873,0,3.371,1.479,3.371,3.185v1.311
				C38.185,77.434,38.128,77.49,37.997,77.49z M36.499,75.86c0-0.805-0.805-1.554-1.685-1.554c-0.899,0-1.686,0.768-1.686,1.593
				c0,0.205,0.019,0.28,0.187,0.28h2.997C36.48,76.18,36.499,76.086,36.499,75.86z"/>
			<path fill="#E95E27" d="M42.068,71.498c-0.581,0-1.03-0.431-1.03-1.03c0-0.582,0.45-1.031,1.03-1.031
				c0.581,0,1.03,0.449,1.03,1.031C43.098,71.048,42.649,71.498,42.068,71.498z M42.724,81.423h-1.311
				c-0.131,0-0.188-0.055-0.188-0.187v-8.054c0-0.13,0.057-0.187,0.188-0.187h1.311c0.131,0,0.188,0.057,0.188,0.187v8.054
				C42.911,81.368,42.855,81.423,42.724,81.423z"/>
			<path fill="#E95E27" d="M50.841,81.592c-0.244,0-0.337-0.019-0.337-0.188v-1.123c0-0.131,0.056-0.148,0.15-0.188
				c0.917-0.395,1.536-0.618,1.536-1.666v-0.563c0-1.049-0.722-1.585-1.641-1.979c-0.093-0.036-0.149-0.055-0.149-0.187v-1.161
				c0-0.132,0.056-0.15,0.149-0.187c0.918-0.394,1.536-0.618,1.536-1.667v-0.063c0-0.918-0.73-1.687-1.686-1.687
				c-0.993,0-1.686,0.731-1.686,1.687v8.615c0,0.132-0.056,0.187-0.188,0.187h-1.311c-0.131,0-0.187-0.055-0.187-0.187v-6.337
				c0-0.13-0.056-0.411-0.187-0.411h-0.469c-0.131,0-0.188-0.057-0.188-0.187v-1.124c0-0.132,0.057-0.187,0.188-0.187h0.469
				c0.131,0,0.187-0.146,0.187-0.276v0.093c0-1.91,1.461-3.372,3.483-3.372c1.929,0,3.259,1.329,3.259,3.372v0.063
				c0,0.449-0.187,0.974-0.581,1.516c-0.317,0.449-0.692,0.618-0.692,0.75c0,0.112,0.479,0.319,0.798,0.805
				c0.393,0.581,0.581,1.416,0.581,1.867v0.468C53.875,80.299,52.452,81.592,50.841,81.592z"/>
			<path fill="#E95E27" d="M73.357,81.423h-1.311c-0.131,0-0.187-0.055-0.187-0.187V76.18c0-0.918-0.73-1.687-1.686-1.687
				c-0.936,0-1.686,0.768-1.686,1.687v5.057c0,0.132-0.057,0.187-0.187,0.187H66.99c-0.132,0-0.188-0.055-0.188-0.187v-8.054
				c0-0.13,0.056-0.187,0.188-0.187h1.123c0.131,0,0.188,0.057,0.188,0.187v0.226c0,0.13,0.056,0.238,0.13,0.238
				c0.244,0,0.633-0.65,1.874-0.65c1.892,0,3.239,1.292,3.239,3.185v5.057C73.544,81.368,73.489,81.423,73.357,81.423z"/>
			<path fill="#E95E27" d="M78.305,75.206c0,0.769,0.674,0.955,2.042,1.235c2.004,0.393,2.979,0.881,2.979,2.342
				c0,1.685-1.199,2.827-3.09,2.827h-0.563c-1.853,0-3.052-1.143-3.052-1.891c0-0.038,0.037-0.094,0.112-0.132l0.983-0.439
				c0.037-0.018,0.074-0.036,0.094-0.036c0.055,0,0.093,0.055,0.149,0.111c0.449,0.582,0.995,0.945,1.818,0.945h0.25
				c0.861,0,1.632-0.487,1.632-1.087c0-0.805-0.823-0.898-2.378-1.218c-1.78-0.355-2.624-0.898-2.624-2.302
				c0-1.63,1.218-2.754,3.016-2.754h0.563c1.854,0,3.053,1.142,3.053,1.892c0,0.055-0.038,0.094-0.112,0.13l-0.984,0.439
				c-0.037,0.02-0.093,0.039-0.112,0.039c-0.057,0-0.083-0.051-0.131-0.112c-0.408-0.531-1.013-0.945-1.819-0.945h-0.25
				C79,74.251,78.305,74.607,78.305,75.206z"/>
		</g>
		<path fill="#E95E27" d="M21.478,78.631"/>
		<path fill="#E95E27" d="M63.549,77.464h-4.682c-0.131,0-0.188,0.055-0.188,0.188v0.748c0,0.918,0.731,1.687,1.687,1.687
			c0.449,0,0.888-0.105,1.134-0.31c0.49-0.408,0.685-0.786,0.797-0.786c0.038,0,0.075,0.019,0.112,0.039l0.972,0.493
			c0.075,0.039,0.113,0.075,0.113,0.133c0,0.13-0.226,0.617-0.786,1.142c-0.563,0.524-1.35,0.786-2.341,0.786
			c-2.042,0-3.475-1.311-3.475-3.392v-1.914c0-2.048,1.602-3.498,3.475-3.498c1.873,0,3.372,1.479,3.372,3.184v1.312
			C63.737,77.407,63.68,77.464,63.549,77.464z M62.05,75.834c0-0.807-0.805-1.554-1.685-1.554c-0.9,0-1.687,0.768-1.687,1.591
			c0,0.205,0.019,0.28,0.188,0.28h2.996C62.032,76.151,62.05,76.058,62.05,75.834z"/>
		<path fill="#E95E27" d="M92.899,77.49h-4.682c-0.131,0-0.187,0.058-0.187,0.188v0.75c0,0.916,0.729,1.685,1.686,1.685
			c0.449,0,0.889-0.104,1.134-0.31c0.491-0.406,0.58-0.786,0.693-0.786c0.038,0,0.075,0.021,0.113,0.039l1.075,0.495
			c0.075,0.037,0.113,0.075,0.113,0.131c0,0.132-0.225,0.617-0.787,1.142s-1.349,0.787-2.341,0.787
			c-2.042,0-3.476-1.312-3.476-3.393v-1.914c0-2.048,1.604-3.496,3.476-3.496s3.371,1.479,3.371,3.185v1.311
			C93.086,77.434,93.03,77.49,92.899,77.49z M91.402,75.86c0-0.805-0.806-1.554-1.686-1.554c-0.899,0-1.686,0.768-1.686,1.591
			c0,0.207,0.018,0.282,0.187,0.282h2.997C91.382,76.18,91.402,76.086,91.402,75.86z"/>
		<path fill="#E95E27" d="M95.948,77.313v-1.311c0-1.705,1.499-3.185,3.372-3.185c1.874,0,3.475,1.447,3.475,3.495v1.915
			c0,2.081-1.434,3.392-3.475,3.392c-0.993,0-1.779-0.263-2.341-0.786c-0.562-0.524-0.787-1.011-0.787-1.143
			c0-0.055,0.038-0.094,0.112-0.13l1.077-0.496c0.037-0.019,0.074-0.036,0.112-0.036c0.112,0,0.202,0.378,0.693,0.786
			c0.246,0.203,0.685,0.307,1.134,0.307c0.955,0,1.686-0.768,1.686-1.685v-0.75c0-0.13-0.056-0.187-0.188-0.187h-4.682
			C96.005,77.501,95.948,77.443,95.948,77.313z M97.821,76.189h2.996c0.169,0,0.188-0.075,0.188-0.28
			c0-0.825-0.786-1.593-1.686-1.593c-0.88,0-1.686,0.75-1.686,1.555C97.633,76.097,97.653,76.189,97.821,76.189z"/>
	</g>
	<g>
		<path fill="#E95E27" d="M164.022,81.207c0,0.075-0.076,0.152-0.208,0.152h-1.136l-0.17-0.095l-2.614-4.28
			c-0.038-0.075-0.094-0.113-0.151-0.113c-0.038,0-0.113,0.018-0.151,0.075l-1.042,1.061v3.162c0,0.133-0.057,0.19-0.189,0.19
			h-0.909c-0.133,0-0.19-0.058-0.19-0.19V69.637c0-0.132,0.057-0.189,0.19-0.189h0.909c0.133,0,0.189,0.057,0.189,0.189v6.515
			c0,0.132,0.057,0.208,0.151,0.208c0.057,0,0.114-0.02,0.171-0.076l2.935-3.238l0.132-0.057h1.042c0.133,0,0.208,0.076,0.208,0.17
			c0,0.057-0.019,0.095-0.076,0.151l-2.31,2.33c-0.038,0.037-0.057,0.094-0.057,0.132s0,0.057,0.019,0.096l3.219,5.207
			C164.003,81.112,164.022,81.169,164.022,81.207z"/>
		<path fill="#E95E27" d="M173.358,81.359h-0.701c-0.133,0-0.189-0.058-0.189-0.19v-0.795c0-0.132-0.076-0.208-0.151-0.208
			c-0.17,0-0.36,0.283-0.701,0.625c-0.379,0.359-0.947,0.568-1.572,0.568c-1.724,0-3.086-1.27-3.086-3.106v-5.075
			c0-0.133,0.056-0.189,0.189-0.189h0.89c0.132,0,0.189,0.057,0.189,0.189v5.075c0,1.1,0.89,2.008,2.007,2.008
			c1.174,0,2.045-0.891,2.045-2.008v-5.075c0-0.133,0.057-0.189,0.189-0.189h0.89c0.132,0,0.189,0.057,0.189,0.189v7.991
			C173.547,81.302,173.49,81.359,173.358,81.359z"/>
		<path fill="#E95E27" d="M184.057,81.359h-0.909c-0.132,0-0.188-0.058-0.188-0.19v-5.093c0-1.08-0.891-2.008-2.026-2.008
			c-1.155,0-2.008,0.89-2.008,2.008v5.093c0,0.133-0.057,0.19-0.189,0.19h-0.909c-0.133,0-0.19-0.058-0.19-0.19v-7.991
			c0-0.133,0.057-0.189,0.19-0.189h0.7c0.133,0,0.19,0.057,0.19,0.189v0.682c0,0.113,0.076,0.208,0.151,0.208
			c0.133,0,0.284-0.189,0.568-0.436c0.436-0.36,0.757-0.644,1.667-0.644c1.761,0,3.144,1.269,3.144,3.087v5.093
			C184.247,81.302,184.19,81.359,184.057,81.359z"/>
		<path fill="#E95E27" d="M189.094,75.053c0,0.663,0.588,1.023,1.895,1.307c2.178,0.474,3.39,0.871,3.39,2.462
			c0,1.61-1.175,2.728-3.012,2.728h-0.587c-1.761,0-2.916-1.061-2.916-1.648c0-0.057,0.038-0.094,0.132-0.132l0.739-0.359
			c0.038-0.02,0.075-0.02,0.095-0.02c0.057,0,0.094,0.076,0.151,0.132c0.492,0.55,0.909,0.985,1.837,0.985h0.512
			c1.061,0,1.779-0.7,1.779-1.345c0-0.644-0.586-1.23-1.855-1.496c-2.196-0.454-3.39-0.567-3.39-2.235
			c0-1.552,1.155-2.631,2.916-2.631h0.587c1.724,0,2.897,1.042,2.897,1.61c0,0.056-0.057,0.094-0.132,0.132l-0.72,0.36
			c-0.038,0.019-0.057,0.019-0.076,0.019c-0.057,0-0.094-0.076-0.151-0.133c-0.53-0.568-1.004-0.947-1.855-0.947h-0.512
			C189.719,73.841,189.094,74.39,189.094,75.053z"/>
		<path fill="#E95E27" d="M201.176,81.567c-1.421-0.039-2.821-1.325-2.803-3.145l0.057-4.185c0-0.132-0.057-0.189-0.188-0.189h-1.1
			c-0.132,0-0.188-0.056-0.188-0.189l0.038-0.72c0-0.151,0.189-0.17,0.189-0.17h1.136c0,0,0.151,0,0.151-0.189l0.02-1.609
			c0,0,0-0.189,0.188-0.189h0.909c0.113,0,0.189,0.057,0.189,0.189l-0.02,1.628c0,0.132,0.058,0.189,0.19,0.189l1.383,0.038
			c0.132,0,0.189,0.057,0.189,0.189l-0.039,0.701c0,0.132-0.057,0.189-0.189,0.189l-1.382-0.038c-0.133,0-0.189,0.057-0.189,0.189
			l-0.056,4.185c0,0.454,0.112,0.853,0.396,1.25c0.21,0.283,0.645,0.454,1.194,0.757c0.095,0.039,0.151,0.076,0.151,0.19
			l-0.019,0.738C201.385,81.511,201.328,81.567,201.176,81.567z"/>
		<path fill="#E95E27" d="M211.724,81.359h-0.909c-0.132,0-0.188-0.058-0.188-0.19v-5.093c0-1.08-0.891-2.008-2.026-2.008
			c-1.155,0-2.008,0.89-2.008,2.008v5.093c0,0.133-0.057,0.19-0.189,0.19h-0.908c-0.133,0-0.19-0.058-0.19-0.19V69.637
			c0-0.132,0.058-0.189,0.19-0.189h0.908c0.133,0,0.189,0.057,0.189,0.189v4.28c0,0.132,0.057,0.208,0.133,0.208
			c0.133,0,0.283-0.189,0.568-0.436c0.435-0.341,0.758-0.701,1.629-0.701c1.666,0,2.992,1.325,2.992,3.087v5.093
			C211.914,81.302,211.857,81.359,211.724,81.359z"/>
		<path fill="#E95E27" d="M218.883,81.549c-2.008,0-3.277-1.439-3.277-3.314v-2.083c0-1.875,1.27-3.352,3.277-3.352
			c2.007,0,3.312,1.515,3.312,3.352v2.083C222.195,80.09,220.89,81.549,218.883,81.549z M220.909,76.208
			c0-1.08-0.815-2.235-1.99-2.235c-1.174,0-2.044,1.117-2.044,2.235v1.97c0,1.098,0.794,2.215,2.008,2.215
			c1.211,0,2.026-1.117,2.026-2.215V76.208z"/>
		<path fill="#E95E27" d="M231.911,79.883c0,0.605-1.156,1.666-2.936,1.666c-2.007,0-3.277-1.402-3.277-3.277v-2.12
			c0-1.875,1.271-3.352,3.277-3.352c1.761,0,2.954,1.004,2.954,1.628c0,0.057-0.057,0.114-0.132,0.151l-0.796,0.398
			c-0.038,0.019-0.057,0.019-0.076,0.019c-0.057,0-0.095-0.019-0.15-0.076c-0.55-0.625-0.947-0.947-1.8-0.947
			c-1.155,0-2.007,1.155-2.007,2.273v1.932c0,1.098,0.87,2.215,2.007,2.215c0.454,0,0.909-0.057,1.25-0.378
			c0.397-0.379,0.568-0.701,0.682-0.701c0.019,0,0.057,0,0.095,0.02l0.796,0.397C231.892,79.769,231.911,79.807,231.911,79.883z"/>
		<path fill="#E95E27" d="M241.871,81.359h-0.908c-0.133,0-0.19-0.058-0.19-0.19v-5.093c0-1.08-0.89-2.008-2.025-2.008
			c-1.155,0-2.007,0.89-2.007,2.008v5.093c0,0.133-0.058,0.19-0.19,0.19h-0.909c-0.132,0-0.189-0.058-0.189-0.19V69.637
			c0-0.132,0.058-0.189,0.189-0.189h0.909c0.133,0,0.19,0.057,0.19,0.189v4.28c0,0.132,0.057,0.208,0.132,0.208
			c0.132,0,0.284-0.189,0.568-0.436c0.436-0.341,0.757-0.701,1.629-0.701c1.666,0,2.991,1.325,2.991,3.087v5.093
			C242.061,81.302,242.003,81.359,241.871,81.359z"/>
		<path fill="#E95E27" d="M246.796,75.053c0,0.663,0.587,1.023,1.894,1.307c2.177,0.474,3.39,0.871,3.39,2.462
			c0,1.61-1.175,2.728-3.012,2.728h-0.587c-1.762,0-2.917-1.061-2.917-1.648c0-0.057,0.039-0.094,0.133-0.132l0.739-0.359
			c0.038-0.02,0.075-0.02,0.095-0.02c0.056,0,0.095,0.076,0.151,0.132c0.492,0.55,0.908,0.985,1.837,0.985h0.512
			c1.06,0,1.779-0.7,1.779-1.345c0-0.644-0.587-1.23-1.855-1.496c-2.197-0.454-3.391-0.567-3.391-2.235
			c0-1.552,1.155-2.631,2.917-2.631h0.587c1.724,0,2.898,1.042,2.898,1.61c0,0.056-0.058,0.094-0.134,0.132l-0.719,0.36
			c-0.038,0.019-0.058,0.019-0.076,0.019c-0.058,0-0.095-0.076-0.151-0.133c-0.53-0.568-1.003-0.947-1.855-0.947h-0.512
			C247.419,73.841,246.796,74.39,246.796,75.053z"/>
		<path fill="#E95E27" d="M261.68,79.883c0,0.605-1.156,1.666-2.936,1.666c-2.007,0-3.277-1.402-3.277-3.277v-2.12
			c0-1.875,1.271-3.352,3.277-3.352c1.761,0,2.954,1.004,2.954,1.628c0,0.057-0.058,0.114-0.133,0.151l-0.795,0.398
			c-0.038,0.019-0.058,0.019-0.076,0.019c-0.058,0-0.095-0.019-0.15-0.076c-0.55-0.625-0.947-0.947-1.8-0.947
			c-1.155,0-2.007,1.155-2.007,2.273v1.932c0,1.098,0.87,2.215,2.007,2.215c0.454,0,0.909-0.057,1.25-0.378
			c0.397-0.379,0.567-0.701,0.682-0.701c0.019,0,0.057,0,0.095,0.02l0.795,0.397C261.66,79.769,261.68,79.807,261.68,79.883z"/>
		<path fill="#E95E27" d="M271.64,81.359h-0.908c-0.133,0-0.189-0.058-0.189-0.19v-5.093c0-1.08-0.89-2.008-2.026-2.008
			c-1.156,0-2.008,0.89-2.008,2.008v5.093c0,0.133-0.057,0.19-0.188,0.19h-0.909c-0.134,0-0.19-0.058-0.19-0.19V69.637
			c0-0.132,0.057-0.189,0.19-0.189h0.909c0.132,0,0.188,0.057,0.188,0.189v4.28c0,0.132,0.058,0.208,0.133,0.208
			c0.133,0,0.284-0.189,0.568-0.436c0.436-0.341,0.757-0.701,1.628-0.701c1.667,0,2.992,1.325,2.992,3.087v5.093
			C271.829,81.302,271.772,81.359,271.64,81.359z"/>
		<path fill="#E95E27" d="M282.018,81.359h-0.7c-0.134,0-0.19-0.058-0.19-0.19v-0.795c0-0.132-0.076-0.208-0.151-0.208
			c-0.171,0-0.359,0.283-0.701,0.625c-0.378,0.359-0.947,0.568-1.57,0.568c-1.724,0-3.088-1.27-3.088-3.106v-5.075
			c0-0.133,0.058-0.189,0.189-0.189h0.89c0.133,0,0.189,0.057,0.189,0.189v5.075c0,1.1,0.891,2.008,2.008,2.008
			c1.175,0,2.046-0.891,2.046-2.008v-5.075c0-0.133,0.056-0.189,0.188-0.189h0.891c0.133,0,0.189,0.057,0.189,0.189v7.991
			C282.207,81.302,282.15,81.359,282.018,81.359z"/>
		<path fill="#E95E27" d="M287.396,81.359h-0.908c-0.133,0-0.19-0.058-0.19-0.19V69.637c0-0.132,0.058-0.189,0.19-0.189h0.908
			c0.132,0,0.189,0.057,0.189,0.189v11.532C287.585,81.302,287.527,81.359,287.396,81.359z"/>
		<path fill="#E95E27" d="M297.792,77.23h-4.943c-0.133,0-0.188,0.057-0.188,0.188v0.776c0,1.1,0.871,2.217,2.007,2.217
			c0.455,0,0.929-0.134,1.27-0.454c0.396-0.379,0.567-0.645,0.682-0.645c0.018,0,0.057,0,0.094,0.02l0.776,0.397
			c0.095,0.038,0.114,0.076,0.114,0.152c0,0.605-1.155,1.666-2.936,1.666c-2.007,0-3.276-1.421-3.276-3.296v-2.102
			c0-0.7,0.322-1.742,0.891-2.348c0.625-0.663,1.42-1.004,2.386-1.004c1.837,0,3.314,1.458,3.314,3.086v1.155
			C297.981,77.174,297.925,77.23,297.792,77.23z M296.693,75.886c0-1.079-0.966-1.95-2.026-1.95c-1.004,0-2.007,0.833-2.007,1.95
			v0.266c0,0.132,0.056,0.188,0.188,0.188h3.655c0.132,0,0.189-0.057,0.189-0.188V75.886z"/>
		<path fill="#E95E27" d="M310.028,81.359c-0.501,0-0.866-0.115-1.059-0.231c-0.693-0.442-1.002-0.963-1.213-0.963
			c-0.077,0-0.153,0.077-0.153,0.212v0.79c0,0.134-0.059,0.192-0.192,0.192h-0.713c-0.135,0-0.192-0.059-0.192-0.192V69.444
			c0-0.135,0.058-0.192,0.192-0.192h0.924c0.135,0,0.192,0.057,0.192,0.192v4.331c0,0.135,0.058,0.212,0.135,0.212
			c0.135,0,0.289-0.173,0.577-0.424c0.443-0.365,0.771-0.711,1.675-0.711c0.828,0,1.56,0.308,2.099,0.885
			c0.597,0.636,0.924,1.425,0.924,2.252v2.214C313.224,80.05,311.819,81.359,310.028,81.359z M311.914,76.123
			c0-1.097-0.904-2.175-2.06-2.175c-1.173,0-2.04,0.905-2.04,2.041v2.214c0,1.116,0.886,2.06,2.04,2.06
			c1.155,0,2.06-1.097,2.06-2.214V76.123z"/>
		<path fill="#E95E27" d="M323.291,77.162h-5.023c-0.136,0-0.193,0.059-0.193,0.192v0.79c0,1.116,0.886,2.252,2.04,2.252
			c0.463,0,0.943-0.135,1.29-0.462c0.404-0.386,0.578-0.654,0.692-0.654c0.02,0,0.059,0,0.097,0.019l0.79,0.405
			c0.096,0.038,0.114,0.077,0.114,0.154c0,0.615-1.173,1.692-2.983,1.692c-2.04,0-3.329-1.442-3.329-3.349v-2.136
			c0-0.713,0.327-1.772,0.904-2.388c0.635-0.674,1.443-1.021,2.425-1.021c1.868,0,3.369,1.482,3.369,3.138v1.175
			C323.483,77.104,323.425,77.162,323.291,77.162z M322.174,75.796c0-1.097-0.981-1.983-2.06-1.983c-1.02,0-2.04,0.847-2.04,1.983
			v0.271c0,0.134,0.058,0.191,0.193,0.191h3.715c0.134,0,0.191-0.058,0.191-0.191V75.796z"/>
		<path fill="#E95E27" d="M331.415,74.218c-0.153,0-0.404-0.058-0.731-0.058c-1.174,0-2.041,0.886-2.041,2.021v4.986
			c0,0.134-0.058,0.192-0.191,0.192h-0.925c-0.135,0-0.192-0.059-0.192-0.192v-8.124c0-0.135,0.058-0.192,0.192-0.192h0.712
			c0.136,0,0.193,0.057,0.193,0.192v0.731c0,0.135,0.077,0.212,0.153,0.212c0.213,0,0.521-0.25,1.213-0.808
			c0.212-0.173,0.616-0.327,0.886-0.327h0.712c0.135,0,0.193,0.057,0.193,0.192v0.982C331.589,74.179,331.55,74.218,331.415,74.218z
			"/>
		<path fill="#E95E27" d="M335.63,81.359h-0.925c-0.134,0-0.192-0.059-0.192-0.192V69.444c0-0.135,0.059-0.192,0.192-0.192h0.925
			c0.134,0,0.192,0.057,0.192,0.192v11.723C335.822,81.301,335.764,81.359,335.63,81.359z"/>
		<path fill="#E95E27" d="M340.615,70.752c-0.463,0-0.827-0.366-0.827-0.866c0-0.461,0.384-0.847,0.827-0.847
			c0.501,0,0.866,0.366,0.866,0.847C341.481,70.348,341.097,70.752,340.615,70.752z M341.097,81.359h-0.925
			c-0.134,0-0.192-0.059-0.192-0.192v-8.124c0-0.135,0.059-0.192,0.192-0.192h0.925c0.134,0,0.191,0.057,0.191,0.192v8.124
			C341.288,81.301,341.23,81.359,341.097,81.359z"/>
		<path fill="#E95E27" d="M351.972,81.359h-0.923c-0.136,0-0.193-0.059-0.193-0.192v-5.179c0-1.097-0.904-2.041-2.06-2.041
			c-1.174,0-2.041,0.905-2.041,2.041v5.179c0,0.134-0.058,0.192-0.191,0.192h-0.925c-0.134,0-0.192-0.059-0.192-0.192v-8.124
			c0-0.135,0.059-0.192,0.192-0.192h0.712c0.136,0,0.193,0.057,0.193,0.192v0.693c0,0.116,0.077,0.212,0.153,0.212
			c0.136,0,0.29-0.192,0.578-0.442c0.442-0.366,0.77-0.654,1.694-0.654c1.789,0,3.194,1.289,3.194,3.137v5.179
			C352.164,81.301,352.107,81.359,351.972,81.359z"/>
	</g>
</g>
</svg>
