<?xml version="1.0" encoding="utf-8"?><!DOCTYPE svg PUBLIC "-//W3C//DTD SVG 1.1//EN" "http://www.w3.org/Graphics/SVG/1.1/DTD/svg11.dtd"><svg width="2981" height="1160" viewBox="0 0 2981 1160" xmlns="http://www.w3.org/2000/svg" xmlns:xlink="http://www.w3.org/1999/xlink"><svg width="278" height="268" viewBox="0 0 278 268" id="h4c_logo_ber_big"><path fill="#fff" d="M182.844 79.798H171.54v16.225h11.304c5.264 0 8.713-3.367 8.713-8.11 0-4.748-3.45-8.115-8.713-8.115m9.32 50.74L180.17 106.03h-8.627v24.505h-11.996V69.1h24.076c12.508 0 19.932 8.544 19.932 18.813 0 8.626-5.264 13.977-11.22 16.135l13.724 26.49h-13.896zM153.057 172.45v25.194H141.15V172.45l-18.466-36.242h13.03l11.477 24.764 11.304-24.764h13.03zM36.833 69.1L25.528 93.867 14.048 69.1H1.023l18.464 36.24v25.195h11.91V105.34L49.863 69.1zM82.022 82.56c-1.727-1.983-4.403-3.278-7.68-3.278-3.28 0-6.042 1.295-7.768 3.28-2.328 2.588-2.933 5.437-2.933 17.255 0 11.822.605 14.672 2.934 17.258 1.727 1.986 4.488 3.28 7.767 3.28 3.278 0 5.955-1.294 7.682-3.28 2.33-2.586 3.02-5.437 3.02-17.258 0-11.818-.69-14.667-3.02-17.256m8.887 41.765c-4.317 4.313-9.58 6.73-16.568 6.73-6.99 0-12.34-2.416-16.652-6.73-6.212-6.213-6.042-13.895-6.042-24.508 0-10.61-.17-18.29 6.042-24.504 4.313-4.312 9.664-6.73 16.652-6.73 6.99 0 12.25 2.418 16.567 6.73 6.21 6.214 6.123 13.894 6.123 24.504 0 10.614.087 18.295-6.124 24.508M128.92 131.054c-12.6 0-22.606-8.542-22.606-21.57V69.1h11.993v39.952c0 7.076 4.14 11.303 10.613 11.303 6.47 0 10.697-4.228 10.697-11.303v-39.95h11.908v40.38c0 13.03-10.01 21.572-22.605 21.572M24.078 198.16c-6.728 0-12.25-2.417-16.566-6.73-6.21-6.212-6.04-13.89-6.04-24.505 0-10.61-.172-18.293 6.04-24.506 4.315-4.315 9.84-6.73 16.566-6.73 11.48 0 20.453 6.558 22.61 19.417H34.52c-1.208-4.92-4.313-8.72-10.354-8.72-3.28 0-5.953 1.208-7.678 3.196-2.33 2.586-3.02 5.523-3.02 17.342 0 11.822.69 14.756 3.02 17.346 1.726 1.985 4.398 3.192 7.678 3.192 6.04 0 9.146-3.797 10.355-8.715h12.167c-2.156 12.856-11.216 19.414-22.61 19.414"/><path fill="#fff" d="M53.964 136.206H65.96v61.438H53.963zM102.023 146.907v50.737H90.028v-50.737h-16.05v-10.7h44.098v10.7z"/><path fill="#2F3536" d="M36.063 28.377V3.147h9.642v59.317h-9.642V36.632H12.765v25.833h-9.64V3.148h9.64v25.23h23.298zM33.657.742v25.226H15.172V.742H.715v64.13H15.17V39.04h18.487v25.833h14.458V.743H33.657z"/><path fill="#fff" d="M83.743 2.064h-9.448l-23.588 61.72H64.41l3.948-8.87 21.237-.078 3.15 8.948h13.535L83.743 2.064zm2.6 42.224L70.53 44.25l7.965-21.728 7.85 21.766z"/><path fill="#2F3536" d="M94.12 54.892l.16.022h-2.336v6.418H84.44v-8.754H59.424v-8.11L74.555 3.95h9.737L68.794 45.455H84.44v-11.53h7.504v11.53h4.125v7.123h-4.126v1.204l.033 1.17H94.3l4.18.035v-11.94h-4.126V31.52H82.03v11.528h-9.765L87.762 1.54h-14.88L57.02 44.033v10.954H82.03v8.754h12.324l-.025-8.848"/><path fill="#2F3536" d="M128.993 64.188v-1.204c-6.47-.01-11.655-2.287-15.792-6.407-2.778-2.792-4.173-5.804-4.922-9.414-.746-3.605-.796-7.802-.793-12.704v-3.31c-.002-4.898.046-9.094.793-12.7.75-3.61 2.144-6.622 4.923-9.413 4.138-4.122 9.322-6.4 15.793-6.41 5.54.004 10.384 1.577 14.103 4.637 3.72 3.062 6.375 7.64 7.424 13.866l1.188-.198v-1.206h-12.223v1.206l1.168-.29c-.645-2.63-1.816-5.044-3.73-6.825-1.906-1.786-4.558-2.854-7.838-2.846-3.586-.005-6.646 1.34-8.625 3.62l.908.792-.894-.807c-.642.712-1.207 1.493-1.654 2.438-.673 1.422-1.086 3.158-1.342 5.624-.25 2.47-.35 5.7-.35 10.168.005 5.963.17 9.713.66 12.41.245 1.346.58 2.44 1.03 3.385.447.944 1.014 1.726 1.654 2.438l.894-.805-.91.79c1.982 2.283 5.042 3.626 8.628 3.622 3.28.01 5.93-1.062 7.838-2.847 1.914-1.78 3.084-4.198 3.73-6.827l-1.17-.286v1.204h12.225v-1.204l-1.188-.2c-1.05 6.223-3.723 10.8-7.455 13.866-3.732 3.06-8.575 4.632-14.07 4.634v2.409c5.95 0 11.38-1.72 15.598-5.183 4.226-3.458 7.187-8.633 8.302-15.328l.235-1.403h-14.588l-.226.918c-.57 2.313-1.563 4.275-3.032 5.636-1.47 1.356-3.42 2.193-6.2 2.203-3.003-.003-5.32-1.087-6.81-2.793l-.014-.013c-.53-.59-.928-1.152-1.27-1.865-.505-1.06-.88-2.51-1.12-4.833-.237-2.32-.335-5.49-.335-9.925 0-5.912.178-9.578.622-11.972.218-1.2.496-2.072.834-2.782.342-.71.74-1.273 1.27-1.862l.015-.015c1.487-1.705 3.804-2.787 6.81-2.792 2.78.01 4.73.845 6.2 2.203 1.466 1.358 2.462 3.32 3.03 5.635l.227.918h14.588l-.233-1.4c-1.116-6.693-4.058-11.87-8.267-15.33-4.21-3.465-9.644-5.187-15.636-5.184C121.946.212 116.03 2.792 111.5 7.34c-3.134 3.123-4.774 6.687-5.58 10.627-.81 3.944-.837 8.273-.837 13.186-.004.546 0 1.096 0 1.654 0 .56-.004 1.11-.004 1.655.003 4.913.03 9.244.84 13.19.806 3.937 2.446 7.502 5.58 10.628 4.53 4.545 10.446 7.123 17.494 7.113v-1.205zM195.18 3.148h11.505L187.332 26.36l21.29 36.105H197.39l-16.372-28.992-9.372 11.207v17.785h-9.642V3.148h9.642v29.07l23.534-29.07zM194.034.742l-19.98 24.678V.742h-14.46v64.13h14.46V45.557l6.577-7.868 15.355 27.186H212.838L190.265 26.6 211.826.744h-17.792V.742zM277.336 267.776h-12.63l-22.793-35.322v35.322H227.44v-64.463h12.63l22.795 35.236v-35.237h14.47v64.463zm-11.352-2.347h9.007v-59.772h-9.78v40.838l-26.413-40.838h-9.01v59.77h9.783V224.5l26.414 40.93zm-46.316 2.346h-14.47v-64.463h14.47v64.463zm-12.125-2.347h9.783v-59.772h-9.783v59.77zm-8.988 2.346h-42.65v-64.463h14.47v51.297h28.18v13.166zm-40.307-2.347h37.963v-8.476h-28.178v-51.3h-9.784v59.775zm-4.916 2.346H136.63l-12.128-24.78h-6.82v24.78H103.21v-64.463h25.513c12.557 0 21.328 8.303 21.328 20.19 0 7.702-4.04 13.938-10.88 16.923l14.162 27.35zm-15.242-2.347h11.39l-13.6-26.26 1.255-.454c6.62-2.398 10.57-8.086 10.57-15.213 0-10.508-7.806-17.848-18.982-17.848h-23.17v59.773h9.783v-24.775h10.627l12.127 24.776zm-41.783 2.346H53.044v-64.463h43.263v13.162H67.515V228.7h24.517v13.164H67.515v12.748h28.792v13.164zm-40.92-2.347h38.576v-8.476H65.17v-17.44H89.69v-8.472H65.17V214.13h28.793v-8.475H55.387v59.774zm-28.215 2.346H0v-64.463h26.124c12.562 0 20.366 7.135 20.366 18.62 0 5.776-3.095 10.355-6.482 12.778 3.335 2.087 7.356 6.22 7.356 14.005 0 11.757-7.74 19.06-20.192 19.06zM2.345 265.43h24.827c11.01 0 17.85-6.4 17.85-16.714 0-7.633-4.282-11.227-7.875-12.895l-2.268-1.054 2.263-1.068c2.423-1.145 7.005-5.074 7.005-11.766 0-10.19-6.736-16.277-18.02-16.277H2.345v59.774zm23.605-8.474H12.127v-17.61H25.95c5.64 0 9.287 3.44 9.287 8.763 0 5.37-3.647 8.846-9.287 8.846zm-11.48-2.344h11.48c4.347 0 6.943-2.434 6.943-6.506 0-4.02-2.598-6.416-6.943-6.416H14.47v12.922zm113.468-21.734h-12.603v-18.746h12.603c5.878 0 9.983 3.854 9.983 9.373.002 5.517-4.104 9.373-9.982 9.373zm-10.258-2.344h10.26c4.568 0 7.64-2.824 7.64-7.03 0-4.202-3.07-7.028-7.64-7.028h-10.26v14.058zm-92.516.25H12.127v-16.652h13.037c5.587 0 9.2 3.268 9.2 8.326 0 5.057-3.613 8.326-9.2 8.326zM14.47 228.44h10.694c4.356 0 6.854-2.184 6.854-5.984s-2.498-5.982-6.854-5.982H14.47v11.966z"/></svg><svg width="320" height="22" viewBox="52.754 3.643 320 22" enable-background="new 52.754 3.643 320 22" id="h4c_logo_ber_small" x="278" y="268"><path fill="#fff" d="M194.8 7.568h-3.953v5.676h3.953c1.844 0 3.05-1.177 3.05-2.836 0-1.66-1.205-2.84-3.05-2.84m3.263 17.754l-4.197-8.574h-3.018v8.574h-4.198V3.825h8.423c4.377 0 6.975 2.99 6.975 6.583 0 3.018-1.84 4.89-3.925 5.645l4.8 9.27h-4.86zM143.71 3.825l-3.954 8.666-4.017-8.665h-4.557l6.46 12.68v8.816h4.167v-8.814l6.46-12.68zM159.523 8.534c-.604-.693-1.542-1.146-2.687-1.146-1.148 0-2.114.453-2.718 1.146-.814.907-1.026 1.904-1.026 6.04s.212 5.133 1.026 6.038c.604.694 1.57 1.148 2.718 1.148 1.145 0 2.083-.454 2.687-1.148.814-.905 1.056-1.902 1.056-6.04 0-4.134-.243-5.13-1.057-6.038m3.11 14.615c-1.512 1.51-3.35 2.353-5.797 2.353s-4.317-.845-5.828-2.354c-2.173-2.175-2.113-4.862-2.113-8.577 0-3.713-.06-6.4 2.113-8.574 1.51-1.51 3.383-2.356 5.83-2.356s4.284.847 5.795 2.356c2.173 2.174 2.142 4.86 2.142 8.575 0 3.712.03 6.4-2.142 8.574M175.932 25.503c-4.408 0-7.91-2.988-7.91-7.547V3.826h4.198v13.978c0 2.478 1.448 3.955 3.712 3.955 2.266 0 3.744-1.48 3.744-3.956V3.824h4.167v14.132c0 4.558-3.502 7.547-7.91 7.547"/><path fill="#fff" d="M265.914 16.506v8.816h-4.167v-8.816l-6.46-12.68h4.56l4.014 8.665 3.957-8.665h4.56zM220.785 25.503c-2.355 0-4.288-.845-5.797-2.355-2.174-2.174-2.113-4.86-2.113-8.574s-.06-6.4 2.113-8.575c1.51-1.51 3.44-2.355 5.797-2.355 4.016 0 7.154 2.295 7.91 6.794h-4.257c-.425-1.722-1.51-3.05-3.624-3.05-1.146 0-2.082.42-2.686 1.117-.815.905-1.057 1.932-1.057 6.07 0 4.135.242 5.162 1.058 6.068.604.694 1.54 1.116 2.686 1.116 2.114 0 3.2-1.328 3.624-3.048h4.256c-.755 4.496-3.924 6.79-7.91 6.79"/><path fill="#fff" d="M231.24 3.825h4.198V25.32h-4.198zM248.06 7.57V25.32h-4.2V7.57h-5.616V3.824h15.43V7.57z"/><path fill="#2F3536" d="M65.008 13.125V4.688h3.226v19.836h-3.226v-8.64h-7.79v8.64h-3.224V4.688h3.224v8.437h7.79zm-.803-9.24v8.435h-6.183V3.884H53.19V25.33h4.832v-8.64h6.183v8.64H69.04V3.883h-4.835z"/><path fill="#fff" d="M80.954 4.325h-3.16l-7.888 20.64h4.583L75.81 22l7.103-.025 1.053 2.99h4.526l-7.538-20.64zm.87 14.12l-5.287-.013 2.662-7.266 2.624 7.28z"/><path fill="#2F3536" d="M96.086 25.1v-.403c-2.164-.003-3.896-.765-5.28-2.142-.93-.934-1.396-1.94-1.645-3.147-.25-1.206-.265-2.61-.265-4.248V14.053c0-1.638.015-3.04.265-4.247.25-1.207.717-2.214 1.646-3.147 1.383-1.38 3.116-2.142 5.28-2.144 1.853 0 3.47.525 4.717 1.55 1.243 1.023 2.132 2.555 2.48 4.637l.4-.066v-.405h-4.09v.403l.392-.097c-.215-.88-.608-1.687-1.247-2.283-.64-.597-1.524-.955-2.62-.953-1.2 0-2.225.45-2.887 1.21l.306.266-.302-.27c-.212.238-.402.5-.55.815-.227.475-.365 1.056-.45 1.88-.084.827-.116 1.905-.116 3.4 0 1.994.056 3.248.22 4.15.083.45.193.816.345 1.133.15.314.338.577.55.814l.303-.27-.305.266c.663.763 1.687 1.212 2.887 1.21 1.096.003 1.982-.355 2.62-.953.64-.596 1.032-1.403 1.248-2.283l-.39-.096v.403h4.087v-.403l-.398-.065c-.35 2.08-1.243 3.61-2.49 4.635-1.25 1.024-2.87 1.55-4.708 1.55v.807c1.992 0 3.808-.576 5.22-1.733s2.4-2.89 2.775-5.127l.08-.47h-4.88l-.075.308c-.19.774-.523 1.43-1.015 1.886-.49.453-1.144.733-2.073.736-1.005 0-1.78-.363-2.278-.934l-.005-.004v-.002c-.176-.196-.31-.385-.423-.623-.17-.355-.295-.84-.374-1.617-.08-.775-.114-1.835-.114-3.318 0-1.978.06-3.204.208-4.004.074-.4.167-.693.28-.93.113-.237.246-.425.422-.623l.005-.004c.497-.57 1.272-.932 2.278-.934.927.002 1.58.282 2.072.736.492.453.825 1.11 1.016 1.884l.075.307h4.88l-.078-.47c-.374-2.237-1.355-3.97-2.765-5.126-1.41-1.157-3.226-1.733-5.23-1.733-2.355-.004-4.333.86-5.848 2.38-1.05 1.045-1.6 2.237-1.868 3.555-.27 1.318-.28 2.766-.28 4.41v1.106c0 1.643.01 3.092.28 4.41.268 1.318.818 2.51 1.866 3.555 1.515 1.52 3.493 2.382 5.85 2.38V25.1zM118.222 4.688h3.848l-6.473 7.762 7.12 12.075h-3.756l-5.475-9.696-3.134 3.748v5.947h-3.224V4.688h3.225v9.722l7.872-9.722zm-.383-.804l-6.684 8.253V3.884h-4.836V25.33h4.836v-6.46l2.2-2.632 5.134 9.09H124.125L116.58 12.53l7.21-8.646h-5.95zM372.32 25.35h-4.202l-7.583-11.75v11.75h-4.815V3.905h4.202l7.584 11.724V3.904h4.813V25.35zm-3.777-.78h2.998V4.686h-3.253V18.27l-8.79-13.585h-2.996V24.57h3.257V10.954l8.786 13.618zm-15.408.78h-4.815V3.905h4.815V25.35zm-4.035-.78h3.256V4.686H349.1V24.57zm-2.99.78h-14.19V3.905h4.814v17.067h9.376v4.378zm-13.41-.78h12.63v-2.818h-9.375V4.685H332.7V24.57zm-1.636.78h-5.557l-4.036-8.242h-2.267v8.242h-4.815V3.905h8.488c4.178 0 7.096 2.763 7.096 6.718 0 2.563-1.346 4.638-3.62 5.63l4.712 9.097zm-5.07-.78h3.787l-4.522-8.735.418-.15c2.202-.798 3.517-2.69 3.517-5.062 0-3.496-2.596-5.938-6.315-5.938h-7.707V24.57h3.255v-8.243h3.535l4.034 8.244zm-13.902.78H297.7V3.905h14.392v4.38h-9.58v4.067h8.158v4.38h-8.158v4.24h9.58v4.378zm-13.613-.78h12.832v-2.818h-9.58v-5.8h8.157v-2.82h-8.157V7.504h9.58v-2.82h-12.834V24.57zm-9.39.78h-9.04V3.905h8.692c4.18 0 6.775 2.374 6.775 6.196 0 1.922-1.028 3.446-2.158 4.252 1.11.694 2.448 2.07 2.448 4.66 0 3.91-2.574 6.338-6.717 6.338zm-8.26-.78h8.26c3.664 0 5.94-2.13 5.94-5.56 0-2.54-1.425-3.734-2.62-4.29l-.755-.352.753-.355c.806-.38 2.33-1.688 2.33-3.914 0-3.392-2.24-5.417-5.995-5.417h-7.91V24.57zm7.854-2.817h-4.6v-5.86h4.6c1.878 0 3.09 1.145 3.09 2.915 0 1.788-1.212 2.945-3.09 2.945zm-3.82-.782h3.82c1.446 0 2.31-.808 2.31-2.163 0-1.336-.863-2.136-2.31-2.136h-3.82v4.3zm37.75-7.23h-4.192V7.506h4.193c1.955 0 3.322 1.28 3.322 3.118 0 1.835-1.366 3.118-3.322 3.118zm-3.41-.78h3.41c1.522 0 2.544-.938 2.544-2.337 0-1.398-1.02-2.338-2.543-2.338h-3.41v4.676zm-30.782.085h-4.338v-5.54h4.338c1.86 0 3.06 1.087 3.06 2.77 0 1.682-1.2 2.77-3.06 2.77zm-3.557-.78h3.557c1.45 0 2.28-.727 2.28-1.99 0-1.267-.83-1.99-2.28-1.99h-3.557v3.98z"/></svg><svg width="444" height="268" viewBox="-0.762 0 444 268" enable-background="new -0.762 0 444 268" id="h4c_logo_dor_big" x="598" y="290"><g fill="#fff"><path d="M182.844 79.798H171.54v16.225h11.304c5.264 0 8.713-3.367 8.713-8.11 0-4.748-3.45-8.115-8.713-8.115m9.32 50.74L180.17 106.03h-8.627v24.505h-11.996V69.1h24.076c12.508 0 19.932 8.544 19.932 18.813 0 8.626-5.264 13.977-11.22 16.135l13.724 26.49h-13.896zM36.833 69.1L25.528 93.867 14.048 69.1H1.023l18.464 36.24v25.195h11.91V105.34L49.863 69.1zM82.022 82.56c-1.727-1.983-4.403-3.278-7.68-3.278-3.28 0-6.042 1.295-7.768 3.28-2.328 2.588-2.933 5.437-2.933 17.255 0 11.822.605 14.672 2.934 17.258 1.727 1.986 4.488 3.28 7.767 3.28 3.278 0 5.955-1.294 7.682-3.28 2.33-2.586 3.02-5.437 3.02-17.258 0-11.818-.69-14.667-3.02-17.256m8.887 41.765c-4.317 4.313-9.58 6.73-16.568 6.73-6.99 0-12.34-2.416-16.652-6.73-6.212-6.213-6.042-13.895-6.042-24.508 0-10.61-.17-18.29 6.042-24.504 4.313-4.312 9.664-6.73 16.652-6.73 6.99 0 12.25 2.418 16.567 6.73 6.21 6.214 6.123 13.894 6.123 24.504 0 10.614.087 18.295-6.124 24.508M128.92 131.054c-12.6 0-22.606-8.542-22.606-21.57V69.1h11.993v39.952c0 7.076 4.14 11.303 10.613 11.303 6.47 0 10.697-4.228 10.697-11.303v-39.95h11.908v40.38c0 13.03-10.01 21.572-22.605 21.572"/></g><g fill="#fff"><path d="M153.057 172.45v25.194H141.15V172.45l-18.466-36.242h13.03l11.477 24.764 11.304-24.764h13.03zM24.078 198.16c-6.728 0-12.25-2.417-16.566-6.73-6.21-6.212-6.04-13.89-6.04-24.505 0-10.61-.172-18.293 6.04-24.506 4.315-4.315 9.84-6.73 16.566-6.73 11.48 0 20.453 6.558 22.61 19.417H34.52c-1.208-4.92-4.313-8.72-10.354-8.72-3.28 0-5.953 1.208-7.678 3.196-2.33 2.586-3.02 5.523-3.02 17.342 0 11.822.69 14.756 3.02 17.346 1.726 1.985 4.398 3.192 7.678 3.192 6.04 0 9.146-3.797 10.355-8.715h12.167c-2.156 12.856-11.216 19.414-22.61 19.414"/><path d="M53.964 136.206H65.96v61.438H53.963zM102.023 146.907v50.737H90.028v-50.737h-16.05v-10.7h44.098v10.7z"/></g><path fill="#2F3536" d="M36.063 28.377V3.147h9.642v59.317h-9.642V36.632H12.765v25.833h-9.64V3.148h9.64v25.23h23.298zM33.657.742v25.226H15.172V.742H.715v64.13H15.17V39.04h18.487v25.833h14.458V.743H33.657z"/><path fill="#fff" d="M83.743 2.064h-9.448l-23.588 61.72H64.41l3.948-8.87 21.237-.078 3.15 8.948h13.535L83.743 2.064zm2.6 42.224L70.53 44.25l7.965-21.728 7.85 21.766z"/><path fill="#2F3536" d="M94.12 54.892l.16.022h-2.336v6.418H84.44v-8.754H59.424v-8.11L74.555 3.95h9.737L68.794 45.455H84.44v-11.53h7.504v11.53h4.125v7.123h-4.126v1.204l.033 1.17H94.3l4.18.035v-11.94h-4.126V31.52H82.03v11.528h-9.765L87.762 1.54h-14.88L57.02 44.033v10.954H82.03v8.754h12.324l-.025-8.848"/><path fill="#2F3536" d="M128.993 64.188v-1.204c-6.47-.01-11.655-2.287-15.792-6.407-2.778-2.792-4.173-5.804-4.922-9.414-.746-3.605-.796-7.802-.793-12.704v-3.31c-.002-4.898.046-9.094.793-12.7.75-3.61 2.144-6.622 4.923-9.413 4.138-4.122 9.322-6.4 15.793-6.41 5.54.004 10.384 1.577 14.103 4.637 3.72 3.062 6.375 7.64 7.424 13.866l1.188-.198v-1.206h-12.223v1.206l1.168-.29c-.645-2.63-1.816-5.044-3.73-6.825-1.906-1.786-4.558-2.854-7.838-2.846-3.586-.005-6.646 1.34-8.625 3.62l.908.792-.894-.807c-.642.712-1.207 1.493-1.654 2.438-.673 1.422-1.086 3.158-1.342 5.624-.25 2.47-.35 5.7-.35 10.168.005 5.963.17 9.713.66 12.41.245 1.346.58 2.44 1.03 3.385.447.944 1.014 1.726 1.654 2.438l.894-.805-.91.79c1.982 2.283 5.042 3.626 8.628 3.622 3.28.01 5.93-1.062 7.838-2.847 1.914-1.78 3.084-4.198 3.73-6.827l-1.17-.286v1.204h12.225v-1.204l-1.188-.2c-1.05 6.223-3.723 10.8-7.455 13.866-3.732 3.06-8.575 4.632-14.07 4.634v2.409c5.95 0 11.38-1.72 15.598-5.183 4.226-3.458 7.187-8.633 8.302-15.328l.235-1.403h-14.588l-.226.918c-.57 2.313-1.563 4.275-3.032 5.636-1.47 1.356-3.42 2.193-6.2 2.203-3.003-.003-5.32-1.087-6.81-2.793l-.014-.013c-.53-.59-.928-1.152-1.27-1.865-.505-1.06-.88-2.51-1.12-4.833-.237-2.32-.335-5.49-.335-9.925 0-5.912.178-9.578.622-11.972.218-1.2.496-2.072.834-2.782.342-.71.74-1.273 1.27-1.862l.015-.015c1.487-1.705 3.804-2.787 6.81-2.792 2.78.01 4.73.845 6.2 2.203 1.466 1.358 2.462 3.32 3.03 5.635l.227.918h14.588l-.233-1.4c-1.116-6.693-4.058-11.87-8.267-15.33-4.21-3.465-9.644-5.187-15.636-5.184C121.946.212 116.03 2.792 111.5 7.34c-3.134 3.123-4.774 6.687-5.58 10.627-.81 3.944-.837 8.273-.837 13.186-.004.546 0 1.096 0 1.654 0 .56-.004 1.11-.004 1.655.003 4.913.03 9.244.84 13.19.806 3.937 2.446 7.502 5.58 10.628 4.53 4.545 10.446 7.123 17.494 7.113v-1.205zM195.18 3.148h11.505L187.332 26.36l21.29 36.105H197.39l-16.372-28.992-9.372 11.207v17.785h-9.642V3.148h9.642v29.07l23.534-29.07zM194.034.742l-19.98 24.678V.742h-14.46v64.13h14.46V45.557l6.577-7.868 15.355 27.186H212.838L190.265 26.6 211.826.744h-17.792V.742zM304.055 268c-14.232 0-24.562-9.88-24.562-23.495v-42.878h14.89v42.434c0 6.503 3.616 10.385 9.673 10.385 6.11 0 9.76-3.882 9.76-10.384v-42.433h14.8v42.878c0 13.614-10.33 23.495-24.56 23.495zm-22.032-63.843v40.348c0 6.108 2.203 11.37 6.373 15.22 4.012 3.705 9.572 5.745 15.658 5.745s11.646-2.04 15.658-5.744c4.17-3.85 6.373-9.112 6.373-15.22v-40.35h-9.74v39.904c0 7.845-4.824 12.913-12.29 12.913-7.413 0-12.204-5.068-12.204-12.913v-39.903h-9.827zM79.468 268c-7.233 0-13.14-2.39-18.056-7.307-6.604-6.603-6.6-14.847-6.595-25.283v-1.726c-.005-10.438-.01-18.68 6.595-25.284 4.916-4.916 10.822-7.306 18.056-7.306 7.173 0 13.05 2.39 17.966 7.306 6.687 6.687 6.686 15.078 6.685 25.704v.887c0 10.626 0 19.02-6.686 25.704C92.518 265.61 86.64 268 79.468 268zm0-64.376c-6.528 0-11.85 2.147-16.267 6.564-5.86 5.86-5.857 13.258-5.853 23.494v1.728c-.004 10.236-.007 17.632 5.854 23.493 4.418 4.418 9.74 6.565 16.268 6.565 6.558 0 11.698-2.086 16.177-6.565 5.945-5.944 5.944-13.48 5.943-23.914v-.888c0-10.433.002-17.97-5.943-23.915-4.48-4.477-9.62-6.563-16.177-6.563zm338.844 63.843h-24.117v-65.84h24.117c7.324 0 13.414 2.22 17.61 6.417 6.89 6.89 6.868 15.136 6.812 23.865-.004.783-.01 1.574-.01 2.37 0 .792.006 1.583.01 2.37.055 8.607.082 17.507-6.81 24.398-4.197 4.2-10.287 6.42-17.612 6.42zm-21.585-2.53h21.586c6.64 0 12.11-1.963 15.822-5.676 6.145-6.145 6.094-14.134 6.04-22.593-.005-.793-.01-1.59-.01-2.387 0-.802.005-1.598.01-2.387.056-8.54.103-15.918-6.04-22.06-3.713-3.714-9.184-5.677-15.822-5.677h-21.586v60.78zm-10.315 2.53h-12.98l-23.12-35.83v35.83h-14.89v-65.84H348.4l23.12 35.748v-35.748h14.892v65.84zm-11.6-2.53h9.07v-60.78h-9.83v41.79l-27.028-41.79h-9.072v60.78h9.83V223.05l27.03 41.887zm-101.576 2.53h-14.89v-32.843l-10.048 19.95h-9.914l-10.14-19.984v32.877h-14.89v-65.84h14.24l15.742 32.584 15.658-32.583h14.24v65.84zm-12.357-2.53h9.827v-60.78h-10.12l-17.243 35.884-17.334-35.882h-10.125v60.78h9.83V224.01l14.225 28.03h6.8l14.14-28.065v40.96zm-68.913 2.53h-14.89v-52.284H160.54v-13.556h47.966v13.556h-16.54v52.284zm-12.36-2.53h9.83v-52.284h16.537v-8.495h-42.906v8.495h16.54v52.284zm-18.568 2.53h-17.187l-12.36-25.253h-6.836v25.253h-14.89v-65.84h26.073c6.48 0 12.013 2.107 16 6.095 3.743 3.744 5.806 8.913 5.806 14.555 0 7.854-4.105 14.218-11.06 17.282l14.453 27.907zm-15.606-2.53h11.445l-13.845-26.73 1.355-.492c6.715-2.433 10.725-8.204 10.725-15.438 0-10.668-7.926-18.12-19.274-18.12H112.3v60.78h9.83v-25.253h10.945l12.36 25.253zm-120.294 2.53H1.022v-65.84H25.14c7.323 0 13.413 2.22 17.61 6.417 6.89 6.89 6.838 15.136 6.783 23.864-.005.784-.01 1.575-.01 2.372 0 .793.005 1.584.01 2.372.054 8.606.11 17.505-6.783 24.396-4.197 4.2-10.287 6.42-17.61 6.42zm-21.587-2.53H25.14c6.638 0 12.108-1.963 15.82-5.676 6.146-6.145 6.096-14.133 6.043-22.59-.005-.795-.01-1.592-.01-2.39 0-.802.005-1.598.01-2.388.054-8.54.1-15.917-6.042-22.06-3.712-3.713-9.183-5.676-15.82-5.676H3.553v60.78zm75.915-7.963c-3.585 0-6.85-1.39-8.957-3.813-2.738-3.043-3.333-6.35-3.333-18.612 0-12.263.595-15.57 3.348-18.63 2.094-2.407 5.358-3.798 8.943-3.798 3.58 0 6.73 1.354 8.868 3.813 2.78 3.09 3.423 6.57 3.423 18.614 0 12.042-.644 15.524-3.44 18.63-2.123 2.443-5.272 3.797-8.852 3.797zm0-42.325c-2.853 0-5.422 1.072-7.048 2.943-2.072 2.302-2.713 4.937-2.713 16.953 0 12.016.64 14.65 2.698 16.938 1.642 1.887 4.21 2.96 7.062 2.96 2.836 0 5.308-1.046 6.96-2.944 2.14-2.378 2.8-5.022 2.8-16.953 0-11.932-.66-14.575-2.787-16.938-1.665-1.915-4.135-2.96-6.972-2.96zm337.688 41.79h-10.602v-43.788h10.602c4.506 0 7.754 1.39 10.223 4.37 2.68 3.3 2.956 7.79 2.956 17.258 0 9.978-.41 14.653-2.95 17.78-2.476 2.992-5.724 4.38-10.23 4.38zm-8.07-2.53h8.07c3.744 0 6.297-1.065 8.273-3.453 2.044-2.52 2.376-6.833 2.376-16.177 0-9.386-.36-13.16-2.385-15.652-1.968-2.38-4.52-3.445-8.265-3.445h-8.07v38.727zm-385.103 2.53h-10.6v-43.788h10.6c4.507 0 7.755 1.39 10.223 4.37 2.68 3.298 2.958 7.79 2.958 17.258 0 9.978-.41 14.653-2.95 17.78-2.477 2.992-5.725 4.38-10.23 4.38zm-8.07-2.53h8.07c3.745 0 6.296-1.065 8.272-3.453 2.046-2.52 2.377-6.832 2.377-16.177 0-9.386-.36-13.16-2.384-15.652-1.97-2.38-4.52-3.445-8.266-3.445h-8.07v38.727zM135.04 231.9h-12.913V212.65h12.913c6.034 0 10.247 3.958 10.247 9.624s-4.213 9.623-10.247 9.623zm-10.383-2.53h10.383c4.616 0 7.716-2.852 7.716-7.094 0-4.243-3.1-7.094-7.716-7.094h-10.383v14.187z"/></svg><svg width="373" height="22" viewBox="-0.901 0 373 22" enable-background="new -0.901 0 373 22" id="h4c_logo_dor_small" x="1042" y="558"><path fill="#fff" d="M142.046 3.994h-3.952V9.67h3.952c1.845 0 3.05-1.177 3.05-2.835.002-1.66-1.205-2.84-3.05-2.84m3.263 17.753l-4.197-8.574h-3.02v8.574h-4.196V.252h8.423c4.377 0 6.975 2.988 6.975 6.583 0 3.018-1.84 4.89-3.925 5.644l4.8 9.27h-4.86v-.002zM90.957.252l-3.955 8.666L82.985.252H78.43l6.46 12.682v8.814h4.167v-8.814L95.517.252zM106.77 4.96c-.604-.692-1.542-1.145-2.688-1.145-1.147 0-2.113.453-2.718 1.146-.813.907-1.026 1.904-1.026 6.04 0 4.137.213 5.134 1.026 6.038.604.695 1.57 1.148 2.718 1.148 1.146 0 2.083-.453 2.688-1.148.813-.904 1.056-1.9 1.056-6.038 0-4.136-.243-5.133-1.056-6.04m3.11 14.615c-1.513 1.51-3.352 2.354-5.798 2.354-2.445 0-4.316-.846-5.828-2.355-2.173-2.174-2.112-4.86-2.112-8.575 0-3.714-.06-6.4 2.112-8.574C99.766.916 101.638.07 104.084.07c2.445 0 4.284.85 5.795 2.357 2.173 2.174 2.142 4.86 2.142 8.575-.002 3.712.03 6.4-2.143 8.573M123.178 21.84c-4.408 0-7.91-2.988-7.91-7.548V.162h4.2V14.14c0 2.478 1.446 3.954 3.71 3.954 2.267 0 3.744-1.48 3.744-3.954V.16h4.167v14.132c0 4.558-3.503 7.547-7.912 7.547"/><path fill="#fff" d="M213.16 12.932v8.816h-4.167v-8.816l-6.46-12.68h4.56l4.014 8.666 3.955-8.666h4.56zM168.03 21.93c-2.354 0-4.287-.846-5.796-2.355-2.174-2.174-2.113-4.86-2.113-8.574s-.06-6.4 2.114-8.574c1.51-1.51 3.44-2.354 5.797-2.354 4.017 0 7.155 2.295 7.91 6.794h-4.257c-.424-1.72-1.51-3.05-3.623-3.05-1.146 0-2.082.422-2.687 1.118-.815.905-1.058 1.932-1.058 6.07 0 4.136.242 5.163 1.058 6.067.604.696 1.54 1.118 2.687 1.118 2.113 0 3.2-1.33 3.623-3.05h4.256c-.754 4.497-3.924 6.792-7.91 6.792"/><path fill="#fff" d="M178.486.252h4.197v21.496h-4.197zM195.305 3.995v17.753h-4.2V3.995h-5.615V.252h15.43v3.743z"/><path fill="#2F3536" d="M12.254 9.52V1.08h3.227v19.837h-3.226v-8.64h-7.79v8.64H1.24V1.08h3.224v8.44h7.79zM11.45.276v8.437H5.27V.277H.435v21.445H5.27v-8.64h6.182v8.64H16.286V.277H11.45z"/><path fill="#fff" d="M28.2.68h-3.16l-7.888 20.64h4.583l1.32-2.966 7.104-.025 1.052 2.99h4.526L28.2.68zm.87 14.12l-5.287-.014 2.662-7.266 2.625 7.28z"/><path fill="#2F3536" d="M43.332 21.495v-.402c-2.164-.004-3.896-.766-5.278-2.143-.93-.934-1.397-1.94-1.646-3.146-.25-1.206-.266-2.61-.266-4.248v-1.108c0-1.638.015-3.04.265-4.247.25-1.206.717-2.213 1.646-3.145C39.436 1.677 41.168.913 43.33.91c1.855 0 3.474.526 4.72 1.55 1.242 1.024 2.132 2.557 2.48 4.64l.398-.067v-.406H46.84v.403l.392-.097c-.215-.88-.608-1.688-1.247-2.283-.64-.597-1.524-.955-2.62-.953-1.2 0-2.225.45-2.887 1.21l.305.266-.302-.27c-.21.238-.4.5-.55.815-.227.475-.364 1.056-.45 1.88-.083.827-.115 1.904-.115 3.4 0 1.994.056 3.248.22 4.15.083.45.193.814.346 1.132.15.314.34.577.552.814l.302-.27-.305.265c.66.763 1.685 1.212 2.885 1.21 1.096.003 1.982-.355 2.62-.953.64-.596 1.032-1.403 1.248-2.283l-.39-.096v.402h4.087v-.4l-.398-.065c-.35 2.08-1.243 3.61-2.49 4.636s-2.87 1.552-4.708 1.552v.805c1.992 0 3.81-.576 5.22-1.732 1.412-1.156 2.4-2.89 2.775-5.127l.078-.47h-4.88l-.075.308c-.19.773-.522 1.43-1.015 1.886-.49.452-1.145.733-2.073.735-1.005 0-1.78-.362-2.278-.934l-.004-.004v-.003c-.176-.196-.31-.385-.423-.623-.17-.354-.295-.84-.374-1.616-.08-.774-.114-1.835-.114-3.317 0-1.978.06-3.204.208-4.004.074-.4.167-.693.28-.93.113-.238.246-.426.422-.624l.005-.004c.498-.57 1.273-.933 2.28-.935.926.003 1.58.283 2.07.737.493.453.826 1.11 1.017 1.884l.075.308h4.88l-.08-.47c-.374-2.237-1.354-3.97-2.765-5.127C47.155.678 45.338.102 43.335.102 40.98.1 39 .962 37.486 2.482c-1.048 1.045-1.598 2.237-1.867 3.555-.27 1.318-.28 2.767-.28 4.41v1.108c0 1.643.01 3.092.28 4.41.27 1.317.818 2.51 1.866 3.555 1.515 1.52 3.493 2.38 5.85 2.378l-.002-.403zM65.47 1.08h3.847l-6.473 7.764 7.12 12.075h-3.757l-5.476-9.697-3.133 3.75v5.946H54.37V1.08h3.227v9.724L65.47 1.08zm-.385-.803L58.402 8.53V.277h-4.836v21.445h4.836v-6.46l2.2-2.63 5.134 9.09H71.37L63.826 8.924l7.21-8.646h-5.95zM326.3 21.93c-4.65 0-8.024-3.23-8.024-7.677V.243h4.865V14.11c0 2.124 1.183 3.393 3.16 3.393 1.997 0 3.19-1.268 3.19-3.392V.244h4.834v14.01c0 4.447-3.375 7.676-8.023 7.676zm-7.196-20.86v13.183c0 1.996.72 3.716 2.082 4.973 1.31 1.21 3.127 1.877 5.115 1.877s3.806-.666 5.116-1.877c1.363-1.257 2.082-2.977 2.082-4.973V1.07h-3.182V14.11c0 2.562-1.576 4.22-4.016 4.22-2.422 0-3.986-1.657-3.986-4.22V1.07h-3.21zm-66.178 20.86c-2.363 0-4.293-.78-5.898-2.388-2.158-2.157-2.156-4.85-2.154-8.26v-.564c-.002-3.41-.004-6.104 2.154-8.26C248.633.85 250.563.07 252.926.07c2.344 0 4.264.78 5.87 2.387 2.185 2.185 2.185 4.927 2.185 8.397v.29c0 3.472 0 6.214-2.185 8.397-1.606 1.608-3.525 2.39-5.87 2.39zm0-21.033c-2.133 0-3.87.7-5.314 2.145-1.914 1.915-1.914 4.33-1.912 7.676v.564c-.002 3.345-.002 5.76 1.912 7.676 1.443 1.443 3.182 2.145 5.314 2.145 2.143 0 3.822-.682 5.285-2.145 1.944-1.942 1.942-4.405 1.942-7.813v-.29c0-3.408.002-5.87-1.94-7.812-1.464-1.465-3.144-2.146-5.286-2.146zM363.63 21.755h-7.88V.245h7.88c2.394 0 4.384.725 5.755 2.096 2.25 2.252 2.242 4.946 2.225 7.798-.002.257-.004.515-.004.775s.002.517.004.774c.018 2.812.027 5.72-2.225 7.97-1.37 1.373-3.362 2.098-5.754 2.098zm-7.052-.826h7.053c2.17 0 3.956-.643 5.17-1.855 2.007-2.008 1.99-4.618 1.974-7.382-.002-.26-.004-.52-.004-.78 0-.262.002-.52.004-.78.018-2.79.033-5.2-1.975-7.206-1.214-1.213-3-1.854-5.17-1.854h-7.052V20.93zm-3.37.825h-4.24l-7.554-11.705v11.705h-4.865V.245h4.24l7.554 11.68V.244h4.863v21.51zm-3.79-.826h2.963V1.07h-3.21v13.653L340.34 1.07h-2.965V20.93h3.21V7.244l8.833 13.685zm-33.186.825h-4.865v-10.73l-3.283 6.518h-3.238l-3.312-6.53v10.742h-4.865V.245h4.65l5.146 10.645L311.58.244h4.653v21.51zm-4.037-.826h3.21V1.07H312.1l-5.633 11.725-5.664-11.724h-3.31V20.93h3.214V7.558l4.646 9.158h2.223l4.62-9.17V20.93zm-22.515.825h-4.863V4.673h-5.404V.243h15.672v4.43h-5.404v17.082zm-4.037-.826h3.21V3.846h5.405V1.07h-14.02v2.776h5.404V20.93zm-6.067.825h-5.615l-4.036-8.25h-2.234v8.25h-4.863V.245h8.518c2.117 0 3.924.687 5.227 1.99 1.223 1.224 1.898 2.912 1.898 4.756 0 2.566-1.342 4.646-3.615 5.647l4.72 9.118zm-5.097-.826h3.737l-4.523-8.734.443-.16c2.193-.796 3.504-2.68 3.504-5.044 0-3.485-2.59-5.92-6.296-5.92h-7.69V20.93h3.21v-8.252h3.576l4.04 8.25zm-39.304.825h-7.88V.245h7.88c2.393 0 4.383.725 5.754 2.096 2.252 2.252 2.234 4.946 2.217 7.798-.002.256-.004.515-.004.775s.002.518.004.774c.018 2.812.035 5.72-2.217 7.97-1.37 1.373-3.362 2.098-5.754 2.098zm-7.053-.826h7.053c2.17 0 3.957-.643 5.17-1.855 2.008-2.008 1.99-4.618 1.973-7.38l-.003-.78.002-.78c.017-2.792.032-5.2-1.974-7.208-1.213-1.213-3-1.854-5.17-1.854h-7.053V20.93zm24.803-2.603c-1.172 0-2.238-.454-2.926-1.246-.895-.993-1.09-2.074-1.09-6.08 0-4.007.195-5.087 1.094-6.087.684-.786 1.75-1.24 2.922-1.24 1.17 0 2.2.442 2.898 1.245.908 1.01 1.117 2.147 1.117 6.082 0 3.934-.208 5.072-1.122 6.086-.693.8-1.722 1.24-2.892 1.24zm0-13.828c-.932 0-1.77.35-2.303.96-.676.753-.887 1.614-.887 5.54s.21 4.786.883 5.533c.534.616 1.374.968 2.306.968.926 0 1.734-.34 2.273-.96.698-.778.915-1.643.915-5.54 0-3.898-.217-4.762-.912-5.534-.543-.625-1.35-.967-2.277-.967zM363.252 18.15h-3.463V3.847h3.462c1.473 0 2.533.454 3.34 1.428.875 1.078.967 2.545.967 5.64 0 3.26-.136 4.786-.964 5.808-.81.976-1.87 1.43-3.344 1.43zm-2.637-.826h2.637c1.225 0 2.06-.35 2.703-1.128.668-.823.777-2.232.777-5.285 0-3.066-.117-4.3-.78-5.114-.642-.778-1.476-1.127-2.7-1.127h-2.637v12.653zm-125.816.826h-3.466V3.847h3.465c1.472 0 2.532.454 3.34 1.428.874 1.077.966 2.545.966 5.64 0 3.26-.135 4.786-.965 5.808-.808.976-1.87 1.43-3.34 1.43zm-2.638-.826h2.637c1.222 0 2.056-.35 2.702-1.128.668-.823.775-2.232.775-5.285 0-3.066-.117-4.3-.777-5.114-.645-.778-1.48-1.127-2.7-1.127h-2.638v12.653zm38.92-7.19h-4.22v-6.29h4.22c1.97 0 3.348 1.294 3.348 3.146 0 1.85-1.377 3.143-3.348 3.143zm-3.393-.827h3.392c1.508 0 2.52-.933 2.52-2.318 0-1.387-1.013-2.318-2.52-2.318h-3.393V9.31z"/></svg><svg width="364" height="268" viewBox="-0.163 0 364 268" enable-background="new -0.163 0 364 268" id="h4c_logo_dre_big" x="1415" y="580"><path fill="#fff" d="M182.844 79.798H171.54v16.225h11.304c5.264 0 8.713-3.367 8.713-8.11 0-4.748-3.45-8.115-8.713-8.115m9.32 50.74L180.17 106.03h-8.627v24.505h-11.996V69.1h24.076c12.508 0 19.932 8.544 19.932 18.813 0 8.626-5.264 13.977-11.22 16.135l13.724 26.49h-13.896zM153.057 172.45v25.194H141.15V172.45l-18.466-36.242h13.03l11.477 24.764 11.304-24.764h13.03zM36.833 69.1L25.528 93.867 14.048 69.1H1.023l18.464 36.24v25.195h11.91V105.34L49.863 69.1zM82.022 82.56c-1.727-1.983-4.403-3.278-7.68-3.278-3.28 0-6.042 1.295-7.768 3.28-2.328 2.588-2.933 5.437-2.933 17.255 0 11.822.605 14.672 2.934 17.258 1.727 1.986 4.488 3.28 7.767 3.28 3.278 0 5.955-1.294 7.682-3.28 2.33-2.586 3.02-5.437 3.02-17.258 0-11.818-.69-14.667-3.02-17.256m8.887 41.765c-4.317 4.313-9.58 6.73-16.568 6.73-6.99 0-12.34-2.416-16.652-6.73-6.212-6.213-6.042-13.895-6.042-24.508 0-10.61-.17-18.29 6.042-24.504 4.313-4.312 9.664-6.73 16.652-6.73 6.99 0 12.25 2.418 16.567 6.73 6.21 6.214 6.123 13.894 6.123 24.504 0 10.614.087 18.295-6.124 24.508M128.92 131.054c-12.6 0-22.606-8.542-22.606-21.57V69.1h11.993v39.952c0 7.076 4.14 11.303 10.613 11.303 6.47 0 10.697-4.228 10.697-11.303v-39.95h11.908v40.38c0 13.03-10.01 21.572-22.605 21.572M24.078 198.16c-6.728 0-12.25-2.417-16.566-6.73-6.21-6.212-6.04-13.89-6.04-24.505 0-10.61-.172-18.293 6.04-24.506 4.315-4.315 9.84-6.73 16.566-6.73 11.48 0 20.453 6.558 22.61 19.417H34.52c-1.208-4.92-4.313-8.72-10.354-8.72-3.28 0-5.953 1.208-7.678 3.196-2.33 2.586-3.02 5.523-3.02 17.342 0 11.822.69 14.756 3.02 17.346 1.726 1.985 4.398 3.192 7.678 3.192 6.04 0 9.146-3.797 10.355-8.715h12.167c-2.156 12.856-11.216 19.414-22.61 19.414"/><path fill="#fff" d="M53.964 136.206H65.96v61.438H53.963zM102.023 146.907v50.737H90.028v-50.737h-16.05v-10.7h44.098v10.7z"/><path fill="#2F3536" d="M36.063 28.377V3.147h9.642v59.317h-9.642V36.632H12.765v25.833h-9.64V3.148h9.64v25.23h23.298zM33.657.742v25.226H15.172V.742H.715v64.13H15.17V39.04h18.487v25.833h14.458V.743H33.657z"/><path fill="#fff" d="M83.743 2.064h-9.448l-23.588 61.72H64.41l3.948-8.87 21.237-.078 3.15 8.948h13.535L83.743 2.064zm2.6 42.224L70.53 44.25l7.965-21.728 7.85 21.766z"/><path fill="#2F3536" d="M94.12 54.892l.16.022h-2.336v6.418H84.44v-8.754H59.424v-8.11L74.555 3.95h9.737L68.794 45.455H84.44v-11.53h7.504v11.53h4.125v7.123h-4.126v1.204l.033 1.17H94.3l4.18.035v-11.94h-4.126V31.52H82.03v11.528h-9.765L87.762 1.54h-14.88L57.02 44.033v10.954H82.03v8.754h12.324l-.025-8.848"/><path fill="#2F3536" d="M128.993 64.188v-1.204c-6.47-.01-11.655-2.287-15.792-6.407-2.778-2.792-4.173-5.804-4.922-9.414-.746-3.605-.796-7.802-.793-12.704v-3.31c-.002-4.898.046-9.094.793-12.7.75-3.61 2.144-6.622 4.923-9.413 4.138-4.122 9.322-6.4 15.793-6.41 5.54.004 10.384 1.577 14.103 4.637 3.72 3.062 6.375 7.64 7.424 13.866l1.188-.198v-1.206h-12.223v1.206l1.168-.29c-.645-2.63-1.816-5.044-3.73-6.825-1.906-1.786-4.558-2.854-7.838-2.846-3.586-.005-6.646 1.34-8.625 3.62l.908.792-.894-.807c-.642.712-1.207 1.493-1.654 2.438-.673 1.422-1.086 3.158-1.342 5.624-.25 2.47-.35 5.7-.35 10.168.005 5.963.17 9.713.66 12.41.245 1.346.58 2.44 1.03 3.385.447.944 1.014 1.726 1.654 2.438l.894-.805-.91.79c1.982 2.283 5.042 3.626 8.628 3.622 3.28.01 5.93-1.062 7.838-2.847 1.914-1.78 3.084-4.198 3.73-6.827l-1.17-.286v1.204h12.225v-1.204l-1.188-.2c-1.05 6.223-3.723 10.8-7.455 13.866-3.732 3.06-8.575 4.632-14.07 4.634v2.409c5.95 0 11.38-1.72 15.598-5.183 4.226-3.458 7.187-8.633 8.302-15.328l.235-1.403h-14.588l-.226.918c-.57 2.313-1.563 4.275-3.032 5.636-1.47 1.356-3.42 2.193-6.2 2.203-3.003-.003-5.32-1.087-6.81-2.793l-.014-.013c-.53-.59-.928-1.152-1.27-1.865-.505-1.06-.88-2.51-1.12-4.833-.237-2.32-.335-5.49-.335-9.925 0-5.912.178-9.578.622-11.972.218-1.2.496-2.072.834-2.782.342-.71.74-1.273 1.27-1.862l.015-.015c1.487-1.705 3.804-2.787 6.81-2.792 2.78.01 4.73.845 6.2 2.203 1.466 1.358 2.462 3.32 3.03 5.635l.227.918h14.588l-.233-1.4c-1.116-6.693-4.058-11.87-8.267-15.33-4.21-3.465-9.644-5.187-15.636-5.184C121.946.212 116.03 2.792 111.5 7.34c-3.134 3.123-4.774 6.687-5.58 10.627-.81 3.944-.837 8.273-.837 13.186-.004.546 0 1.096 0 1.654 0 .56-.004 1.11-.004 1.655.003 4.913.03 9.244.84 13.19.806 3.937 2.446 7.502 5.58 10.628 4.53 4.545 10.446 7.123 17.494 7.113v-1.205zM195.18 3.148h11.505L187.332 26.36l21.29 36.105H197.39l-16.372-28.992-9.372 11.207v17.785h-9.642V3.148h9.642v29.07l23.534-29.07zM194.034.742l-19.98 24.678V.742h-14.46v64.13h14.46V45.557l6.577-7.868 15.355 27.186H212.838L190.265 26.6 211.826.744h-17.792V.742zM180.912 268.767c-10.793 0-17.977-2.614-24.02-8.74l-1.013-1.028 10.004-10.005 1.027 1.027c3.283 3.282 7.92 4.878 14.178 4.878 6.427 0 9.686-2.128 9.686-6.326 0-1.896-.5-3.323-1.482-4.24-.903-.84-1.98-1.41-4.796-1.837l-7.587-1.058c-5.733-.848-9.985-2.683-13.01-5.612-3.336-3.337-4.95-7.722-4.95-13.42 0-12.29 9.396-20.547 23.377-20.547 9.222 0 15.804 2.39 21.342 7.747l1.066 1.032-9.84 9.728-1.02-.976c-3.624-3.462-8.05-3.93-11.902-3.93-5.103 0-8.27 2.493-8.27 6.504 0 .8.18 2.314 1.393 3.445 1.13 1.05 2.968 1.814 5.043 2.1l7.433 1.062c5.84.808 9.792 2.424 12.808 5.238 3.536 3.35 5.325 8.195 5.325 14.41-.002 12.29-9.965 20.547-24.793 20.547zm-20.91-9.78c5.24 4.804 11.593 6.873 20.91 6.873 13.295 0 21.885-6.925 21.885-17.642 0-5.385-1.483-9.52-4.408-12.292-2.544-2.373-6.007-3.756-11.223-4.478l-7.432-1.062c-2.685-.37-5.038-1.38-6.62-2.85-1.496-1.396-2.32-3.374-2.32-5.572 0-4.34 2.93-9.41 11.18-9.41 3.837 0 8.675.457 12.845 3.802l5.732-5.668c-4.77-4.14-10.315-5.923-18.225-5.923-12.435 0-20.47 6.925-20.47 17.642 0 4.888 1.335 8.6 4.082 11.348 2.555 2.476 6.283 4.053 11.382 4.806l7.593 1.06c3.116.473 4.835 1.173 6.356 2.584 1.578 1.473 2.41 3.674 2.41 6.37 0 5.866-4.59 9.23-12.592 9.23-6.436 0-11.413-1.553-15.163-4.742L160 258.986zm203.672 9.25h-13.207l-22.683-35.152v35.152H312.59V202.39h13.206l22.685 35.074V202.39h15.194v65.847zm-11.623-2.906h8.718v-60.033h-9.38v42.012l-27.174-42.013h-8.718v60.034h9.382v-42.108l27.173 42.11zm-44.156 2.907H263.53V202.39h44.364v13.868h-29.17v11.856h24.84v13.866h-24.84v12.388h29.17v13.87zm-41.46-2.906h38.554v-8.055h-29.17v-18.2h24.84v-8.054h-24.84v-17.668h29.17v-8.056h-38.553v60.035zm-32.567 2.907h-24.172V202.39h24.172c7.332 0 13.435 2.226 17.646 6.438 6.907 6.907 6.855 15.144 6.8 23.863-.005.78-.01 1.566-.01 2.357 0 .788.005 1.574.01 2.357.054 8.596.11 17.484-6.8 24.395-4.212 4.212-10.315 6.437-17.646 6.437zm-21.265-2.906h21.266c6.544 0 11.936-1.93 15.592-5.585 6.05-6.052 6-13.954 5.948-22.32-.005-.79-.01-1.583-.01-2.377 0-.797.005-1.59.01-2.374.054-8.447.1-15.743-5.948-21.79-3.655-3.655-9.047-5.587-15.592-5.587h-21.266v60.034zm-59.08 2.907h-44.365V202.39h44.365v13.868h-29.17v11.856h24.838v13.866h-24.84v12.388h29.172v13.87zm-41.46-2.906h38.554v-8.055h-29.17v-18.2h24.838v-8.054h-24.84v-17.668h29.172v-8.056h-38.553v60.035zm-4.81 2.907H89.728L77.44 243.132h-6.48v25.105H55.764V202.39h26.117c12.878 0 21.873 8.52 21.873 20.724 0 7.82-4.05 14.167-10.922 17.276l14.42 27.847zm-15.71-2.906h10.934l-13.718-26.486 1.557-.564c6.596-2.39 10.533-8.06 10.533-15.165 0-10.49-7.8-17.817-18.966-17.817h-23.21v60.034h9.382v-25.105h11.2L91.54 265.33zm-65.44 2.907H1.932V202.39H26.1c7.333 0 13.436 2.226 17.647 6.438 6.906 6.907 6.854 15.144 6.8 23.863-.006.78-.01 1.566-.01 2.357 0 .788.004 1.574.01 2.357.053 8.596.108 17.484-6.8 24.395-4.213 4.212-10.315 6.437-17.648 6.437zM4.837 265.33h21.265c6.545 0 11.937-1.93 15.592-5.585 6.05-6.052 6-13.954 5.948-22.32-.005-.79-.01-1.583-.01-2.377 0-.797.005-1.59.01-2.374.053-8.447.1-15.743-5.95-21.79-3.654-3.655-9.045-5.587-15.59-5.587H4.836v60.034zm227.88-8.055h-10.734v-43.923h10.735c4.542 0 7.82 1.403 10.312 4.415 2.705 3.33 2.986 7.822 2.986 17.28 0 9.97-.414 14.646-2.978 17.8-2.502 3.025-5.778 4.428-10.32 4.428zm-7.828-2.906h7.828c3.658 0 6.148-1.038 8.074-3.364 1.995-2.456 2.318-6.717 2.318-15.958 0-9.278-.352-13.005-2.327-15.438-1.916-2.314-4.406-3.352-8.065-3.352h-7.83v38.11zm-199.937 2.905H14.218v-43.923h10.735c4.543 0 7.82 1.403 10.313 4.415 2.704 3.33 2.986 7.82 2.986 17.28 0 9.97-.414 14.646-2.978 17.8-2.502 3.025-5.78 4.428-10.32 4.428zm-7.83-2.906h7.83c3.66 0 6.15-1.038 8.074-3.364 1.996-2.455 2.32-6.716 2.32-15.958 0-9.278-.353-13.006-2.328-15.438-1.917-2.314-4.407-3.352-8.066-3.352h-7.83v38.11zm63.963-21.493H68.053v-19.524h13.033c6.113 0 10.382 4.015 10.382 9.762 0 5.747-4.27 9.762-10.382 9.762zM70.96 229.97h10.126c4.542 0 7.476-2.69 7.476-6.855s-2.934-6.855-7.476-6.855H70.96v13.71z"/></svg><svg width="346" height="22" viewBox="-0.259 0 346 22" enable-background="new -0.259 0 346 22" id="h4c_logo_dre_small" x="1779" y="848"><path fill="#fff" d="M142.046 3.994h-3.952V9.67h3.952c1.845 0 3.05-1.178 3.05-2.836.002-1.66-1.205-2.84-3.05-2.84m3.263 17.754l-4.197-8.574h-3.02v8.574h-4.196V.25h8.423c4.377 0 6.975 2.99 6.975 6.584 0 3.018-1.84 4.89-3.925 5.644l4.8 9.27h-4.86zM90.957.252l-3.955 8.666L82.985.252H78.43l6.46 12.682v8.814h4.167v-8.814L95.517.252zM106.77 4.96c-.604-.692-1.542-1.145-2.688-1.145-1.147 0-2.113.453-2.718 1.146-.813.907-1.026 1.904-1.026 6.04 0 4.137.213 5.134 1.026 6.038.604.695 1.57 1.148 2.718 1.148 1.146 0 2.083-.453 2.688-1.148.813-.904 1.056-1.9 1.056-6.038 0-4.136-.243-5.133-1.056-6.04m3.11 14.615c-1.513 1.51-3.352 2.354-5.798 2.354-2.445 0-4.316-.846-5.828-2.355-2.173-2.174-2.112-4.86-2.112-8.575 0-3.714-.06-6.4 2.112-8.574C99.766.916 101.638.07 104.084.07c2.445 0 4.284.85 5.795 2.357 2.173 2.174 2.142 4.86 2.142 8.575-.002 3.712.03 6.4-2.143 8.573M123.178 21.84c-4.408 0-7.91-2.988-7.91-7.548V.162h4.2V14.14c0 2.478 1.446 3.954 3.71 3.954 2.267 0 3.744-1.48 3.744-3.954V.16h4.167v14.132c0 4.558-3.503 7.547-7.912 7.547"/><path fill="#fff" d="M213.16 12.932v8.816h-4.167v-8.816l-6.46-12.68h4.56l4.014 8.665L215.062.25h4.56zM168.03 21.93c-2.354 0-4.287-.846-5.796-2.355-2.174-2.174-2.113-4.86-2.113-8.574 0-3.714-.06-6.4 2.114-8.574 1.51-1.51 3.44-2.354 5.797-2.354 4.017 0 7.155 2.295 7.91 6.794h-4.257c-.424-1.72-1.51-3.05-3.623-3.05-1.146 0-2.082.422-2.687 1.118-.815.905-1.058 1.932-1.058 6.07 0 4.135.242 5.163 1.058 6.067.604.696 1.54 1.118 2.687 1.118 2.113 0 3.2-1.33 3.623-3.05h4.256c-.754 4.497-3.924 6.792-7.91 6.792"/><path fill="#fff" d="M178.486.252h4.197v21.496h-4.197zM195.305 3.995v17.753h-4.2V3.995h-5.615V.25h15.43v3.745z"/><path fill="#2F3536" d="M12.254 9.52V1.08h3.227v19.837h-3.226v-8.64h-7.79v8.64H1.24V1.08h3.224v8.44h7.79zM11.45.276v8.437H5.27V.277H.435v21.445H5.27v-8.64h6.182v8.64H16.286V.277H11.45z"/><path fill="#fff" d="M28.2.68h-3.16l-7.888 20.64h4.583l1.32-2.966 7.104-.025 1.052 2.99h4.526L28.2.68zm.87 14.12l-5.287-.014 2.662-7.266 2.625 7.28z"/><path fill="#2F3536" d="M43.332 21.495v-.402c-2.164-.004-3.896-.766-5.278-2.143-.93-.934-1.397-1.94-1.646-3.146-.25-1.206-.266-2.61-.266-4.248v-1.108c0-1.638.015-3.04.265-4.247.25-1.206.717-2.213 1.646-3.145C39.436 1.677 41.168.913 43.33.91c1.855 0 3.474.526 4.72 1.55 1.242 1.024 2.132 2.557 2.48 4.64l.398-.067v-.406H46.84v.403l.392-.097c-.215-.88-.608-1.688-1.247-2.283-.64-.597-1.524-.955-2.62-.953-1.2 0-2.225.45-2.887 1.21l.305.266-.302-.27c-.21.238-.4.5-.55.815-.227.475-.364 1.056-.45 1.88-.083.827-.115 1.904-.115 3.4 0 1.994.056 3.248.22 4.15.083.45.193.814.346 1.132.15.314.34.577.552.814l.302-.27-.305.265c.66.763 1.685 1.212 2.885 1.21 1.096.003 1.982-.355 2.62-.953.64-.596 1.032-1.403 1.248-2.283l-.39-.096v.402h4.087v-.4l-.398-.065c-.35 2.08-1.243 3.61-2.49 4.636s-2.87 1.552-4.708 1.552v.805c1.992 0 3.81-.576 5.22-1.732 1.412-1.156 2.4-2.89 2.775-5.127l.078-.47h-4.88l-.075.308c-.19.773-.522 1.43-1.015 1.886-.49.452-1.145.733-2.073.735-1.005 0-1.78-.362-2.278-.934l-.004-.004v-.003c-.176-.196-.31-.385-.423-.623-.17-.354-.295-.84-.374-1.616-.08-.774-.114-1.835-.114-3.317 0-1.978.06-3.204.208-4.004.074-.4.167-.693.28-.93.113-.238.246-.426.422-.624l.005-.004c.498-.57 1.273-.933 2.28-.935.926.003 1.58.283 2.07.737.493.453.826 1.11 1.017 1.884l.075.308h4.88l-.08-.47c-.374-2.237-1.354-3.97-2.765-5.127C47.155.678 45.338.102 43.335.102 40.98.1 39 .962 37.486 2.482c-1.048 1.045-1.598 2.237-1.867 3.555-.27 1.318-.28 2.767-.28 4.41v1.108c0 1.643.01 3.092.28 4.41.27 1.317.818 2.51 1.866 3.555 1.515 1.52 3.493 2.38 5.85 2.378l-.002-.403zM65.47 1.08h3.847l-6.473 7.764 7.12 12.075h-3.757l-5.476-9.697-3.133 3.75v5.946H54.37V1.08h3.227v9.724L65.47 1.08zm-.385-.803L58.402 8.53V.277h-4.836v21.445h4.836v-6.46l2.2-2.63 5.134 9.09H71.37L63.826 8.924l7.21-8.646h-5.95zM285.77 21.93c-3.525 0-5.872-.855-7.846-2.857l-.33-.334 3.268-3.27.335.335c1.073 1.072 2.588 1.594 4.632 1.594 2.1 0 3.164-.696 3.164-2.067 0-.62-.163-1.086-.484-1.387-.296-.273-.647-.46-1.567-.6l-2.48-.346c-1.872-.275-3.26-.875-4.25-1.832-1.09-1.09-1.616-2.523-1.616-4.385 0-4.015 3.07-6.713 7.638-6.713 3.013 0 5.163.78 6.972 2.53l.35.338-3.215 3.18-.334-.32c-1.184-1.13-2.63-1.283-3.89-1.283-1.666 0-2.7.814-2.7 2.124 0 .26.058.756.454 1.125.37.343.97.593 1.647.686l2.428.348c1.908.264 3.2.792 4.185 1.712 1.154 1.094 1.74 2.677 1.74 4.706-.002 4.014-3.257 6.714-8.102 6.714zm-6.83-3.196c1.712 1.568 3.787 2.244 6.83 2.244 4.345 0 7.15-2.262 7.15-5.764 0-1.758-.484-3.11-1.44-4.015-.83-.776-1.96-1.23-3.665-1.464l-2.43-.347c-.876-.122-1.645-.452-2.16-.932-.49-.457-.76-1.103-.76-1.82 0-1.42.957-3.075 3.652-3.075 1.254 0 2.835.15 4.197 1.242l1.873-1.852c-1.56-1.353-3.37-1.936-5.954-1.936-4.062 0-6.688 2.263-6.688 5.764 0 1.6.437 2.81 1.334 3.71.834.808 2.052 1.322 3.718 1.568l2.48.346c1.02.154 1.58.383 2.077.844.516.482.787 1.2.787 2.082 0 1.916-1.5 3.016-4.114 3.016-2.103 0-3.73-.508-4.954-1.55l-1.935 1.938zm66.54 3.022h-4.313l-7.41-11.484v11.484h-4.965V.243h4.314l7.41 11.46V.243h4.965v21.513zm-3.795-.95h2.848V1.194h-3.064v13.725l-8.88-13.725h-2.85v19.613h3.066V7.05l8.88 13.757zm-14.427.95h-14.494V.243h14.494v4.53h-9.53V8.65h8.115v4.53h-8.115v4.046h9.53v4.532zm-13.545-.95h12.596v-2.632h-9.53V12.23h8.114V9.597h-8.115V3.825h9.53V1.193h-12.597v19.614zm-10.64.95h-7.897V.243h7.896c2.396 0 4.39.728 5.766 2.104 2.257 2.257 2.24 4.947 2.222 7.797-.002.255-.003.51-.003.77 0 .258 0 .515.003.77.018 2.808.036 5.712-2.222 7.97-1.376 1.375-3.37 2.102-5.766 2.102zm-6.948-.95h6.947c2.14 0 3.9-.63 5.095-1.825 1.977-1.976 1.96-4.558 1.943-7.29-.002-.258-.004-.517-.004-.776 0-.26.002-.52.004-.775.018-2.76.032-5.145-1.943-7.12-1.194-1.194-2.956-1.825-5.095-1.825h-6.947v19.612zm-19.302.95h-14.495V.243h14.495v4.53h-9.53V8.65h8.115v4.53h-8.115v4.046h9.53v4.532zm-13.545-.95h12.596v-2.632h-9.53V12.23h8.114V9.597h-8.115V3.825h9.53V1.193H263.28v19.614zm-1.572.95h-5.726l-4.015-8.203h-2.117v8.203h-4.964V.243h8.532c4.208 0 7.146 2.784 7.146 6.77 0 2.556-1.323 4.63-3.568 5.645l4.712 9.098zm-5.133-.95h3.572l-4.48-8.653.508-.184c2.154-.78 3.44-2.634 3.44-4.955 0-3.428-2.548-5.82-6.196-5.82h-7.583v19.612h3.065v-8.203h3.658l4.015 8.203zm-21.38.95h-7.896V.243h7.896c2.396 0 4.39.728 5.766 2.104 2.256 2.257 2.238 4.947 2.22 7.797l-.002.77c0 .258 0 .515.003.77.02 2.808.036 5.712-2.22 7.97-1.377 1.375-3.37 2.102-5.767 2.102zm-6.947-.95h6.947c2.14 0 3.9-.63 5.095-1.825 1.977-1.976 1.96-4.558 1.943-7.29 0-.258-.003-.517-.003-.776 0-.26.002-.52.004-.775.02-2.76.033-5.145-1.942-7.12-1.194-1.194-2.956-1.825-5.095-1.825h-6.947v19.612zm74.45-2.632h-3.507V3.824h3.507c1.483 0 2.555.46 3.37 1.443.883 1.088.975 2.556.975 5.646 0 3.257-.136 4.784-.973 5.815-.82.99-1.89 1.446-3.373 1.446zm-2.556-.95h2.558c1.195 0 2.01-.337 2.638-1.097.652-.803.758-2.195.758-5.214 0-3.03-.115-4.25-.76-5.044-.627-.757-1.44-1.096-2.636-1.096h-2.558v12.45zm-65.322.95h-3.508V3.824h3.508c1.484 0 2.555.46 3.37 1.443.883 1.088.975 2.555.975 5.646 0 3.257-.136 4.784-.973 5.815-.817.99-1.888 1.446-3.372 1.446zm-2.557-.95h2.56c1.194 0 2.008-.337 2.637-1.097.65-.803.758-2.195.758-5.214 0-3.03-.115-4.25-.76-5.044-.627-.757-1.44-1.096-2.636-1.096h-2.56v12.45zm20.897-7.02H248.9v-6.38h4.257c1.997 0 3.392 1.313 3.392 3.19s-1.396 3.19-3.393 3.19zm-3.308-.95h3.308c1.483 0 2.442-.88 2.442-2.24 0-1.36-.96-2.24-2.442-2.24h-3.31v4.48z"/></svg><svg width="474" height="268" viewBox="-0.266 0 474 268" enable-background="new -0.266 0 474 268" id="h4c_logo_kar_big" x="2125" y="870"><path fill="#fff" d="M182.844 79.798H171.54v16.225h11.304c5.264 0 8.713-3.367 8.713-8.11 0-4.748-3.45-8.115-8.713-8.115m9.32 50.74L180.17 106.03h-8.627v24.505h-11.996V69.1h24.076c12.508 0 19.932 8.544 19.932 18.813 0 8.626-5.264 13.977-11.22 16.135l13.724 26.49h-13.896zM153.057 172.45v25.194H141.15V172.45l-18.466-36.242h13.03l11.477 24.764 11.304-24.764h13.03zM36.833 69.1L25.528 93.867 14.048 69.1H1.023l18.464 36.24v25.195h11.91V105.34L49.863 69.1zM82.022 82.56c-1.727-1.983-4.403-3.278-7.68-3.278-3.28 0-6.042 1.295-7.768 3.28-2.328 2.588-2.933 5.437-2.933 17.255 0 11.822.605 14.672 2.934 17.258 1.727 1.986 4.488 3.28 7.767 3.28 3.278 0 5.955-1.294 7.682-3.28 2.33-2.586 3.02-5.437 3.02-17.258 0-11.818-.69-14.667-3.02-17.256m8.887 41.765c-4.317 4.313-9.58 6.73-16.568 6.73-6.99 0-12.34-2.416-16.652-6.73-6.212-6.213-6.042-13.895-6.042-24.508 0-10.61-.17-18.29 6.042-24.504 4.313-4.312 9.664-6.73 16.652-6.73 6.99 0 12.25 2.418 16.567 6.73 6.21 6.214 6.123 13.894 6.123 24.504 0 10.614.087 18.295-6.124 24.508M128.92 131.054c-12.6 0-22.606-8.542-22.606-21.57V69.1h11.993v39.952c0 7.076 4.14 11.303 10.613 11.303 6.47 0 10.697-4.228 10.697-11.303v-39.95h11.908v40.38c0 13.03-10.01 21.572-22.605 21.572M24.078 198.16c-6.728 0-12.25-2.417-16.566-6.73-6.21-6.212-6.04-13.89-6.04-24.505 0-10.61-.172-18.293 6.04-24.506 4.315-4.315 9.84-6.73 16.566-6.73 11.48 0 20.453 6.558 22.61 19.417H34.52c-1.208-4.92-4.313-8.72-10.354-8.72-3.28 0-5.953 1.208-7.678 3.196-2.33 2.586-3.02 5.523-3.02 17.342 0 11.822.69 14.756 3.02 17.346 1.726 1.985 4.398 3.192 7.678 3.192 6.04 0 9.146-3.797 10.355-8.715h12.167c-2.156 12.856-11.216 19.414-22.61 19.414"/><path fill="#fff" d="M53.964 136.206H65.96v61.438H53.963zM102.023 146.907v50.737H90.028v-50.737h-16.05v-10.7h44.098v10.7z"/><path fill="#2F3536" d="M36.063 28.377V3.147h9.642v59.317h-9.642V36.632H12.765v25.833h-9.64V3.148h9.64v25.23h23.298zM33.657.742v25.226H15.172V.742H.715v64.13H15.17V39.04h18.487v25.833h14.458V.743H33.657z"/><path fill="#fff" d="M83.743 2.064h-9.448l-23.588 61.72H64.41l3.948-8.87 21.237-.078 3.15 8.948h13.535L83.743 2.064zm2.6 42.224L70.53 44.25l7.965-21.728 7.85 21.766z"/><path fill="#2F3536" d="M94.12 54.892l.16.022h-2.336v6.418H84.44v-8.754H59.424v-8.11L74.555 3.95h9.737L68.794 45.455H84.44v-11.53h7.504v11.53h4.125v7.123h-4.126v1.204l.033 1.17H94.3l4.18.035v-11.94h-4.126V31.52H82.03v11.528h-9.765L87.762 1.54h-14.88L57.02 44.033v10.954H82.03v8.754h12.324l-.025-8.848"/><path fill="#2F3536" d="M128.993 64.188v-1.204c-6.47-.01-11.655-2.287-15.792-6.407-2.778-2.792-4.173-5.804-4.922-9.414-.746-3.605-.796-7.802-.793-12.704v-3.31c-.002-4.898.046-9.094.793-12.7.75-3.61 2.144-6.622 4.923-9.413 4.138-4.122 9.322-6.4 15.793-6.41 5.54.004 10.384 1.577 14.103 4.637 3.72 3.062 6.375 7.64 7.424 13.866l1.188-.198v-1.206h-12.223v1.206l1.168-.29c-.645-2.63-1.816-5.044-3.73-6.825-1.906-1.786-4.558-2.854-7.838-2.846-3.586-.005-6.646 1.34-8.625 3.62l.908.792-.894-.807c-.642.712-1.207 1.493-1.654 2.438-.673 1.422-1.086 3.158-1.342 5.624-.25 2.47-.35 5.7-.35 10.168.005 5.963.17 9.713.66 12.41.245 1.346.58 2.44 1.03 3.385.447.944 1.014 1.726 1.654 2.438l.894-.805-.91.79c1.982 2.283 5.042 3.626 8.628 3.622 3.28.01 5.93-1.062 7.838-2.847 1.914-1.78 3.084-4.198 3.73-6.827l-1.17-.286v1.204h12.225v-1.204l-1.188-.2c-1.05 6.223-3.723 10.8-7.455 13.866-3.732 3.06-8.575 4.632-14.07 4.634v2.409c5.95 0 11.38-1.72 15.598-5.183 4.226-3.458 7.187-8.633 8.302-15.328l.235-1.403h-14.588l-.226.918c-.57 2.313-1.563 4.275-3.032 5.636-1.47 1.356-3.42 2.193-6.2 2.203-3.003-.003-5.32-1.087-6.81-2.793l-.014-.013c-.53-.59-.928-1.152-1.27-1.865-.505-1.06-.88-2.51-1.12-4.833-.237-2.32-.335-5.49-.335-9.925 0-5.912.178-9.578.622-11.972.218-1.2.496-2.072.834-2.782.342-.71.74-1.273 1.27-1.862l.015-.015c1.487-1.705 3.804-2.787 6.81-2.792 2.78.01 4.73.845 6.2 2.203 1.466 1.358 2.462 3.32 3.03 5.635l.227.918h14.588l-.233-1.4c-1.116-6.693-4.058-11.87-8.267-15.33-4.21-3.465-9.644-5.187-15.636-5.184C121.946.212 116.03 2.792 111.5 7.34c-3.134 3.123-4.774 6.687-5.58 10.627-.81 3.944-.837 8.273-.837 13.186-.004.546 0 1.096 0 1.654 0 .56-.004 1.11-.004 1.655.003 4.913.03 9.244.84 13.19.806 3.937 2.446 7.502 5.58 10.628 4.53 4.545 10.446 7.123 17.494 7.113v-1.205zM195.18 3.148h11.505L187.332 26.36l21.29 36.105H197.39l-16.372-28.992-9.372 11.207v17.785h-9.642V3.148h9.642v29.07l23.534-29.07zM194.034.742l-19.98 24.678V.742h-14.46v64.13h14.46V45.557l6.577-7.868 15.355 27.186H212.838L190.265 26.6 211.826.744h-17.792V.742zM346.904 268c-14.232 0-24.56-9.88-24.56-23.495v-42.878h14.888v42.434c0 6.503 3.615 10.385 9.672 10.385 6.11 0 9.76-3.882 9.76-10.384v-42.433h14.8v42.878c0 13.614-10.327 23.495-24.56 23.495zm-22.03-63.843v40.348c0 6.108 2.202 11.37 6.372 15.22 4.012 3.705 9.572 5.745 15.658 5.745s11.646-2.04 15.658-5.744c4.17-3.85 6.373-9.112 6.373-15.22v-40.35h-9.74v39.904c0 7.845-4.824 12.913-12.29 12.913-7.413 0-12.202-5.068-12.202-12.913v-39.903h-9.83zM242.11 268c-10.798 0-17.98-2.612-24.02-8.735l-.882-.895 9.785-9.785.895.895c3.342 3.34 8.053 4.965 14.4 4.965 6.594 0 9.938-2.208 9.938-6.56 0-1.35-.27-3.212-1.553-4.41-.938-.87-2.045-1.46-4.93-1.897l-7.63-1.065c-5.724-.844-9.966-2.672-12.978-5.59-3.314-3.314-4.92-7.68-4.92-13.357 0-5.986 2.184-11.098 6.314-14.78 4.173-3.724 10.052-5.69 17-5.69 9.222 0 15.8 2.386 21.33 7.736l.93.9-9.616 9.508-.89-.85c-3.694-3.53-8.194-4.006-12.108-4.006-5.252 0-8.516 2.582-8.516 6.737 0 .838.19 2.42 1.465 3.61 1.162 1.08 3.05 1.868 5.18 2.162l7.475 1.067c5.834.808 9.775 2.417 12.777 5.217 3.514 3.33 5.29 8.156 5.29 14.352.003 12.243-9.94 20.47-24.736 20.47zm-21.317-9.636c5.342 4.97 11.803 7.105 21.318 7.105 6.337 0 11.993-1.683 15.93-4.737 4.108-3.187 6.28-7.753 6.28-13.205 0-5.474-1.514-9.682-4.496-12.508-2.588-2.416-6.105-3.823-11.396-4.556l-7.475-1.067c-2.662-.368-4.99-1.368-6.55-2.815-1.466-1.368-2.27-3.307-2.27-5.462 0-4.275 2.893-9.268 11.045-9.268 4.107 0 8.807.484 12.936 3.89l6.04-5.973c-4.872-4.297-10.524-6.147-18.62-6.147-12.627 0-20.785 7.042-20.785 17.94 0 4.974 1.36 8.752 4.163 11.554 2.604 2.523 6.39 4.127 11.56 4.89l7.638 1.065c3.09.468 4.792 1.158 6.288 2.55 1.545 1.44 2.36 3.606 2.36 6.26 0 3.397-1.62 9.09-12.468 9.09-6.504 0-11.512-1.585-15.262-4.84l-6.235 6.232zm252.838 9.103H429.4v-65.84h44.23v13.556h-29.34v12.32h24.985v13.555H444.29v12.853h29.34v13.557zm-41.7-2.53h39.172v-8.496h-29.344V238.53h24.986v-8.495h-24.986v-17.38h29.344v-8.495H431.93v60.78zm-6.758 2.53h-14.89V240.97h-18.9v26.497h-14.888v-65.84h14.89v25.875h18.9v-25.875h14.888v65.84zm-12.36-2.53h9.828v-60.78h-9.828v25.876h-23.96v-25.875h-9.83v60.78h9.83v-26.5h23.96v26.5zm-90.146 2.53H305.48l-12.36-25.253h-6.837v25.253h-14.89v-65.84h26.073c6.48 0 12.014 2.107 16 6.095 3.744 3.744 5.805 8.913 5.805 14.555 0 7.854-4.104 14.218-11.06 17.282l14.456 27.907zm-15.607-2.53h11.446l-13.844-26.73 1.355-.492c6.715-2.434 10.725-8.204 10.725-15.438 0-10.668-7.926-18.12-19.275-18.12h-23.543v60.78h9.83v-25.253H294.7l12.36 25.253zm-92.048 2.53h-43.61v-65.84h14.89v52.283h28.72v13.557zm-41.08-2.53h38.55v-8.496h-28.72V204.16h-9.83v60.78zm-4.963 2.53h-17.187l-12.36-25.253h-6.837v25.253h-14.89v-65.84h26.073c6.48 0 12.01 2.107 16 6.095 3.743 3.744 5.804 8.913 5.804 14.555 0 7.854-4.105 14.218-11.06 17.282l14.455 27.907zm-15.61-2.53h11.448l-13.844-26.73 1.355-.492c6.714-2.434 10.724-8.204 10.724-15.438 0-10.668-7.926-18.12-19.275-18.12h-23.543v60.78h9.83v-25.253H141l12.36 25.253zm-37.745 2.53h-15.613l-3.734-11.204h-20.68l-3.823 11.204H39.177l-15.735-27.86-6.713 8.025v19.835H1.84v-65.84h14.89v25.257l20.45-25.257h18.33L33.368 228.18l22.936 38.892 23.806-65.444H91.57l.304.83 23.74 65.01zm-13.79-2.53h10.173l-22.195-60.78h-7.92l-22.11 60.78h10.182l3.823-11.204H98.09l3.735 11.204zm-61.17 0h11.45L30.283 227.93l19.825-23.772H38.385L14.198 234.03v-29.872H4.37v60.78h9.83v-18.224l9.647-11.535 16.808 29.757zm54.993-19.078H76.37l9.803-28.208 9.475 28.207zm-15.72-2.53h12.2l-5.996-17.853-6.203 17.852zm216.74-11.43h-12.914V212.65h12.914c6.03 0 10.244 3.958 10.244 9.624s-4.213 9.623-10.244 9.623zm-10.385-2.53h10.385c4.613 0 7.715-2.852 7.715-7.094 0-4.243-3.102-7.094-7.715-7.094h-10.385v14.187zM142.97 231.9h-12.914V212.65h12.913c6.032 0 10.245 3.958 10.245 9.624s-4.213 9.623-10.246 9.623zm-10.384-2.53h10.382c4.615 0 7.717-2.852 7.717-7.094 0-4.243-3.102-7.094-7.717-7.094h-10.382v14.187z"/></svg><svg width="382" height="22" viewBox="-0.411 0 382 22" enable-background="new -0.411 0 382 22" id="h4c_logo_kar_small" x="2599" y="1138"><path fill="#fff" d="M142.046 3.994h-3.952V9.67h3.952c1.845 0 3.05-1.177 3.05-2.835.002-1.66-1.205-2.84-3.05-2.84m3.263 17.753l-4.197-8.574h-3.02v8.574h-4.196V.252h8.423c4.377 0 6.975 2.988 6.975 6.583 0 3.018-1.84 4.89-3.925 5.644l4.8 9.27h-4.86v-.002zM90.957.252l-3.955 8.666L82.985.252H78.43l6.46 12.682v8.814h4.167v-8.814L95.517.252zM106.77 4.96c-.604-.692-1.542-1.145-2.688-1.145-1.147 0-2.113.453-2.718 1.146-.813.907-1.026 1.904-1.026 6.04 0 4.137.213 5.134 1.026 6.038.604.695 1.57 1.148 2.718 1.148 1.146 0 2.083-.453 2.688-1.148.813-.904 1.056-1.9 1.056-6.038 0-4.136-.243-5.133-1.056-6.04m3.11 14.615c-1.513 1.51-3.352 2.354-5.798 2.354-2.445 0-4.316-.846-5.828-2.355-2.173-2.174-2.112-4.86-2.112-8.575 0-3.714-.06-6.4 2.112-8.574C99.766.916 101.638.07 104.084.07c2.445 0 4.284.85 5.795 2.357 2.173 2.174 2.142 4.86 2.142 8.575-.002 3.712.03 6.4-2.143 8.573M123.178 21.84c-4.408 0-7.91-2.988-7.91-7.548V.162h4.2V14.14c0 2.478 1.446 3.954 3.71 3.954 2.267 0 3.744-1.48 3.744-3.954V.16h4.167v14.132c0 4.558-3.503 7.547-7.912 7.547"/><path fill="#fff" d="M213.16 12.932v8.816h-4.167v-8.816l-6.46-12.68h4.56l4.014 8.666 3.955-8.666h4.56zM168.03 21.93c-2.354 0-4.287-.846-5.796-2.355-2.174-2.174-2.113-4.86-2.113-8.574s-.06-6.4 2.114-8.574c1.51-1.51 3.44-2.354 5.797-2.354 4.017 0 7.155 2.295 7.91 6.794h-4.257c-.424-1.72-1.51-3.05-3.623-3.05-1.146 0-2.082.422-2.687 1.118-.815.905-1.058 1.932-1.058 6.07 0 4.136.242 5.163 1.058 6.067.604.696 1.54 1.118 2.687 1.118 2.113 0 3.2-1.33 3.623-3.05h4.256c-.754 4.497-3.924 6.792-7.91 6.792"/><path fill="#fff" d="M178.486.252h4.197v21.496h-4.197zM195.305 3.995v17.753h-4.2V3.995h-5.615V.252h15.43v3.743z"/><path fill="#2F3536" d="M12.254 9.52V1.08h3.227v19.837h-3.226v-8.64h-7.79v8.64H1.24V1.08h3.224v8.44h7.79zM11.45.276v8.437H5.27V.277H.435v21.445H5.27v-8.64h6.182v8.64H16.286V.277H11.45z"/><path fill="#fff" d="M28.2.68h-3.16l-7.888 20.64h4.583l1.32-2.966 7.104-.025 1.052 2.99h4.526L28.2.68zm.87 14.12l-5.287-.014 2.662-7.266 2.625 7.28z"/><path fill="#2F3536" d="M43.332 21.495v-.402c-2.164-.004-3.896-.766-5.278-2.143-.93-.934-1.397-1.94-1.646-3.146-.25-1.206-.266-2.61-.266-4.248v-1.108c0-1.638.015-3.04.265-4.247.25-1.206.717-2.213 1.646-3.145C39.436 1.677 41.168.913 43.33.91c1.855 0 3.474.526 4.72 1.55 1.242 1.024 2.132 2.557 2.48 4.64l.398-.067v-.406H46.84v.403l.392-.097c-.215-.88-.608-1.688-1.247-2.283-.64-.597-1.524-.955-2.62-.953-1.2 0-2.225.45-2.887 1.21l.305.266-.302-.27c-.21.238-.4.5-.55.815-.227.475-.364 1.056-.45 1.88-.083.827-.115 1.904-.115 3.4 0 1.994.056 3.248.22 4.15.083.45.193.814.346 1.132.15.314.34.577.552.814l.302-.27-.305.265c.66.763 1.685 1.212 2.885 1.21 1.096.003 1.982-.355 2.62-.953.64-.596 1.032-1.403 1.248-2.283l-.39-.096v.402h4.087v-.4l-.398-.065c-.35 2.08-1.243 3.61-2.49 4.636s-2.87 1.552-4.708 1.552v.805c1.992 0 3.81-.576 5.22-1.732 1.412-1.156 2.4-2.89 2.775-5.127l.078-.47h-4.88l-.075.308c-.19.773-.522 1.43-1.015 1.886-.49.452-1.145.733-2.073.735-1.005 0-1.78-.362-2.278-.934l-.004-.004v-.003c-.176-.196-.31-.385-.423-.623-.17-.354-.295-.84-.374-1.616-.08-.774-.114-1.835-.114-3.317 0-1.978.06-3.204.208-4.004.074-.4.167-.693.28-.93.113-.238.246-.426.422-.624l.005-.004c.498-.57 1.273-.933 2.28-.935.926.003 1.58.283 2.07.737.493.453.826 1.11 1.017 1.884l.075.308h4.88l-.08-.47c-.374-2.237-1.354-3.97-2.765-5.127C47.155.678 45.338.102 43.335.102 40.98.1 39 .962 37.486 2.482c-1.048 1.045-1.598 2.237-1.867 3.555-.27 1.318-.28 2.767-.28 4.41v1.108c0 1.643.01 3.092.28 4.41.27 1.317.818 2.51 1.866 3.555 1.515 1.52 3.493 2.38 5.85 2.378l-.002-.403zM65.47 1.08h3.847l-6.473 7.764 7.12 12.075h-3.757l-5.476-9.697-3.133 3.75v5.946H54.37V1.08h3.227v9.724L65.47 1.08zm-.385-.803L58.402 8.53V.277h-4.836v21.445h4.836v-6.46l2.2-2.63 5.134 9.09H71.37L63.826 8.924l7.21-8.646h-5.95zM340.033 21.93c-4.65 0-8.023-3.23-8.023-7.677V.243h4.864V14.11c0 2.124 1.18 3.393 3.16 3.393 1.996 0 3.188-1.268 3.188-3.392V.244h4.835v14.01c0 4.447-3.373 7.676-8.024 7.676zm-7.197-20.86v13.183c0 1.996.72 3.716 2.082 4.973 1.31 1.21 3.127 1.877 5.115 1.877 1.99 0 3.806-.666 5.116-1.877 1.36-1.257 2.08-2.977 2.08-4.973V1.07h-3.182V14.11c0 2.562-1.575 4.22-4.016 4.22-2.42 0-3.985-1.657-3.985-4.22V1.07h-3.21zm-27.04 20.86c-3.527 0-5.874-.854-7.847-2.854l-.29-.292 3.197-3.197.293.293c1.092 1.09 2.63 1.622 4.704 1.622 2.154 0 3.247-.722 3.247-2.144 0-.44-.087-1.05-.507-1.44-.306-.284-.668-.478-1.61-.62l-2.493-.35c-1.87-.274-3.256-.872-4.24-1.825-1.082-1.083-1.606-2.51-1.606-4.363 0-1.956.713-3.626 2.062-4.83C302.07.714 303.99.072 306.262.072c3.012 0 5.16.78 6.97 2.527l.303.293L310.392 6l-.29-.278c-1.207-1.153-2.678-1.31-3.956-1.31-1.716 0-2.782.845-2.782 2.202 0 .273.062.79.48 1.18.38.353.995.61 1.69.706l2.442.35c1.906.263 3.194.79 4.175 1.703 1.148 1.09 1.73 2.665 1.73 4.69 0 3.998-3.25 6.687-8.083 6.687zm-6.964-3.15c1.745 1.624 3.855 2.322 6.965 2.322 2.07 0 3.918-.55 5.204-1.547 1.343-1.04 2.053-2.533 2.053-4.314 0-1.787-.495-3.162-1.47-4.086-.845-.79-1.994-1.25-3.723-1.488l-2.442-.35c-.87-.12-1.63-.446-2.14-.92-.48-.446-.74-1.08-.74-1.783 0-1.396.943-3.028 3.607-3.028 1.342 0 2.877.158 4.226 1.27l1.975-1.95C310.753 1.5 308.907.896 306.262.896c-4.126 0-6.79 2.3-6.79 5.86 0 1.625.443 2.86 1.36 3.775.85.824 2.087 1.35 3.775 1.598l2.495.348c1.01.153 1.565.38 2.055.833.505.472.77 1.18.77 2.047 0 1.11-.53 2.97-4.073 2.97-2.125 0-3.76-.52-4.986-1.582l-2.036 2.036zm82.605 2.975h-14.45V.245h14.45v4.428h-9.586v4.025h8.164v4.43h-8.163v4.198h9.587v4.43zm-13.625-.826h12.798v-2.777h-9.587V12.3h8.163V9.524h-8.163V3.847h9.587V1.07h-12.798v19.86zm-2.208.825h-4.864v-8.657h-6.175v8.657H349.7V.245h4.865v8.453h6.175V.244h4.864v21.51zm-4.038-.826h3.21V1.07h-3.21v8.454h-7.827V1.07h-3.213V20.93h3.212V12.27h7.826v8.66zm-29.45.825H326.5l-4.038-8.25h-2.233v8.25h-4.865V.245h8.518c2.117 0 3.925.687 5.228 1.99 1.225 1.224 1.897 2.912 1.897 4.756 0 2.566-1.342 4.646-3.613 5.647l4.72 9.118zm-5.1-.826h3.74l-4.523-8.734.443-.16c2.193-.796 3.504-2.68 3.504-5.044 0-3.485-2.59-5.92-6.298-5.92h-7.69V20.93h3.21v-8.252h3.576l4.038 8.25zm-30.073.825h-14.248V.245h4.864v17.08h9.383v4.43zm-13.422-.826h12.596v-2.777h-9.383V1.07h-3.212v19.86zm-1.62.825h-5.615l-4.038-8.25h-2.233v8.25h-4.864V.245h8.518c2.117 0 3.925.687 5.228 1.99 1.224 1.224 1.896 2.912 1.896 4.756 0 2.566-1.34 4.646-3.613 5.647l4.72 9.118zm-5.1-.826h3.74l-4.52-8.734.44-.16c2.195-.796 3.505-2.68 3.505-5.044 0-3.485-2.59-5.92-6.298-5.92h-7.69V20.93h3.21v-8.252h3.576l4.038 8.25zm-12.33.825h-5.102l-1.22-3.66h-6.757l-1.248 3.66h-10.646l-5.14-9.103-2.194 2.622v6.48h-4.865V.244h4.865v8.252l6.68-8.252h5.99l-7.234 8.676 7.493 12.706L252.87.244h3.744l.1.27 7.755 21.24zm-4.506-.826h3.323l-7.25-19.858h-2.59l-7.223 19.857h3.326l1.25-3.662h7.942l1.222 3.66zm-19.985 0h3.74l-7.13-12.092 6.477-7.767h-3.83l-7.9 9.76V1.07h-3.212V20.93h3.21v-5.954l3.153-3.77 5.49 9.725zm17.965-6.235h-6.298l3.202-9.215 3.095 9.215zm-5.135-.826h3.986l-1.96-5.833-2.026 5.832zm70.81-3.735h-4.22V3.847h4.22c1.972 0 3.348 1.293 3.348 3.145 0 1.85-1.376 3.143-3.347 3.143zm-3.39-.826h3.392c1.507 0 2.52-.933 2.52-2.318 0-1.387-1.013-2.318-2.52-2.318h-3.393V9.31zm-46.825.825h-4.218V3.847h4.218c1.972 0 3.348 1.293 3.348 3.145 0 1.85-1.376 3.143-3.348 3.143zm-3.39-.826h3.39c1.51 0 2.522-.933 2.522-2.318 0-1.387-1.013-2.318-2.52-2.318h-3.393V9.31z"/></svg></svg>